<svg id="Layer_1" enable-background="new 0 0 509.291 509.291" height="512" viewBox="0 0 509.291 509.291" width="512" xmlns="http://www.w3.org/2000/svg"><g><g><g><path d="m164.101 301.432h325.718c1.654-8.483 4.411-25.577 4.411-46.786 0-136.478-110.637-247.116-247.115-247.116-95.096 0-153.677 53.641-153.838 53.731 0 0-2.435 3.04-2.891 5.061-3.7 16.424-7.157 38.437-7.157 54.499 0 71.293 31.418 135.515 80.872 180.611z" fill="#2896ff"/></g><g><g><path d="m173.955 301.432c-52.822-45.321-86.293-112.555-86.293-187.613 0-18.039 1.945-35.616 5.615-52.557-56.831 45.275-93.277 115.074-93.277 193.383 0 15.998 1.539 31.635 4.443 46.786h169.512z" fill="#2477f9"/></g></g></g><path d="m371.013 300.944v141.056l31.741 4.564c42.669-34.611 73.699-83.248 85.854-139.358.052-.318.586-2.528 1.305-6.263h-118.9z" fill="#9dc63d"/><path d="m350.036 402.578c-33.878-33.878-67.756-67.756-101.634-101.634h-244.053c21.676 114.345 122.115 200.816 242.766 200.816 43.53 0 84.629-11.322 120.359-31.283l8.171-42.29c-8.536-8.536-17.072-17.073-25.609-25.609z" fill="#69b76b"/><path d="m402.762 446.574-202.719-145.63h-55.368l-4.491 6.251 227.288 163.28c12.456-6.958 24.264-14.957 35.29-23.901z" fill="#fff"/><g><ellipse cx="247.432" cy="404.985" fill="#57988b" rx="153.909" ry="33.462"/></g><g><g><path d="m244.82 50.689 2.267 18.576 84.521 34.745 60.398-47.741c-24.606-10.983-51.862-17.097-80.549-17.097-23.411 0-45.794 4.052-66.637 11.517z" fill="#c8e6eb"/></g><g><path d="m375.924 424.088-6.005-49.663-85.725-34.797-71.961 57.192 1.586 12.277c50.349 28.58 109.859 32.976 162.105 14.991z" fill="#1a1b1c"/></g><g><g><path d="m343.67 193.317-72.191 56.807 12.997 90.475 84.698 34.407 72.35-56.306-12.35-90.712z" fill="#fff"/></g><g><path d="m247.432 68.999-72.758 56.085 12.552 90.554 84.602 34.481 71.951-55.995-12.261-90.781z" fill="#373c41"/></g></g><g><path d="m428.768 228.304 12.756 90.396 41.464 16.956c16.704-29.017 26.303-62.764 26.303-98.649 0-22.143-3.639-43.435-10.35-63.314z" fill="#373c41"/></g><g><path d="m482.988 335.656-41.464-17.127-72.35 56.477 6.75 49.083c45.386-15.651 83.418-47.464 107.064-88.433z" fill="#b4d7dc"/></g><g><path d="m213.275 396.01-35.401-13.087c10.794 9.838 23.168 18.898 35.946 26.175z" fill="#a5c8cd"/></g><path d="m271.828 250.119-84.698-34.407 97.25 124.961z" fill="#e4f2f6"/><g><path d="m392.006 56.269-60.488 47.074 12.261 90.78 84.989 34.181 70.173-54.611c-17.708-52.456-56.816-95.053-106.935-117.424z" fill="#e4f2f6"/></g><g><path d="m188.107 215.996-13.302-91.013-20.462-8.194c-34.607 45.227-46.89 101.219-37.854 153.899z" fill="#a5c8cd"/></g><g><path d="m242.789 238.323-55.659-22.61-70.64 54.975c3.036 11.672 10.229 65.295 61.384 112.236.005.004-.005-.004 0 0l35.401 13.087 71.201-55.411-10.136-73.124c-11.5-8.536-22.159-18.373-31.551-29.153z" fill="#c8e6eb"/></g><g><path d="m242.789 238.323c-29.887-34.388-48.243-79.374-48.599-128.427l-19.516 15.188 12.456 90.628z" fill="#1a1b1c"/></g><g><path d="m439.021 300.641 2.503 18.059 41.464 16.956c11.685-20.298 19.742-42.792 23.593-65.926-20.064 14.278-42.908 24.902-67.56 30.911z" fill="#1a1b1c"/></g><g><path d="m274.222 267.388 10.254 73.211 84.698 34.407 72.35-56.306-2.721-18.004c-15.003 3.639-30.674 5.57-46.797 5.57-44.076 0-84.898-14.508-117.784-38.878z" fill="#e4f2f6"/></g><g><path d="m154.344 116.788 20.33 8.295 72.759-56.085-2.613-18.31c-36.186 12.928-67.515 36.182-90.476 66.1z" fill="#e4f2f6"/></g></g></g></svg>