<svg id="Layer_1" enable-background="new 0 0 510 510" height="512" viewBox="0 0 510 510" width="512" xmlns="http://www.w3.org/2000/svg"><g><g><path d="m509.908 248.073-254.908-248.073c-98.131 0-158.58 55.352-158.747 55.445 0 0-2.513 3.137-2.983 5.222-3.818 16.948-7.385 39.663-7.385 56.238 0 140.833 118.763 254.972 259.596 254.972 54.231 0 114.568-25.992 154.949-57.243.903-.699 3.769-5.396 3.769-5.396.178-1.087 5.8-23.477 5.8-54.239.001-2.315-.03-4.624-.091-6.926z" fill="#ffd23c"/><path d="m345.459 364.679c-140.833 0-255-114.167-255-255 0-18.615 2.007-36.753 5.795-54.234-58.645 46.72-96.254 118.747-96.254 199.555 0 109.152 68.581 202.287 165.003 238.665l23.918-.888 11.625 11.396c17.546 3.817 35.765 5.827 54.454 5.827 121.17 0 224.116-84.98 249.2-200.761-43.56 34.695-98.725 55.44-158.741 55.44z" fill="#ffc305"/></g><g><g fill="#fa690f"><path d="m221.035 332.315c-.77-.431-1.538-.867-2.303-1.306-.346 1.443-.665 2.894-.957 4.35 1.063-1.053 2.15-2.068 3.26-3.044z"/><path d="m451.794 341.507c-32.366 14.875-68.38 23.172-106.335 23.172-27.117 0-53.246-4.233-77.762-12.074-1.94 2.074-4.445 3.871-7.572 5.244-36.357 15.966-74.075 42.777-83.872 86.75 0 0 32.5-34.939 40.574-10.054 5.411 16.679-24.488 44.295-51.824 59.119 11.476 4.33 23.347 7.855 35.543 10.508 5.37-2.375 10.642-5.544 15.64-9.705 33.6-27.976 91.422-146.588 125.953-93.564 17.69 27.165-19.294 43.65-42.247 53.98-5.128 2.308-10.38 3.979-15.668 5.05-3.032.614-3.556 4.736-.76 6.058 30.357 14.352 66.573 15.818 99.593.957 49.065-22.083 75.918-74.477 68.737-125.441z"/></g><g fill="#ffa50a"><path d="m259.759 295.964s27.775-33.487 64.17-24.509 41.959 38.828 28.58 51.845-44.232 2.419-44.232 2.419 29.98-3 17.253-23.505c-12.726-20.506-65.771-6.25-65.771-6.25z"/><path d="m349.712 365.656c5.849 8.498 14.456 14.454 22.823 18.564 19.88 9.765 22.726 37.183 5.32 50.881-.271.213-.542.424-.814.634-2.352 1.81-.022 5.462 2.598 4.068 39.782-21.168 48.572-52.928 51.796-74.729 1.866-12.621-5.1-17.794-16.649-12.371-31.032 14.571-65.074 12.953-65.074 12.953z"/></g></g><g><path d="m127.691 116.879 19.303 65.848 90.439 23.594 67.442-67.784-26.513-93.601-83.438-15.049c-29.703 22.058-53.192 52.181-67.233 86.992z" fill="#e4f2f6"/><path d="m200.486 358.863c32.63 22.553 72.247 35.805 114.915 35.805 20.411 0 40.254-3.078 58.83-8.701l-20.589-72.219-90.731-21.958z" fill="#c8e6eb"/><path d="m314.451 6.968c-19.074-4.556-38.981-6.968-59.451-6.968-.77 0-1.538.003-2.304.01-20.971 6.834-40.436 17.002-57.773 29.876l79.608 19.336z" fill="#c8e6eb"/><path d="m390.336 159.105-89.706-21.59-63.55 66.893 26.155 88.483 89.706 21.59 64.21-66.734z" fill="#fff"/><path d="m114.608 216.985 35.932-33.405-22.849-66.701c-9.335 23.269-14.575 48.899-14.575 75.505-.001 8.277.526 16.584 1.492 24.601z" fill="#b4d7dc"/><path d="m146.994 182.727-32.386 34.258c7.162 58.699 39.527 109.805 85.878 141.879l62.749-65.973-26.156-88.483z" fill="#1a1b1c"/><path d="m314.397 6.955-39.923 42.078 26.156 88.483 89.706 21.59 61.957-65.674c-34.737-42.369-82.854-73.346-137.896-86.477z" fill="#373c41"/><path d="m509.907 248.073c-1.563-58.627-22.915-112.322-57.619-154.647l-62.314 65.592 26.771 88.631 86.15 20.764c2.683-6.612 5.028-13.399 7.012-20.34z" fill="#e4f2f6"/><path d="m502.895 268.413-86.15-20.764-63.55 66.893 21.035 71.427c58.532-17.79 105.876-61.389 128.665-117.556z" fill="#373c41"/><path d="m245.441 195.607c-28.041-34.719-44.911-78.976-44.911-127.081 0-12.463 1.146-24.655 3.305-36.495l-8.912-2.145c-30.785 22.868-53.719 53.49-67.232 86.992l19.303 65.848 90.086 21.681z" fill="#c8e6eb"/><path d="m394.599 270.632c-60.232-2.407-113.681-31.144-149.159-75.024l-8.361 8.801 26.156 88.483 89.706 21.59z" fill="#e4f2f6"/><path d="m468.149 260.02c-20.496 6.993-42.471 10.791-65.334 10.791-2.652 0-5.288-.067-7.915-.168l-41.959 43.838 21.289 71.488c59.037-17.943 106.08-61.986 128.665-117.555.015-.036-.015.036 0 0z" fill="#1a1b1c"/></g><g><path d="m218.403 312.425c-5.45 1.612-8.977-5.748-4.293-8.966 13.752-9.448 25.141-24.224 21.564-46.804-.027-.172-.055-.344-.083-.514-3.483-21.008-20.358-37.367-41.455-40.26-27.101-3.716-55.611 1.856-80.412 17.828-30.855 19.871-49.43 51.627-53.596 85.41-.33 2.675 2.924 4.189 4.774 2.229 5.555-5.887 11.915-10.681 18.778-14.341 23.972-12.786 43.89 22.373 20.916 36.874-32.05 20.229-63.858 50.414-69.427 92.198-.224 1.684 1.918 2.597 2.975 1.267 7.729-9.717 25.974-29.342 35.038-11.184 9.767 19.567-32.249 64.122-60.238 77.223-2.871 1.344-2.061 5.612 1.102 5.825 17.804 1.195 47.186-.969 67.412-23.696 29.067-32.661 68.611-158.551 110.642-111.251 21.533 24.232-12.59 46.033-33.752 59.662-4.667 3.006-9.546 5.416-14.548 7.252-2.966 1.089-2.874 5.329.153 6.234 32.103 9.603 68.049 5.643 98.43-13.922 55.116-35.495 70.934-110.584 34.847-165.314-.011-.016-.021-.033-.032-.049-1.274-1.931-4.193-1.542-5.004.625-7.419 19.813-25.934 35.436-53.791 43.674z" fill="#fa690f"/><g fill="#ffa50a"><path d="m102.715 279.741c-2.337.842-4.29-1.918-2.729-3.85 8.554-10.58 27.81-29.445 54.857-26.933 37.325 3.467 47.266 32.157 35.971 47.019-7.252 9.542-23.074 10.528-33.473 10.012-2.491-.124-3.211-3.417-1.023-4.614 7.04-3.854 14.24-10.998 4.682-22.238-11.838-13.921-43.573-4.696-58.285.604z"/><path d="m206.287 347.51c4.249 2.398 8.718 4.232 13.073 5.633 21.222 6.828 28.415 33.387 13.141 49.625-4.479 4.762-9.298 8.893-13.625 12.227-1.107.853.012 2.562 1.239 1.894 51.057-27.793 61.634-63.273 61.571-88.04-.032-12.674-14.187-20.244-24.715-13.189-17.182 11.515-36.356 17.362-48.907 20.192-5.632 1.271-6.805 8.82-1.777 11.658z"/><path d="m83.599 392.887c-1.068.978-2.736-.148-2.223-1.502 3.511-9.279 12.351-27.293 29.718-33.633 14.945-5.457 26.683-6.605 33.35-6.704 2.251-.033 3.368 2.717 1.729 4.26-10.517 9.903-36.734 36.491-43.008 60.918-.497 1.937-3.301 1.822-3.636-.149-1.155-6.802-1.404-17.259 3.533-29.436 1.057-2.605-1.63-5.143-4.172-3.94-4.328 2.048-9.967 5.31-15.291 10.186z"/></g></g><path d="m47.925 164.451c-13.814 28.722-12.821 40.091-23.464 43.39-1.441.447-1.486 2.462-.069 2.979 7.271 2.651 21.338 5.155 29.255-10.67 11.004-21.996 33.343-12.652 50.619-21.996 2.95-1.596 5.155-4.264 6.802-7.37 6.87-12.951-.001-28.885-13.842-33.718-14.354-5.013-34.202-4.008-49.301 27.385z" fill="#fa690f"/></g></svg>