<svg id="Layer_1" enable-background="new 0 0 510.152 510.152" height="512" viewBox="0 0 510.152 510.152" width="512" xmlns="http://www.w3.org/2000/svg"><g><g><g><path d="m255.076.152c-98.131 0-158.58 55.352-158.747 55.445 0 0-2.513 3.137-2.983 5.222-3.818 16.948-7.385 39.663-7.385 56.238 0 140.833 118.763 254.972 259.596 254.972 54.231 0 114.568-25.992 154.949-57.243.903-.699 3.769-5.396 3.769-5.396.178-1.087 5.8-23.477 5.8-54.239.001-140.831-114.166-254.999-254.999-254.999z" fill="#afe6ff"/></g><path d="m345.535 364.832c-140.833 0-255-114.167-255-255 0-18.615 2.007-36.753 5.795-54.234-58.645 46.72-96.254 118.746-96.254 199.554 0 43.605 10.945 84.654 30.237 120.549l445.271 7.609c13.157-22.599 22.958-47.454 28.692-73.919-43.56 34.695-98.724 55.441-158.741 55.441z" fill="#73c8f0"/></g><path d="m386.598 56.214-9.009-33.117c-3.71-13.635-16.09-23.097-30.22-23.097h-33.085l-9.857 5.279-10.548-5.279h-75.161l-62.166 264.379 16.518 111.541h300.504l-37.079-136.298-11.847-10.093 6.355-10.093z" fill="#9dc63d"/><path d="m473.174 374.453h-244.586c-32.681 0-57.827-28.876-53.334-61.247l43.463-313.206h-8.262l-9.57 7.921-10.835-7.921h-39.71c-14.32 0-26.815 9.712-30.35 23.589l-49.879 195.847 7.747 11.256-12.888 8.931-34.657 136.078c25.107 46.714 64.352 84.699 112.009 108.232l10.618-2.233 8.288 10.628c29.046 11.503 60.708 17.824 93.847 17.824 31.651 0 62.058-5.798 90.16-16.429l4.549-12.243 14.423 4.171c46.518-22.062 85.458-57.824 111.376-102.342z" fill="#69b76b"/><path d="m242.991 228.709c.185 4.121-1.471 7.952-4.144 10.913h197.646l-5.492-20.187h-191.007c1.774 2.675 2.845 5.877 2.997 9.274z" fill="#fff"/><path d="m64.97 239.622h176.261c5.574 0 10.093-4.519 10.093-10.093s-4.519-10.093-10.093-10.093h-171.12z" fill="#d2f0ff"/><path d="m353.855 433.96c-.945-4.716-5.087-8.111-9.897-8.111h-181.731c-4.81 0-8.952 3.395-9.897 8.111l-10.008 49.973c6.165 3.044 12.471 5.847 18.906 8.395l9.271-46.293h165.186l9.55 47.688c6.45-2.44 12.778-5.135 18.971-8.072z" fill="#d2f0ff"/><path d="m321.413 48.25-7.129-48.25h-20.405l5.856 39.632h-45.553c1.118 3.181 1.796 6.568 1.952 10.069.157 3.515-.395 6.92-1.5 10.118h56.795c2.934 0 5.724-1.277 7.641-3.499 1.916-2.222 2.772-5.167 2.343-8.07z" fill="#fff"/><path d="m192.906 59.818h63.006c5.574 0 10.093-4.519 10.093-10.093s-4.518-10.093-10.093-10.093h-51.312l5.576-37.739c.094-.638.126-1.271.101-1.893h-20.227l-7.129 48.25c-.429 2.903.427 5.848 2.344 8.07 1.918 2.221 4.707 3.498 7.641 3.498z" fill="#d2f0ff"/><g><path d="m303.334 168.889c-13.244-17.062-31.087-26.458-50.241-26.458-.035 0-.069.003-.104.003 2.026 2.791 3.27 6.212 3.434 9.872.172 3.85-1.26 7.45-3.628 10.322.1-.001.198-.01.298-.01 27.396 0 49.683 30.016 49.683 66.911s-22.288 66.911-49.683 66.911c-.011 0-.022-.001-.033-.001 1.984 2.774 3.201 6.157 3.363 9.775.174 3.885-1.283 7.517-3.69 10.402.12.001.239.011.36.011 19.154 0 36.997-9.396 50.241-26.458 12.658-16.305 19.629-37.841 19.629-60.639s-6.971-44.335-19.629-60.641z" fill="#fff"/></g><g><path d="m253.093 316.626c-19.154 0-36.997-9.396-50.241-26.458-12.658-16.305-19.629-37.841-19.629-60.64s6.971-44.334 19.629-60.639c13.244-17.062 31.087-26.458 50.241-26.458 5.574 0 10.093 4.519 10.093 10.093s-4.519 10.093-10.093 10.093c-27.396 0-49.683 30.016-49.683 66.911s22.288 66.911 49.683 66.911c5.574 0 10.093 4.519 10.093 10.093 0 5.576-4.519 10.094-10.093 10.094z" fill="#d2f0ff"/></g></g></svg>