<svg id="Layer_1" enable-background="new 0 0 510.756 510.756" height="512" viewBox="0 0 510.756 510.756" width="512" xmlns="http://www.w3.org/2000/svg"><g><g><path d="m319.785 8.204c-20.574-5.354-42.158-8.204-64.407-8.204-30.694 0-57.702 5.416-80.332 12.862l-88.783 104.044c0 140.833 118.763 254.972 259.596 254.972 54.231 0 114.568-25.992 154.949-57.243.903-.699 3.769-5.396 3.769-5.396.02-.121.107-.505.246-1.134z" fill="#78e9e1"/><path d="m108.913 463.752h292.893c51.307-36.027 88.919-90.568 102.772-154.513-43.559 34.696-98.724 55.441-158.741 55.441-140.833 0-255-114.167-255-255l-59.798 24.01c-19.554 36.075-30.661 77.396-30.661 121.31 0 86.322 42.9 162.616 108.535 208.752z" fill="#5fd2d0"/><path d="m47.148 402.218c46.189 65.212 122.236 107.782 208.23 107.782 85.447 0 161.826-42.263 208.235-107.782z" fill="#9dc63d"/></g><path d="m202.682 214.393c-15.291-66.657-28.316-131.591-27.636-201.531-22.643 7.451-40.903 16.934-54.086 25.06l-29.265 22.992v157.036h97.074z" fill="#ffd23c"/><path d="m216.978 276.042c-4.666-20.365-9.561-40.919-14.296-61.648-40.699 5.401-78.895-20.837-88.457-60.764l-20.94-87.435-14.425 4.81c-18.988 18.226-35.156 39.366-47.801 62.696 3.948 8.54 8.373 17.28 13.354 26.164 48.881 87.193-2.873 160.865-2.873 160.865z" fill="#ffa50a"/><g><path d="m270.225 146.859 78.81 20.56 58.77-59.068-20.241-71.458c-8.915-5.415-18.191-10.293-27.779-14.601l-47.793-8.62c-25.883 19.222-46.352 45.472-58.587 75.806z" fill="#e4f2f6"/><g><path d="m316.839 300.347c28.434 19.653 62.957 31.201 100.138 31.201 17.786 0 35.078-2.682 51.265-7.582l-17.941-62.933-79.064-19.134z" fill="#c8e6eb"/></g><path d="m319.783 8.211c-2.647 1.753-5.247 3.571-7.792 5.46l60.252 14.635c-16.517-8.532-34.085-15.313-52.46-20.095z" fill="#c8e6eb"/><path d="m505.257 203.921c-.401-1.972-.828-3.934-1.274-5.889-2.614-11.453-6.008-22.605-10.107-33.413-5.326-14.046-11.852-27.498-19.462-40.232-.001-.002-.002-.003-.003-.005l-70.306-16.921-55.379 58.291 22.792 77.105 78.171 18.814z" fill="#fff"/><g><path d="m242.003 176.712 31.312-29.109-19.911-58.124c-8.135 20.277-12.701 42.611-12.701 65.796 0 7.212.458 14.451 1.3 21.437z" fill="#b4d7dc"/></g><g><path d="m270.225 146.859-28.222 29.853c6.241 51.151 34.444 95.686 74.835 123.635l54.681-57.49-22.792-77.105z" fill="#1a1b1c"/></g><path d="m404.106 107.461 70.306 16.921c-22.414-37.505-54.174-68.779-92.08-90.582z" fill="#373c41"/><path d="m449.911 261.724 18.331 62.242c12.879-3.914 25.133-9.266 36.581-15.862 1.107-5.008 5.555-25.736 5.555-53.104 0-17.627-1.789-34.835-5.194-51.455z" fill="#373c41"/><g><path d="m356.013 158.083c-24.436-30.255-39.136-68.821-39.136-110.74 0-10.86.999-21.485 2.88-31.802l-7.766-1.869c-26.827 19.927-46.812 46.612-58.587 75.806l16.821 57.381 78.502 18.893z" fill="#c8e6eb"/></g><g><path d="m485.992 223.46c-52.487-2.098-99.063-27.14-129.979-65.377l-7.286 7.669 22.792 77.105 78.171 18.814z" fill="#e4f2f6"/></g><path d="m486.254 223.47-36.563 38.201 18.551 62.296c12.91-3.924 25.161-9.281 36.583-15.868 1.109-5.019 5.553-25.74 5.553-53.098 0-10.851-.683-21.542-1.998-32.036-5.019.43-10.098.653-15.228.653-2.312-.001-4.609-.06-6.898-.148z" fill="#1a1b1c"/></g><g><g><path d="m230.819 272.866-20.524-29.969c-5.817-8.494-16.611-12.028-26.317-8.597-5.981 2.114-13.436 5.479-22.347 10.816-5.603 3.356-6.874 10.931-2.636 15.899l29.84 34.981z" fill="#dd544f"/></g><g><path d="m99.207 510.756h-8.299c-3.523 0-6.592-2.401-7.441-5.82l-8.556-34.474h40.293l-8.556 34.474c-.849 3.419-3.918 5.82-7.441 5.82z" fill="#373c41"/></g><g><path d="m165.922 510.756h-8.299c-3.523 0-6.592-2.401-7.441-5.82l-8.556-34.474h40.293l-8.556 34.474c-.848 3.419-3.918 5.82-7.441 5.82z" fill="#373c41"/></g><g><path d="m305.959 510.756h-8.299c-3.523 0-6.592-2.401-7.441-5.82l-8.556-34.474h40.293l-8.556 34.474c-.849 3.419-3.918 5.82-7.441 5.82z" fill="#50555a"/></g><g><path d="m356.16 510.756h-8.299c-3.523 0-6.592-2.401-7.441-5.82l-8.556-34.474h40.294l-8.556 34.474c-.849 3.419-3.919 5.82-7.442 5.82z" fill="#50555a"/></g><g><path d="m409.665 510.756h-8.299c-3.523 0-6.592-2.401-7.441-5.82l-8.556-34.474h40.294l-8.556 34.474c-.85 3.419-3.919 5.82-7.442 5.82z" fill="#50555a"/></g><g><path d="m425.496 370.477c-1.834-.519-3.732-1.019-5.696-1.501l-54.294-12.24c-53.07-11.964-100.536-41.521-134.687-83.87l-40.079 9.196c-19.455 4.464-39.409 5.651-59.064 3.627v125.411h293.82z" fill="#fff"/></g><g><path d="m425.496 409.714-215.959-.153c-42.091-.03-76.271-34.023-76.543-76.113-.144-22.377-.227-42.327-.111-47.637-15.249-1.468-30.328-4.866-44.865-10.176-11.38-4.158-22.395-6.304-28.887-2.769-19.911 10.843-22.21 41.252-22.129 66.682.04 12.682-.06 20.393 0 31.256v79.128c-.44 35.199 27.988 4.676 63.19 4.676 0 0 86.302-5.936 101.544-6.301 39.324-.944 159.148 1.775 223.76 3.388z" fill="#c8e6eb"/></g><g><path d="m211.627 322.43c-3.951 0-7.692-2.356-9.27-6.242-2.077-5.118.388-10.95 5.506-13.026l40.492-16.432c5.117-2.077 10.95.389 13.026 5.506 2.077 5.118-.388 10.95-5.506 13.026l-40.492 16.432c-1.23.5-2.504.736-3.756.736z" fill="#dd544f"/></g><g><circle cx="249.136" cy="339.341" fill="#c8e6eb" r="14.923"/></g><g><path d="m249.139 344.345c-3.951 0-7.693-2.356-9.27-6.242-2.077-5.118.388-10.95 5.506-13.026l33.548-13.614c5.119-2.077 10.95.389 13.026 5.506 2.077 5.118-.388 10.95-5.506 13.026l-33.548 13.614c-1.231.5-2.504.736-3.756.736z" fill="#dd544f"/></g><g><circle cx="211.836" cy="317.219" fill="#c8e6eb" r="14.923"/></g><g><circle cx="288.408" cy="357.567" fill="#c8e6eb" r="14.923"/></g><g><path d="m288.411 362.957c-3.951 0-7.693-2.356-9.27-6.242-2.077-5.118.388-10.95 5.506-13.026l29.902-12.134c5.118-2.078 10.95.389 13.026 5.506 2.077 5.118-.388 10.95-5.506 13.026l-29.902 12.134c-1.231.5-2.504.736-3.756.736z" fill="#dd544f"/></g><g><path d="m211.627 322.43c-3.951 0-7.693-2.356-9.27-6.242-2.077-5.118.389-10.95 5.506-13.026l10.708-4.345c5.119-2.078 10.95.389 13.026 5.506 2.077 5.118-.389 10.95-5.506 13.026l-10.708 4.345c-1.231.5-2.504.736-3.756.736z" fill="#d80a61"/></g><g><path d="m249.139 344.345c-3.951 0-7.693-2.356-9.27-6.242-2.077-5.118.389-10.95 5.506-13.026l7.235-2.936c5.121-2.078 10.95.389 13.026 5.506 2.077 5.118-.389 10.95-5.506 13.026l-7.235 2.936c-1.231.5-2.504.736-3.756.736z" fill="#d80a61"/></g><g><path d="m288.411 362.957c-3.951 0-7.692-2.356-9.27-6.242-2.077-5.117.388-10.949 5.506-13.026l6.904-2.802c5.117-2.075 10.95.388 13.026 5.506 2.077 5.117-.388 10.949-5.506 13.026l-6.904 2.802c-1.231.499-2.504.736-3.756.736z" fill="#d80a61"/></g><g><path d="m269.644 440.128c.005.003.005.003 0 0 0-.001 0-.001 0 0-.005-.004-.007-.006-.011-.009.004.003.007.006.009.008-.211-.171-6.282-5.078-72.983-58.994-12.354-8.775-30.556-30.645-65.167-33.786-2.054-.173-6.887-.576-13.331-1.113v49.104c6.503-.53 10.631-.867 10.6-.864.949.012 9.421-2.029 21.663 2.815 2.922 1.112 4.913 2.351 5.383 2.597.971.54 24.349 13.499 87.481 48.439 9.397.126 19.521.31 30.034.535.299-3.228-.968-6.54-3.678-8.732z" fill="#dd544f"/></g><g><path d="m118.805 346.293c-26.229-2.171-81.803-6.746-81.803-6.746s-.052 21.813 0 31.256c.014 17.347 0 31.151 0 31.151s58.246-4.721 81.803-6.66z" fill="#d80a61"/></g><g><path d="m258.295 448.563c2.91.052 5.867.109 8.861.169.126-1.118-.327-2.268-1.307-2.969-.102-.073-98.581-70.397-98.461-70.313-18.918-12.519-37.062-11.976-38.568-12.225-.101-.003-6.248-.167-5.857-.157-97.55-2.574-84.058-2.259-85.961-2.265.428 12.261.007 12.605 0 19.997 10.716-.187-35.982.95 93.515-2.433 21.819-.01 35.026 11.949 39.578 14.323 18.437 11.68 69.598 44.089 88.2 55.873z" fill="#ffd23c"/></g><g><path d="m100.309 379.158v-16.688c-72.678-1.923-63.308-1.667-63.308-1.667v19.997s.878-.009 0 .019c2.928-.083 17.015-.446 63.308-1.661z" fill="#ffc305"/></g><g><path d="m467.607 411.382c-1.88-21.451-14.984-33.294-42.427-40.989-24.635 4.66-44.215 20.569-50.712 40.989z" fill="#dd544f"/></g><path d="m467.855 417.031c0-.002 0-.004 0-.006 0-2.056-.12-4.749-.396-7.154-.005-.043-.011-.084-.016-.127l-92.387-.065c-1.877 5.239-2.897 10.792-2.897 16.547 0 8.71 2.327 16.958 6.461 24.348l89.236-6.741c-.001-5.625-.001-13.533-.001-26.802z" fill="#d80a61"/><g><path d="m195.763 483.465h232.458c21.889 0 39.633-17.744 39.633-39.633h-272.091z" fill="#50555a"/></g><g><path d="m76.635 483.465h122.557v-39.633h-162.19c0 21.888 17.744 39.633 39.633 39.633z" fill="#373c41"/></g></g><path d="m78.869 71.014 97.599-13.528c-.64-9.001-1.08-18.027-1.296-27.079l-54.211 7.514c-15.761 9.715-24.267 17.489-24.33 17.523-6.164 4.912-12.081 10.119-17.762 15.57z" fill="#fff"/></g></svg>