<svg id="Layer_1" enable-background="new 0 0 511.069 511.069" height="512" viewBox="0 0 511.069 511.069" width="512" xmlns="http://www.w3.org/2000/svg"><g><g><path d="m476.83 127.784c-44.05-76.375-126.543-127.784-221.046-127.784-98.13 0-158.58 55.352-158.746 55.445 0 0-2.513 3.137-2.983 5.222-3.818 16.948-7.385 39.663-7.385 56.238 0 140.833 118.763 254.972 259.596 254.972 44.165 0 92.377-17.24 130.564-40.519z" fill="#afe6ff"/><g><path d="m476.83 328.72c-38.197 22.826-82.854 35.96-130.587 35.96-140.833 0-255-114.167-255-255 0-18.615 2.007-36.753 5.795-54.234-25.254 20.119-46.593 44.94-62.721 73.124v252.906c4.194 7.328 8.743 14.425 13.62 21.274h415.712c4.71-6.614 9.105-13.471 13.181-20.542z" fill="#73c8f0"/></g></g><g><g><g><path d="m201.273 162.948h283.845v20.1h-283.845z" fill="#fff"/></g><g><path d="m199.441 248.886h283.845v20.1h-283.845z" fill="#fff"/></g><g><path d="m197.61 334.824h283.845v20.1h-283.845z" fill="#fff"/></g><g><path d="m28.015 162.948h177.63v20.1h-177.63z" fill="#d2f0ff"/></g><g><path d="m26.941 248.886h177.629v20.1h-177.629z" fill="#d2f0ff"/></g><g><path d="m25.867 334.824h177.63v20.1h-177.63z" fill="#d2f0ff"/></g></g><g><g><path d="m328.872 130.135h20.1v291.083h-20.1z" fill="#fff"/></g><g><path d="m412.507 130.135h20.1v291.083h-20.1z" fill="#fff"/></g><g><path d="m245.235 130.135h20.1v291.083h-20.1z" fill="#fff"/></g><g><path d="m328.871 90.9h20.1v42.992h-20.1z" fill="#d2f0ff"/></g><g><path d="m412.507 90.9h20.1v42.992h-20.1z" fill="#d2f0ff"/></g><g><path d="m245.234 90.9h20.1v42.992h-20.1z" fill="#d2f0ff"/></g><g><path d="m161.599 80.849h20.1v350.418h-20.1z" fill="#d2f0ff"/></g><g><path d="m77.963 80.849h20.1v350.418h-20.1z" fill="#d2f0ff"/></g></g><path d="m433.681 72.304h-355.771c-47.568 46.321-77.626 111.058-77.626 182.696 0 46.489 12.941 90.073 34.674 127.604v-245.426c0-16.376 13.323-29.699 29.7-29.699h381.252c16.376 0 29.699 13.323 29.699 29.699v247.142c13.5-22.908 23.542-48.162 29.374-75.082.178-1.087 5.801-23.477 5.801-54.239 0-71.636-29.54-136.373-77.103-182.695z" fill="#0360e8"/><path d="m.284 255c0 46.489 12.941 90.073 34.674 127.604v-245.426c0-16.377 13.323-29.699 29.7-29.699h156.162v-35.175h-142.91c-47.568 46.321-77.626 111.058-77.626 182.696z" fill="#0540e5"/><g><path d="m445.911 72.304h-227.301v35.174h227.301c16.376 0 29.699 13.323 29.699 29.699v119.59h35.174v-119.59c0-35.771-29.102-64.873-64.873-64.873z" fill="#0360e8"/></g><g><path d="m34.959 256.768v-119.59c0-16.377 13.323-29.699 29.7-29.699h156.162v-35.175h-156.162c-35.772 0-64.375 29.102-64.375 64.874v119.59z" fill="#0540e5"/></g></g><path d="m149.43 401.209.16.316c28.514 56.428 83.426 95.085 146.266 102.043 7.096.786 12.765.958 16.163.191 62.581-14.115 116.788-51.297 152.719-102.55z" fill="#9dc63d"/><path d="m149.43 401.209h-102.593c46.117 65.784 122.51 108.791 208.947 108.791 19.286 0 38.111-2.153 56.233-6.241-66.771-11.807-124.573-49.596-162.587-102.55z" fill="#69b76b"/><g><g><g><path d="m315.956 255.368 1.509 12.366 56.264 23.129 40.205-31.78c-16.38-7.311-34.523-11.381-53.619-11.381-15.584 0-30.484 2.697-44.359 7.666z" fill="#c8e6eb"/></g></g><g><g><path d="m403.229 503.93-3.997-33.059-57.065-23.164-47.902 38.071 1.055 8.173c33.516 19.024 73.13 21.951 107.909 9.979z" fill="#1a1b1c"/></g></g><g><g><g><path d="m381.758 350.311-48.056 37.815 8.652 60.227 56.381 22.904 48.162-37.482-8.221-60.384z" fill="#fff"/></g></g><g><g><path d="m317.695 267.556-48.433 37.335 8.355 60.279 56.318 22.953 47.896-37.274-8.162-60.43z" fill="#373c41"/></g></g></g><g><g><path d="m438.406 373.602 8.491 60.174 27.602 11.287c11.119-19.316 17.509-41.78 17.509-65.668 0-14.74-2.423-28.914-6.89-42.146z" fill="#373c41"/></g></g><g><g><path d="m474.498 445.062-27.602-11.401-48.161 37.595 4.494 32.673c30.212-10.418 55.528-31.595 71.269-58.867z" fill="#b4d7dc"/></g></g><g><g><path d="m294.958 485.239-23.566-8.712c7.185 6.549 15.423 12.58 23.928 17.424z" fill="#a5c8cd"/></g></g><g><path d="m333.935 388.123-56.381-22.904 64.736 83.184z" fill="#e4f2f6"/></g><g><g><path d="m413.934 259.083-40.265 31.336 8.162 60.43 56.575 22.753 46.712-36.353c-11.788-34.919-37.821-63.275-71.184-78.166z" fill="#e4f2f6"/></g></g><g><g><path d="m278.204 365.408-8.855-60.585-13.621-5.454c-23.037 30.106-31.213 67.379-25.198 102.446z" fill="#a5c8cd"/></g></g><g><g><path d="m314.604 380.271-37.051-15.051-47.023 36.595c2.021 7.77 6.809 43.465 40.861 74.712.003.003-.003-.003 0 0l23.566 8.712 47.396-36.886-6.747-48.676c-7.654-5.682-14.75-12.23-21.002-19.406z" fill="#c8e6eb"/></g></g><g><g><path d="m314.499 380.153c-19.895-22.891-32.009-52.719-32.246-85.372l-12.991 10.111 8.292 60.329z" fill="#1a1b1c"/></g></g><g><g><path d="m445.23 421.754 1.666 12.021 27.602 11.287c7.778-13.512 13.141-28.486 15.705-43.885-13.356 9.505-28.563 16.577-44.973 20.577z" fill="#1a1b1c"/></g></g><g><g><path d="m335.528 399.618 6.826 48.735 56.381 22.904 48.161-37.481-1.811-11.985c-9.987 2.422-20.419 3.708-31.151 3.708-29.34 0-56.514-9.658-78.406-25.881z" fill="#e4f2f6"/></g></g><g><g><path d="m255.729 299.369 13.533 5.522 48.433-37.334-1.739-12.188c-24.088 8.604-44.943 24.084-60.227 44z" fill="#e4f2f6"/></g></g></g></g></svg>