<svg id="Layer_1" enable-background="new 0 0 510.812 510.812" height="512" viewBox="0 0 510.812 510.812" width="512" xmlns="http://www.w3.org/2000/svg"><g><g><path d="m187.977 319.279h307.754c1.73-1.269 3.44-2.544 5.105-3.832.903-.699 3.769-5.396 3.769-5.396.178-1.087 5.8-23.477 5.8-54.239 0-140.833-114.167-255-255-255-98.131 0-158.58 55.352-158.747 55.445 0 0-2.513 3.137-2.983 5.222-3.818 16.948-7.385 39.663-7.385 56.238.001 81.991 40.262 154.922 101.687 201.562z" fill="#afe6ff"/><g><path d="m502.413 319.279c.782-3.055 1.521-6.128 2.193-9.228-4.014 3.197-8.128 6.274-12.333 9.228z" fill="#afe6ff"/><path d="m90.865 110.492c0-18.615 2.007-36.753 5.795-54.234-58.645 46.72-96.254 118.747-96.254 199.554 0 17.401 1.745 34.393 5.066 50.815l25.799 12.652h168.18c-65.663-46.132-108.586-122.443-108.586-208.787z" fill="#73c8f0"/></g><path d="m127.189 365.865 31.834 126.102c29.735 12.149 62.276 18.845 96.383 18.845 15.324 0 30.357-1.359 44.977-3.968l1.748-140.979z" fill="#9dc63d"/></g><path d="m54.6 278.14c-21.025 0-39.359 11.471-49.122 28.486 3.341 16.516 8.301 32.534 14.735 47.855l124.569 131.131c4.664 2.247 9.415 4.362 14.248 6.338 9.637-12.168 15.412-27.533 15.412-44.261v-169.549z" fill="#ff965a"/><g><g><path d="m320.151 16.857h105.592v393.634h-105.592z" fill="#fa690f"/></g><path d="m173.092 407.295v-390.438h-7.103c-44.095 16.353-69.222 39.341-69.329 39.401-11.674 9.301-22.498 19.619-32.375 30.795v318.26l21.06 40.5c18.021 16.165 38.021 29.512 59.432 39.811h196.181c32.696-15.755 61.592-38.299 84.786-65.897v-12.431h-252.652z" fill="#cd5014"/><g><path d="m173.092 84.177v-67.32h-108.807v77.321z" fill="#cd5014"/></g><g><path d="m363.282 461.693h-246.801v-408.696h278.716v376.781c0 17.627-14.289 31.915-31.915 31.915z" fill="#cd5014"/></g><g><path d="m105.656 41.925h278.716v408.696h-278.716z" fill="#fff"/></g><g><path d="m180.75 328.135v-286.21h-75.094v408.696h278.716v-67.301h-148.437c-30.478 0-55.185-24.707-55.185-55.185z" fill="#e1faff"/></g><g><path d="m166.587 41.925h166.386v27.621h-166.386z" fill="#e1faff"/></g><g><path d="m166.587 0h156.855v54.877h-156.855z" fill="#78e9e1"/></g><g><path d="m166.587 0h54.877v54.877h-54.877z" fill="#5fd2d0"/></g><g><g><path d="m179.743 390.514c-9.976-40.477-10.822-78.408-2.516-112.74 6.682-27.615 19.249-52.913 37.352-75.191 30.756-37.849 66.542-53.688 68.051-54.343l5.98 13.756-2.99-6.878 2.999 6.874c-.34.149-34.377 15.318-62.803 50.55-16.554 20.518-28.029 43.789-34.106 69.165-7.631 31.862-6.757 67.263 2.598 105.218z" fill="#9dc63d"/></g><g><path d="m291.099 195.104-14.584-3.509 8.74-36.316-36.316-8.74 3.51-14.584 50.9 12.251z" fill="#9dc63d"/></g></g><g><path d="m325.669 134.332c-14.208 0-25.767-11.559-25.767-25.767s11.559-25.767 25.767-25.767 25.767 11.559 25.767 25.767-11.559 25.767-25.767 25.767zm0-36.533c-5.937 0-10.767 4.83-10.767 10.767s4.83 10.767 10.767 10.767 10.767-4.83 10.767-10.767-4.83-10.767-10.767-10.767z" fill="#ffc305"/></g><g><path d="m230.375 350.543c-14.208 0-25.767-11.559-25.767-25.767s11.559-25.767 25.767-25.767 25.767 11.559 25.767 25.767-11.559 25.767-25.767 25.767zm0-36.533c-5.937 0-10.767 4.83-10.767 10.767s4.83 10.767 10.767 10.767 10.767-4.83 10.767-10.767-4.83-10.767-10.767-10.767z" fill="#ffc305"/></g><g><path d="m323.442 414.486c-14.208 0-25.767-11.559-25.767-25.767s11.559-25.767 25.767-25.767 25.767 11.559 25.767 25.767-11.559 25.767-25.767 25.767zm0-36.534c-5.937 0-10.767 4.83-10.767 10.767s4.83 10.767 10.767 10.767 10.767-4.83 10.767-10.767-4.83-10.767-10.767-10.767z" fill="#ffc305"/></g><g><g><path d="m136.751 168.687h59.671v15h-59.671z" fill="#dd544f" transform="matrix(.689 -.725 .725 .689 -75.885 175.605)"/></g><g><path d="m159.087 146.351h15v59.671h-15z" fill="#dd544f" transform="matrix(.689 -.725 .725 .689 -75.885 175.608)"/></g></g><g><g><path d="m285.518 243.427h59.671v15h-59.671z" fill="#dd544f" transform="matrix(.689 -.725 .725 .689 -83.77 306.718)"/></g><g><path d="m307.853 221.091h15v59.671h-15z" fill="#dd544f" transform="matrix(.689 -.725 .725 .689 -83.769 306.723)"/></g></g></g><path d="m121.734 320.696c9.873-9.873 9.873-25.88 0-35.752-9.873-9.873-25.88-9.873-35.752 0-23.358 24.699-8.401 8.883-65.762 69.535 14.64 34.851 36.807 65.971 65.129 91.33 4.434-10.122 7.006-22.033 7.006-34.799 0-11.263-1.993-21.866-5.508-31.158-3.825-10.112-1.65-21.507 5.879-29.265z" fill="#ffbe82"/><g><path d="m82.719 305.132-8.391-8.052 20.31-21.166c6.525-6.801 17.328-7.024 24.129-.498l.789.757c3.353 3.218 3.463 8.545.246 11.898l-15.952 16.625c-5.715 5.956-15.175 6.151-21.131.436z" fill="#ffcea1"/></g><g><g><path d="m356.756 282.381 1.595 13.071 59.475 24.449 42.5-33.594c-17.315-7.728-36.494-12.031-56.68-12.031-16.472.002-32.223 2.853-46.89 8.105z" fill="#c8e6eb"/></g><g><path d="m426.315 382.744-50.799 39.973 5.315 36.999 34.176-5.059c19.761-15.877 37.112-34.638 51.407-55.653z" fill="#fff"/><g><path d="m358.595 295.265-51.198 39.466 8.832 63.72 59.532 24.264 50.63-39.403-8.627-63.879z" fill="#373c41"/></g></g><path d="m375.761 422.715-59.599-24.212 64.727 61.206z" fill="#e4f2f6"/><path d="m503.195 316.196c-12.199-12.478-26.717-22.679-42.868-29.888l-42.563 33.125 8.628 63.879 39.804 16.008c16.985-24.89 29.671-52.952 36.999-83.124z" fill="#e4f2f6"/><g><path d="m316.849 398.703-9.36-64.043-14.398-5.766c-24.352 31.825-32.995 71.225-26.636 108.294z" fill="#a5c8cd"/></g><path d="m377.529 434.928c-8.092-6.006-15.593-12.928-22.202-20.514l-39.165-15.91-49.707 38.684c1.938 7.449 6.283 39.18 33.93 69.663 29.721-5.297 57.672-15.758 82.898-30.413z" fill="#c8e6eb"/><g><path d="m355.217 414.289c-21.031-24.198-33.836-55.728-34.087-90.246l-13.733 10.688 8.765 63.772z" fill="#1a1b1c"/></g><path d="m377.446 434.866 5.824 41.579c11.14-6.471 21.742-13.765 31.733-21.793-13.597-4.685-26.245-11.403-37.557-19.786z" fill="#e4f2f6"/><g><path d="m293.091 328.894 14.306 5.837 51.198-39.465-1.839-12.884c-25.462 9.096-47.508 25.459-63.665 46.512z" fill="#e4f2f6"/></g></g></g></svg>