<svg id="Layer_1" enable-background="new 0 0 510.348 510.348" height="512" viewBox="0 0 510.348 510.348" width="512" xmlns="http://www.w3.org/2000/svg"><g><g><path d="m172.29 306.145h332.826c1.566-7.51 5.059-26.548 5.059-50.797 0-140.833-114.167-255-255-255-98.131 0-158.58 55.352-158.747 55.445 0 0-2.513 3.137-2.983 5.222-3.818 16.948-7.385 39.663-7.385 56.238-.001 74.9 33.592 142.247 86.23 188.892z" fill="#afe6ff"/><g><path d="m182.657 306.145c-56.225-46.775-92.024-117.263-92.024-196.118 0-18.615 2.007-36.753 5.795-54.234-58.645 46.72-96.254 118.747-96.254 199.555 0 17.395 1.748 34.38 5.067 50.797z" fill="#73c8f0"/></g></g><path d="m105.979 304.58c-14.563 71.016 20.068 186.613 144.056 186.613 65.858 0 131.471-5.949 176.986-47.458 38.227-34.862 65.902-81.296 77.352-134.149.046-.284.467-2.038 1.061-5.006z" fill="#9dc63d"/><path d="m340.297 458.887c-105.067 0-195.271-63.552-234.318-154.306h-101.038c14.912 76.229 63.78 140.299 130.212 175.809l188.303 20.686c38.992-10.83 74.354-30.713 103.559-57.347-27.137 9.819-56.355 15.158-86.718 15.158z" fill="#69b76b"/><g><g><path d="m192.501 245.66 1.659 13.59 61.832 25.418 44.184-34.925c-18.001-8.035-37.94-12.507-58.927-12.507-17.125-.001-33.5 2.963-48.748 8.424z" fill="#c8e6eb"/></g><path d="m171.793 496.388c26.129 9.037 54.179 13.96 83.381 13.96 10.817 0 21.486-.689 31.97-2.005l-3.126-25.85-62.713-25.456z" fill="#1a1b1c"/><g><g><path d="m264.816 350.001-52.812 41.558 9.508 66.188 61.962 25.17 52.928-41.191-9.035-66.361z" fill="#fff"/></g><g><path d="m194.412 259.055-53.227 41.03 9.183 66.245 61.891 25.225 52.637-40.964-8.97-66.411z" fill="#373c41"/></g></g><g><path d="m327.07 375.597 9.332 66.13 30.333 12.404c12.22-21.228 19.242-45.916 19.242-72.168 0-16.199-2.662-31.776-7.572-46.318z" fill="#373c41"/></g><path d="m366.735 454.13-30.333-12.529-52.928 41.316 3.5 25.446c12.448-1.554 24.631-4.009 36.48-7.299 17.675-12.228 32.516-28.283 43.281-46.934z" fill="#b4d7dc"/><path d="m212.259 391.555-61.961-25.17 71.144 91.416z" fill="#e4f2f6"/><g><path d="m300.176 249.743-44.25 34.437 8.97 66.411 62.174 25.005 51.335-39.951c-12.954-38.375-41.563-69.537-78.229-85.902z" fill="#e4f2f6"/></g><g><path d="m151.012 366.592-9.731-66.582-14.969-5.994c-25.317 33.086-34.303 74.048-27.692 112.586z" fill="#a5c8cd"/></g><path d="m191.015 382.926-40.718-16.541-51.677 40.217c2.043 7.855 6.681 41.678 36.538 73.777 11.711 6.259 23.967 11.63 36.68 16.025l49.673-38.657-7.415-53.494c-8.412-6.244-16.21-13.441-23.081-21.327z" fill="#c8e6eb"/><g><path d="m190.9 382.796c-21.864-25.157-35.177-57.937-35.438-93.823l-14.277 11.111 9.113 66.3z" fill="#1a1b1c"/></g><g><path d="m334.571 428.515 1.831 13.211 30.333 12.404c8.548-14.849 14.442-31.305 17.26-48.229-14.678 10.446-31.39 18.218-49.424 22.614z" fill="#1a1b1c"/></g><g><path d="m214.01 404.188 7.501 53.559 61.962 25.171 52.928-41.191-1.991-13.171c-10.976 2.662-22.44 4.075-34.235 4.075-32.242 0-62.106-10.614-86.165-28.443z" fill="#e4f2f6"/></g><g><path d="m126.312 294.016 14.873 6.068 53.227-41.03-1.911-13.395c-26.472 9.459-49.391 26.47-66.189 48.357z" fill="#e4f2f6"/></g></g><path d="m75.71 28.974-2.035-28.974h127.066l24.949 54.533-88.114 5.596z" fill="#ffe65a"/><path d="m123.511 0h-49.836l2.363 33.579 61.538 26.549 6.909-.439c-6.893-19.944-13.96-39.786-20.974-59.689z" fill="#ffc627"/><g><path d="m237.296 47.269-17.758-31.687c-5.033-8.98-15.468-13.467-25.442-10.919-6.147 1.57-13.873 4.254-23.226 8.772-5.881 2.841-7.825 10.271-4.049 15.6l26.588 37.512z" fill="#0360e8"/><path d="m84.914 272.421-8.266-.743c-3.509-.315-6.351-2.981-6.89-6.463l-5.435-35.101 40.132 3.607-11.608 33.569c-1.152 3.33-4.424 5.446-7.933 5.131z" fill="#373c41"/><path d="m151.362 278.394-8.266-.743c-3.509-.315-6.351-2.981-6.89-6.463l-5.435-35.101 40.132 3.607-11.608 33.569c-1.152 3.33-4.424 5.446-7.933 5.131z" fill="#373c41"/><path d="m290.836 290.931-8.266-.743c-3.509-.315-6.351-2.981-6.89-6.463l-5.435-35.101 40.132 3.607-11.608 33.569c-1.152 3.33-4.424 5.446-7.933 5.131z" fill="#50555a"/><path d="m340.836 295.426-8.266-.743c-3.509-.315-6.351-2.981-6.89-6.463l-5.435-35.101 40.132 3.607-11.608 33.569c-1.152 3.33-4.424 5.446-7.933 5.131z" fill="#50555a"/><path d="m394.126 300.216-8.266-.743c-3.509-.315-6.351-2.981-6.89-6.463l-5.435-35.101 40.132 3.607-11.608 33.569c-1.152 3.33-4.425 5.446-7.933 5.131z" fill="#50555a"/><path d="m416.913 159.912-52.98-17.052c-51.786-16.668-96.415-50.356-126.637-95.591l-40.742 5.571c-34.705 4.745-70.04-.681-101.734-15.598-10.962-5.16-21.741-8.284-28.523-5.344-31.175 13.513-27.802 63.056-30.547 95.586l-2.023 19.733c-3.589 35.019 22.134 66.217 57.194 69.368 0 0 86.486 1.815 101.701 2.815 54.721 3.598 231.741 26.404 231.741 26.404 26.433 2.376 33.734-7.295 36.11-33.728 2.376-26.433-10.828-40.931-43.56-52.164z" fill="#2896ff"/><path d="m203.862 181.51c-41.919-3.798-72.918-40.715-69.421-82.66 1.859-22.3 3.563-42.178 4.154-47.456-15.056-2.827-29.771-7.561-43.774-14.152-10.962-5.16-21.741-8.284-28.523-5.344-24.626 10.674-27.695 43.828-29.251 73.321l53.875 111.367s86.487 1.815 101.701 2.815c54.721 3.598 265.451 19.37 265.451 19.37s.023-.261 2.4-26.695c.228-2.54.31-4.967.247-7.294z" fill="#2477f9"/><path d="m190.489 214.717-15.144 17.189 11.595 22.285 228.111 20.505c21.801 1.96 41.062-14.125 43.022-35.926z" fill="#50555a"/><path d="m54.361 104.403c-6.014-.541-11.928-.242-17.65.798-.958 11.353-1.17 22.78-1.991 32.505l-6.392 62.435 83.732 17.769c3.691-8.397 6.13-17.624 7.009-27.409 3.953-43.983-25.017-82.531-64.708-86.098z" fill="#ffd23c"/><path d="m64.254 243.162 122.687 11.028 3.548-39.474-162.161-14.576c-1.96 21.801 14.125 41.063 35.926 43.022z" fill="#373c41"/><path d="m256.436 72.214-41.8 12.74" fill="none" stroke="#0540e5" stroke-linecap="round" stroke-miterlimit="10" stroke-width="20"/><circle cx="249.588" cy="115.117" fill="#2477f9" r="14.923"/><path d="m284.668 99.584-34.633 10.555" fill="none" stroke="#0540e5" stroke-linecap="round" stroke-miterlimit="10" stroke-width="20"/><circle cx="214.418" cy="89.744" fill="#2477f9" r="14.923"/><circle cx="287.07" cy="136.786" fill="#2477f9" r="14.923"/><g fill="none" stroke-linecap="round" stroke-miterlimit="10" stroke-width="20"><path d="m322.116 121.637-34.633 10.555" stroke="#0540e5"/><path d="m225.69 81.585-11.054 3.369" stroke="#003dc6"/><path d="m257.505 107.863-7.47 2.276" stroke="#003dc6"/><path d="m294.61 130.02-7.127 2.172" stroke="#003dc6"/></g><circle cx="156.65" cy="119.037" fill="#0360e8" r="39.138"/><circle cx="157.385" cy="110.854" fill="#fff" r="39.138"/><path d="m118.405 107.35c-1.935 21.528 13.948 40.549 35.476 42.484l7.008-77.961c-21.528-1.934-40.549 13.949-42.484 35.477z" fill="#c8e6eb"/></g></g></svg>