<svg id="Layer_1" enable-background="new 0 0 510.675 510.675" height="512" viewBox="0 0 510.675 510.675" width="512" xmlns="http://www.w3.org/2000/svg"><g><g><path d="m255.675.337c-98.131 0-158.58 55.352-158.747 55.445 0 0-2.513 3.137-2.983 5.222-3.818 16.948-7.385 39.663-7.385 56.238 0 140.833 118.763 254.972 259.596 254.972l153.837-190.146c-31.48-105.12-128.953-181.731-244.318-181.731z" fill="#9dc63d"/><path d="m346.133 365.017c-140.833 0-255-114.167-255-255 0-18.615 2.007-36.753 5.795-54.234-58.645 46.72-96.253 118.746-96.253 199.554 0 140.833 114.167 255 255 255 56.624 0 109.268-18.558 151.847-50.145z" fill="#69b76b"/></g><g><g><g><path d="m285.088 112.506 2.12 17.373 79.049 32.495 56.487-44.65c-23.013-10.272-48.505-15.99-75.335-15.99-21.893.001-42.827 3.791-62.321 10.772z" fill="#c8e6eb"/></g></g><path d="m402.089 415.284-80.175-32.544-67.302 53.49 1.483 11.482c45.742 25.964 99.566 30.582 147.397 15.408 1.353-.963 2.693-1.942 4.026-2.93z" fill="#1a1b1c"/><g><g><g><path d="m377.539 245.9-67.517 53.13 12.155 84.617 79.215 32.18 67.666-52.661-11.551-84.839z" fill="#fff"/></g></g><g><g><path d="m287.532 129.631-68.048 52.454 11.739 84.691 79.125 32.249 67.293-52.37-11.467-84.903z" fill="#373c41"/></g></g></g><path d="m510.04 237.444-52.912 41.179 11.93 84.543 14.818 6.059c9.321-18.656 16.448-38.642 20.999-59.649.178-1.087 5.801-23.477 5.801-54.239-.001-6.017-.225-11.98-.636-17.893z" fill="#373c41"/><path d="m483.916 369.143-14.859-6.137-67.666 52.821 6.103 44.38c32.04-23.763 58.372-54.904 76.422-91.064z" fill="#b4d7dc"/><g><g><path d="m255.586 435.471-33.109-12.24c10.095 9.201 21.669 17.674 33.619 24.48z" fill="#a5c8cd"/></g></g><g><path d="m310.348 299.025-79.214-32.179 90.954 116.871z" fill="#e4f2f6"/></g><path d="m510.04 237.444c-1.325-19.114-4.759-37.645-10.067-55.369-19.224-27.959-45.924-50.377-77.228-64.35l-56.572 44.026 11.467 84.903 79.487 31.968z" fill="#e4f2f6"/><g><g><path d="m232.047 267.111-12.441-85.121-19.137-7.663c-32.366 42.299-43.854 94.666-35.403 143.935z" fill="#a5c8cd"/></g></g><g><g><path d="m283.189 287.992-52.055-21.147-66.067 51.416c2.84 10.916 9.567 61.068 57.41 104.969.004.004-.004-.004 0 0l33.109 12.24 66.591-51.824-9.48-68.389c-10.754-7.982-20.724-17.182-29.508-27.265z" fill="#c8e6eb"/></g></g><g><g><path d="m283.042 287.827c-27.952-32.161-44.972-74.069-45.306-119.947l-18.253 14.205 11.65 84.761z" fill="#1a1b1c"/></g></g><path d="m466.717 346.276 2.341 16.889 14.818 6.059c5.374-10.755 10.022-21.95 13.86-33.532-9.914 4.401-20.28 7.966-31.019 10.584z" fill="#1a1b1c"/><g><g><path d="m312.587 315.176 9.59 68.472 79.215 32.179 67.666-52.661-2.545-16.838c-14.032 3.404-28.688 5.21-43.767 5.21-41.223 0-79.402-13.569-110.159-36.362z" fill="#e4f2f6"/></g></g><g><g><path d="m200.47 174.326 19.014 7.758 68.048-52.454-2.444-17.124c-33.842 12.091-63.143 33.839-84.618 61.82z" fill="#e4f2f6"/></g></g></g><g><g><path d="m181.044 252.532h40v162.131h-40z" fill="#ffa50a"/></g><g><path d="m181.044 252.532h40v65.532h-40z" fill="#fa870a"/></g><g><path d="m257.015 243.879c-8.284 0-15-6.716-15-15s6.716-15 15-15c35.945 0 67.995-24.125 77.94-58.667l23.3-80.932h-76.495c-8.284 0-15-6.716-15-15s6.716-15 15-15h96.424c4.712 0 9.15 2.214 11.984 5.979s3.733 8.643 2.43 13.171l-28.813 100.082c-6.722 23.351-20.537 43.417-39.951 58.03s-42.52 22.337-66.819 22.337z" fill="#ffa50a"/></g><g><path d="m257.015 243.879c-8.284 0-15-6.716-15-15s6.716-15 15-15c14.026 0 27.874-3.657 40.048-10.575l14.822 26.083c-16.683 9.481-35.657 14.492-54.87 14.492z" fill="#fa870a"/></g><g><path d="m281.76 44.279h69.88v30h-69.88z" fill="#fa870a"/></g><g><path d="m136.168 243.879c-24.299 0-47.404-7.724-66.818-22.337-19.413-14.613-33.229-34.68-39.95-58.03l-28.814-100.083c-1.304-4.528-.404-9.406 2.43-13.171s7.272-5.979 11.984-5.979h96.423c8.284 0 15 6.716 15 15s-6.716 15-15 15h-76.495l23.3 80.932c9.945 34.542 41.995 58.667 77.94 58.667 8.284 0 15 6.716 15 15s-6.716 15.001-15 15.001z" fill="#ffa50a"/></g><g><path d="m136.168 243.879c-19.213 0-38.187-5.011-54.87-14.492l14.822-26.083c12.174 6.918 26.021 10.575 40.048 10.575z" fill="#fa870a"/></g><g><path d="m41.544 44.279h69.879v30h-69.879z" fill="#fa870a"/></g><g><path d="m67.852 16.878c0 150.513 58.086 272.527 129.739 272.527s129.74-122.014 129.74-272.527z" fill="#ffd23c"/></g><g><path d="m256.938 414.663h-86.229v56.771h118.893v-24.107c0-18.04-14.625-32.664-32.664-32.664z" fill="#ffd23c"/></g><path d="m115.475 447.327v21.022c1.585 1.045 3.182 2.074 4.792 3.085h53.212v-24.107c0-18.04 14.624-32.664 32.664-32.664h-58.003c-18.041 0-32.665 14.624-32.665 32.664z" fill="#ffc627"/><path d="m258.464 179.039c9.786-12.418 15.555-28.215 15.19-45.506-.798-37.842-31.703-68.753-69.545-69.569-6.619-.143-13.039.619-19.142 2.171-32.819 8.341-65.485-14.579-69.281-48.228-.039-.343-.077-.686-.115-1.029h-47.719c0 150.513 58.086 272.527 129.74 272.527 36.213 0 68.954-31.177 92.49-81.435-.319.268-.638.533-.957.795-19.754 16.209-46.476-9.656-30.661-29.726z" fill="#ffc627"/><g><path d="m202.538 78.122 16.205 32.835 36.236 5.266-26.221 25.558 6.19 36.089-32.41-17.039-32.41 17.039 6.19-36.089-26.22-25.558 36.235-5.266z" fill="#ffe65a"/></g></g></g></svg>