<svg id="Layer_1" enable-background="new 0 0 511.414 511.414" height="512" viewBox="0 0 511.414 511.414" width="512" xmlns="http://www.w3.org/2000/svg"><g><g><path d="m508.697 288.628c1.1-8.823 2.01-19.839 2.01-32.214 0-140.833-114.167-255-255-255-98.131 0-158.58 55.352-158.747 55.445 0 0-2.513 3.137-2.983 5.222-3.818 16.948-7.385 39.663-7.385 56.238 0 65.469 25.676 125.161 67.293 170.308h354.812z" fill="#afe6ff"/><g><path d="m163.141 288.628c-44.542-45.911-71.976-108.515-71.976-177.535 0-18.615 2.007-36.753 5.795-54.234-58.644 46.72-96.253 118.747-96.253 199.555 0 10.912.688 21.663 2.019 32.214z" fill="#73c8f0"/></g></g><path d="m190.692 395.821h243.946l70.269-85.168c.113-.691 2.426-10.002 4.096-24.592h-348.324z" fill="#9dc63d"/><path d="m346.166 366.093c-73.092 0-138.992-30.761-185.487-80.032h-158.247c0 .002 0 .004.001.006 6.828 58.928 33.895 112.13 74.328 152.024h357.895c34.528-33.984 59.508-77.854 70.251-127.438-43.56 34.695-98.725 55.44-158.741 55.44z" fill="#69b76b"/><g><g fill="#fff"><path d="m121.482 331.865c-26.544 9.675-44.706 35.043-44.706 63.92v42.29c13.511 13.309 28.509 25.109 44.706 35.16z"/><path d="m211.581 311.266-46.037 10.218v173.494c14.742 5.578 30.139 9.82 46.037 12.602z"/><path d="m255.437 301.531-3.172.704v195.468l15.797 13.41c10.913-.532 21.654-1.76 32.187-3.625l.869-6.536v-189.312z"/><path d="m381.293 329.382-37.24-8.241v174.502c16.269-6.018 31.779-13.648 46.324-22.71v-140.86c-2.931-1.091-5.959-2-9.084-2.691z"/></g><g><path d="m255.437 281.355c-43.47 0-78.71 35.24-78.71 78.71 0 28.934 15.623 54.206 38.883 67.883l40.287-40.287 39.951 39.951c22.94-13.754 38.299-38.853 38.299-67.547.001-43.47-35.239-78.71-78.71-78.71z" fill="#e4f2f6"/></g><path d="m122.045 331.67c-26.848 9.521-45.269 35.035-45.269 64.115v42.29c13.669 13.465 28.854 25.393 45.269 35.517z" fill="#e4f2f6"/><path d="m165.544 321.484v173.49c7.052 2.668 14.243 5.054 21.578 7.098v-185.378z" fill="#e4f2f6"/><path d="m434.638 438.072v-42.251c0-28.983-18.294-54.426-44.993-64.023v141.609c16.295-10.072 31.384-21.939 44.993-35.335z" fill="#50555a"/><path d="m345.247 495.204v-173.799l-44.993-9.956v196.073c15.509-2.74 30.551-6.897 44.993-12.318z" fill="#50555a"/><g><path d="m300.254 424.763c20.479-14.211 33.894-37.884 33.894-64.698 0-16.345-4.984-31.525-13.513-44.107l-20.381-4.51z" fill="#373c41"/></g><path d="m255.437 301.531-44.574 9.893v196.056c4.32.766 8.678 1.424 13.07 1.971l31.922-8.039v-199.788z" fill="#50555a"/><g><path d="m210.863 311.425v113.49c1.545 1.064 3.125 2.079 4.747 3.033l40.246-40.246v-86.078l-.418-.093z" fill="#373c41"/></g><path d="m121.472 331.869v141.375c14.137 8.771 29.192 16.198 44.993 22.103v-174.068l-36.386 8.076c-2.954.656-5.826 1.5-8.607 2.514z" fill="#373c41"/><g><path d="m255.437 265.493c-43.47 0-78.71 35.24-78.71 78.71 0 28.934 15.623 54.206 38.883 67.883l40.287-40.287 39.951 39.951c22.94-13.754 38.299-38.853 38.299-67.547.001-43.47-35.239-78.71-78.71-78.71z" fill="#50555a"/></g><g><path d="m255.437 265.493c-43.47 0-78.71 35.24-78.71 78.71 0 28.934 15.623 54.206 38.883 67.883l40.287-40.287z" fill="#373c41"/></g><g><g><g><g><path d="m255.948 370.23c-20.073 0-36.344-16.272-36.344-36.344v-81.406h72.689v81.406c-.001 20.072-16.273 36.344-36.345 36.344z" fill="#ff965a"/></g></g></g><g><g><g><path d="m354.542 124.962c0-33.168-21.278-63.497-54.445-63.497h-88.298c-9.464 0-18.132 2.477-25.694 6.777v175.309c0 38.264 30.776 69.577 69.038 69.867.268.002.537.003.805.003 56.987 0 103.183-46.197 103.183-103.183v-32.575z" fill="#ffbe82"/></g></g></g><g><g><g><path d="m359.131 196.422v-61.331c13.361 0 24.193 10.831 24.193 24.193v12.946c0 13.36-10.831 24.192-24.193 24.192z" fill="#ff965a"/></g></g></g><g><g><g><path d="m127.55 172.229c0 13.361 10.832 24.193 24.193 24.193v-61.331c-13.361 0-24.193 10.831-24.193 24.193z" fill="#ff965a"/></g></g></g><g><g><g><path d="m211.366 171.679v7.276c0 4.746 3.848 8.594 8.594 8.594s8.594-3.848 8.594-8.594v-7.276z" fill="#ff965a"/></g></g></g><g><g><g><path d="m281.389 171.679v7.276c0 4.746 3.848 8.594 8.594 8.594s8.594-3.848 8.594-8.594v-7.276z" fill="#ff965a"/></g></g></g><g><g><path d="m261.541 313.271c-43.381-12.598-75.091-52.632-75.091-100.077.258-5.863 0-62.674 0-84.254 0-33.168 26.888-60.055 60.055-60.055h74.95c-6.593-2.56-13.782-3.977-21.358-3.977h-88.298c-33.168 0-57.782 24.614-57.782 57.782l-2.274 54.974v31.554c0 59.554 49.9 107.225 109.798 104.053z" fill="#ff965a"/></g></g><g><g><g><path d="m219.96 180.666c-4.746 0-8.594-3.848-8.594-8.594v-11.055l3.168-4.797-3.168-4.797v-2.855c0-4.746 3.848-8.594 8.594-8.594s8.594 3.848 8.594 8.594v23.504c0 4.746-3.848 8.594-8.594 8.594z" fill="#373c41"/></g></g></g><g><g><g><path d="m289.983 180.666c-4.746 0-8.594-3.848-8.594-8.594v-11.055l3.168-4.797-3.168-4.797v-2.855c0-4.746 3.848-8.594 8.594-8.594s8.594 3.848 8.594 8.594v23.504c0 4.746-3.848 8.594-8.594 8.594z" fill="#373c41"/></g></g></g><g><g><g><g><path d="m231.282 135.677h-25.062c-4.746 0-8.594-3.848-8.594-8.594 0-4.746 3.848-8.594 8.594-8.594h25.062c4.746 0 8.594 3.848 8.594 8.594 0 4.746-3.848 8.594-8.594 8.594z" fill="#783c28"/></g></g></g></g><g><g><g><g><path d="m302.898 135.677h-25.062c-4.746 0-8.594-3.848-8.594-8.594 0-4.746 3.848-8.594 8.594-8.594h25.062c4.746 0 8.594 3.848 8.594 8.594 0 4.746-3.847 8.594-8.594 8.594z" fill="#783c28"/></g></g></g></g><g><path d="m287.592 228.21h-8.849l-23.305 4.838-23.305-4.838h-7.828c-2.626 0-4.724 2.292-4.374 4.895.67 4.979 2.349 9.638 4.823 13.766l47.189 13.984c10.657-5.231 18.378-15.528 20.023-27.75.35-2.603-1.748-4.895-4.374-4.895z" fill="#c3247d"/></g><g><g><g><path d="m242.023 192.866c-2.136 8.531 1.746 17.824 9.171 20.625 1.494.564 3.092.869 4.754.869 1.661 0 3.26-.305 4.754-.869 7.425-2.801 11.308-12.094 9.171-20.625l-7.082-28.282c-1.783-7.12-11.902-7.12-13.685 0z" fill="#ff965a"/></g></g></g><g><path d="m359.131 91.87v-27.149h-173.692v6.215c.25-.121.5-.241.75-.357 10.095-4.692 21.089 4.946 17.662 15.538-.042.13-.084.261-.125.391-2.32 7.382 3.245 14.889 10.983 14.889h50.642c18.654 0 34.9-10.29 43.382-25.502 3.239-5.809 10.473-8.237 16.487-5.397.117.055.234.111.351.167 8.872 4.263 15.286 12.062 18.117 21.204l.259.779z" fill="#a55a3c"/></g><g><g><path d="m151.743 67.715v57.792.003 52.153c7.633 0 13.821-6.188 13.821-13.821v-61.026c0-13.479 7.586-25.903 19.707-31.799.297-.145.594-.286.89-.423v-2.878h-34.418z" fill="#783c28"/></g><g><path d="m351.465 83.525c-5.047 0-8.715 4.792-7.394 9.663.811 2.991 1.239 6.112 1.239 9.295v61.359c0 7.633 6.188 13.821 13.821 13.821v-86.472c0-4.234-3.432-7.666-7.666-7.666z" fill="#783c28"/></g></g><g><path d="m214.534 164.186c-1.75 0-3.168-1.418-3.168-3.168v-9.594c0-1.75 1.418-3.168 3.168-3.168 1.75 0 3.168 1.418 3.168 3.168v9.594c0 1.749-1.419 3.168-3.168 3.168z" fill="#fff"/></g><g><path d="m284.557 164.186c-1.75 0-3.168-1.418-3.168-3.168v-9.594c0-1.75 1.418-3.168 3.168-3.168 1.75 0 3.168 1.418 3.168 3.168v9.594c0 1.749-1.418 3.168-3.168 3.168z" fill="#fff"/></g></g><g><path d="m224.757 246.868c6.351 10.593 17.941 17.686 31.19 17.686 5.74 0 11.166-1.335 15.992-3.704-2.075-13.015-13.347-22.963-26.946-22.963-8.026 0-15.242 3.465-20.236 8.981z" fill="#dd544f"/></g><g><path d="m273.616 237.887h-36.357c-2.831 0-5.127-2.295-5.127-5.127v-4.55h46.611v4.55c0 2.831-2.296 5.127-5.127 5.127z" fill="#fff"/></g><g><path d="m319.847 0h-94.595l-3.546.036c-20.089.203-36.267 16.546-36.267 36.635v28.05h173.692v-25.437c0-21.696-17.588-39.284-39.284-39.284z" fill="#a55a3c"/></g><g><path d="m225.252 0h-34.224c-21.696 0-39.284 17.588-39.284 39.284v29.463l34.418-1.033-.194-28.43c0-21.696 17.588-39.284 39.284-39.284z" fill="#783c28"/></g><g><path d="m259.088 414.717-7.301-5.262 31.198-43.387c6.067-8.419 9.274-18.355 9.274-28.732v-30.53l9-3.841v34.371c0 12.278-3.795 24.033-10.974 33.994z" fill="#c8e6eb"/></g><g><g><circle cx="247.254" cy="443.389" fill="#2477f9" r="23.32"/></g><g><path d="m247.254 420.069h20.807v14h-20.807z" fill="#2477f9"/></g><g><path d="m256.401 431.64c-6.38 0-11.569-5.19-11.569-11.57s5.189-11.571 11.569-11.571 11.57 5.191 11.57 11.571-5.191 11.57-11.57 11.57zm0-15.967c-2.424 0-4.396 1.972-4.396 4.396s1.972 4.396 4.396 4.396 4.396-1.972 4.396-4.396-1.973-4.396-4.396-4.396z" fill="#2477f9"/></g><path d="m223.934 509.446c7.672.954 15.452 1.557 23.32 1.814v-67.87h-23.32z" fill="#2477f9"/><g><circle cx="268.061" cy="443.389" fill="#2896ff" r="23.32"/></g><path d="m244.741 511.164c3.638.154 7.291.25 10.966.25 4.141 0 8.258-.108 12.354-.305v-67.72h-23.32z" fill="#2896ff"/><g><circle cx="268.061" cy="443.389" fill="#2477f9" r="10.963"/></g><g><path d="m223.934 481.833h15.525v14.477h-15.525z" fill="#0540e5"/></g><g><path d="m223.934 470.379h15.525v6.177h-15.525z" fill="#0540e5"/></g><g><path d="m223.934 459.795h15.525v6.177h-15.525z" fill="#0540e5"/></g><g><path d="m223.934 449.211h15.525v6.177h-15.525z" fill="#0540e5"/></g></g><g><path d="m259.756 416.326c-2.016 1.453-4.828.996-6.281-1.02l-31.69-43.976c-7.179-9.962-10.973-21.717-10.973-33.994l.051-34.148 8.949 3.711v30.436c0 10.313 3.244 20.364 9.273 28.731l31.691 43.978c1.453 2.017.996 4.829-1.02 6.282z" fill="#fff"/></g></g></g></svg>