<svg id="Layer_1" enable-background="new 0 0 510.562 510.562" height="512" viewBox="0 0 510.562 510.562" width="512" xmlns="http://www.w3.org/2000/svg"><g><g><path d="m255.281.562c-98.131 0-158.58 55.352-158.747 55.445 0 0-2.513 3.137-2.983 5.222-3.818 16.948-7.385 39.663-7.385 56.238 0 140.833 118.763 254.972 259.596 254.972 54.231 0 114.568-25.992 154.949-57.243.903-.699 3.769-5.396 3.769-5.396.178-1.087 5.8-23.477 5.8-54.239.001-140.832-114.166-254.999-254.999-254.999z" fill="#9dc63d"/><path d="m345.74 365.241c-140.833 0-255-114.167-255-255 0-18.615 2.008-36.753 5.795-54.234-58.645 46.72-96.254 118.747-96.254 199.555 0 26.406 4.014 51.875 11.464 75.829l137.346 156.077c32.329 14.828 68.294 23.094 106.189 23.094 39.997 0 78.009-9.259 111.889-25.83l128.623-144.271c3.505-9.941 6.415-20.174 8.687-30.66-43.558 34.695-98.723 55.44-158.739 55.44z" fill="#69b76b"/></g><path d="m196.19 447.354-89.317-51.48 24.541-42.578 89.317 51.48c11.758 6.777 15.795 21.802 9.019 33.56-6.777 11.757-21.803 15.795-33.56 9.018z" fill="#ffbe82"/><path d="m232.83 411.749-89.317-51.48 24.541-42.578 89.317 51.48c11.758 6.777 15.795 21.802 9.019 33.56-6.778 11.757-21.803 15.795-33.56 9.018z" fill="#ffbe82"/><path d="m68.432 254.2 48.872 215.845c10.126 6.528 20.745 12.358 31.787 17.423 23.245-11.774 39.183-35.878 39.183-63.717v-169.551z" fill="#ff965a"/><path d="m68.432 254.2 27.221 200.23c6.929 5.569 14.155 10.783 21.651 15.615v-2.719c0-23.676 19.193-42.87 42.87-42.87 15.632-.393 28.101-13.178 28.101-28.815v-141.441z" fill="#f98043"/><path d="m11.822 310.811v20.825c13.677 43.817 38.857 82.556 72.005 112.684v-133.509c0-31.265 25.345-56.61 56.61-56.61h-72.005c-31.265-.001-56.61 25.345-56.61 56.61z" fill="#ffbe82"/><path d="m246.185 391.604-144.23 19.992c-9.642 1.336-18.541-5.396-19.878-15.038l-32.862-237.083c-1.336-9.642 5.396-18.541 15.038-19.878l144.23-19.992c9.642-1.336 18.541 5.396 19.878 15.038l32.862 237.083c1.337 9.642-5.396 18.541-15.038 19.878z" fill="#dd544f"/><path d="m160.806 353.628c-9.642 1.336-18.541-5.396-19.877-15.038l-28.509-205.669-48.167 6.677c-9.642 1.336-16.374 10.236-15.038 19.878l32.862 237.083c1.336 9.642 10.236 16.374 19.878 15.038l144.23-19.992c9.642-1.336 16.374-10.236 15.038-19.878l-4.354-31.414z" fill="#d80a61"/><path d="m111.781 248.887c-27.423 28.997-8.351 8.831-81.528 86.206l.001.027c-4.188 5.126-7.806 11.15-10.703 17.86 16.523 39.939 42.901 74.766 76.102 101.45 14.11-13.598 23.368-36.445 23.368-62.336 0-12.794-2.264-24.839-6.256-35.394-4.345-11.486-1.874-24.431 6.678-33.244l32.952-33.956c11.215-11.215 11.215-29.398 0-40.613-11.216-11.215-29.399-11.215-40.614 0z" fill="#ffbe82"/><path d="m108.076 271.821-9.532-9.146 23.071-24.044c7.413-7.725 19.684-7.979 27.41-.566l.896.86c3.809 3.655 3.934 9.707.279 13.516l-18.121 18.885c-6.492 6.764-17.238 6.986-24.003.495z" fill="#ffcea1"/><path d="m311.425 328.479 89.317-51.48-24.541-42.578-89.317 51.48c-11.758 6.777-15.795 21.802-9.019 33.56 6.777 11.757 21.802 15.795 33.56 9.018z" fill="#ffbe82"/><path d="m274.785 292.874 89.317-51.48-24.541-42.578-89.317 51.48c-11.758 6.777-15.795 21.802-9.019 33.56 6.777 11.757 21.802 15.795 33.56 9.018z" fill="#ffbe82"/><path d="m391.059 135.325h-71.719v169.55c0 31.172 19.982 57.662 47.83 67.402v112.454c7.433-3.635 14.667-7.622 21.68-11.941.742-.457 1.473-.929 2.209-1.393z" fill="#ff965a"/><path d="m424.847 445.998v-310.673h-105.507v141.441c0 15.637 12.468 28.423 28.101 28.815 23.676 0 42.87 19.193 42.87 42.87v123.433c12.239-7.65 23.789-16.319 34.536-25.886z" fill="#f98043"/><path d="m439.182 135.325h-72.005c31.265 0 56.61 25.345 56.61 56.61v255.005c32.249-28.394 57.334-64.871 72.005-106.481v-148.523c.001-31.265-25.344-56.611-56.61-56.611z" fill="#ffbe82"/><path d="m427.828 273.363-144.908 14.268c-9.687.954-18.313-6.126-19.267-15.813l-23.452-238.198c-.954-9.687 6.126-18.313 15.813-19.267l144.908-14.267c9.687-.954 18.313 6.126 19.267 15.813l23.453 238.197c.953 9.687-6.127 18.313-15.814 19.267z" fill="#ffd23c"/><path d="m344.019 232.037c-9.687.954-18.313-6.126-19.267-15.813l-20.345-206.635-48.393 4.765c-9.687.954-16.767 9.58-15.813 19.267l23.453 238.197c.954 9.687 9.58 16.767 19.267 15.813l144.908-14.267c9.687-.954 16.767-9.58 15.813-19.267l-3.108-31.562z" fill="#ffa50a"/><path d="m355.22 130.012c11.215-11.215 29.398-11.215 40.613 0 27.423 28.997 8.351 8.831 81.528 86.206l-.001.027c11.306 13.84 18.464 34.223 18.464 56.973 0 41.691-24.005 75.488-53.616 75.488s-53.616-33.797-53.616-75.488c0-12.794 2.264-24.839 6.256-35.394 4.345-11.486 1.874-24.431-6.678-33.244l-32.952-33.956c-11.213-11.214-11.213-29.397.002-40.612z" fill="#ffbe82"/><path d="m399.539 152.946 9.532-9.146-23.071-24.044c-7.413-7.725-19.684-7.979-27.41-.566l-.896.86c-3.809 3.655-3.934 9.707-.279 13.516l18.121 18.885c6.491 6.765 17.238 6.987 24.003.495z" fill="#ffcea1"/></g></svg>