<svg id="Layer_1" enable-background="new 0 0 510.399 510.399" height="512" viewBox="0 0 510.399 510.399" width="512" xmlns="http://www.w3.org/2000/svg"><g><g><path d="m173.954 307.244c46.16 40.315 106.669 64.834 171.927 64.834 54.231 0 114.568-25.992 154.949-57.243.903-.699 3.769-5.396 3.769-5.396.029-.178.206-.935.477-2.195z" fill="#9dc63d"/><g><path d="m184.392 307.244h-178.67c24.03 115.872 126.681 202.956 249.677 202.956 121.17 0 224.116-84.98 249.2-200.761-43.559 34.696-98.724 55.441-158.741 55.441-61.274-.001-117.494-21.62-161.466-57.636z" fill="#69b76b"/></g></g><g><path d="m99.617 53.138v46.886h104.163v-94.604c-56.678 11.619-93.795 39.255-104.163 47.718z" fill="#e1faff"/><path d="m99.951 100.024v-47.158c-2.158 1.75-3.276 2.767-3.298 2.779-16.271 12.963-30.923 27.873-43.601 44.379z" fill="#1a1b1c"/><path d="m307.608 5.549c-16.853-3.506-34.315-5.349-52.209-5.349-18.746 0-36.116 2.02-51.954 5.289v94.536h104.163z" fill="#373c41"/><path d="m411.437 53.499c-30.085-23.308-65.526-40.034-104.163-48.019v94.544h104.163z" fill="#fff"/><path d="m411.102 53.24v46.784h46.663c-13.467-17.536-29.162-33.272-46.663-46.784z" fill="#373c41"/><path d="m99.617 100.024h104.163v104.163h-104.163z" fill="#1a1b1c"/><path d="m5.506 204.187h94.445v-104.163h-46.9c-23.138 30.123-39.703 65.56-47.545 104.163z" fill="#e1faff"/><path d="m203.445 100.024h104.163v104.163h-104.163z" fill="#fff"/><path d="m307.274 100.024h104.163v104.163h-104.163z" fill="#373c41"/><path d="m457.766 100.024h-46.663v104.163h94.193c-7.838-38.603-24.397-74.04-47.53-104.163z" fill="#fff"/><path d="m99.617 204.187h104.163v104.163h-104.163z" fill="#e1faff"/><path d="m.399 255.2c0 18.227 1.913 36.007 5.547 53.151h94.004v-104.164h-94.444c-3.348 16.483-5.107 33.542-5.107 51.013z" fill="#1a1b1c"/><path d="m203.445 204.187h104.163v104.163h-104.163z" fill="#1a1b1c"/><path d="m307.274 204.187h104.163v104.163h-104.163z" fill="#fff"/><path d="m411.102 308.35h93.732c1.095-4.951 5.565-25.722 5.565-53.151 0-17.47-1.757-34.53-5.104-51.012h-94.193z" fill="#1a1b1c"/></g><g><path d="m379.864 255.157c0 7.479-6.063 13.541-13.541 13.541h-64.681c-7.479 0-13.541-6.063-13.541-13.541 0-7.479-6.063-13.541-13.541-13.541h-138.679v153.099l349.771-71.284c9.608-1.958 16.51-10.409 16.51-20.215v-40.97c0-11.394-9.236-20.63-20.63-20.63h-88.128c-7.478 0-13.54 6.062-13.54 13.541z" fill="#ffc627"/><path d="m135.881 394.714 157.732-32.146c-1.501-49.382-25.686-93.052-62.491-120.952h-95.242v153.098z" fill="#ffa50a"/><circle cx="39.917" cy="469.648" fill="none" r="27.417" stroke="#ffd23c" stroke-miterlimit="10" stroke-width="25"/><circle cx="135.881" cy="367.45" fill="#ffd23c" r="125.835"/><path d="m201.201 420.679c-69.497 0-125.835-56.338-125.835-125.835 0-14.459 2.446-28.344 6.934-41.275-42.699 20.125-72.254 63.548-72.254 113.881 0 69.497 56.338 125.835 125.835 125.835 55.038 0 101.816-35.338 118.9-84.56-16.257 7.663-34.416 11.954-53.58 11.954z" fill="#ffc627"/><circle cx="135.881" cy="367.45" fill="#ffa50a" r="58.894"/></g></g></svg>