<svg id="Layer_1" enable-background="new 0 0 510.937 510.937" height="512" viewBox="0 0 510.937 510.937" width="512" xmlns="http://www.w3.org/2000/svg"><g><g><g><path d="m255.468.937c-98.131 0-158.58 55.352-158.747 55.445 0 0-2.513 3.137-2.983 5.222-3.818 16.948-7.385 39.663-7.385 56.238 0 140.833 118.763 254.972 259.596 254.972 54.231 0 114.568-25.992 154.949-57.243.903-.699 3.769-5.396 3.769-5.396.178-1.087 5.8-23.477 5.8-54.239.001-140.832-114.166-254.999-254.999-254.999z" fill="#afe6ff"/></g><g fill="#73c8f0"><path d="m435.402 349.468 59.386-5.324c4.041-10.974 7.355-22.316 9.879-33.969-20.707 16.494-44.037 29.835-69.265 39.293z"/><path d="m90.927 110.616c0-18.615 2.007-36.753 5.795-54.234-58.645 46.72-96.254 118.747-96.254 199.555 0 47.219 12.834 91.441 35.205 129.367l264.756-23.735c-119.124-21.455-209.502-125.65-209.502-250.953z"/></g></g><g><g fill="#fff"><path d="m80 331.718c-23.497 8.388-40.513 29.034-44.327 53.586 12.141 20.584 27.094 39.31 44.327 55.656z"/><path d="m144.483 316.856v168.699c8.034 3.891 16.294 7.387 24.772 10.432v-184.629z"/><path d="m213.559 301.539v205.964c13.636 2.255 27.634 3.434 41.909 3.434 1.11 0 2.215-.025 3.323-.039v-199.35z"/><path d="m339.382 329.382-36.287-8.03v185.124c15.55-2.947 30.623-7.309 45.071-12.953v-161.565c-2.836-1.042-5.767-1.909-8.784-2.576z"/></g><g><path d="m213.526 281.355c-43.47 0-78.71 35.24-78.71 78.71 0 28.934 15.623 54.206 38.883 67.883l40.287-40.287 39.951 39.951c22.94-13.754 38.299-38.853 38.299-67.547.001-43.47-35.239-78.71-78.71-78.71z" fill="#e4f2f6"/></g><path d="m79.719 331.821c-23.351 8.452-40.247 29.028-44.045 53.482 12.075 20.472 26.931 39.108 44.045 55.392z" fill="#e4f2f6"/><path d="m124.023 321.397v153.092c6.859 4.134 13.928 7.958 21.188 11.445v-169.24z" fill="#e4f2f6"/><path d="m347.734 331.798v161.901c7.903-3.07 15.619-6.524 23.126-10.339.617-.313 1.232-.629 1.846-.948l20.021-86.591c0-28.983-18.294-54.426-44.993-64.023z" fill="#50555a"/><path d="m303.336 506.435v-185.03l-44.993-9.956v199.472c15.339-.171 30.377-1.703 44.993-4.486z" fill="#50555a"/><g><path d="m258.343 424.763c20.479-14.211 33.894-37.884 33.894-64.698 0-16.345-4.984-31.525-13.513-44.107l-20.381-4.51z" fill="#373c41"/></g><path d="m168.952 311.425v184.46c14.437 5.206 29.479 9.147 44.992 11.687v-205.948l-.418-.093z" fill="#50555a"/><g><path d="m168.952 311.425v113.49c1.545 1.064 3.125 2.079 4.747 3.033l40.246-40.246v-86.078l-.418-.093z" fill="#373c41"/></g><path d="m79.561 331.869v108.681c13.645 13.006 28.731 24.514 44.993 34.262v-153.533l-36.386 8.076c-2.954.656-5.826 1.5-8.607 2.514z" fill="#373c41"/><g><path d="m213.526 265.493c-43.47 0-78.71 35.24-78.71 78.71 0 28.934 15.623 54.206 38.883 67.883l40.287-40.287 39.951 39.951c22.94-13.754 38.299-38.853 38.299-67.547.001-43.47-35.239-78.71-78.71-78.71z" fill="#50555a"/></g><g><path d="m213.526 265.493c-43.47 0-78.71 35.24-78.71 78.71 0 28.934 15.623 54.206 38.883 67.883l40.287-40.287z" fill="#373c41"/></g><g><g><g><g><path d="m214.037 370.23c-20.073 0-36.344-16.272-36.344-36.344v-81.406h72.689v81.406c-.001 20.072-16.273 36.344-36.345 36.344z" fill="#ff965a"/></g></g></g><g><g><g><path d="m312.631 124.962c0-33.168-21.278-63.497-54.445-63.497h-88.298c-9.464 0-18.132 2.477-25.694 6.777v175.309c0 38.264 30.776 69.577 69.038 69.867.268.002.537.003.805.003 56.987 0 103.183-46.197 103.183-103.183v-32.575z" fill="#ffbe82"/></g></g></g><g><g><g><path d="m317.22 196.422v-61.331c13.361 0 24.193 10.831 24.193 24.193v12.946c0 13.36-10.831 24.192-24.193 24.192z" fill="#ff965a"/></g></g></g><g><g><g><path d="m85.639 172.229c0 13.361 10.832 24.193 24.193 24.193v-61.331c-13.361 0-24.193 10.831-24.193 24.193z" fill="#ff965a"/></g></g></g><g><g><g><path d="m169.455 171.679v7.276c0 4.746 3.848 8.594 8.594 8.594s8.594-3.848 8.594-8.594v-7.276z" fill="#ff965a"/></g></g></g><g><g><g><path d="m239.478 171.679v7.276c0 4.746 3.848 8.594 8.594 8.594s8.594-3.848 8.594-8.594v-7.276z" fill="#ff965a"/></g></g></g><g><g><path d="m219.63 313.271c-43.381-12.598-75.091-52.632-75.091-100.077.258-5.863 0-62.674 0-84.254 0-33.168 26.888-60.055 60.055-60.055h74.95c-6.593-2.56-13.782-3.977-21.358-3.977h-88.298c-33.168 0-57.782 24.614-57.782 57.782l-2.274 54.974v31.554c0 59.554 49.9 107.225 109.798 104.053z" fill="#ff965a"/></g></g><g><g><g><path d="m178.049 180.666c-4.746 0-8.594-3.848-8.594-8.594v-11.055l3.168-4.797-3.168-4.797v-2.855c0-4.746 3.848-8.594 8.594-8.594s8.594 3.848 8.594 8.594v23.504c0 4.746-3.848 8.594-8.594 8.594z" fill="#373c41"/></g></g></g><g><g><g><path d="m248.072 180.666c-4.746 0-8.594-3.848-8.594-8.594v-11.055l3.168-4.797-3.168-4.797v-2.855c0-4.746 3.848-8.594 8.594-8.594s8.594 3.848 8.594 8.594v23.504c0 4.746-3.848 8.594-8.594 8.594z" fill="#373c41"/></g></g></g><g><g><g><g><path d="m189.371 135.677h-25.062c-4.746 0-8.594-3.848-8.594-8.594 0-4.746 3.848-8.594 8.594-8.594h25.062c4.746 0 8.594 3.848 8.594 8.594 0 4.746-3.848 8.594-8.594 8.594z" fill="#783c28"/></g></g></g></g><g><g><g><g><path d="m260.987 135.677h-25.062c-4.746 0-8.594-3.848-8.594-8.594 0-4.746 3.848-8.594 8.594-8.594h25.062c4.746 0 8.594 3.848 8.594 8.594 0 4.746-3.847 8.594-8.594 8.594z" fill="#783c28"/></g></g></g></g><g><g><g><path d="m200.112 192.866c-2.136 8.531 1.746 17.824 9.171 20.625 1.494.564 3.092.869 4.754.869 1.661 0 3.26-.305 4.754-.869 7.425-2.801 11.308-12.094 9.171-20.625l-7.082-28.282c-1.783-7.12-11.902-7.12-13.685 0z" fill="#ff965a"/></g></g></g><g><path d="m317.22 91.87v-27.149h-173.692v6.215c.25-.121.5-.241.75-.357 10.095-4.692 21.089 4.946 17.662 15.538-.042.13-.084.261-.125.391-2.32 7.382 3.245 14.889 10.983 14.889h50.642c18.654 0 34.9-10.29 43.382-25.502 3.239-5.809 10.473-8.237 16.487-5.397.117.055.234.111.351.167 8.872 4.263 15.286 12.062 18.117 21.204l.259.779z" fill="#a55a3c"/></g><g><g><path d="m109.832 67.715v57.792.003 52.153c7.633 0 13.821-6.188 13.821-13.821v-61.026c0-13.479 7.586-25.903 19.707-31.799.297-.145.594-.286.89-.423v-2.878h-34.418z" fill="#783c28"/></g><g><path d="m309.554 83.525c-5.047 0-8.715 4.792-7.394 9.663.811 2.991 1.239 6.112 1.239 9.295v61.359c0 7.633 6.188 13.821 13.821 13.821v-86.472c0-4.234-3.432-7.666-7.666-7.666z" fill="#783c28"/></g></g><g><path d="m172.623 164.186c-1.75 0-3.168-1.418-3.168-3.168v-9.594c0-1.75 1.418-3.168 3.168-3.168 1.75 0 3.168 1.418 3.168 3.168v9.594c0 1.749-1.419 3.168-3.168 3.168z" fill="#fff"/></g><g><path d="m242.646 164.186c-1.75 0-3.168-1.418-3.168-3.168v-9.594c0-1.75 1.418-3.168 3.168-3.168 1.75 0 3.168 1.418 3.168 3.168v9.594c0 1.749-1.418 3.168-3.168 3.168z" fill="#fff"/></g></g><g><path d="m277.936 0h-94.595l-3.546.036c-20.089.203-36.267 16.546-36.267 36.635v28.05h173.692v-25.437c0-21.696-17.588-39.284-39.284-39.284z" fill="#a55a3c"/></g><g><path d="m183.341 0h-34.224c-21.696 0-39.284 17.588-39.284 39.284v29.463l34.418-1.033-.194-28.43c0-21.696 17.588-39.284 39.284-39.284z" fill="#783c28"/></g></g><g><g><circle cx="221.963" cy="305.007" fill="#2477f9" r="19.912"/></g><g><path d="m204.196 312.965h17.767v11.954h-17.767z" fill="#2477f9" transform="matrix(-1 0 0 -1 426.159 637.884)"/></g><g><path d="m214.152 334.799c-5.448 0-9.879-4.432-9.879-9.88s4.432-9.879 9.879-9.879 9.879 4.432 9.879 9.879-4.431 9.88-9.879 9.88zm0-13.633c-2.07 0-3.753 1.684-3.753 3.753s1.684 3.754 3.753 3.754 3.753-1.684 3.753-3.754-1.683-3.753-3.753-3.753z" fill="#2477f9"/></g><g><path d="m221.963 245.742h19.912v59.265h-19.912z" fill="#2477f9" transform="matrix(-1 0 0 -1 463.838 550.749)"/></g><g><circle cx="204.196" cy="305.007" fill="#2896ff" r="19.912"/></g><g><path d="m204.196 245.742h19.912v59.265h-19.912z" fill="#2896ff" transform="matrix(-1 0 0 -1 428.304 550.749)"/></g><g><circle cx="204.196" cy="305.007" fill="#2477f9" r="9.361"/></g><g><path d="m228.618 259.82h13.256v12.362h-13.256z" fill="#0540e5" transform="matrix(-1 0 0 -1 470.493 532.002)"/></g><g><path d="m228.618 276.687h13.256v5.274h-13.256z" fill="#0540e5" transform="matrix(-1 0 0 -1 470.493 558.649)"/></g><g><path d="m228.618 285.725h13.256v5.274h-13.256z" fill="#0540e5" transform="matrix(-1 0 0 -1 470.493 576.723)"/></g><g><path d="m228.618 294.762h13.256v5.274h-13.256z" fill="#0540e5" transform="matrix(-1 0 0 -1 470.493 594.798)"/></g></g><g><path d="m204.196 259.467c-.883 0-1.781-.196-2.631-.608-2.982-1.446-4.214-5.061-2.768-8.043 4.255-8.776 19.157-22.925 45.097-13.654 3.12 1.115 4.746 4.549 3.63 7.669-1.115 3.12-4.55 4.746-7.669 3.63-21.692-7.752-29.471 6.043-30.287 7.643-1.033 2.133-3.156 3.363-5.372 3.363z" fill="#ff965a"/></g><g><path d="m152.511 271.494c-2.856 0-5.388-2.047-5.902-4.958-5.396-30.546 11.299-44.898 20.88-48.219 3.129-1.086 6.549.573 7.634 3.704 1.08 3.113-.555 6.511-3.652 7.616-.856.322-17.936 7.122-13.044 34.812.576 3.263-1.602 6.375-4.865 6.952-.353.063-.704.093-1.051.093z" fill="#ff965a"/></g><g><path d="m321.086 271.493h-45.796c-3.313 0-6-2.687-6-6s2.687-6 6-6h45.796c3.313 0 6 2.687 6 6s-2.687 6-6 6z" fill="#ffd23c"/></g><g><path d="m275.289 250.741c-2.524 0-4.873-1.605-5.701-4.134-1.031-3.149.686-6.538 3.834-7.57l45.796-15c3.153-1.035 6.539.685 7.57 3.834s-.686 6.538-3.834 7.57l-45.796 15c-.621.204-1.25.3-1.869.3z" fill="#ffd23c"/></g><g><path d="m372.707 405.006v77.407c25.962-13.463 49.365-31.271 69.205-52.512l13.176-24.894h-82.381z" fill="#ff965a"/><g><g><path d="m431.534 414.655h-58.827v-81.187c0-29.683 24.063-53.746 53.746-53.746 24.89 0 45.067 20.177 45.067 45.067v49.881c0 22.083-17.903 39.985-39.986 39.985z" fill="#ffbe82"/></g></g><g><g><path d="m448.622 386.574c-18.216 0-35.192-11.943-35.192-30.158v-48.206c0-10.366 2.938-20.045 8.022-28.255-27.338 2.523-48.746 25.516-48.746 53.513v81.187h58.827c16.88 0 31.307-10.466 37.173-25.258z" fill="#ff965a"/></g></g><g><path d="m462.559 346.455v-120.363c0-7.697-6.24-13.937-13.937-13.937h-66.409v134.3z" fill="#dd544f"/></g><g><path d="m396.849 342.455c-7.697 0-13.937-6.24-13.937-13.937v-116.363h-29.18c-7.697 0-13.937 6.24-13.937 13.937v146.546c0 7.697 6.24 13.937 13.937 13.937h94.89c7.697 0 13.937-6.24 13.937-13.937v-30.182z" fill="#d80a61"/></g><g><g><path d="m405.803 350.625c-3.957-1.816-7.21-5.154-8.809-9.571-3.165-8.743 1.356-18.396 10.099-21.562l58.89-19.745c8.744-3.165 18.397 1.357 21.562 10.099 3.165 8.743-1.356 18.396-10.099 21.562l-58.89 19.745c-4.327 1.567-8.877 1.251-12.753-.528z" fill="#ffbe82"/></g></g><path d="m494.159 341.962c-3.165-8.743-12.818-13.265-21.562-10.099l-41.77 13.64c-8.743 3.165-13.265 12.819-10.099 21.562 1.599 4.417 4.852 7.755 8.809 9.571 3.875 1.779 8.426 2.095 12.753.529l41.77-13.64c1.24-.449 2.396-1.029 3.457-1.718 2.635-5.771 5.062-11.662 7.271-17.662-.159-.731-.368-1.46-.629-2.183z" fill="#ffbe82"/><g><g><path d="m445.669 357.577c-2.219-5.786-8.673-8.752-14.525-6.634l-9.333 3.379c-2.454.888-3.953 3.411-3.484 5.978.787 4.304 2.427 8.644 4.871 13.017 1.279 2.288 4.055 3.284 6.52 2.392l8.908-3.225c6.01-2.175 9.332-8.94 7.043-14.907z" fill="#ffcea1"/></g></g><g><g><path d="m421.208 331.732c-2.219-5.786-8.673-8.752-14.525-6.634l-9.333 3.379c-2.454.888-3.953 3.411-3.484 5.978.787 4.304 2.427 8.644 4.871 13.017 1.279 2.288 4.055 3.284 6.52 2.392l8.908-3.225c6.009-2.176 9.331-8.94 7.043-14.907z" fill="#ffcea1"/></g></g><path d="m488.556 355.524-39.92 13.327c-8.743 3.165-13.265 12.819-10.099 21.562 1.599 4.417 4.852 7.755 8.809 9.571 3.876 1.779 8.426 2.095 12.753.529l7.067-2.359c9.1-13.52 16.945-27.976 23.363-43.21-.662.15-1.32.343-1.973.58z" fill="#ffbe82"/><path d="m444.762 402.623c-7.914 2.865-12.007 11.603-9.141 19.517 1.214 3.352 3.48 6.017 6.291 7.76 10.608-11.357 20.198-23.695 28.615-36.876z" fill="#ffbe82"/><g><g><path d="m463.488 380.489c-2.219-5.786-8.672-8.752-14.525-6.634l-9.333 3.379c-2.454.888-3.953 3.411-3.484 5.978.787 4.304 2.427 8.644 4.871 13.017 1.279 2.288 4.055 3.284 6.52 2.392l8.908-3.225c6.009-2.176 9.331-8.941 7.043-14.907z" fill="#ffcea1"/></g></g><path d="m443.411 408.567-8.222 2.977c-2.162.783-3.483 3.005-3.069 5.267.694 3.792 2.138 7.615 4.291 11.468.97 1.736 2.919 2.628 4.828 2.34 5.118-5.438 10.002-11.103 14.635-16.98-2.211-4.584-7.575-6.841-12.463-5.072z" fill="#ffcea1"/></g></g></svg>