<svg id="Layer_1" enable-background="new 0 0 510 510" height="512" viewBox="0 0 510 510" width="512" xmlns="http://www.w3.org/2000/svg"><g><g><path d="m255 0c-98.131 0-158.58 55.352-158.747 55.445 0 0-2.513 3.137-2.983 5.222-3.818 16.948-7.385 39.663-7.385 56.238 0 140.833 118.763 254.972 259.596 254.972 54.231 0 114.568-25.992 154.949-57.243.903-.699 3.769-5.396 3.769-5.396.178-1.087 5.8-23.477 5.8-54.239.001-140.832-114.166-254.999-254.999-254.999z" fill="#9dc63d"/><path d="m345.459 364.679c-140.833 0-255-114.167-255-255 0-18.615 2.007-36.753 5.795-54.234-58.645 46.72-96.254 118.747-96.254 199.555 0 23.786 3.257 46.811 9.349 68.654l361.638 158.466c66.714-34.129 116.744-96.867 133.212-172.882-43.559 34.696-98.724 55.441-158.74 55.441z" fill="#69b76b"/></g><g><path d="m16.155 302.963 16.333 55.716 76.523 19.964 57.064-57.354-22.434-79.198-70.599-12.733c-25.131 18.663-45.006 44.151-56.887 73.605z" fill="#e4f2f6"/><g fill="#c8e6eb"><path d="m130.568 450.961-15.843 17.023c26.165 17.268 55.7 29.843 87.406 36.528l5.207-34.972z"/><path d="m290.867 283.056 37.478 7.746c-12.078-24.311-30.014-45.531-51.619-61.59z"/><path d="m174.981 195.691c-38.196 0-73.462 12.517-101.939 33.665l67.358 16.361 46.845-49.585c-4.032-.283-8.159-.441-12.264-.441z"/></g><path d="m238.386 338.692-75.902-18.268-53.772 56.6 22.131 74.867 75.903 18.268 54.329-56.465z" fill="#fff"/><path d="m26.309 367.935 9.179-8.534-19.333-56.438c-2.681 6.682-4.962 13.594-6.806 20.691 4.294 15.397 9.996 30.206 16.96 44.281z" fill="#b4d7dc"/><path d="m32.488 358.679-7.057 7.465c20.195 41.636 51.383 76.95 89.793 102.169l15.619-16.421-22.131-74.867z" fill="#1a1b1c"/><path d="m140.353 245.557 22.131 74.867 75.903 18.268 53.466-56.673-15.125-52.807c-25.3-18.662-56.233-30.713-89.481-33.079z" fill="#373c41"/><path d="m346.14 366.85c0-27.319-6.411-53.137-17.794-76.048l-36.493-8.783-53.772 56.6 22.651 74.993 72.894 17.569c8.056-19.856 12.514-41.584 12.514-64.331z" fill="#e4f2f6"/><path d="m115.787 369.577c-23.727-29.377-38-66.824-38-107.527 0-10.545.97-20.862 2.797-30.879l-7.541-1.815c-26.048 19.349-45.453 45.259-56.887 73.606l16.333 55.716 76.224 18.345z" fill="#c8e6eb"/><path d="m241.994 433.057c-50.964-2.037-96.188-26.352-126.207-63.48l-7.074 7.446 22.131 74.868 75.903 18.268z" fill="#e4f2f6"/></g><g><path d="m331.187 81.172v214.831l52.781-.573v-214.258c0-14.575-11.815-26.391-26.391-26.391-14.574 0-26.39 11.815-26.39 26.391z" fill="#ffbe82"/><path d="m356.613 81.172v188.43c0 14.042-11.383 25.425-25.425 25.425v-213.855c0-14.575 11.815-26.391 26.391-26.391 4.61 0 8.941 1.185 12.713 3.262-8.154 4.49-13.679 13.163-13.679 23.129z" fill="#ff965a"/><path d="m339.051 208.399v136.736h-62.794v-136.736c0-17.34 14.057-31.397 31.397-31.397 17.34 0 31.397 14.057 31.397 31.397z" fill="#ffbe82"/><path d="m276.257 295.429c-23.916 26.975-32.108 55.826-28.878 86.039h118.498l18.092-86.039z" fill="#ffbe82"/><path d="m284.948 186.151v22.875c0 12.769 10.351 23.12 23.12 23.12 12.769 0 23.12-10.351 23.12-23.12v-22.875c0-2.761-1.543-5.293-3.99-6.571-12.753-6.657-25.507-6.657-38.26 0-2.448 1.278-3.99 3.81-3.99 6.571z" fill="#ffcea1"/><path d="m262.287 381.469h108.7v32.495l-68.494 16.152c-28.376 6.69-52.12-22.039-40.206-48.647z" fill="#fff"/><path d="m294.782 413.964h76.205v32.495h-137.8v-64.99h29.1c0 17.946 14.549 32.495 32.495 32.495z" fill="#e4f2f6"/><path d="m254.623 442.458-25.807 47.972 142.171-12.632v-35.34z" fill="#2477f9"/><path d="m255 510c41.618 0 81.085-10.025 115.987-27.88v-4.322h-81.025c-19.518 0-35.34-15.822-35.34-35.34h-52.492v62.054c17.058 3.596 34.743 5.488 52.87 5.488z" fill="#0540e5"/></g><g><path d="m465.229 66.086h-214.831l.573-52.781h214.258c14.575 0 26.391 11.815 26.391 26.391 0 14.575-11.816 26.39-26.391 26.39z" fill="#ffbe82"/><path d="m465.229 40.661h-188.43c-14.042 0-25.425 11.383-25.425 25.425h213.855c14.575 0 26.391-11.815 26.391-26.391 0-4.61-1.185-8.941-3.262-12.713-4.491 8.154-13.164 13.679-23.129 13.679z" fill="#ff965a"/><path d="m338.002 58.223h-136.736v62.794h136.736c17.34 0 31.397-14.057 31.397-31.397 0-17.34-14.057-31.397-31.397-31.397z" fill="#ffbe82"/><path d="m250.971 121.017c-26.975 23.916-55.826 32.108-86.039 28.878v-118.498l86.039-18.092z" fill="#ffbe82"/><path d="m360.249 112.326h-22.875c-12.769 0-23.12-10.351-23.12-23.12 0-12.769 10.351-23.12 23.12-23.12h22.875c2.761 0 5.293 1.543 6.571 3.99 6.657 12.753 6.657 25.506 0 38.26-1.277 2.448-3.81 3.99-6.571 3.99z" fill="#ffcea1"/><path d="m164.932 134.987v-108.7h-32.495l-16.152 68.493c-6.691 28.376 22.038 52.121 48.647 40.207z" fill="#fff"/><path d="m132.437 102.492v-76.205h-32.495v137.8h64.99v-29.1c-17.946-.001-32.495-14.549-32.495-32.495z" fill="#e4f2f6"/><path d="m99.942 151.99-64.651 12.097 4.922-137.8h59.729z" fill="#2477f9"/><path d="m40.213 121.372v-95.085h-39.195v168.856h98.924v-43.153l-29.272-.161c-16.821 0-30.457-13.636-30.457-30.457z" fill="#0540e5"/></g></g></svg>