<svg id="Layer_1" enable-background="new 0 0 510.681 510.681" height="512" viewBox="0 0 510.681 510.681" width="512" xmlns="http://www.w3.org/2000/svg"><g><g><g><path d="m479.285 133.636c-43.262-79.216-127.325-132.955-223.944-132.955-98.131 0-158.58 55.352-158.747 55.445 0 0-2.513 3.137-2.983 5.222-3.818 16.948-7.385 39.663-7.385 56.238 0 140.833 118.763 254.972 259.596 254.972 45.293 0 94.836-18.135 133.464-42.317v-196.605z" fill="#9dc63d"/></g><path d="m90.802 109.274c.077-18.234 2.079-36.006 5.792-53.147-24.178 19.262-44.768 42.833-60.633 69.54.001.087.007.175.007.262v125.775c0 82.924 36.791 161.939 101.268 214.084 22.01 17.8 45.667 31.214 69.998 36.382 6.799 1.444 13.65 2.641 20.533 3.583l115.22-140.407c-139.753-1.508-252.772-116.313-252.185-256.072z" fill="#69b76b"/></g><g><g><g><path d="m198.71 90.194h306.548v20h-306.548z" fill="#fff"/></g><g><path d="m8.608 175.706h493.466v20h-493.466z" fill="#fff"/></g><g><path d="m5.423 261.218h493.466v20h-493.466z" fill="#fff"/></g><g><path d="m7.82 90.194h198.128v20h-198.128z" fill="#d2f0ff"/></g><g><path d="m6.621 175.706h198.128v20h-198.128z" fill="#d2f0ff"/></g><g><path d="m5.423 261.218h198.128v20h-198.128z" fill="#d2f0ff"/></g></g><g><g><path d="m328.562 49.907h20v297.276h-20z" fill="#fff"/></g><g><path d="m411.783 49.907h20v297.276h-20z" fill="#fff"/></g><g><path d="m245.34 49.907h20v297.276h-20z" fill="#fff"/></g><g><path d="m328.561 18.504h20v42.778h-20z" fill="#d2f0ff"/></g><g><path d="m411.783 18.504h20v42.778h-20z" fill="#d2f0ff"/></g><g><path d="m245.34 18.504h20v42.778h-20z" fill="#d2f0ff"/></g><g><path d="m162.119 8.503h20v348.68h-20z" fill="#d2f0ff"/></g><g><path d="m78.898 8.503h20v348.68h-20z" fill="#d2f0ff"/></g></g><g fill="#0360e8"><path d="m383.172 35c-37.583-21.818-81.245-34.319-127.831-34.319-56.964 0-101.226 18.651-128.374 34.319z"/><path d="m474.574 125.4v128.657l35-15.043v-3.217c-3.095-40.119-15.484-77.627-35-110.397z"/><path d="m1.108 236.095v39.473c1.533 19.877 5.356 39.109 11.186 57.448h23.814v-207.602c-19.564 32.846-31.942 70.46-35 110.681z"/></g><g><path d="m36.108 251.01h-35v-186.458c0-35.594 28.958-64.552 64.551-64.552h155.389v35h-155.389c-16.295 0-29.552 13.257-29.552 29.552v186.458z" fill="#0540e5"/></g><g><path d="m445.022 0h-225.761c0 .024.002.048.002.071v34.929h225.759c16.295 0 29.552 13.257 29.552 29.552v160.698l35 16.001v-176.699c0-35.594-28.958-64.552-64.552-64.552z" fill="#0360e8"/></g><path d="m65.659 0c-35.593 0-64.551 28.958-64.551 64.552v88.581l35 18.113v-106.694c0-16.295 13.257-29.552 29.551-29.552h155.389v-35z" fill="#0540e5"/></g><g><path d="m325.894 468.905-87.146-30.566 46.673 70.577c22.955-2.71 45.025-8.482 65.771-16.91z" fill="#50555a"/><path d="m238.748 438.339-24.228 69.075c13.293 2.139 26.924 3.267 40.82 3.267 10.688 0 21.23-.675 31.594-1.96l16.703-47.622z" fill="#373c41"/><g><g><path d="m344.678 403.7c-13.571-4.76-20.714-19.62-15.954-33.191l66.715-190.211c4.76-13.571 19.62-20.714 33.191-15.954s20.714 19.62 15.954 33.191l-66.715 190.211c-4.76 13.572-19.62 20.714-33.191 15.954z" fill="#ffd23c"/></g></g><g><g><path d="m296.179 386.339c-13.571-4.76-20.714-19.62-15.954-33.191l60.703-173.069c4.76-13.571 19.62-20.714 33.191-15.954s20.714 19.62 15.954 33.191l-60.703 173.069c-4.76 13.571-19.62 20.714-33.191 15.954z" fill="#ffd23c"/></g></g><path d="m361.465 185.931c3.317-9.458 11.541-15.789 20.815-17.149-2.35-1.981-5.088-3.58-8.161-4.657-9.525-3.341-19.68-.812-26.538 5.681-2.444 2.581-4.401 5.702-5.653 9.273l-60.703 173.069c-4.76 13.571 2.383 28.431 15.954 33.191 3.472 1.218 7.028 1.652 10.478 1.403-7.385-6.833-10.437-17.643-6.895-27.742z" fill="#ffa50a"/><path d="m414.621 186.027c3.444-9.819 12.179-16.252 21.884-17.267-2.285-1.87-4.928-3.381-7.875-4.415-13.571-4.76-28.431 2.383-33.191 15.954l-62.383 177.858c-1.235 11.731 5.663 23.204 17.279 27.278 3.472 1.218 7.028 1.652 10.478 1.403-7.385-6.833-10.437-17.643-6.895-27.742z" fill="#ffa50a"/><g><g><path d="m232.478 375.001 37.93-108.141c4.497-12.821 17.586-20.803 30.954-18.375.21.038.425.08.646.124 17.77 3.581 28.163 22.199 22.194 39.315l-37.25 106.821z" fill="#ffd23c"/></g></g><g><path d="m260.618 369.564 33.621-95.855c3.432-9.784 11.806-16.416 21.338-18.094-2.735-2.579-6.036-4.644-9.812-5.969-14.419-5.057-30.208 2.532-35.265 16.951l-33.621 95.855c-5.057 14.419 2.532 30.208 16.951 35.265 4.635 1.626 9.411 1.938 13.927 1.143-7.709-7.268-10.872-18.653-7.139-29.296z" fill="#ffa50a"/></g><g><g><path d="m393.372 420.78c-13.571-4.76-20.714-19.62-15.954-33.191l60.214-171.675c4.76-13.571 19.62-20.714 33.191-15.954s20.714 19.62 15.954 33.191l-60.214 171.675c-4.76 13.571-19.62 20.714-33.191 15.954z" fill="#ffd23c"/></g></g><path d="m504.54 309.92c.177-1.087 5.801-23.477 5.801-54.239 0-5.602-.201-11.156-.556-16.668-.439-.185-.883-.361-1.338-.521-12.044-4.224-25.232 2.115-29.457 14.159l-53.271 151.879c-4.029 11.488 1.555 24.01 12.53 28.809 32.493-33.425 55.978-75.815 66.291-123.419z" fill="#ffd23c"/><path d="m456.739 221.892c3.483-9.93 12.376-16.4 22.212-17.302-2.343-1.968-5.07-3.556-8.128-4.629-13.571-4.76-28.431 2.383-33.191 15.954l-60.214 171.675c-4.76 13.571 2.383 28.431 15.954 33.191 3.012 1.056 6.087 1.524 9.101 1.467-7.043-6.852-9.903-17.404-6.437-27.286z" fill="#ffa50a"/><path d="m509.784 239.013c-.439-.185-.883-.361-1.338-.521-11.249-3.945-23.492 1.325-28.503 11.85-.2.476-.392.955-.562 1.441l-52.271 149.03c-3.99 11.377 1.998 23.834 13.375 27.825.314.11.629.209.944.304 1.281-1.382 2.548-2.776 3.799-4.186-3.098-5.329-3.939-11.925-1.739-18.198l52.272-149.031c2.033-5.797 8.662-10.179 14.337-12.567-.086-1.987-.186-3.971-.314-5.947z" fill="#ffa50a"/><path d="m253.85 313.435 61.727 104.968 110.881 26.323c17.634-15.957 33.045-34.365 45.684-54.727z" fill="#ffd23c"/><path d="m231.755 376.43-.061.173c-12.677 36.143 6.346 75.72 42.49 88.397l77.01 27.011c27.831-11.303 53.27-27.393 75.258-47.292z" fill="#ffa50a"/><g><path d="m255.542 384.968 22.156-63.168-23.848-8.365-22.156 63.168c-12.677 36.143 6.346 75.72 42.489 88.397l23.848 8.365c-36.143-12.677-55.166-52.254-42.489-88.397z" fill="#ffa50a"/></g><g><path d="m314.114 338.346-33.209 94.682c26.146 9.17 54.775-4.591 63.946-30.737 9.17-26.145-4.592-54.774-30.737-63.945z" fill="#ffa50a"/></g><g><path d="m282.808 333.553h18.196v100.337h-18.196z" fill="#ffa50a" transform="matrix(.944 .331 -.331 .944 143.455 -74.987)"/></g><g><path d="m330.047 397.1c-9.17 26.146-37.8 39.907-63.946 30.737s-15.002-30.7-5.832-56.846c9.171-26.146 12.895-47.007 39.041-37.836 26.147 9.17 39.908 37.799 30.737 63.945z" fill="#ffd23c"/></g></g><g><path d="m146.763 432.992h-62.151l-9.951 2.612c20.779 20.865 45.149 38.147 72.102 50.852z" fill="#50555a"/><path d="m213.216 418.411-68.74 1.867 1.791 65.948c21.626 10.25 44.921 17.55 69.371 21.373z" fill="#373c41"/><g><g><path d="m122.914 353.092c14.376-.39 25.714-12.361 25.323-26.737l-5.473-201.497c-.39-14.376-12.361-25.714-26.737-25.323-14.376.39-25.714 12.361-25.323 26.737l5.473 201.497c.39 14.376 12.361 25.714 26.737 25.323z" fill="#ffd23c"/></g></g><path d="m148.237 326.355-5.473-201.497c-.391-14.376-12.361-25.714-26.738-25.323-3.591.098-6.993.918-10.069 2.318 10.097 3.361 17.5 12.752 17.806 24.006l5.473 201.497c.293 10.785-6.015 20.216-15.254 24.42 2.801.933 5.81 1.402 8.932 1.318 14.377-.392 25.714-12.363 25.323-26.739z" fill="#ffa50a"/><g><g><path d="m175.35 351.668c14.376-.39 25.714-12.361 25.323-26.737l-4.98-183.339c-.39-14.376-12.361-25.714-26.737-25.323s-25.714 12.361-25.323 26.737l4.98 183.339c.391 14.376 12.361 25.714 26.737 25.323z" fill="#ffd23c"/></g></g><g><path d="m179.978 325.493-4.98-183.339c-.291-10.698-6.996-19.71-16.331-23.462 3.135-1.462 6.612-2.324 10.29-2.424 14.376-.39 26.347 10.947 26.737 25.323l4.98 183.339c.39 14.376-10.947 26.347-25.323 26.737-3.678.1-7.197-.572-10.406-1.862 9.117-4.252 15.324-13.614 15.033-24.312z" fill="#ffa50a"/></g><g><g><path d="m238.52 360.009-3.112-114.558c-.369-13.582-10.397-25.178-23.868-26.946-.212-.028-.429-.054-.653-.079-18.015-2.014-33.595 12.543-33.135 30.664l2.867 113.093z" fill="#ffd23c"/></g></g><g><path d="m213.382 346.243-2.758-101.543c-.281-10.364-6.231-19.236-14.797-23.744 3.391-1.621 7.166-2.58 11.166-2.689 15.274-.415 27.994 11.632 28.408 26.906l2.758 101.543c.415 15.274-11.632 27.994-26.906 28.408-4.91.133-9.553-1.027-13.611-3.162 9.559-4.569 16.046-14.445 15.74-25.719z" fill="#ffa50a"/></g><g><g><path d="m70.823 357.105c14.696-.399 26.285-12.635 25.886-27.331l-5.049-185.898c-.399-14.696-12.635-26.285-27.331-25.886s-26.285 12.635-25.886 27.331l5.049 185.898c.4 14.696 12.636 26.286 27.331 25.886z" fill="#ffd23c"/></g></g><path d="m96.709 329.774-5.049-185.898c-.399-14.696-12.635-26.285-27.331-25.885-3.473.094-6.769.857-9.778 2.15 9.235 3.972 15.816 13.026 16.107 23.736l5.049 185.898c.305 11.223-6.385 21.004-16.108 25.181 3.437 1.478 7.238 2.258 11.224 2.15 14.696-.4 26.285-12.636 25.886-27.332z" fill="#ffa50a"/><path d="m41.762 300.16-15.415-137.165c-1.004-8.934-8.731-15.58-17.715-15.237-2.866 1.275-5.42 3.116-7.525 5.376v82.914c-.495 6.481-.767 13.025-.767 19.634 0 15.531 1.405 30.731 4.068 45.494h-.017c4.088 22.7 11.353 45.08 21.749 66.356h45.916v-68.194z" fill="#ffd23c"/><g><path d="m22.707 167.474 3.239 119.256c.262 9.661 8.17 17.356 17.834 17.356l-3.71-136.585c-.325-11.952-9.998-21.805-21.954-21.735-3.259.019-6.721.704-9.484 1.993 7.827 3.145 13.832 10.747 14.075 19.715z" fill="#ffa50a"/></g><path d="m238.772 361.592-212.722 5.777c12.395 25.398 28.878 48.433 48.604 68.241l96.679-2.626c38.288-1.04 68.483-32.922 67.443-71.21z" fill="#ffa50a"/><g><path d="m213.514 362.461-1.818-66.916 25.263-.686 1.818 66.916c1.04 38.288-29.156 70.17-67.443 71.21l-25.263.686c38.288-1.04 68.483-32.922 67.443-71.21z" fill="#ffa50a"/></g><g><path d="m171.968 300.186 2.724 100.301c-27.697.752-50.76-21.091-51.512-48.788-.752-27.698 21.091-50.761 48.788-51.513z" fill="#ffa50a"/></g><g><path d="m170.168 300.007h18.196v100.337h-18.196z" fill="#ffa50a" transform="matrix(-1 .027 -.027 -1 367.973 695.354)"/></g><g><path d="m138.861 351.273c.752 27.697 23.815 49.54 51.512 48.788s23.657-24.656 22.905-52.353 2.068-48.699-25.629-47.947-49.54 23.814-48.788 51.512z" fill="#ffd23c"/></g></g><g><g><g><path d="m163.512 115.125 2.012 16.488 75.019 30.839 53.608-42.374c-21.84-9.748-46.032-15.175-71.494-15.175-20.778 0-40.645 3.596-59.145 10.222z" fill="#c8e6eb"/></g></g><g><g><path d="m279.878 446.546-5.33-44.08-76.088-30.885-63.871 50.763 1.407 10.897c44.689 25.366 97.509 29.268 143.882 13.305z" fill="#1a1b1c"/></g></g><g><g><g><path d="m251.25 241.718-64.076 50.421 11.536 80.304 75.176 30.538 64.216-49.976-10.961-80.513z" fill="#fff"/></g></g><g><g><path d="m165.831 131.376-64.579 49.78 11.141 80.374 75.091 30.605 63.862-49.701-10.882-80.574z" fill="#373c41"/></g></g></g><g><g><path d="m326.781 272.772 11.322 80.233 36.803 15.05c14.826-25.755 23.346-55.708 23.346-87.559 0-19.654-3.23-38.552-9.186-56.196z" fill="#373c41"/></g></g><g><g><path d="m374.905 368.055-36.803-15.202-64.216 50.128 5.991 43.565c40.284-13.891 74.04-42.128 95.028-78.491z" fill="#b4d7dc"/></g></g><g><g><path d="m135.514 421.625-31.422-11.616c9.581 8.732 20.564 16.773 31.905 23.232z" fill="#a5c8cd"/></g></g><g><path d="m187.484 292.135-75.176-30.539 86.317 110.913z" fill="#e4f2f6"/></g><g><g><path d="m294.151 120.078-53.688 41.782 10.883 80.575 75.434 30.338 62.284-48.472c-15.717-46.559-50.428-84.368-94.913-104.223z" fill="#e4f2f6"/></g></g><g><g><path d="m113.175 261.848-11.806-80.782-18.161-7.273c-30.716 40.142-41.618 89.84-33.598 136.597z" fill="#a5c8cd"/></g></g><g><g><path d="m161.709 281.664-49.402-20.068-62.699 48.795c2.695 10.36 9.079 57.955 54.483 99.618.004.004-.004-.004 0 0l31.422 11.616 63.196-49.182-8.996-64.903c-10.206-7.576-19.667-16.307-28.004-25.876z" fill="#c8e6eb"/></g></g><g><g><path d="m161.57 281.507c-26.527-30.522-42.68-70.293-42.996-113.832l-17.322 13.481 11.056 80.44z" fill="#1a1b1c"/></g></g><g><g><path d="m335.881 336.977 2.222 16.028 36.803 15.05c10.371-18.016 17.522-37.981 20.941-58.515-17.81 12.673-38.086 22.103-59.966 27.437z" fill="#1a1b1c"/></g></g><g><g><path d="m189.609 307.462 9.101 64.981 75.176 30.539 64.216-49.976-2.415-15.98c-13.317 3.23-27.226 4.944-41.536 4.944-39.12 0-75.353-12.877-104.542-34.508z" fill="#e4f2f6"/></g></g><g><g><path d="m83.207 173.793 18.045 7.363 64.579-49.78-2.319-16.251c-32.118 11.474-59.925 32.114-80.305 58.668z" fill="#e4f2f6"/></g></g></g></g></svg>