<svg id="Layer_1" enable-background="new 0 0 510.673 510.673" height="512" viewBox="0 0 510.673 510.673" width="512" xmlns="http://www.w3.org/2000/svg"><g><g><path d="m308.571 15.099-225.126 106.067c0 136.832 115.389 247.729 252.221 247.729 52.691 0 111.313-25.253 150.547-55.617.878-.679 3.662-5.243 3.662-5.243.173-1.056 5.636-22.81 5.636-52.698.001-115.849-79.511-213.127-186.94-240.238z" fill="#afe6ff"/><path d="m5.648 308.137h175.893c-57.062-45.389-93.652-115.414-93.652-193.993l-83.107 92.517c-3.137 15.739-4.782 32.015-4.782 48.676 0 17.734 1.863 35.033 5.405 51.712.077.364.164.724.243 1.088z" fill="#73c8f0"/></g><path d="m201.175 325.733 112.628 168.433c81.826-22.614 147.243-86.249 171.533-168.433z" fill="#9dc63d"/><path d="m193.472 307.083c-38.879-22.587-130.347-29.576-188.067-.035 23.783 112.009 123.253 196.044 242.351 196.044 22.822 0 44.979-3.104 66.048-8.926-12.458-46.478-47.139-147.729-120.332-187.083z" fill="#fa870a"/><path d="m167.23 328.346c0-12.454-3.199-24.161-8.819-34.344-36.459-8.727-85.303-9.576-126.004 2.429-4.828 9.599-7.55 20.438-7.55 31.915 0 39.315 31.871 71.187 71.187 71.187 39.314-.001 71.186-31.872 71.186-71.187z" fill="#fa690f"/><path d="m98.957 281.146v89.409c21.501-1.644 38.44-19.598 38.44-41.52v-47.889z" fill="#ffbe82"/><path d="m99.903 370.268v-48.066c0-20.707 16.787-37.494 37.494-37.494v-41.232h-83.312v85.56c0 23.006 18.65 41.656 41.656 41.656 1.407 0 2.797-.072 4.168-.208-.001-.073-.006-.144-.006-.216z" fill="#ff965a"/><path d="m112.829 82.989v178.306h106.525c7.158-5.087 13.404-11.371 18.446-18.562l12.574-30.053c.815-4.474 1.241-9.085 1.241-13.795v-34.202l-2.715-8.454 2.715-11.783v-61.457z" fill="#ffbe82"/><path d="m139.777 106.087c.095-.001.189-.002.284-.002.138-.001.276-.001.414-.001h70.649c14.429 0 28.135-3.096 40.491-8.659v-14.436h-166.036c-17.242 0-31.443 13.864-31.493 31.106v.326 160.999h121.786c18.22 0 32.982-6.184 45.052-15.242l-65.908.147c-22.723 0-41.143-18.42-41.143-41.143v-86.539c-.001-14.415 11.492-26.382 25.904-26.556z" fill="#ff965a"/><path d="m308.571 15.1c-19.458-4.91-39.832-7.519-60.815-7.519-95.343 0-154.075 53.78-154.237 53.87-44.888 35.76-77.09 86.781-88.736 145.21 10.842 21.088 32.816 35.513 58.16 35.513v-66.881c0-9.66 1.769-18.906 4.999-27.434 2.064-5.449 10.182-3.911 10.182 1.916v26.447c13.463 0 24.377-10.914 24.377-24.377v-15.965c0-20.835 16.726-38.009 37.561-38.118.138-.001.276-.001.414-.001h70.649c49.059 0 89.763-35.775 97.446-82.661z" fill="#783c28"/><g><g><g><path d="m196.862 130.481h-21.579c-4.087 0-7.399-3.313-7.399-7.399 0-4.087 3.313-7.399 7.399-7.399h21.579c4.087 0 7.399 3.313 7.399 7.399 0 4.086-3.312 7.399-7.399 7.399z" fill="#783c28"/></g></g></g><g><g><g><path d="m247.567 130.481h-10.622c-4.087 0-7.399-3.313-7.399-7.399 0-4.087 3.313-7.399 7.399-7.399h10.622c4.087 0 7.399 3.313 7.399 7.399.001 4.086-3.312 7.399-7.399 7.399z" fill="#783c28"/></g></g></g><g><g><path d="m186.073 178.01c4.086 0 7.399-3.313 7.399-7.399v-20.237c0-4.086-3.313-7.399-7.399-7.399s-7.399 3.313-7.399 7.399v20.237c-.001 4.086 3.312 7.399 7.399 7.399z" fill="#ff965a"/></g></g><g><g><path d="m186.073 172.083c4.086 0 7.399-3.313 7.399-7.399v-20.237c0-4.086-3.313-7.399-7.399-7.399s-7.399 3.313-7.399 7.399v20.237c-.001 4.086 3.312 7.399 7.399 7.399z" fill="#373c41"/></g></g><path d="m190.744 157.894c1.506 0 2.728-1.221 2.728-2.728v-8.261c0-1.506-1.221-2.728-2.728-2.728-1.506 0-2.728 1.221-2.728 2.728v8.261c.001 1.506 1.222 2.728 2.728 2.728z" fill="#fff"/><g><g><path d="m236.829 162.745v7.866c0 4.086 3.313 7.399 7.399 7.399s7.399-3.313 7.399-7.399v-7.866z" fill="#ff965a"/></g></g><g><g><path d="m244.229 172.083c4.086 0 7.399-3.313 7.399-7.399v-9.518l-1.918-4.578 1.918-3.683v-2.458c0-4.086-3.313-7.399-7.399-7.399s-7.399 3.313-7.399 7.399v20.237c-.001 4.086 3.313 7.399 7.399 7.399z" fill="#373c41"/></g></g><path d="m248.901 157.894c1.506 0 2.728-1.221 2.728-2.728v-8.261c0-1.506-1.221-2.728-2.728-2.728-1.506 0-2.728 1.221-2.728 2.728v8.261c0 1.506 1.221 2.728 2.728 2.728z" fill="#fff"/><g><g><path d="m210.663 180.023c-1.839 7.345 1.504 15.347 7.896 17.758 1.286.485 2.663.748 4.093.748s2.806-.263 4.093-.748c6.393-2.412 9.736-10.413 7.896-17.758l-6.098-24.351c-1.535-6.13-10.247-6.13-11.783 0z" fill="#ff965a"/></g></g><path d="m193.345 212.681c-2.476 0-4.374 2.193-4.036 4.646.631 4.569 2.179 8.845 4.451 12.637l44.05 12.779c6.188-8.834 10.557-19.036 12.564-30.061h-6.612l-21.111 4.029-22.057-4.029h-7.249z" fill="#d72846"/><path d="m212.507 221.643c-7.434 0-14.117 3.21-18.742 8.318 5.882 9.811 16.616 16.38 28.887 16.38 5.316 0 10.341-1.237 14.811-3.431-1.921-12.053-12.361-21.267-24.956-21.267z" fill="#f5595a"/><path d="m239.015 221.643h-33.672c-2.622 0-4.748-2.126-4.748-4.748v-4.214h43.168v4.214c.001 2.622-2.125 4.748-4.748 4.748z" fill="#fff"/><path d="m78.123 149.775v9.751l.476-85.192c-37.078 34.668-63.505 80.593-73.816 132.327 10.842 21.088 32.816 35.513 58.16 35.513v-66.881c0-9.66 1.769-18.906 4.999-27.434 2.063-5.449 10.181-3.911 10.181 1.916z" fill="#5a2d19"/><path d="m42.751 165.013c0 17.576 12.819 32.158 29.617 34.906 3.017.494 5.755-1.863 5.755-4.92v-59.972c0-3.057-2.737-5.414-5.755-4.92-16.798 2.748-29.617 17.33-29.617 34.906z" fill="#ff965a"/><path d="m69.649 158.042v-4.472c0-1.642-1.531-2.834-3.133-2.475-6.37 1.428-11.13 7.117-11.13 13.917 0 7.596 5.943 13.787 13.431 14.221 1.749.177 3.659-.197 5.564-1.321.868-.512 1.599-1.254 2.099-2.129 2.81-4.911.736-9.901-3.134-11.881-2.227-1.14-3.697-3.357-3.697-5.86z" fill="#ffbe82"/><path d="m70.874 196.378-16.789-5.44v59.334h16.789z" fill="#ff965a"/><g><g><path d="m348.276 140.979 1.392 11.407 51.9 21.335 37.087-29.315c-15.109-6.744-31.846-10.498-49.461-10.498-14.375-.001-28.12 2.487-40.918 7.071z" fill="#c8e6eb"/></g><g><path d="m428.78 370.264-3.687-30.495-52.639-21.367-44.187 35.119.974 7.539c30.916 17.547 67.457 20.247 99.539 9.204z" fill="#1a1b1c"/></g><g><g><path d="m408.975 228.559-44.329 34.882 7.98 55.556 52.009 21.128 44.426-34.575-7.583-55.701z" fill="#fff"/></g><g><path d="m349.88 152.222-44.677 34.439 7.707 55.604 51.95 21.173 44.181-34.383-7.528-55.744z" fill="#373c41"/></g></g><g><path d="m461.229 250.043 7.833 55.507 25.461 10.412c10.257-17.818 16.151-38.54 16.151-60.575 0-13.597-2.235-26.671-6.355-38.878z" fill="#373c41"/></g><g><path d="m494.522 315.962-25.461-10.517-44.426 34.68 4.145 30.139c27.869-9.611 51.222-29.145 65.742-54.302z" fill="#b4d7dc"/></g><g><path d="m328.906 353.022-21.738-8.036c6.628 6.041 14.227 11.604 22.072 16.073z" fill="#a5c8cd"/></g><path d="m364.86 263.438-52.008-21.127 59.716 76.732z" fill="#e4f2f6"/><g><path d="m438.655 144.406-37.142 28.906 7.529 55.743 52.187 20.988 43.089-33.534c-10.874-32.21-34.888-58.367-65.663-72.103z" fill="#e4f2f6"/></g><g><path d="m313.451 242.485-8.168-55.886-12.564-5.031c-21.25 27.771-28.793 62.153-23.244 94.501z" fill="#a5c8cd"/></g><g><path d="m347.029 256.195-34.177-13.884-43.376 33.757c1.864 7.167 6.281 40.094 37.692 68.918.003.003-.003-.003 0 0l21.738 8.036 43.721-34.025-6.224-44.901c-7.062-5.241-13.607-11.281-19.374-17.901z" fill="#c8e6eb"/></g><g><path d="m346.932 256.086c-18.352-21.116-29.527-48.63-29.745-78.751l-11.984 9.326 7.649 55.65z" fill="#1a1b1c"/></g><g><path d="m467.524 294.461 1.537 11.089 25.461 10.412c7.175-12.464 12.122-26.276 14.487-40.482-12.32 8.767-26.348 15.291-41.485 18.981z" fill="#1a1b1c"/></g><g><path d="m366.33 274.042 6.296 44.955 52.009 21.127 44.426-34.574-1.671-11.055c-9.213 2.235-18.835 3.42-28.735 3.42-27.065 0-52.132-8.908-72.325-23.873z" fill="#e4f2f6"/></g><g><path d="m292.719 181.567 12.484 5.094 44.677-34.439-1.604-11.243c-22.22 7.938-41.458 22.217-55.557 40.588z" fill="#e4f2f6"/></g></g></g></svg>