<svg id="Layer_1" enable-background="new 0 0 510 510" height="512" viewBox="0 0 510 510" width="512" xmlns="http://www.w3.org/2000/svg"><g><g><path d="m255 0c-98.131 0-158.58 55.352-158.747 55.445 0 0-2.513 3.137-2.983 5.222-3.818 16.948-7.385 39.663-7.385 56.238 0 140.833 118.763 254.972 259.596 254.972 54.231 0 114.568-25.992 154.949-57.243.903-.699 3.769-5.396 3.769-5.396.178-1.087 5.8-23.477 5.8-54.239.001-140.832-114.166-254.999-254.999-254.999z" fill="#afe6ff"/><g fill="#73c8f0"><path d="m95.355 59.874c.293-1.479.58-2.959.899-4.429-1.823 1.452-3.624 2.929-5.406 4.429z"/><g><path d="m449.367 342.607 46.954-5.04c3.146-9.207 5.783-18.661 7.878-28.329-16.698 13.301-35.102 24.552-54.832 33.369z"/><path d="m90.459 109.679-80.877 214.807c6.267 22.179 15.46 43.131 27.135 62.411l177.616 29.963 79.024-57.509c-115.845-24.05-202.898-126.695-202.898-249.672z"/></g></g></g><g><path d="m496.321 337.567-59.459-13.157-142.032 21.039v155.774l4.732 4.882c40.813-7.212 78.427-24.16 110.222-48.462l47.703-47.618c10.577-13.792 19.786-28.712 27.411-44.569l-2.932-7.38 7.939-3.705c2.328-5.502 4.469-11.106 6.416-16.804z" fill="#dd544f"/><path d="m256.26 340.009c-31.142 6.912-53.302 34.53-53.302 66.43l79.488 102.095c5.762-.619 11.469-1.43 17.116-2.428v-99.667c0-31.004 20.936-57.958 50.703-65.794l4.47-22.493z" fill="#d80a61"/><path d="m486.407 353.487-104.742-23.177-104.333 23.157c-13.708 3.042-26.096 10.749-34.883 21.701-8.788 10.952-13.627 24.716-13.627 38.757v66.94h12v-66.94c0-23.588 16.083-43.632 39.111-48.743l101.737-22.581 102.146 22.604c.363.08.724.164 1.084.252 1.754-3.646 3.423-7.342 5.007-11.085-1.158-.329-2.324-.624-3.5-.885z" fill="#fff"/><g><path d="m382.129 401.671c30.228 0 54.733-24.505 54.733-54.733v-22.528l-55.243-12.225-54.222 12.035v22.718c-.001 30.228 24.504 54.733 54.732 54.733z" fill="#d80a61"/></g><g><g><g><path d="m382.129 380.884c-20.073 0-36.344-16.272-36.344-36.344v-81.406h72.689v81.406c-.001 20.072-16.272 36.344-36.345 36.344z" fill="#ff965a"/></g></g></g><g><g><g><path d="m480.723 135.616c0-33.168-21.278-63.497-54.445-63.497h-88.298c-9.464 0-18.132 2.477-25.694 6.777v175.309c0 38.264 30.776 69.577 69.038 69.867.268.002.537.003.805.003 56.987 0 103.183-46.197 103.183-103.183v-32.575z" fill="#ffbe82"/></g></g></g><g><g><g><path d="m485.312 207.076v-61.331c13.361 0 24.193 10.832 24.193 24.193v12.946c0 13.36-10.831 24.192-24.193 24.192z" fill="#ff965a"/></g></g></g><g><g><g><path d="m253.732 182.883c0 13.361 10.832 24.193 24.193 24.193v-61.331c-13.361 0-24.193 10.832-24.193 24.193z" fill="#ff965a"/></g></g></g><g><g><g><path d="m337.547 182.333v7.276c0 4.746 3.848 8.594 8.594 8.594s8.594-3.848 8.594-8.594v-7.276z" fill="#ff965a"/></g></g></g><g><g><g><path d="m407.57 182.333v7.276c0 4.746 3.848 8.594 8.594 8.594s8.594-3.848 8.594-8.594v-7.276z" fill="#ff965a"/></g></g></g><g><g><path d="m387.722 323.924c-43.381-12.598-75.091-52.632-75.091-100.077.258-5.863 0-62.674 0-84.254 0-33.168 26.888-60.055 60.055-60.055h74.95c-6.593-2.56-13.782-3.977-21.358-3.977h-88.298c-33.168 0-57.782 24.614-57.782 57.782l-2.274 54.974v31.554c0 59.555 49.901 107.226 109.798 104.053z" fill="#ff965a"/></g></g><g><g><g><path d="m346.141 191.32c-4.746 0-8.594-3.848-8.594-8.594v-11.055l3.168-4.797-3.168-4.797v-2.855c0-4.746 3.848-8.594 8.594-8.594s8.594 3.848 8.594 8.594v23.504c0 4.746-3.848 8.594-8.594 8.594z" fill="#373c41"/></g></g></g><g><g><g><path d="m416.164 191.32c-4.746 0-8.594-3.848-8.594-8.594v-11.055l3.168-4.797-3.168-4.797v-2.855c0-4.746 3.848-8.594 8.594-8.594s8.594 3.848 8.594 8.594v23.504c0 4.746-3.848 8.594-8.594 8.594z" fill="#373c41"/></g></g></g><g><g><g><g><path d="m357.463 146.331h-25.062c-4.746 0-8.594-3.848-8.594-8.594 0-4.746 3.848-8.594 8.594-8.594h25.062c4.746 0 8.594 3.848 8.594 8.594 0 4.746-3.848 8.594-8.594 8.594z" fill="#d77d14"/></g></g></g></g><g><g><g><g><path d="m429.079 146.331h-25.062c-4.746 0-8.594-3.848-8.594-8.594 0-4.746 3.848-8.594 8.594-8.594h25.062c4.746 0 8.594 3.848 8.594 8.594 0 4.746-3.847 8.594-8.594 8.594z" fill="#d77d14"/></g></g></g></g><g><path d="m413.773 238.864h-8.849l-23.305 4.838-23.305-4.838h-7.828c-2.626 0-4.724 2.292-4.374 4.895.67 4.979 2.349 9.638 4.823 13.766l47.189 13.984c10.657-5.231 18.378-15.528 20.023-27.75.35-2.603-1.748-4.895-4.374-4.895z" fill="#c3247d"/></g><g><g><g><path d="m368.204 203.52c-2.136 8.531 1.746 17.824 9.171 20.625 1.494.564 3.092.869 4.754.869 1.661 0 3.26-.305 4.754-.869 7.425-2.801 11.308-12.094 9.171-20.625l-7.082-28.282c-1.783-7.12-11.902-7.12-13.685 0z" fill="#ff965a"/></g></g></g><g><g><path d="m485.312 78.369v57.792.003 52.153c-7.633 0-13.821-6.188-13.821-13.821v-61.026c0-13.479-7.586-25.903-19.707-31.799-.297-.145-.594-.286-.89-.423v-2.878h34.418z" fill="#ffa50a"/></g></g><g><path d="m340.715 174.839c-1.75 0-3.168-1.418-3.168-3.168v-9.594c0-1.75 1.418-3.168 3.168-3.168 1.75 0 3.168 1.418 3.168 3.168v9.594c0 1.75-1.418 3.168-3.168 3.168z" fill="#fff"/></g><g><path d="m410.738 174.839c-1.75 0-3.168-1.418-3.168-3.168v-9.594c0-1.75 1.418-3.168 3.168-3.168 1.75 0 3.168 1.418 3.168 3.168v9.594c0 1.75-1.418 3.168-3.168 3.168z" fill="#fff"/></g><g><path d="m350.938 257.522c6.351 10.593 17.941 17.686 31.19 17.686 5.74 0 11.166-1.335 15.992-3.704-2.075-13.015-13.347-22.963-26.946-22.963-8.026 0-15.242 3.465-20.236 8.981z" fill="#dd544f"/></g><g><path d="m399.797 248.541h-36.357c-2.831 0-5.127-2.295-5.127-5.127v-4.55h46.611v4.55c0 2.831-2.296 5.127-5.127 5.127z" fill="#fff"/></g><g><path d="m277.924 91.666v44.495.003 52.153c7.633 0 13.821-6.188 13.821-13.821v-61.026c0-.081 0-.162.001-.242.077-11.341 8.962-20.532 20.054-21.561h-33.876z" fill="#d77d14"/></g><g><path d="m446.476 415.796c-19.389 3.203-33.905 15.83-33.905 30.875l5.534 4.333c11.139-9.272 21.484-19.482 30.91-30.516z" fill="#ffc305"/><path d="m407.57 446.671c0 3.822.775 7.508 2.213 10.972 2.82-2.156 5.594-4.369 8.321-6.638-.351-1.414-.534-2.862-.534-4.333 0-12.775 13.801-23.797 31.444-26.183 2.913-3.41 5.738-6.899 8.472-10.464-.448-.009-.897-.014-1.348-.014-26.823 0-48.568 16.413-48.568 36.66z" fill="#fff"/></g><g><path d="m268.496 129.143h42.862c39.086 0 70.771-31.685 70.771-70.771v-42.862h-42.862c-39.086 0-70.771 31.685-70.771 70.771z" fill="#d77d14"/></g><g><path d="m491.756 115.253h-64.503c-42.148 0-76.315-34.167-76.315-76.315v-9.972c0-15.909 12.897-28.805 28.805-28.805h35.697c42.148 0 76.315 34.167 76.315 76.315v38.777z" fill="#ffa50a"/></g></g><g><path d="m229.101 399.981-70.612-15.625-53.787 76.659c11.31 8.265 23.325 15.622 35.939 21.962l85.636 25.423c8.464.949 17.053 1.483 25.747 1.583l5.19-7.081 6.81 6.94c6.196-.217 12.339-.656 18.422-1.309v-42.112c0-31.916-22.182-59.544-53.345-66.44z" fill="#dd544f"/><path d="m36.718 386.897c4.713 7.783 9.831 15.294 15.324 22.504 5.988-3.91 12.661-6.917 19.85-8.81l4.47-22.493z" fill="#d80a61"/><path d="m249.761 435.546c-9.197-11.455-22.162-19.511-36.505-22.685l-95.674-21.171v12.29l93.081 20.598c24.352 5.388 41.36 26.571 41.36 51.512v33.893c.991.011 1.983.017 2.977.017 3.02 0 6.027-.054 9.023-.158v-33.752c0-14.69-5.065-29.089-14.262-40.544z" fill="#fff"/><path d="m49.023 384.166v21.191c15.765 21.561 34.834 40.553 56.461 56.232 29.428-.913 53.005-25.056 53.005-54.706v-22.528l-55.243-12.225z" fill="#d80a61"/><g><g><g><path d="m103.756 440.83c-20.073 0-36.344-16.272-36.344-36.344v-81.406h72.689v81.406c0 20.072-16.272 36.344-36.345 36.344z" fill="#ff965a"/></g></g></g><g><g><g><path d="m202.351 195.562c0-33.168-21.278-63.497-54.445-63.497h-88.299c-9.464 0-18.132 2.477-25.694 6.777v175.309c0 38.263 30.776 69.577 69.038 69.867.268.002.537.003.805.003 56.987 0 103.183-46.197 103.183-103.183v-32.575z" fill="#ffbe82"/></g></g></g><g><g><g><path d="m206.94 267.022v-61.331c13.361 0 24.193 10.832 24.193 24.193v12.946c-.001 13.36-10.832 24.192-24.193 24.192z" fill="#ff965a"/></g></g></g><g><g><g><path d="m59.174 242.279v7.276c0 4.746 3.848 8.594 8.594 8.594s8.594-3.848 8.594-8.594v-7.276z" fill="#ff965a"/></g></g></g><g><g><g><path d="m129.197 242.279v7.276c0 4.746 3.848 8.594 8.594 8.594s8.594-3.848 8.594-8.594v-7.276z" fill="#ff965a"/></g></g></g><path d="m94.313 139.484h74.95c-6.593-2.56-13.782-3.977-21.358-3.977h-88.298c-13.744 0-26.02 4.227-35.684 11.537-15.347 32.783-23.923 69.368-23.923 107.956 0 24.088 3.34 47.396 9.582 69.486 17.502 36.83 55.961 61.705 99.767 59.384-43.381-12.598-75.091-52.632-75.091-100.077.258-5.863 0-62.674 0-84.254 0-33.168 26.888-60.055 60.055-60.055z" fill="#ff965a"/><g><g><g><path d="m67.768 251.266c-4.746 0-8.594-3.848-8.594-8.594v-11.055l3.168-4.797-3.168-4.797v-2.855c0-4.746 3.848-8.594 8.594-8.594s8.594 3.848 8.594 8.594v23.504c0 4.746-3.848 8.594-8.594 8.594z" fill="#373c41"/></g></g></g><g><g><g><path d="m137.791 251.266c-4.746 0-8.594-3.848-8.594-8.594v-11.055l3.168-4.797-3.168-4.797v-2.855c0-4.746 3.848-8.594 8.594-8.594s8.594 3.848 8.594 8.594v23.504c0 4.746-3.848 8.594-8.594 8.594z" fill="#373c41"/></g></g></g><g><g><g><g><path d="m79.09 206.277h-25.062c-4.746 0-8.594-3.848-8.594-8.594 0-4.746 3.848-8.594 8.594-8.594h25.062c4.746 0 8.594 3.848 8.594 8.594 0 4.746-3.848 8.594-8.594 8.594z" fill="#373c41"/></g></g></g></g><g><g><g><g><path d="m150.706 206.277h-25.062c-4.746 0-8.594-3.848-8.594-8.594 0-4.746 3.848-8.594 8.594-8.594h25.062c4.746 0 8.594 3.848 8.594 8.594 0 4.746-3.847 8.594-8.594 8.594z" fill="#373c41"/></g></g></g></g><g><path d="m135.4 298.81h-8.849l-23.305 4.838-23.306-4.838h-7.828c-2.626 0-4.724 2.292-4.374 4.895.67 4.979 2.349 9.638 4.823 13.766l47.189 13.984c10.657-5.231 18.378-15.528 20.023-27.75.351-2.603-1.747-4.895-4.373-4.895z" fill="#c3247d"/></g><g><g><g><path d="m89.831 263.466c-2.136 8.531 1.746 17.824 9.171 20.625 1.494.564 3.092.869 4.754.869 1.661 0 3.26-.305 4.754-.869 7.425-2.801 11.308-12.094 9.171-20.625l-7.082-28.282c-1.783-7.12-11.902-7.12-13.685 0z" fill="#ff965a"/></g></g></g><g><g><path d="m206.94 138.315v57.792.003 52.153c-7.633 0-13.821-6.188-13.821-13.821v-61.026c0-13.479-7.586-25.903-19.707-31.799-.297-.145-.594-.286-.89-.423v-2.878h34.418z" fill="#262a2d"/></g></g><g><path d="m62.342 234.785c-1.75 0-3.168-1.418-3.168-3.168v-9.594c0-1.75 1.418-3.168 3.168-3.168 1.75 0 3.168 1.418 3.168 3.168v9.594c0 1.75-1.418 3.168-3.168 3.168z" fill="#fff"/></g><g><path d="m132.365 234.785c-1.75 0-3.168-1.418-3.168-3.168v-9.594c0-1.75 1.418-3.168 3.168-3.168 1.75 0 3.168 1.418 3.168 3.168v9.594c0 1.75-1.418 3.168-3.168 3.168z" fill="#fff"/></g><g><path d="m72.565 317.468c6.351 10.593 17.941 17.686 31.19 17.686 5.74 0 11.166-1.335 15.992-3.704-2.075-13.015-13.347-22.963-26.946-22.963-8.026 0-15.242 3.465-20.236 8.981z" fill="#dd544f"/></g><g><path d="m121.424 308.487h-36.357c-2.831 0-5.127-2.295-5.127-5.127v-4.55h46.611v4.55c0 2.831-2.296 5.127-5.127 5.127z" fill="#fff"/></g><g fill="#373c41"><path d="m18.576 159.297c4.086-4.773 10.199-7.791 16.948-7.784l154.652.152c21.404.021 38.766-17.324 38.766-38.728v-53.338l-137.919.128c-31.614 26.577-56.687 60.689-72.447 99.57z"/><path d="m13.372 234.442v-61.026c0-.035 0-.071 0-.106-7.986 23.62-12.605 48.791-13.285 74.942 7.385-.282 13.285-6.357 13.285-13.81z"/></g><g fill="#262a2d"><path d="m18.576 159.297c4.086-4.773 10.199-7.791 16.948-7.784l32.032.031v-32.93c0-32.485 26.318-58.827 58.803-58.857l102.582-.095v-.063l-137.918.128c-31.614 26.577-56.687 60.689-72.447 99.57z"/><path d="m13.372 234.442v-61.026c0-.035 0-.071 0-.106-7.986 23.62-12.605 48.791-13.285 74.942 7.385-.282 13.285-6.357 13.285-13.81z"/></g><g><path d="m177.765 474.957c-8.793 0-16.986 1.903-23.84 5.171l-3.169 7.66c20.558 9.22 42.558 15.796 65.57 19.297l5.007-.468c.001-17.457-19.544-31.66-43.568-31.66z" fill="#ffc305"/><path d="m177.766 469.957c-14.891 0-28.217 5.059-37.126 13.023 3.331 1.674 6.705 3.278 10.117 4.809 7.019-4.813 16.612-7.832 27.008-7.832 20.906 0 38.568 12.209 38.568 26.66 0 .157-.003.313-.007.469 3.296.502 6.613.94 9.95 1.314.037-.591.057-1.185.057-1.783.001-20.247-21.744-36.66-48.567-36.66z" fill="#fff"/></g></g></g></svg>