<svg id="Layer_1" enable-background="new 0 0 511.205 511.205" height="512" viewBox="0 0 511.205 511.205" width="512" xmlns="http://www.w3.org/2000/svg"><g><g><path d="m370.193 28.075c-34.321-17.193-73.061-26.87-114.061-26.87-98.131 0-158.58 55.352-158.747 55.445 0 0-2.513 3.137-2.983 5.222-3.818 16.948-7.385 39.663-7.385 56.238 0 140.833 118.763 254.972 259.596 254.972 54.231 0 114.568-25.992 154.949-57.243.903-.699 3.769-5.396 3.769-5.396.141-.864 3.724-15.19 5.187-36.483z" fill="#afe6ff"/><path d="m346.59 365.885c-140.833 0-255-114.167-255-255 0-18.615 2.007-36.753 5.795-54.234-58.645 46.72-96.253 118.747-96.253 199.554 0 28.509 4.678 55.925 13.309 81.523l247.132 109.569 221.771-75.216c9.814-19.219 17.275-39.884 21.987-61.637-43.559 34.695-98.724 55.441-158.741 55.441z" fill="#73c8f0"/></g><g><g fill="#783c28"><ellipse cx="291.316" cy="165.392" rx="51.167" ry="62.079"/><circle cx="308.239" cy="248.234" r="51.167"/><path d="m463.486 107.75c-15.819 10.717-26.539 31.439-26.539 55.243 0 34.799 22.908 63.009 51.167 63.009 7.316 0 14.273-1.891 20.567-5.297-5.814-41.735-21.729-80.237-45.195-112.955z"/><path d="m511.132 256.205c0-16.022-1.478-31.699-4.304-46.902-9.353-10.193-22.785-16.583-37.709-16.583-28.259 0-51.167 22.908-51.167 51.167s22.908 51.166 51.167 51.166c17.019 0 32.098-8.31 41.4-21.093.376-5.492.613-11.447.613-17.755z"/></g><path d="m444.858 363.565-53.444 38.453 82.521-13.121c3.339-5.47 6.478-11.078 9.407-16.815z" fill="#fff"/><path d="m389.651 370.245-94.852 21.053c.288.874.58 1.749.872 2.626.365 1.096.715 2.188 1.056 3.28 4.839-.382 9.991 2.545 9.991 8.797v100.167c70.383-14.199 130.709-57.455 167.217-117.273z" fill="#2477f9"/><path d="m291.545 373.107c.121.656.177 1.359.156 2.111-.185 6.551 1.921 12.559 3.969 18.706.365 1.096.715 2.188 1.056 3.28 4.839-.382 9.991 2.545 9.991 8.797v100.16c.279-.056.561-.104.84-.161v-60.406c0-31.004 20.936-57.958 50.703-65.794l-22.868-16.425z" fill="#afe6ff"/><path d="m294.799 391.298c.288.874.58 1.749.872 2.626.365 1.096.715 2.188 1.056 3.28 4.839-.382 9.991 2.545 9.991 8.797v100.16c.279-.056.561-.104.84-.161v-60.406c0-31.004 20.936-57.958 50.703-65.794l.538-2.707z" fill="#0540e5"/><path d="m390.125 440.826c30.228 0 54.733-24.505 54.733-54.733v-22.528l-55.243-12.225-54.222 12.035v22.718c0 30.228 24.504 54.733 54.732 54.733z" fill="#0540e5"/><g><g><path d="m390.125 420.039c-20.073 0-36.344-16.272-36.344-36.344v-81.406h72.689v81.406c0 20.072-16.272 36.344-36.345 36.344z" fill="#ff965a"/></g></g><g><g><path d="m488.72 174.771c0-33.168-21.278-63.497-54.445-63.497h-88.298c-9.464 0-18.132 2.477-25.694 6.777v175.309c0 38.263 30.776 69.577 69.038 69.867.268.002.537.003.805.003 56.987 0 103.183-46.197 103.183-103.183v-32.575z" fill="#ffbe82"/></g></g><path d="m510.56 238.998c-1.21-18.153-4.319-35.786-9.131-52.702-2.538-.904-5.272-1.397-8.121-1.397v61.331c6.755.001 12.863-2.768 17.252-7.232z" fill="#ff965a"/><g><g><path d="m285.766 243.707v-61.331c-13.361 0-24.193 10.832-24.193 24.193v12.946c0 13.36 10.832 24.192 24.193 24.192z" fill="#ff965a"/></g></g><g><g><path d="m345.543 221.488v7.276c0 4.746 3.848 8.594 8.594 8.594s8.594-3.848 8.594-8.594v-7.276z" fill="#ff965a"/></g></g><g><g><path d="m415.566 221.488v7.276c0 4.746 3.848 8.594 8.594 8.594s8.594-3.848 8.594-8.594v-7.276z" fill="#ff965a"/></g></g><g><path d="m395.718 363.079c-43.381-12.598-75.091-52.632-75.091-100.077.258-5.863 0-62.674 0-84.254 0-33.168 26.888-60.055 60.055-60.055h74.95c-6.593-2.56-13.782-3.977-21.358-3.977h-88.298c-33.168 0-57.782 24.614-57.782 57.782l-2.274 54.974v31.554c.001 59.555 49.901 107.226 109.798 104.053z" fill="#ff965a"/></g><g><g><path d="m354.137 230.475c-4.746 0-8.594-3.848-8.594-8.594v-11.055l3.168-4.797-3.168-4.797v-2.855c0-4.746 3.848-8.594 8.594-8.594s8.594 3.848 8.594 8.594v23.504c0 4.746-3.848 8.594-8.594 8.594z" fill="#373c41"/></g></g><g><g><path d="m424.16 230.475c-4.746 0-8.594-3.848-8.594-8.594v-11.055l3.168-4.797-3.168-4.797v-2.855c0-4.746 3.848-8.594 8.594-8.594s8.594 3.848 8.594 8.594v23.504c0 4.746-3.848 8.594-8.594 8.594z" fill="#373c41"/></g></g><g><g><g><path d="m365.459 185.486h-25.062c-4.746 0-8.594-3.848-8.594-8.594 0-4.746 3.848-8.594 8.594-8.594h25.062c4.746 0 8.594 3.848 8.594 8.594 0 4.746-3.847 8.594-8.594 8.594z" fill="#783c28"/></g></g></g><g><g><g><path d="m437.076 185.486h-25.062c-4.746 0-8.594-3.848-8.594-8.594 0-4.746 3.848-8.594 8.594-8.594h25.062c4.746 0 8.594 3.848 8.594 8.594 0 4.746-3.848 8.594-8.594 8.594z" fill="#783c28"/></g></g></g><path d="m421.769 278.018h-8.849l-23.305 4.838-23.305-4.838h-7.828c-2.626 0-4.724 2.292-4.374 4.895.67 4.979 2.349 9.638 4.823 13.766l47.189 13.984c10.657-5.231 18.378-15.528 20.023-27.75.35-2.602-1.748-4.895-4.374-4.895z" fill="#c3247d"/><g><g><path d="m376.201 242.674c-2.136 8.531 1.746 17.824 9.171 20.625 1.494.564 3.092.869 4.754.869 1.661 0 3.26-.305 4.754-.869 7.425-2.801 11.308-12.094 9.171-20.625l-7.082-28.282c-1.783-7.12-11.902-7.12-13.685 0z" fill="#ff965a"/></g></g><path d="m470.159 117.523h-11.268v2.878c.296.138.593.279.89.423 12.121 5.896 19.707 18.32 19.707 31.8v61.026c0 7.633 6.188 13.821 13.821 13.821v-52.153c0-.001 0-.002 0-.003v-12.954c-6.249-15.778-14.026-30.786-23.15-44.838z" fill="#783c28"/><path d="m348.711 213.994c-1.75 0-3.168-1.418-3.168-3.168v-9.594c0-1.75 1.418-3.168 3.168-3.168 1.75 0 3.168 1.418 3.168 3.168v9.594c0 1.75-1.418 3.168-3.168 3.168z" fill="#fff"/><path d="m418.735 213.994c-1.75 0-3.168-1.418-3.168-3.168v-9.594c0-1.75 1.418-3.168 3.168-3.168 1.75 0 3.168 1.418 3.168 3.168v9.594c0 1.75-1.419 3.168-3.168 3.168z" fill="#fff"/><path d="m358.935 296.677c6.351 10.593 17.941 17.686 31.19 17.686 5.74 0 11.166-1.335 15.992-3.704-2.075-13.015-13.347-22.963-26.946-22.963-8.026-.001-15.243 3.465-20.236 8.981z" fill="#dd544f"/><path d="m407.793 287.695h-36.357c-2.831 0-5.127-2.295-5.127-5.127v-4.55h46.611v4.55c0 2.832-2.295 5.127-5.127 5.127z" fill="#fff"/><g><path d="m285.921 131.222v44.093.003 52.153c7.633 0 13.821-6.188 13.821-13.821v-61.026c0-.081 0-.162.001-.242.071-10.435 7.601-19.048 17.444-21.16z" fill="#783c28"/></g><circle cx="325.989" cy="103.312" fill="#783c28" r="51.167"/><path d="m456.066 97.913c-23.074-29.104-52.367-53.053-85.873-69.838-17.977 10.212-30.104 29.533-30.104 51.685 0 32.806 26.595 59.401 59.401 59.401 26.475.001 48.905-17.32 56.576-41.248z" fill="#783c28"/><path d="m487.14 148.081c-14.576-31.087-35.242-58.751-60.462-81.454-9.56 9.296-15.499 22.297-15.499 36.685 0 28.258 22.908 51.167 51.167 51.167 8.996 0 17.449-2.322 24.794-6.398z" fill="#783c28"/></g><g><g><g><path d="m.074 183.23c0 13.361 10.832 24.193 24.193 24.193v-61.331c-13.361 0-24.193 10.832-24.193 24.193v12.945z" fill="#ff965a"/></g></g><g><path d="m253.816 340.382-125.856-27.85-1.873 79.579 156.953 117.685c8.155-.859 16.202-2.103 24.122-3.715v-99.26c-.001-31.916-22.183-59.543-53.346-66.439z" fill="#fff"/><path d="m73.738 324.567-59.297 13.161c2.281 6.764 4.837 13.4 7.656 19.897l33.424 14.284c8.919-14.926 23.453-26.275 41.085-30.917z" fill="#afe6ff"/><path d="m236.886 358.216-108.889-24.096-80.648 41.848 9.654 39.54c9.197 11.481 19.366 22.15 30.383 31.881l86.23 50.17c25.881 8.846 53.638 13.646 82.516 13.646 9.08 0 18.058-.478 26.908-1.409v-94.098c0-27.613-19.192-51.516-46.154-57.482z" fill="#2477f9"/><path d="m57.003 415.509c.072-26.757 18.163-49.999 43.867-56.765l3.868-19.461-82.64 18.342c9.067 20.895 20.85 40.338 34.905 57.884z" fill="#0540e5"/><path d="m128.471 402.018c30.228 0 54.733-24.505 54.733-54.733v-22.528l-55.243-12.225-54.222 12.035v22.718c-.001 30.228 24.504 54.733 54.732 54.733z" fill="#0540e5"/><g><g><path d="m128.471 381.231c-20.073 0-36.344-16.272-36.344-36.344v-81.407h72.689v81.406c0 20.073-16.272 36.345-36.345 36.345z" fill="#ff965a"/></g></g><g><g><path d="m227.066 135.963c0-33.168-21.278-63.497-54.445-63.497h-88.299c-9.464 0-18.132 2.477-25.694 6.777v175.309c0 38.264 30.776 69.577 69.038 69.867.268.002.537.003.805.003 56.987 0 103.183-46.197 103.183-103.183v-32.575z" fill="#ffbe82"/></g></g><g><g><path d="m231.655 207.423v-61.331c13.361 0 24.193 10.832 24.193 24.193v12.946c0 13.36-10.832 24.192-24.193 24.192z" fill="#ff965a"/></g></g><g><g><path d="m83.889 182.68v7.276c0 4.746 3.848 8.594 8.594 8.594s8.594-3.848 8.594-8.594v-7.276z" fill="#ff965a"/></g></g><g><g><path d="m153.912 182.68v7.276c0 4.746 3.848 8.594 8.594 8.594s8.594-3.848 8.594-8.594v-7.276z" fill="#ff965a"/></g></g><g><path d="m134.064 324.271c-43.381-12.598-75.091-52.632-75.091-100.077.258-5.863 0-62.674 0-84.254 0-33.168 26.888-60.055 60.055-60.055h74.95c-6.593-2.56-13.782-3.977-21.358-3.977h-88.298c-33.168 0-57.782 24.614-57.782 57.782l-2.274 54.974v31.554c.001 59.555 49.901 107.226 109.798 104.053z" fill="#ff965a"/></g><g><g><path d="m92.483 191.667c-4.746 0-8.594-3.848-8.594-8.594v-11.055l3.168-4.797-3.168-4.797v-2.855c0-4.746 3.848-8.594 8.594-8.594s8.594 3.848 8.594 8.594v23.504c0 4.746-3.848 8.594-8.594 8.594z" fill="#373c41"/></g></g><g><g><path d="m162.506 191.667c-4.746 0-8.594-3.848-8.594-8.594v-11.055l3.168-4.797-3.168-4.797v-2.855c0-4.746 3.848-8.594 8.594-8.594s8.594 3.848 8.594 8.594v23.504c0 4.746-3.848 8.594-8.594 8.594z" fill="#373c41"/></g></g><g><g><g><path d="m103.805 146.678h-25.062c-4.746 0-8.594-3.848-8.594-8.594 0-4.746 3.848-8.594 8.594-8.594h25.062c4.746 0 8.594 3.848 8.594 8.594 0 4.746-3.847 8.594-8.594 8.594z" fill="#783c28"/></g></g></g><path d="m128.495 336.074c-24.083 0-43.606-19.523-43.606-43.606v-54.176c0-9.08 7.361-16.441 16.441-16.441h54.329c9.08 0 16.441 7.361 16.441 16.441v54.176c0 24.083-19.523 43.606-43.605 43.606z" fill="#783c28"/><g><g><g><path d="m175.422 146.678h-25.062c-4.746 0-8.594-3.848-8.594-8.594 0-4.746 3.848-8.594 8.594-8.594h25.062c4.746 0 8.594 3.848 8.594 8.594 0 4.746-3.848 8.594-8.594 8.594z" fill="#783c28"/></g></g></g><path d="m160.115 239.211h-8.849l-23.305 4.838-23.305-4.838h-7.828c-2.626 0-4.724 2.292-4.374 4.895.67 4.979 2.349 9.638 4.823 13.766l47.189 13.984c10.657-5.231 18.378-15.528 20.023-27.75.35-2.603-1.748-4.895-4.374-4.895z" fill="#c3247d"/><g><g><path d="m114.546 203.866c-2.136 8.531 1.746 17.824 9.171 20.625 1.494.564 3.092.869 4.754.869 1.661 0 3.26-.305 4.754-.869 7.425-2.801 11.308-12.094 9.171-20.625l-7.082-28.282c-1.783-7.12-11.902-7.12-13.685 0z" fill="#ff965a"/></g></g><g><path d="m231.655 78.715v57.792.003 52.153c-7.633 0-13.821-6.188-13.821-13.821v-61.026c0-13.479-7.586-25.903-19.707-31.799-.297-.145-.594-.286-.89-.423v-2.878h34.418z" fill="#783c28"/></g><path d="m87.057 175.186c-1.75 0-3.168-1.418-3.168-3.168v-9.594c0-1.75 1.418-3.168 3.168-3.168 1.75 0 3.168 1.418 3.168 3.168v9.594c0 1.75-1.418 3.168-3.168 3.168z" fill="#fff"/><path d="m157.08 175.186c-1.75 0-3.168-1.418-3.168-3.168v-9.594c0-1.75 1.418-3.168 3.168-3.168 1.75 0 3.168 1.418 3.168 3.168v9.594c.001 1.75-1.418 3.168-3.168 3.168z" fill="#fff"/><path d="m97.281 257.869c6.351 10.593 17.941 17.686 31.19 17.686 5.74 0 11.166-1.335 15.992-3.704-2.075-13.015-13.347-22.963-26.946-22.963-8.027-.001-15.243 3.465-20.236 8.981z" fill="#dd544f"/><path d="m146.139 248.887h-36.357c-2.831 0-5.127-2.295-5.127-5.127v-4.55h46.611v4.55c0 2.832-2.295 5.127-5.127 5.127z" fill="#fff"/><path d="m83.07.158c-32.485.03-58.803 26.372-58.803 58.857v77.493.003 52.153c7.633 0 13.821-6.188 13.821-13.821v-61.026c0-.081 0-.162.001-.242.082-12.047 10.103-21.672 22.151-21.66l154.652.152c21.404.021 38.766-17.324 38.766-38.728v-53.339z" fill="#a55a3c"/><g><path d="m92.271 59.015c0-32.485 26.318-58.827 58.803-58.857l102.582-.095v-.063l-170.586.158c-32.485.03-58.803 26.372-58.803 58.857v77.493.003 52.153c7.633 0 13.821-6.188 13.821-13.821v-61.026c0-.081 0-.162.001-.242.082-12.047 10.103-21.672 22.151-21.66l32.032.031v-32.931z" fill="#783c28"/></g><g><path d="m128.471 430.919c-13.335 0-25.334 5.825-33.587 15.065l.182 7.926c20.598 16.801 43.872 30.448 69.083 40.202l7.647-5.841c1.115-3.915 1.711-8.046 1.711-12.314.001-24.835-20.202-45.038-45.036-45.038z" fill="#fff"/><path d="m128.471 425.919c-17.015 0-32.046 8.493-41.086 21.471 2.516 2.223 5.077 4.397 7.68 6.52 7.173-10.833 19.469-17.991 33.406-17.991 22.076 0 40.037 17.96 40.037 40.037 0 6.532-1.573 12.703-4.359 18.156 3.126 1.21 6.282 2.359 9.467 3.448 3.135-6.54 4.892-13.867 4.892-21.604 0-27.635-22.402-50.037-50.037-50.037z" fill="#ffc305"/></g></g></g></g></svg>