<svg id="Layer_1" enable-background="new 0 0 511.292 511.292" height="512" viewBox="0 0 511.292 511.292" width="512" xmlns="http://www.w3.org/2000/svg"><g><g><path d="m91.105 110.972c0-18.615 2.007-36.753 5.795-54.234-39.678 31.609-69.726 74.802-85.012 124.462l41.88 55.498 67.906-4.572c-19.496-36.04-30.569-77.303-30.569-121.154z" fill="#73c8f0"/><path d="m510.646 256.292c0-140.833-114.167-255-255-255-98.131 0-158.58 55.352-158.747 55.445 0 0-2.513 3.137-2.983 5.222-3.818 16.948-7.385 39.663-7.385 56.238 0 140.833 118.763 254.972 259.596 254.972 51.822 0 109.218-23.734 149.451-53.111h7c5.29-20.553 8.068-41.234 8.068-63.766z" fill="#afe6ff"/></g><path d="m351.095 321.883-338.575 11.543c32.689 103.129 129.18 177.866 243.126 177.866 50.517 0 97.866-14.771 137.726-40.386-26.66-40.134-58.482-85.431-42.277-149.023z" fill="#69b76b"/><path d="m121.362 319.49c39.074 90.699 129.272 154.196 234.3 154.196 12.797 0 25.39-.948 37.71-2.78 30.153-19.377 56.02-44.96 75.73-75.049l1.374-7.882 6.382-4.746c11.321-19.695 20.101-41.082 25.875-63.739z" fill="#9dc63d"/><path d="m226.466 277.709-214.578-96.509c-7.308 23.74-11.242 48.957-11.242 75.093 0 3.38.066 6.745.196 10.093l.414.743c7.641 13.705 21.686 22.483 37.326 23.753 74.7 6.067 124.619 73.725 124.619 73.725s117.949-27.234 63.265-86.898z" fill="#fff"/><g><g><path d="m235.021 321.628c2.259-4.138 3.722-8.476 4.173-13.001-1.233 4.385-2.638 8.729-4.173 13.001z" fill="#e4f2f6"/></g><path d="m63.741 282.286c-36.881 3.736-56.652-11.304-62.899-15.901.906 23.284 4.935 45.767 11.678 67.041 10.503 2.859 27.25 5.292 51.221 2.863 87.788-8.893 80.273 39.973 80.273 39.973s16.134-4.576 35.127-12.995c-19.411-35.687-57.652-86.83-115.4-80.981z" fill="#e4f2f6"/></g><g><g><path d="m257.304 286.433-25.882-14.191c-7.335-4.022-16.458-2.62-22.235 3.43-3.56 3.729-7.729 8.905-12.229 16.046-2.83 4.49-.97 10.448 3.927 12.494l34.476 14.403z" fill="#0360e8"/></g><path d="m246.04 472.128-29.21 14.794 18.86 21.85c.871 1.01 2.011 1.682 3.239 1.981.74.048 1.481.092 2.222.134.706-.085 1.407-.292 2.07-.628l6.016-3.047c2.554-1.293 3.898-4.161 3.257-6.951z" fill="#373c41"/><g><path d="m297.601 482.716-6.016 3.047c-2.554 1.293-5.661.68-7.531-1.487l-18.86-21.85 29.21-14.794 6.455 28.133c.64 2.79-.704 5.658-3.258 6.951z" fill="#373c41"/></g><g><path d="m399.119 431.301-6.016 3.047c-2.554 1.293-5.661.68-7.531-1.487l-18.86-21.85 29.21-14.794 6.455 28.133c.64 2.79-.704 5.657-3.258 6.951z" fill="#50555a"/></g><g><path d="m435.512 412.869-6.016 3.047c-2.554 1.293-5.661.68-7.531-1.487l-18.86-21.85 29.21-14.794 6.455 28.133c.64 2.79-.704 5.657-3.258 6.951z" fill="#50555a"/></g><path d="m471.103 358.14-29.21 14.794 18.86 21.85c1.871 2.167 4.977 2.781 7.531 1.487l.819-.415c2.703-4.126 5.29-8.336 7.757-12.627z" fill="#50555a"/><path d="m429.591 286.721-43.854 11.061c-42.866 10.812-88.128 6.812-128.433-11.349l-25.679 21.382c-12.209 10.166-25.918 18.234-40.564 23.963l-27.86 23.63 66.134 110.738s60.384-35.989 71.3-41.851c39.26-21.083 171.074-81.588 171.074-81.588l7.394-43.927c-9.834-14.835-24.75-17.802-49.512-12.059z" fill="#2896ff"/><path d="m482.072 303.914c-.936-1.849-1.926-3.557-2.971-5.133l-187.036 94.561c-30.524 15.432-67.783 3.339-83.434-27.074-8.321-16.169-15.706-30.601-17.571-34.493-11.594 4.535-23.773 7.608-36.261 9.096-9.777 1.164-18.55 3.652-21.958 8.599-15.666 22.737-.943 39.656 11.173 63.257l85.321 53.419s60.384-35.989 71.3-41.851c39.26-21.083 191.277-100.951 191.277-100.951s-.096-.19-9.84-19.43z" fill="#2477f9"/><g><path d="m311.699 450.717 166.033-84.091c15.868-8.037 22.216-27.415 14.18-43.283l-194.764 98.642-23.424 20.036z" fill="#50555a"/></g><g><path d="m244.472 457.956c-1.072-7.377-3.365-14.785-6.971-21.907-16.214-32.013-52.777-46.104-81.666-31.473-4.377 2.217-8.325 4.969-11.82 8.15 4.228 8.236 9.002 16.203 12.624 23.258l22.479 45.78s22.952-.613 45.743-12.156c-.001 0 8.632-5.145 19.611-11.652z" fill="#ffd23c"/></g><g><path d="m222.4 495.944 89.299-45.227-14.552-28.731-118.031 59.779c8.038 15.867 27.416 22.216 43.284 14.179z" fill="#373c41"/></g><g><path d="m257.912 330.288c-1.894 0-3.794-.658-5.334-1.999-3.384-2.947-3.738-8.08-.791-11.465l23.32-26.779c2.948-3.385 8.081-3.737 11.465-.791 3.384 2.947 3.738 8.08.791 11.465l-23.32 26.779c-1.607 1.845-3.864 2.79-6.131 2.79z" fill="#0540e5"/></g><g><circle cx="294.99" cy="327.899" fill="#2477f9" r="12.127"/></g><g><path d="m293.152 332.402c-1.894 0-3.794-.658-5.334-1.999-3.384-2.947-3.738-8.08-.791-11.465l19.321-22.187c2.948-3.385 8.082-3.737 11.465-.791 3.384 2.947 3.738 8.08.791 11.465l-19.321 22.187c-1.607 1.845-3.863 2.79-6.131 2.79z" fill="#0540e5"/></g><g><circle cx="259.827" cy="325.556" fill="#2477f9" r="12.127"/></g><g><circle cx="330.151" cy="326.693" fill="#2477f9" r="12.127"/></g><g><path d="m328.455 331.475c-1.894 0-3.794-.658-5.334-1.999-3.385-2.947-3.738-8.081-.791-11.465l19.322-22.187c2.948-3.385 8.081-3.737 11.465-.791 3.385 2.947 3.738 8.081.791 11.465l-19.322 22.187c-1.607 1.845-3.864 2.79-6.131 2.79z" fill="#0540e5"/></g><g><path d="m257.912 330.288c-1.894 0-3.794-.658-5.334-1.999-3.384-2.947-3.738-8.08-.791-11.465l6.167-7.082c2.948-3.385 8.081-3.737 11.465-.791 3.384 2.947 3.738 8.08.791 11.465l-6.167 7.082c-1.607 1.845-3.864 2.79-6.131 2.79z" fill="#003dc6"/></g><g><path d="m293.152 332.402c-1.894 0-3.794-.658-5.334-1.998-3.384-2.947-3.738-8.081-.791-11.465l4.167-4.785c2.948-3.386 8.081-3.737 11.465-.792 3.384 2.947 3.738 8.081.791 11.465l-4.167 4.785c-1.607 1.845-3.863 2.79-6.131 2.79z" fill="#003dc6"/></g><g><path d="m328.455 331.475c-1.894 0-3.795-.658-5.334-1.999-3.385-2.948-3.738-8.081-.791-11.465l3.977-4.565c2.949-3.384 8.084-3.737 11.465-.79 3.385 2.948 3.738 8.081.791 11.465l-3.977 4.565c-1.608 1.844-3.864 2.789-6.131 2.789z" fill="#003dc6"/></g><g><circle cx="232.628" cy="370.618" fill="#0360e8" r="31.804"/></g><path d="m257.984 350.292c-7.936-15.67-27.072-21.939-42.742-14.003l28.739 56.745c15.67-7.936 21.939-27.072 14.003-42.742z" fill="#fff"/><g><path d="m201.24 379.032c7.936 15.67 27.072 21.939 42.742 14.003l-28.739-56.744c-15.67 7.935-21.94 27.071-14.003 42.741z" fill="#c8e6eb"/></g></g><g><g><g><path d="m301.904 7.656 1.507 12.349 56.187 23.097 40.15-31.736c-16.357-7.302-34.476-11.366-53.546-11.366-15.562 0-30.442 2.694-44.298 7.656z" fill="#c8e6eb"/></g></g><g><g><path d="m389.058 255.879-3.992-33.014-56.987-23.132-47.837 38.019 1.054 8.161c33.471 18.999 73.031 21.921 107.762 9.966z" fill="#1a1b1c"/></g></g><g><g><g><path d="m367.617 102.47-47.99 37.763 8.639 60.145 56.305 22.872 48.095-37.43-8.209-60.302z" fill="#fff"/></g></g><g><g><path d="m303.641 19.828-48.367 37.283 8.344 60.197 56.241 22.922 47.83-37.224-8.15-60.347z" fill="#373c41"/></g></g></g><g><g><path d="m424.187 125.728 8.48 60.092 27.564 11.272c11.104-19.289 17.485-41.723 17.485-65.578 0-14.72-2.419-28.874-6.88-42.089z" fill="#373c41"/></g></g><g><g><path d="m460.23 197.092-27.564-11.385-48.096 37.544 4.487 32.628c30.172-10.404 55.454-31.553 71.173-58.787z" fill="#b4d7dc"/></g></g><g><g><path d="m280.935 237.213-23.534-8.7c7.176 6.54 15.402 12.563 23.896 17.4z" fill="#a5c8cd"/></g></g><g><path d="m319.859 140.23-56.305-22.872 64.649 83.069z" fill="#e4f2f6"/></g><g><g><path d="m399.749 11.365-40.21 31.293 8.151 60.348 56.498 22.722 46.648-36.304c-11.772-34.87-37.77-63.187-71.087-78.059z" fill="#e4f2f6"/></g></g><g><g><path d="m264.204 117.546-8.843-60.502-13.602-5.447c-23.005 30.065-31.171 67.287-25.164 102.307z" fill="#a5c8cd"/></g></g><g><g><path d="m300.554 132.388-37-15.031-46.959 36.546c2.018 7.759 6.8 43.406 40.806 74.61.003.003-.003-.003 0 0l23.534 8.7 47.332-36.836-6.738-48.61c-7.645-5.673-14.731-12.212-20.975-19.379z" fill="#c8e6eb"/></g></g><g><g><path d="m300.45 132.27c-19.868-22.86-31.966-52.647-32.202-85.256l-12.974 10.097 8.281 60.247z" fill="#1a1b1c"/></g></g><g><g><path d="m431.002 173.815 1.664 12.005 27.564 11.272c7.768-13.493 13.123-28.447 15.684-43.825-13.338 9.491-28.524 16.553-44.912 20.548z" fill="#1a1b1c"/></g></g><g><g><path d="m321.45 151.709 6.817 48.668 56.304 22.872 48.096-37.43-1.809-11.968c-9.974 2.419-20.391 3.703-31.109 3.703-29.3.001-56.438-9.644-78.299-25.845z" fill="#e4f2f6"/></g></g><g><g><path d="m241.759 51.597 13.515 5.514 48.367-37.283-1.737-12.172c-24.054 8.594-44.881 24.052-60.145 43.941z" fill="#e4f2f6"/></g></g></g></g></svg>