<svg id="Layer_1" enable-background="new 0 0 511 511" height="512" viewBox="0 0 511 511" width="512" xmlns="http://www.w3.org/2000/svg"><g><g><path d="m506.184 210.802-94.35-156.884c-43.256-33.785-97.694-53.918-156.834-53.918-98.131 0-158.58 55.352-158.747 55.445l-4.05 3.295s-6.318 41.591-6.318 58.166c0 140.833 118.763 254.972 259.596 254.972 54.231 0 114.568-25.992 154.949-57.243.903-.699 3.769-5.396 3.769-5.396.178-1.087 5.801-23.477 5.801-54.239 0-15.074-1.308-29.842-3.816-44.198z" fill="#afe6ff"/><path d="m345.459 364.679c-140.833 0-255-114.167-255-255l-87.146 104.122c-2.18 13.411-3.313 27.173-3.313 41.199 0 140.833 114.167 255 255 255 121.17 0 224.116-84.98 249.199-200.761-43.559 34.695-98.723 55.44-158.74 55.44z" fill="#73c8f0"/></g><path d="m462.421 106.638-24.296-29.093c-8.204-8.464-16.989-16.361-26.291-23.627-15.528-5.185-31.327-9.523-47.326-12.994l-51.24-11.117-7.04 17.104c.533 11.89-5.702 25.473-13.98 33.752-8.656 8.656-21.513 13.981-33.752 13.981-21.951 0-39.22-14.721-45.36-34.286h-38.904v391.462h242.887c7.02-5.784 13.729-11.938 20.095-18.436v-245.611l68.969 23.03c-6.701-38.35-21.97-73.753-43.762-104.165z" fill="#2477f9"/><path d="m438.125 77.545c-31.271-10.333-63.037-19.105-95.179-26.281l-39.314-8.778-4.357 19.52 7.889 1.761c52.431 11.707 104.248 26.015 155.258 42.871-7.379-10.296-15.504-20.02-24.297-29.093z" fill="#fff"/><path d="m269.523 451.82c-51.675 0-93.566-41.891-93.566-93.566v-246.368c0-25.329 13.976-47.948 35.322-59.655-.256-1.75-.436-3.523-.516-5.318-.29-6.465-6.971-17.245-6.971-17.245l-52.733 12.362c-19.712 4.621-39.201 10.147-58.405 16.56l-.451.15c-8.368 6.949-16.284 14.424-23.699 22.372l-23.209 28.789c-21.127 30.471-35.785 65.767-41.983 103.9l76.04-25.391v251.45c46.874 44.55 109.108 70.14 175.648 70.14 61.27 0 117.879-21.728 162.119-58.18z" fill="#0540e5"/><path d="m170.335 52.319c-34.373 8.007-68.354 17.615-101.831 28.794-8.423 9.029-16.198 18.67-23.251 28.849 52.598-17.563 105.988-32.66 159.996-45.24l12.167-2.834-4.538-19.479z" fill="#fff"/><g fill="#fff"><path d="m202.856 209.38-5.357 3.325c-6.721 4.482-13.67-1.818-13.67-9.976 0-3.879 1.662-7.574 5.357-9.791l24.385-14.779c5.559-3.472 18.104.254 18.104 7.759v117.494c0 5.911-7.205 8.867-14.409 8.867-7.205 0-14.41-2.956-14.41-8.867z"/><path d="m248.301 269.789v-48.956c0-31.775 19.767-43.598 45.261-43.598s45.445 11.823 45.445 43.598v48.956c0 31.775-19.951 43.598-45.445 43.598s-45.261-11.823-45.261-43.598zm61.886-48.955c0-12.747-6.281-18.474-16.626-18.474-10.346 0-16.441 5.727-16.441 18.474v48.956c0 12.747 6.096 18.474 16.441 18.474s16.626-5.727 16.626-18.474z"/></g><g><g><g><path d="m335.189 255.648 1.507 12.349 56.187 23.097 40.15-31.736c-16.357-7.301-34.476-11.365-53.546-11.365-15.563-.001-30.442 2.692-44.298 7.655z" fill="#c8e6eb"/></g></g><g><g><path d="m422.343 503.871-3.992-33.014-56.987-23.132-47.837 38.019 1.054 8.161c33.47 18.998 73.03 21.921 107.762 9.966z" fill="#1a1b1c"/></g></g><g><g><g><path d="m400.901 350.462-47.99 37.763 8.64 60.145 56.304 22.872 48.096-37.43-8.21-60.302z" fill="#fff"/></g></g><g><g><path d="m336.926 267.819-48.368 37.284 8.344 60.197 56.241 22.922 47.831-37.224-8.151-60.348z" fill="#373c41"/></g></g></g><g><g><path d="m457.471 373.72 8.479 60.092 27.564 11.272c11.105-19.29 17.486-41.724 17.486-65.579 0-14.72-2.419-28.874-6.88-42.089z" fill="#373c41"/></g></g><g><g><path d="m493.515 445.083-27.564-11.385-48.096 37.544 4.487 32.628c30.172-10.404 55.454-31.552 71.173-58.787z" fill="#b4d7dc"/></g></g><g><g><path d="m314.219 485.205-23.534-8.7c7.176 6.54 15.402 12.563 23.895 17.4z" fill="#a5c8cd"/></g></g><g><path d="m353.143 388.222-56.304-22.873 64.648 83.07z" fill="#e4f2f6"/></g><g><g><path d="m433.033 259.357-40.21 31.293 8.151 60.348 56.498 22.722 46.648-36.304c-11.772-34.87-37.77-63.188-71.087-78.059z" fill="#e4f2f6"/></g></g><g><g><path d="m297.488 365.538-8.842-60.502-13.602-5.447c-23.005 30.065-31.171 67.287-25.164 102.307z" fill="#a5c8cd"/></g></g><g><g><path d="m333.839 380.38-37-15.031-46.959 36.546c2.018 7.759 6.8 43.406 40.806 74.61.003.003-.003-.003 0 0l23.534 8.7 47.332-36.836-6.738-48.61c-7.645-5.673-14.731-12.213-20.975-19.379z" fill="#c8e6eb"/></g></g><g><g><path d="m333.734 380.262c-19.868-22.86-31.965-52.647-32.202-85.256l-12.974 10.097 8.28 60.247z" fill="#1a1b1c"/></g></g><g><g><path d="m464.287 421.807 1.664 12.005 27.564 11.272c7.768-13.493 13.123-28.447 15.684-43.825-13.338 9.491-28.524 16.553-44.912 20.548z" fill="#1a1b1c"/></g></g><g><g><path d="m354.734 399.701 6.817 48.668 56.304 22.872 48.096-37.43-1.809-11.968c-9.974 2.419-20.391 3.703-31.109 3.703-29.3.001-56.437-9.644-78.299-25.845z" fill="#e4f2f6"/></g></g><g><g><path d="m275.044 299.588 13.515 5.514 48.367-37.283-1.737-12.172c-24.055 8.594-44.882 24.053-60.145 43.941z" fill="#e4f2f6"/></g></g></g><g><path d="m294.869 25.787v24.198c0 20.073-16.272 36.344-36.344 36.344-20.073 0-36.344-16.272-36.344-36.344v-24.4l-18.388 4.081v22.718c0 30.228 24.505 54.733 54.733 54.733 30.228 0 54.733-24.505 54.733-54.733v-22.528z" fill="#0540e5"/></g></g></svg>