<svg id="Layer_1" enable-background="new 0 0 512.105 512.105" height="512" viewBox="0 0 512.105 512.105" width="512" xmlns="http://www.w3.org/2000/svg"><g><g><path d="m256.052 2.105c-98.131 0-158.58 55.352-158.747 55.445 0 0-2.513 3.137-2.983 5.222-3.818 16.948-7.385 39.663-7.385 56.238 0 140.833 118.763 254.972 259.596 254.972 54.231 0 114.568-25.992 154.949-57.243.903-.699 3.769-5.396 3.769-5.396.178-1.087 5.8-23.477 5.8-54.239.001-140.832-114.166-254.999-254.999-254.999z" fill="#9dc63d"/><path d="m346.511 366.784c-140.833 0-255-114.167-255-255 0-18.615 2.008-36.753 5.795-54.234-58.645 46.72-96.253 118.747-96.253 199.555 0 55.995 18.048 107.774 48.644 149.838l21.491.532 13.084 38.091c45.322 41.334 105.608 66.54 171.78 66.54 63.883 0 122.701-23.621 167.714-62.924l10.071-31.808 22.007-1.789c23.755-29.897 40.979-65.329 49.408-104.24-43.559 34.694-98.724 55.439-158.741 55.439z" fill="#69b76b"/></g><path d="m439.805 354.055h-227.737v32.077h211.699v63.048c11.671-10.191 22.414-21.436 32.077-33.597v-45.49c0-8.857-7.181-16.038-16.039-16.038z" fill="#fff"/><path d="m52.195 370.094v40.226c9.581 12.727 20.326 24.529 32.077 35.246v-59.433h129.848v-32.077h-145.886c-8.858-.001-16.039 7.18-16.039 16.038z" fill="#c8e6eb"/><g><path d="m251.697 252.144c-.447 0-.891.016-1.337.022v32.075c.445-.01.89-.02 1.337-.02 47.618 0 86.358 38.74 86.358 86.358h32.077c0-65.306-53.13-118.435-118.435-118.435z" fill="#fff"/></g><g><path d="m252.413 252.153c-.239-.001-.477-.009-.716-.009-65.306 0-118.436 53.13-118.436 118.436h32.077c0-47.618 38.74-86.358 86.359-86.358.24 0 .476.016.716.018z" fill="#c8e6eb"/></g><g><g><g><path d="m305.347 7.072 1.392 11.407 51.9 21.335 37.087-29.315c-15.109-6.745-31.845-10.499-49.46-10.499-14.375 0-28.12 2.488-40.919 7.072z" fill="#c8e6eb"/></g></g><g><g><path d="m385.852 236.356-3.687-30.495-52.639-21.367-44.187 35.119.974 7.539c30.915 17.548 67.457 20.248 99.539 9.204z" fill="#1a1b1c"/></g></g><g><g><g><path d="m366.046 94.652-44.329 34.882 7.981 55.556 52.009 21.127 44.426-34.574-7.583-55.701z" fill="#fff"/></g></g><g><g><path d="m306.952 18.315-44.677 34.439 7.707 55.604 51.95 21.173 44.181-34.384-7.529-55.743z" fill="#373c41"/></g></g></g><g><g><path d="m418.3 116.136 7.833 55.507 25.461 10.412c10.257-17.818 16.151-38.54 16.151-60.575 0-13.597-2.235-26.671-6.355-38.878z" fill="#373c41"/></g></g><g><g><path d="m451.594 182.054-25.461-10.517-44.426 34.68 4.145 30.139c27.869-9.61 51.222-29.145 65.742-54.302z" fill="#b4d7dc"/></g></g><g><g><path d="m285.978 219.115-21.738-8.036c6.628 6.041 14.227 11.604 22.072 16.073z" fill="#a5c8cd"/></g></g><g><path d="m321.932 129.531-52.009-21.127 59.716 76.732z" fill="#e4f2f6"/></g><g><g><path d="m395.727 10.498-37.142 28.906 7.529 55.743 52.187 20.988 43.089-33.534c-10.874-32.209-34.888-58.366-65.663-72.103z" fill="#e4f2f6"/></g></g><g><g><path d="m270.523 108.578-8.168-55.886-12.564-5.031c-21.25 27.771-28.792 62.153-23.244 94.501z" fill="#a5c8cd"/></g></g><g><g><path d="m304.1 122.288-34.177-13.884-43.376 33.757c1.864 7.167 6.281 40.094 37.692 68.918.003.003-.003-.003 0 0l21.738 8.036 43.721-34.025-6.224-44.901c-7.061-5.241-13.606-11.282-19.374-17.901z" fill="#c8e6eb"/></g></g><g><g><path d="m304.004 122.179c-18.352-21.116-29.527-48.63-29.745-78.751l-11.984 9.326 7.649 55.65z" fill="#1a1b1c"/></g></g><g><g><path d="m424.596 160.554 1.537 11.089 25.461 10.412c7.175-12.464 12.122-26.276 14.487-40.482-12.32 8.767-26.348 15.291-41.485 18.981z" fill="#1a1b1c"/></g></g><g><g><path d="m323.402 140.135 6.297 44.955 52.009 21.127 44.426-34.574-1.671-11.055c-9.213 2.235-18.835 3.42-28.735 3.42-27.066 0-52.133-8.908-72.326-23.873z" fill="#e4f2f6"/></g></g><g><g><path d="m249.791 47.66 12.484 5.094 44.677-34.439-1.604-11.243c-22.22 7.938-41.458 22.217-55.557 40.588z" fill="#e4f2f6"/></g></g></g></g></svg>