<svg id="Layer_1" enable-background="new 0 0 511 511" height="512" viewBox="0 0 511 511" width="512" xmlns="http://www.w3.org/2000/svg"><g><g><path d="m169.029 303.544h337.061c1.717-8.984 4.409-26.256 4.409-47.544 0-140.833-114.167-255-255-255-98.13 0-158.579 55.352-158.746 55.445 0 0-2.513 3.137-2.983 5.222-3.818 16.948-7.385 39.663-7.385 56.238 0 73.181 32.077 139.143 82.644 185.639z" fill="#afe6ff"/><path d="m90.959 110.679c0-18.615 2.007-36.753 5.795-54.234-58.645 46.72-96.254 118.747-96.254 199.555 0 1.88.021 3.756.062 5.626l28.551 41.918h150.024c-54.01-46.757-88.178-115.821-88.178-192.865z" fill="#73c8f0"/></g><path d="m388.126 436.44c34.396 0 66.584-17.572 84.626-46.857 14.801-24.024 25.751-50.744 31.947-79.345.062-.382.799-3.403 1.728-8.499h-384.3v134.701z" fill="#9dc63d"/><path d="m330.468 433.361c-97.024 0-179.639-54.868-210.763-131.621h-90.968l-23.637 2.725c3.42 17.774 8.685 34.891 15.589 51.145l10.864 6.786-5.341 5.323c3.115 6.382 6.489 12.614 10.108 18.684l7.246.019-.652 10.454c8.183 12.323 17.408 23.894 27.551 34.586l24.345 3.763 5.427 23.073c16.363 12.577 34.295 23.214 53.453 31.565l7.38-2.268 3.922 6.875c28.127 10.682 58.635 16.53 90.508 16.53 9.392 0 18.674-.511 27.819-1.506l4.64-4.802 10.149 2.752c4.685-.79 9.328-1.709 13.926-2.752l9.336-10.221 5.099 6.497c17.736-5.136 34.703-12.15 50.659-20.824l9.038-18.451 25.087-3.795c2.502-1.932 4.968-3.909 7.396-5.931l9.338-12.799 5.092-.173c15.955-15.474 29.909-33.035 41.414-52.274-38.937 29.107-89.179 46.64-144.025 46.64z" fill="#69b76b"/><g><g><g><g><path d="m314.683 18.91 1.567 12.842 58.432 24.02 41.754-33.004c-17.011-7.593-35.854-11.82-55.686-11.82-16.183 0-31.658 2.801-46.067 7.962z" fill="#c8e6eb"/></g></g><g><g><path d="m405.319 277.051-4.151-34.333-59.264-24.056-49.748 39.538 1.096 8.488c34.807 19.757 75.948 22.796 112.067 10.363z" fill="#1a1b1c"/></g></g><g><g><g><path d="m383.021 117.512-49.908 39.273 8.985 62.547 58.554 23.787 50.018-38.926-8.538-62.711z" fill="#fff"/></g></g><g><g><path d="m316.489 31.568-50.3 38.773 8.678 62.602 58.488 23.838 49.742-38.711-8.477-62.759z" fill="#373c41"/></g></g></g><g><g><path d="m441.852 141.7 8.818 62.493 28.665 11.722c11.548-20.06 18.184-43.39 18.184-68.199 0-15.308-2.516-30.028-7.155-43.77z" fill="#373c41"/></g></g><g><g><path d="m479.335 215.915-28.665-11.84-50.018 39.044 4.667 33.932c31.377-10.82 57.669-32.813 74.016-61.136z" fill="#b4d7dc"/></g></g><g><g><path d="m292.875 257.64-24.474-9.048c7.462 6.802 16.017 13.065 24.85 18.095z" fill="#a5c8cd"/></g></g><g><path d="m333.355 156.781-58.554-23.786 67.231 86.389z" fill="#e4f2f6"/></g><g><g><path d="m416.437 22.768-41.817 32.543 8.476 62.759 58.755 23.63 48.512-37.754c-12.241-36.264-39.278-65.713-73.926-81.178z" fill="#e4f2f6"/></g></g><g><g><path d="m275.476 133.191-9.196-62.92-14.146-5.665c-23.924 31.266-32.416 69.975-26.169 106.394z" fill="#a5c8cd"/></g></g><g><g><path d="m313.279 148.626-38.478-15.631-48.835 38.006c2.099 8.069 7.072 45.14 42.436 77.591.003.003-.003-.003 0 0l24.474 9.048 49.223-38.307-7.007-50.552c-7.951-5.901-15.32-12.702-21.813-20.155z" fill="#c8e6eb"/></g></g><g><g><path d="m313.17 148.503c-20.662-23.773-33.243-54.751-33.489-88.663l-13.492 10.5 8.611 62.654z" fill="#1a1b1c"/></g></g><g><g><path d="m448.94 191.709 1.73 12.484 28.665 11.722c8.078-14.032 13.648-29.583 16.311-45.577-13.871 9.871-29.664 17.216-46.706 21.371z" fill="#1a1b1c"/></g></g><g><g><path d="m335.009 168.719 7.089 50.613 58.554 23.786 50.018-38.926-1.881-12.446c-10.372 2.516-21.206 3.851-32.352 3.851-30.471 0-58.692-10.029-81.428-26.878z" fill="#e4f2f6"/></g></g><g><g><path d="m252.135 64.606 14.055 5.735 50.3-38.773-1.806-12.658c-25.017 8.937-46.676 25.013-62.549 45.696z" fill="#e4f2f6"/></g></g></g><g fill="#fff"><path d="m320.738 9.421c-17.876 7.096-34.209 18.031-47.64 32.224l-272.537 219.981c.021.948.046 1.894.077 2.839l13.603 1.54 266.71-215.278c.213-.172.415-.359.603-.559 16.058-17.077 36.714-29.009 59.144-34.589-6.535-2.315-13.193-4.372-19.96-6.158z"/><path d="m496.78 173.27c-2.27-6.623-4.805-13.122-7.593-19.486-.91 5.298-2.172 10.528-3.784 15.662-27.276 86.898-49.188 179.598-66.753 282.52 4.972-4.141 9.786-8.468 14.431-12.972 17.005-96.331 37.95-183.65 63.699-265.724z"/></g><g><path d="m490.921 130.94c.232 13.147-1.625 26.102-5.519 38.506-2.022 6.443-4.013 12.921-5.977 19.43h12.539c1.61-5.3 3.237-10.58 4.887-15.836 4.281-13.637 6.322-27.872 6.067-42.311-.905-51.385-31.989-98.199-79.191-119.264-16.754-7.478-34.574-11.333-52.964-11.462-.308-.002-.611-.003-.92-.003-36.198 0-71.133 14.924-96.174 41.057h17.461c22.034-18.792 50.366-29.257 79.551-29.054 16.723.117 32.926 3.623 48.157 10.42 42.966 19.175 71.26 61.77 72.083 108.517z" fill="#fff"/></g><g fill="#fff"><path d="m42.914 396.877 343.253-359.9c-3.537-2.114-7.129-4.146-10.774-6.091l-339.073 355.517c2.115 3.548 4.314 7.04 6.594 10.474z"/><path d="m164.992 494.471 269.489-420.104c-2.898-2.856-5.864-5.643-8.895-8.359l-271.896 423.856c3.722 1.623 7.49 3.159 11.302 4.607z"/><path d="m326.47 500.968 149.93-372.442c-2.49-4.306-5.103-8.533-7.833-12.675l-156.532 388.84c4.864-1.103 9.677-2.346 14.435-3.723z"/></g><g><path d="m306.471 119.614c.197.101.393.204.59.305l100.443-105.314-8.684-8.282-102.93 107.922c3.531 1.662 7.01 3.538 10.581 5.369z" fill="#fff"/></g><g><path d="m379.046 160.785 77.847-121.355-10.101-6.479-77.871 121.392c3.397 2.115 6.772 4.261 10.125 6.442z" fill="#fff"/></g><g><path d="m443.766 209.592 51.428-127.751-11.132-4.481-49.959 124.102c3.242 2.685 6.464 5.395 9.663 8.13z" fill="#fff"/></g><path d="m26.212 367.719 120.511 2.331 136.597 139.442c4.972-.541 9.903-1.227 14.789-2.051l-144.531-147.541c-1.101-1.124-2.598-1.77-4.17-1.8l-128.719-2.49c1.738 4.092 3.58 8.13 5.523 12.109z" fill="#fff"/><g><path d="m437.017 365.355-104.875-142.371-248.439-15.06.726-11.978 251.242 15.229c1.776.108 3.412.998 4.467 2.431l106.54 144.631z" fill="#fff"/></g><g><path d="m457.445 275.079-74.878-125.889-218.982-5.565.305-11.996 222.293 5.649c2.061.052 3.951 1.159 5.004 2.931l76.571 128.735z" fill="#fff"/></g><g><path d="m486.016 174.385-59.49-96.806-171.476-7.884.551-11.987 174.649 8.03c1.985.091 3.796 1.159 4.836 2.852l61.153 99.512z" fill="#fff"/></g><path d="m70.465 431.463c9.201 9.7 19.156 18.676 29.772 26.836l127.769-161.421-31.364-24.825z" fill="#0540e5"/><path d="m234.347 278.317c-8.736-8.862-20.661-13.852-33.105-13.852h-8.918l-2.236 40c8.872 0 17.374 3.557 23.602 9.876l163.438 165.803c12.003-6.524 23.433-13.987 34.189-22.296z" fill="#0360e8"/><path d="m5.1 304.465h187.224c11.046 0 20-8.954 20-20 0-11.046-8.954-20-20-20h-191.686c.445 13.631 1.959 26.992 4.462 40z" fill="#0540e5"/></g></g></svg>