<svg id="Layer_1" enable-background="new 0 0 510.598 510.598" height="512" viewBox="0 0 510.598 510.598" width="512" xmlns="http://www.w3.org/2000/svg"><g><g><path d="m255.299.598c-98.131 0-158.58 55.352-158.747 55.445 0 0-2.513 3.137-2.983 5.222-3.818 16.948-7.385 39.663-7.385 56.238 0 140.833 118.763 254.972 259.596 254.972 54.231 0 114.568-25.992 154.949-57.243.903-.699 3.769-5.396 3.769-5.396.178-1.087 5.8-23.477 5.8-54.239.001-140.832-114.167-254.999-254.999-254.999z" fill="#afe6ff"/><g><path d="m188.053 310.67c-59.252-46.694-97.295-119.1-97.295-200.394 0-18.615 2.007-36.753 5.795-54.234-58.646 46.721-96.254 118.748-96.254 199.556 0 18.911 2.077 37.335 5.982 55.073h181.772z" fill="#73c8f0"/></g></g><g><g><path d="m171.247 287.608 16.74 57.104 78.43 20.461 58.486-58.783-22.992-81.172-72.359-13.051c-25.758 19.13-46.129 45.253-58.305 75.441z" fill="#e4f2f6"/></g><path d="m367.194 458.336-78.683-19.042 61.082 53.269c8.279-3.298 16.349-7.019 24.184-11.136z" fill="#c8e6eb"/><g><path d="m452.804 267.204 38.412 7.939c-12.379-24.917-30.762-46.666-52.905-63.124z" fill="#c8e6eb"/></g><g><path d="m334.031 177.663c-39.148 0-75.293 12.829-104.479 34.504l69.036 16.768 48.012-50.82c-4.133-.29-8.362-.452-12.569-.452z" fill="#c8e6eb"/></g><g><path d="m399.015 324.227-77.793-18.723-55.112 58.01 22.682 76.733 77.794 18.723 55.684-57.872z" fill="#fff"/></g><g><path d="m159.901 374.421 31.161-28.969-19.815-57.844c-8.096 20.179-12.64 42.406-12.64 65.479 0 7.177.456 14.382 1.294 21.334z" fill="#b4d7dc"/></g><g><path d="m187.987 344.712-28.086 29.709c6.211 50.904 34.278 95.224 74.474 123.038l54.417-57.212-22.682-76.733z" fill="#1a1b1c"/></g><g><path d="m298.539 228.771 22.682 76.733 77.794 18.723 54.798-58.085-15.502-54.123c-25.931-19.127-57.634-31.479-91.711-33.903z" fill="#373c41"/></g><path d="m504.301 310.736c-3.087-12.441-7.503-24.358-13.084-35.592l-37.403-9.002-55.111 58.01 23.216 76.861 36.49 8.795c21.862-28.745 37.797-62.348 45.892-99.072z" fill="#e4f2f6"/><path d="m458.408 409.808-36.49-8.795-55.112 58.01 6.647 22.572c33.268-17.423 62.296-41.996 84.955-71.787z" fill="#373c41"/><g><path d="m273.361 355.882c-24.318-30.109-38.947-68.489-38.947-110.206 0-10.808.994-21.381 2.866-31.649l-7.728-1.86c-26.697 19.831-46.586 46.387-58.305 75.441l16.74 57.104 78.123 18.802z" fill="#c8e6eb"/></g><g><path d="m402.713 420.944c-52.234-2.088-98.585-27.009-129.352-65.062l-7.251 7.632 22.682 76.733 77.794 18.723z" fill="#e4f2f6"/></g><path d="m453.947 415.502c-14.094 3.652-28.874 5.597-44.11 5.597-2.3 0-4.585-.058-6.864-.146l-36.387 38.017 6.755 22.683c31.17-16.304 58.621-38.884 80.606-66.151z" fill="#1a1b1c"/></g><g><path d="m207.482 266.462h45.229v183.327h-45.229z" fill="#ffa50a"/></g><g><path d="m207.482 266.462h45.229v74.099h-45.229z" fill="#fa870a"/></g><g><path d="m293.385 256.677c-9.367 0-16.961-7.594-16.961-16.961s7.594-16.961 16.961-16.961c20.057 0 39.129-6.376 55.153-18.438s27.428-28.625 32.977-47.899l26.346-91.513h-86.495c-9.367 0-16.961-7.594-16.961-16.961s7.594-16.961 16.961-16.961h109.028c5.328 0 10.347 2.504 13.551 6.761 3.205 4.257 4.223 9.772 2.748 14.893l-32.58 113.167c-7.601 26.403-23.222 49.093-45.174 65.617-21.952 16.523-48.078 25.256-75.554 25.256z" fill="#ffa50a"/></g><g><path d="m293.385 256.677v-33.922c15.859 0 31.519-4.135 45.284-11.958l16.76 29.493c-18.865 10.721-40.319 16.387-62.044 16.387z" fill="#fa870a"/></g><g><path d="m321.366 30.983h79.015v33.922h-79.015z" fill="#fa870a"/></g><g><path d="m156.74 256.677c-27.476 0-53.602-8.734-75.554-25.257-21.952-16.524-37.573-39.214-45.174-65.617l-32.58-113.167c-1.474-5.12-.457-10.636 2.748-14.893s8.223-6.761 13.551-6.761h109.029c9.367 0 16.961 7.594 16.961 16.961s-7.594 16.961-16.961 16.961h-86.496l26.346 91.513c5.549 19.274 16.952 35.837 32.977 47.899s35.096 18.438 55.153 18.438c9.367 0 16.961 7.594 16.961 16.961s-7.594 16.962-16.961 16.962z" fill="#ffa50a"/></g><g><path d="m156.74 256.677c-21.724 0-43.179-5.666-62.043-16.387l16.76-29.493c13.766 7.823 29.424 11.958 45.284 11.958v33.922z" fill="#fa870a"/></g><g><path d="m49.745 30.983h79.015v33.922h-79.015z" fill="#fa870a"/></g><g><path d="m79.493 0c0 170.19 65.68 308.156 146.701 308.156s146.7-137.966 146.7-308.156z" fill="#ffd23c"/></g><g><path d="m276.33 238.01c-69.533 0-127.764-101.618-142.88-238.01h-53.957c0 170.19 65.68 308.156 146.701 308.156 40.947 0 77.969-35.253 104.581-92.081-16.835 14.142-35.206 21.935-54.445 21.935z" fill="#ffc627"/></g><path d="m305.395 437.165h-113.703v65.426c20.334 5.221 41.644 8.007 63.607 8.007 33.209 0 65.05-6.384 94.293-18.035v-11.2c0-24.41-19.788-44.198-44.197-44.198z" fill="#ffd23c"/><path d="m158.179 437.165-36.882 35.426c21.763 13.468 45.702 23.753 71.17 30.207v-21.436c0-24.409 19.788-44.197 44.197-44.197z" fill="#ffc627"/><g><circle cx="231.787" cy="133.654" fill="#ffa50a" r="80.432"/></g><g><path d="m236.14 78.071 12.841 26.019c.707 1.433 2.074 2.426 3.655 2.655l28.714 4.172c3.982.579 5.571 5.471 2.69 8.28l-20.777 20.253c-1.144 1.115-1.666 2.722-1.396 4.297l4.905 28.598c.68 3.965-3.482 6.989-7.043 5.117l-25.682-13.502c-1.414-.743-3.104-.743-4.518 0l-25.682 13.502c-3.561 1.872-7.723-1.152-7.043-5.117l4.905-28.598c.27-1.575-.252-3.181-1.396-4.297l-20.777-20.253c-2.881-2.808-1.291-7.701 2.69-8.28l28.714-4.172c1.581-.23 2.948-1.223 3.655-2.655l12.841-26.019c1.778-3.608 6.923-3.608 8.704 0z" fill="#ffe65a"/></g><g><path d="m227.287 472.591v-66.396h68.095v41.416c0 14.029-11.373 25.402-25.402 25.402z" fill="#ffbe82"/></g><g><path d="m295.382 427.282v-14.263h-27.292v24.212h-38.745c0 7.498 6.085 13.577 13.583 13.577 6.077.001 18.924-.026 29.053-.055 12.936-.037 23.401-10.534 23.401-23.471z" fill="#ff965a"/></g><g><path d="m227.287 437.165v-70.694h68.095v45.292c0 14.029-11.373 25.402-25.402 25.402z" fill="#ffbe82"/></g><g><path d="m295.382 387.557v-14.263h-27.292v24.212h-38.745c0 7.498 6.085 13.577 13.583 13.577 6.077.001 18.924-.026 29.053-.055 12.936-.036 23.401-10.534 23.401-23.471z" fill="#ff965a"/></g><g><path d="m227.287 397.44v-70.694h68.095v45.292c0 14.029-11.373 25.402-25.402 25.402z" fill="#ffbe82"/></g><g><path d="m295.382 347.833v-14.263h-27.292v24.212h-38.745c0 7.498 6.085 13.577 13.583 13.577 6.077.001 18.924-.026 29.053-.055 12.936-.036 23.401-10.534 23.401-23.471z" fill="#ff965a"/></g><path d="m259.871 319.127v4.425h-48.01c-9.083 0-16.411-7.515-16.105-16.667.292-8.753 7.77-15.563 16.528-15.563h17.634c19.274 0 34.898-15.625 34.898-34.898h-62.119c-.693 0-1.381.019-2.065.052l.007-.052h-37.933c-20.29 0-37.889 11.523-46.611 28.381-3.885 7.511-9.749 13.583-16.754 17.757v154.788c7.037 5.448 14.361 10.541 21.956 15.241h105.991v-114.141h41.045c14.601 0 26.437-11.836 26.437-26.437v-47.784c-19.274 0-34.899 15.624-34.899 34.898z" fill="#ffbe82"/><path d="m162.705 256.424c-20.29 0-37.889 11.523-46.611 28.381-7.67 14.827-23.029 24.08-39.722 24.096l-70.488.027c12.777 60.044 46.686 112.27 93.573 148.522v-64.798c0-25.125 20.355-45.5 45.48-45.523 16.823-.016 32.056-9.527 39.889-24.415 2.819-5.357 6.541-10.162 10.958-14.224-.034-.529-.047-1.063-.029-1.605.292-8.753 7.77-15.563 16.528-15.563h17.634c19.274 0 34.898-15.625 34.898-34.898z" fill="#ff965a"/><g><path d="m138.167 246.528c24.52 38.693 54.998 61.628 88.027 61.628 33.024 0 63.491-22.942 88.007-61.628z" fill="#ffc627"/></g></g></svg>