<svg id="Layer_1" enable-background="new 0 0 510.924 510.924" height="512" viewBox="0 0 510.924 510.924" width="512" xmlns="http://www.w3.org/2000/svg"><g><g><g><path d="m255.462.924c-98.131 0-158.58 55.352-158.747 55.445 0 0-2.513 3.137-2.983 5.222-3.818 16.948-7.385 39.663-7.385 56.238 0 140.833 118.763 254.972 259.596 254.972 54.231 0 114.568-25.992 154.949-57.243.903-.699 3.769-5.396 3.769-5.396.178-1.087 5.8-23.477 5.8-54.239.001-140.832-114.167-254.999-254.999-254.999z" fill="#afe6ff"/></g><g><g fill="#73c8f0"><path d="m1.448 278.336h152.413c-39.188-44.835-62.94-103.507-62.94-167.733 0-18.615 2.007-36.753 5.795-54.234-58.646 46.72-96.254 118.747-96.254 199.555 0 6.956.279 13.848.825 20.664.047.584.11 1.164.161 1.748z"/><path d="m502.314 320.007c.842-3.257 1.631-6.536 2.347-9.844-4.295 3.421-8.707 6.701-13.222 9.844z"/></g></g></g><path d="m251.563 219.871-4.47 266.523 3.932 24.492c1.476.025 2.955.038 4.437.038 95.523 0 179.72-52.813 223.372-131.896l.187-13.631 10.835-8.903c5.281-12.305 9.627-25.124 12.947-38.374z" fill="#9dc63d"/><path d="m100.588 278.701-5.926 175.143c42.806 34.82 97.124 56.031 156.363 57.041v-291.014z" fill="#69b76b"/><g><path d="m253.9 264.222h-5.213l-228.807 89.478c3.219 7.747 6.809 15.301 10.748 22.641l220.666-86.294 227.54 88.982c4.026-7.295 7.708-14.813 11.021-22.534z" fill="#fff"/></g><g><path d="m251.025 369.136c-41.661 0-79.366-20.946-96.058-53.362l22.227-11.444c12.451 24.182 41.432 39.807 73.831 39.807 32.564 0 61.602-15.734 73.973-40.085l22.289 11.324c-16.594 32.657-54.378 53.76-96.262 53.76z" fill="#fff"/></g><g><path d="m241.543 92.762h20v183.959h-20z" fill="#fff"/></g><g><path d="m241.543 93.762h20v31.95h-20z" fill="#f0feff"/></g><g><path d="m408.717 99.26c-55.821-25.714-111.642 25.714-167.463 0 0-30.612 0-61.225 0-91.837 55.821 25.714 111.642-25.714 167.463 0z" fill="#dd544f"/></g><g><path d="m295.456 13.379c-18.067 2.609-36.135 2.367-54.202-5.955v91.836c55.821 25.714 111.642-25.714 167.463 0v-37.126c-13.963 2.016-27.926 5.734-41.888 8.74-36.706 7.902-71.373-19.95-71.373-57.495z" fill="#d80a61"/></g><g><g><g><path d="m62.46 226.76 1.356 11.112 50.56 20.784 36.129-28.558c-14.719-6.57-31.024-10.227-48.184-10.227-14.003 0-27.393 2.423-39.861 6.889z" fill="#c8e6eb"/></g></g><path d="m86.013 399.601-25.723 20.444c11.265 13.382 23.881 25.589 37.637 36.411 14.603.544 29.201-1.597 42.958-6.332l-3.592-29.708z" fill="#1a1b1c"/><g><g><g><path d="m121.591 312.079-43.184 33.981 7.775 54.122 50.665 20.582 43.28-33.682-7.388-54.263z" fill="#fff"/></g></g><g><g><path d="m64.023 237.712-43.524 33.55 7.508 54.169 50.609 20.626 43.041-33.496-7.335-54.304z" fill="#373c41"/></g></g></g><g><g><path d="m172.496 333.008 7.63 54.074 24.804 10.143c9.992-17.358 15.734-37.545 15.734-59.011 0-13.246-2.177-25.983-6.191-37.874z" fill="#373c41"/></g></g><g><g><path d="m204.93 397.225-24.804-10.245-43.279 33.784 4.038 29.361c27.15-9.363 49.9-28.393 64.045-52.9z" fill="#b4d7dc"/></g></g><g><path d="m78.616 346.057-50.666-20.582 58.174 74.751z" fill="#e4f2f6"/></g><g><g><path d="m150.505 230.098-36.183 28.159 7.335 54.304 50.84 20.447 41.977-32.668c-10.594-31.379-33.988-56.86-63.969-70.242z" fill="#e4f2f6"/></g></g><path d="m13.63 337.027 14.904-11.382-7.957-54.443-12.239-4.902c-2.553 3.336-4.902 6.771-7.05 10.287 1.68 20.964 5.897 41.213 12.342 60.44z" fill="#a5c8cd"/><path d="m60.436 420.218 25.746-20.036-6.063-43.742c-6.879-5.106-13.255-10.99-18.874-17.439l-33.295-13.526-14.428 11.228c10.31 30.894 26.372 59.155 46.914 83.515z" fill="#c8e6eb"/><g><g><path d="m61.151 338.895c-17.878-20.57-28.764-47.375-28.977-76.718l-11.674 9.086 7.451 54.213z" fill="#1a1b1c"/></g></g><g><g><path d="m178.629 376.279 1.497 10.803 24.804 10.143c6.99-12.142 11.809-25.598 14.113-39.437-12.002 8.541-25.667 14.896-40.414 18.491z" fill="#1a1b1c"/></g></g><g><g><path d="m80.048 356.387 6.134 43.795 50.666 20.582 43.279-33.682-1.628-10.77c-8.975 2.177-18.349 3.332-27.993 3.332-26.366 0-50.786-8.678-70.458-23.257z" fill="#e4f2f6"/></g></g><g><g><path d="m8.338 266.3 12.161 4.962 43.524-33.55-1.563-10.952c-21.646 7.733-40.387 21.643-54.122 39.54z" fill="#e4f2f6"/></g></g></g></g></svg>