<svg id="Layer_1" enable-background="new 0 0 511.108 511.108" height="512" viewBox="0 0 511.108 511.108" width="512" xmlns="http://www.w3.org/2000/svg"><g><g><path d="m255.554 1.108c-98.131 0-158.58 55.352-158.747 55.445 0 0-2.513 3.137-2.983 5.222-3.818 16.948-7.385 39.663-7.385 56.238 0 140.833 118.763 254.972 259.596 254.972 54.231 0 114.568-25.992 154.949-57.243.903-.699 3.769-5.396 3.769-5.396.178-1.087 5.8-23.477 5.8-54.239.001-140.832-114.166-254.999-254.999-254.999z" fill="#afe6ff"/><path d="m346.013 365.787c-140.833 0-255-114.167-255-255 0-18.615 2.007-36.753 5.795-54.234-14.662 11.68-28.008 24.942-39.781 39.527l-2.073 2.602 79.051 381.648c36.132 19.628 77.538 30.777 121.548 30.777 121.17 0 224.116-84.98 249.199-200.761-43.558 34.696-98.722 55.441-158.739 55.441z" fill="#73c8f0"/></g><g><path d="m90.972 138.702-56.259-10.147c-7.79 13.455-14.386 27.689-19.643 42.555l-7.225 62.46c-3.331 28.796 15.049 55.649 43.098 62.967l65.958-66.293z" fill="#e4f2f6"/><path d="m75.86 380.127-25.502 27.401c22.263 30.12 51 55.164 84.156 73.078 17.385-.641 34.279-3.549 50.217-8.374l-20.136-70.63z" fill="#c8e6eb"/><g><path d="m261.143 186.052 43.32 8.954c-13.961-28.1-34.692-52.627-59.664-71.189z" fill="#c8e6eb"/></g><path d="m54.955 98.683c-7.751 9.861-14.79 20.308-21.041 31.263l53.312 12.949 54.146-57.313c-4.661-.328-9.431-.51-14.175-.51-25.497 0-49.864 4.825-72.242 13.611z" fill="#c8e6eb"/><g><path d="m200.483 250.36-87.733-21.115-62.152 65.421 25.58 86.536 87.733 21.115 62.797-65.266z" fill="#fff"/></g><path d="m1.951 282.958c4.871 46.547 22.263 89.367 48.749 125.031l25.479-26.787-25.58-86.536z" fill="#1a1b1c"/><g><path d="m87.17 142.709 25.58 86.536 87.732 21.115 61.799-65.506-17.483-61.037c-29.244-21.57-64.997-35.5-103.428-38.234z" fill="#373c41"/></g><g><path d="m325.03 282.906c0-31.577-7.411-61.418-20.568-87.901l-42.181-10.152-62.152 65.421 26.182 86.681 84.255 20.307c9.311-22.95 14.464-48.064 14.464-74.356z" fill="#e4f2f6"/></g><g><path d="m310.565 357.263-84.255-20.307-62.152 65.421 20.573 69.855c57.244-17.398 103.546-60.038 125.834-114.969z" fill="#373c41"/></g><path d="m58.775 286.059c-25.6-31.697-41.679-71.522-43.705-114.949-9.4 26.586-14.516 55.195-14.516 84.998 0 9.068.473 18.026 1.397 26.85l48.647 11.708z" fill="#c8e6eb"/><g><path d="m204.652 359.432c-58.907-2.354-111.18-30.459-145.877-73.374l-8.177 8.607 25.58 86.536 87.732 21.115z" fill="#e4f2f6"/></g><g><path d="m276.583 349.055c-20.045 6.839-41.536 10.553-63.897 10.553-2.594 0-5.171-.066-7.741-.165l-41.036 42.873 20.82 69.915c57.738-17.548 103.747-60.622 125.834-114.969.014-.036-.014.035 0 0z" fill="#1a1b1c"/></g></g><g><g><path d="m257.763 83.165c-4.084 0-8.102-1.927-10.619-5.528l-14.942-21.377c-4.095-5.858-2.665-13.926 3.193-18.021 5.856-4.095 13.925-2.665 18.021 3.193l14.942 21.377c4.095 5.858 2.665 13.926-3.193 18.021-2.256 1.577-4.842 2.335-7.402 2.335z" fill="#ffa50a"/></g><g><path d="m428.302 83.165c-2.56 0-5.145-.757-7.402-2.335-5.858-4.095-7.288-12.163-3.193-18.021l14.941-21.377c4.094-5.857 12.162-7.289 18.021-3.194 5.858 4.095 7.288 12.163 3.193 18.021l-14.941 21.377c-2.516 3.6-6.535 5.529-10.619 5.529z" fill="#ffa50a"/></g><g><path d="m312.619 12.941h64.707v49.673h-64.707z" fill="#ffa50a"/></g><g><g><ellipse cx="344.973" cy="210.083" fill="#fff" rx="147.537" ry="147.537" transform="matrix(.707 -.707 .707 .707 -47.511 305.464)"/></g><path d="m197.435 210.083c0 81.352 66.184 147.537 147.537 147.537v-295.074c-81.352 0-147.537 66.185-147.537 147.537z" fill="#e4f2f6"/><g><path d="m252.849 117.96c24.607-24.607 57.323-38.159 92.123-38.159 34.799 0 67.516 13.552 92.123 38.159s38.159 57.324 38.159 92.123c0 34.8-13.552 67.516-38.159 92.123-.185.185-.375.364-.562.548 6.969 5.595 13.351 11.789 19.552 18.31 1.78 1.872 3.551 3.751 5.333 5.621.026-.026.053-.051.08-.078 64.355-64.355 64.355-168.696 0-233.051s-168.696-64.355-233.052 0c-.53.53-1.043 1.069-1.564 1.604l24.402 24.402c.519-.535 1.036-1.073 1.565-1.602z" fill="#ffc305"/></g><g><path d="m436.936 302.362c-24.589 24.507-57.239 38.003-91.964 38.003-34.799 0-67.516-13.552-92.123-38.159s-38.159-57.324-38.159-92.123c0-34.725 13.496-67.375 38.003-91.964l-24.402-24.402c-64.197 64.368-64.147 168.589.156 232.892s168.524 64.353 232.892.156z" fill="#ffa50a"/></g></g><g><g><g><path d="m338.502 97.662h12.941v20.517h-12.941z" fill="#373c41"/></g><g><path d="m338.502 301.988h12.941v20.516h-12.941z" fill="#373c41"/></g></g><g><g><path d="m287.42 111.349h12.941v20.516h-12.941z" fill="#373c41" transform="matrix(.866 -.5 .5 .866 -21.428 163.25)"/></g><g><path d="m389.583 288.3h12.941v20.517h-12.941z" fill="#373c41" transform="matrix(.866 -.5 .5 .866 -96.22 238.04)"/></g></g><g><g><path d="m250.026 148.743h12.942v20.516h-12.942z" fill="#373c41" transform="matrix(.5 -.866 .866 .5 -9.449 301.637)"/></g><g><path d="m426.977 250.907h12.942v20.516h-12.942z" fill="#373c41" transform="matrix(.5 -.866 .866 .5 -9.448 505.965)"/></g></g><g><g><path d="m232.551 203.612h20.516v12.941h-20.516z" fill="#373c41"/></g><g><path d="m436.878 203.612h20.516v12.941h-20.516z" fill="#373c41"/></g></g><g><g><path d="m246.239 254.694h20.516v12.942h-20.516z" fill="#373c41" transform="matrix(.866 -.5 .5 .866 -96.217 163.232)"/></g><g><path d="m423.19 152.531h20.516v12.942h-20.516z" fill="#373c41" transform="matrix(.866 -.5 .5 .866 -21.431 238.019)"/></g></g><g><g><path d="m283.633 292.088h20.517v12.941h-20.517z" fill="#373c41" transform="matrix(.5 -.866 .866 .5 -111.616 403.788)"/></g><g><path d="m385.796 115.137h20.516v12.941h-20.516z" fill="#373c41" transform="matrix(.5 -.866 .866 .5 92.706 403.79)"/></g></g></g><g><path d="m377.438 25.883h-64.932c-7.147 0-12.941-5.794-12.941-12.941s5.794-12.942 12.942-12.942h64.932c7.147 0 12.941 5.794 12.941 12.941s-5.794 12.942-12.942 12.942z" fill="#ffc305"/></g><g><path d="m323.944 25.883h-11.438c-7.147 0-12.941-5.794-12.941-12.941s5.794-12.942 12.942-12.942h11.438c7.147 0 12.941 5.794 12.941 12.941s-5.795 12.942-12.942 12.942z" fill="#ffa50a"/></g><g><g><path d="m365.679 196.278h-42.276l15.838-64.779c1.444-5.906 9.856-5.868 11.246.052z" fill="#ffa50a"/></g></g><g><circle cx="344.972" cy="210.083" fill="#ffc305" r="32.466"/></g></g><g><g><circle cx="401.572" cy="387.845" fill="#2477f9" r="65.008"/></g><g><path d="m418.064 397.333h58.004v39.028h-58.004z" fill="#2477f9" transform="matrix(0 1 -1 0 863.914 -30.219)"/></g><g><path d="m466.58 445.599c-17.785 0-32.254-14.469-32.254-32.254s14.469-32.254 32.254-32.254 32.254 14.469 32.254 32.254-14.469 32.254-32.254 32.254zm0-44.508c-6.757 0-12.254 5.497-12.254 12.254s5.497 12.254 12.254 12.254 12.254-5.497 12.254-12.254-5.497-12.254-12.254-12.254z" fill="#2477f9"/></g><g><path d="m272.325 258.598h65.008v193.486h-65.008z" fill="#2477f9" transform="matrix(0 1 -1 0 660.171 50.512)"/></g><g><circle cx="401.572" cy="445.849" fill="#2896ff" r="65.008"/></g><g><path d="m272.325 316.602h65.008v193.486h-65.008z" fill="#2896ff" transform="matrix(0 1 -1 0 718.174 108.516)"/></g><g><circle cx="401.572" cy="445.849" fill="#2477f9" r="30.56"/></g><g><path d="m252.587 324.298h43.279v40.357h-43.279z" fill="#0540e5" transform="matrix(0 1 -1 0 618.704 70.25)"/></g><g><path d="m296.085 335.868h43.279v17.219h-43.279z" fill="#0540e5" transform="matrix(0 1 -1 0 662.201 26.753)"/></g><g><path d="m325.59 335.868h43.279v17.219h-43.279z" fill="#0540e5" transform="matrix(0 1 -1 0 691.706 -2.752)"/></g><g><path d="m355.094 335.868h43.279v17.219h-43.279z" fill="#0540e5" transform="matrix(0 1 -1 0 721.21 -32.257)"/></g></g></g></svg>