<svg id="Layer_1" enable-background="new 0 0 512 512" height="512" viewBox="0 0 512 512" width="512" xmlns="http://www.w3.org/2000/svg"><g><g><path d="m484.365 142.451c-41.769-83.842-128.332-141.451-228.365-141.451-98.131 0-158.58 55.352-158.747 55.445 0 0-2.513 3.137-2.983 5.222-3.818 16.948-7.385 39.663-7.385 56.238 0 140.833 118.763 254.972 259.596 254.972 47.04 0 98.665-19.56 137.885-45.141v-185.285z" fill="#ffd23c"/><path d="m346.459 365.679c-140.833 0-255-114.167-255-255 0-18.615 2.008-36.753 5.795-54.234-29.893 23.814-54.301 54.214-71.068 88.99v221.199c19.634 40.71 49.766 75.406 86.884 100.574l32.845 5.036 9.76 18.262c30.792 13.191 64.705 20.494 100.325 20.494 35.883 0 70.167-7.454 101.303-20.953l11.4-17.803 31.349-5.836c35.627-24.423 64.825-57.702 84.315-96.85v-44.371c-39.761 25.617-87.094 40.492-137.908 40.492z" fill="#ffa50a"/></g><g><path d="m318.037 426.554v-11.644l-60.657-17.834-57.97 17.834v10.339l-86.341 41.959c13.352 9.053 27.608 16.874 42.605 23.298l101.706-26.036 99.923 25.58c15.043-6.521 29.351-14.453 42.751-23.637z" fill="#373c41"/><g><path d="m199.41 383.203h118.627v31.706h-118.627z" fill="#1a1b1c"/></g><g><path d="m460.844 381.794h-409.688c-17.409 0-31.522-14.113-31.522-31.522v-257.147c0-17.409 14.113-31.522 31.522-31.522h409.688c17.409 0 31.522 14.113 31.522 31.522v257.148c0 17.409-14.113 31.521-31.522 31.521z" fill="#9dc63d"/></g><g><path d="m460.844 61.604h-409.688c-17.409 0-31.522 14.113-31.522 31.522v179.181c0 17.409 117.371-81.984 134.78-81.984h338.387l-.436-97.198c.001-17.409-14.112-31.521-31.521-31.521z" fill="#afe6ff"/></g><g><path d="m154.414 190.323-134.78-97.198v257.148c0 17.409 14.113 31.522 31.522 31.522h103.272z" fill="#69b76b"/></g><g><path d="m51.156 61.604c-17.409 0-31.522 14.113-31.522 31.522v179.181c0 17.409 117.371-81.984 134.78-81.984h.013" fill="#73c8f0"/></g><g><path d="m19.739 286.874-12.992-21.359 141.171-85.871c1.958-1.19 4.205-1.82 6.496-1.82h338.387v25h-334.884z" fill="#fff"/></g><g><path d="m477.86 48.305h-354.818v30h354.818c2.283 0 4.14 1.857 4.14 4.14v278.508c0 2.283-1.857 4.14-4.14 4.14h-36.092v30h36.092c18.855 0 34.14-15.285 34.14-34.14v-278.508c0-18.855-15.285-34.14-34.14-34.14z" fill="#373c41"/></g><g><path d="m443.748 365.093h-409.608c-2.283 0-4.14-1.857-4.14-4.14v-278.508c0-2.283 1.857-4.14 4.14-4.14h91.223v-30h-91.223c-18.855 0-34.14 15.285-34.14 34.14v278.508c0 18.855 15.285 34.14 34.14 34.14h409.608z" fill="#1a1b1c"/></g><g><path d="m162.453 246.74c-21.393 0-41.192-10.681-52.963-28.571l20.885-13.742c7.133 10.841 19.125 17.313 32.079 17.313 19.09 0 35.43-14.233 38.007-33.108l24.771 3.383c-4.262 31.198-31.25 54.725-62.779 54.725z" fill="#fff"/></g><g><g><g><path d="m293.677 194.772.876 7.176 32.653 13.423 23.333-18.444c-9.506-4.243-20.036-6.605-31.118-6.605-9.044.001-17.692 1.566-25.744 4.45z" fill="#c8e6eb"/></g></g><g><g><path d="m344.326 339.027-2.32-19.186-33.118-13.443-27.8 22.095.613 4.743c19.451 11.04 42.441 12.739 62.625 5.791z" fill="#1a1b1c"/></g></g><g><g><g><path d="m331.866 249.873-27.89 21.946 5.021 34.953 32.721 13.293 27.951-21.753-4.771-35.044z" fill="#fff"/></g></g><g><g><path d="m294.686 201.846-28.108 21.667 4.849 34.983 32.684 13.322 27.797-21.633-4.737-35.071z" fill="#373c41"/></g></g></g><g><g><path d="m364.741 263.39 4.928 34.922 16.019 6.551c6.453-11.21 10.161-24.247 10.161-38.111 0-8.554-1.406-16.78-3.998-24.46z" fill="#373c41"/></g></g><g><g><path d="m385.688 304.863-16.019-6.617-27.951 21.819 2.608 18.962c17.534-6.047 32.227-18.337 41.362-34.164z" fill="#b4d7dc"/></g></g><g><g><path d="m281.49 328.179-13.677-5.056c4.17 3.801 8.951 7.301 13.887 10.112z" fill="#a5c8cd"/></g></g><g><path d="m304.111 271.818-32.721-13.293 37.57 48.276z" fill="#e4f2f6"/></g><g><g><path d="m350.539 196.928-23.368 18.186 4.737 35.071 32.834 13.205 27.11-21.098c-6.842-20.265-21.951-36.722-41.313-45.364z" fill="#e4f2f6"/></g></g><g><g><path d="m271.767 258.635-5.139-35.161-7.905-3.166c-13.369 17.472-18.115 39.104-14.624 59.455z" fill="#a5c8cd"/></g></g><g><g><path d="m292.892 267.26-21.503-8.735-27.29 21.238c1.173 4.509 3.952 25.225 23.714 43.36.002.002-.002-.002 0 0l13.677 5.056 27.507-21.407-3.916-28.25c-4.442-3.297-8.56-7.097-12.189-11.262z" fill="#c8e6eb"/></g></g><g><g><path d="m292.832 267.192c-11.546-13.285-18.577-30.596-18.714-49.546l-7.54 5.868 4.812 35.012z" fill="#1a1b1c"/></g></g><g><g><path d="m368.702 291.336.967 6.977 16.019 6.551c4.514-7.842 7.627-16.532 9.115-25.469-7.752 5.515-16.577 9.619-26.101 11.941z" fill="#1a1b1c"/></g></g><g><g><path d="m305.036 278.489 3.961 28.284 32.721 13.292 27.951-21.753-1.051-6.955c-5.796 1.406-11.85 2.152-18.079 2.152-17.028 0-32.798-5.605-45.503-15.02z" fill="#e4f2f6"/></g></g><g><g><path d="m258.724 220.308 7.854 3.205 28.109-21.667-1.009-7.074c-13.98 4.994-26.084 13.978-34.954 25.536z" fill="#e4f2f6"/></g></g></g><g><path d="m145.914 78.305h17v112.019h-17z" fill="#fff"/></g><g><path d="m290.175 78.305h191.825v72.36h-191.825z" fill="#2477f9"/></g><g><path d="m221.874 78.305h72.36v72.36h-72.36z" fill="#0540e5"/></g></g></g></svg>