<svg id="Layer_1" enable-background="new 0 0 511 511" height="512" viewBox="0 0 511 511" width="512" xmlns="http://www.w3.org/2000/svg"><g><g><path d="m255.5 0c-98.131 0-158.58 55.352-158.747 55.445 0 0-2.513 3.137-2.983 5.222-3.818 16.948-7.385 39.663-7.385 56.238 0 1.408.012 2.814.036 4.217 3.193 189.384 265.268 236.448 335.446 60.517l33.775-84.67c-46.703-59.066-118.996-96.969-200.142-96.969z" fill="#afe6ff"/><g><path d="m76.647 73.262 14.316 34.959c.102-18.104 2.102-35.751 5.79-52.775-7.012 5.586-13.724 11.534-20.106 17.816z" fill="#73c8f0"/></g></g><path d="m507.461 215.514-126.299-3.351v264.739c61.856-35.087 107.876-95.37 123.538-167.664.178-1.087 5.8-23.477 5.8-54.239 0-13.429-1.038-26.616-3.039-39.485z" fill="#9dc63d"/><path d="m382.026 418.906c-121.004 0-222.322-84.281-248.454-197.343l-131.502 4.992c-1.037 9.339-1.57 18.83-1.57 28.445 0 140.833 114.167 255 255 255 83.556 0 158.446-40.41 205.115-103.464-24.81 8.038-51.235 12.37-78.589 12.37z" fill="#69b76b"/><g><g><path d="m284.856 210.846 1.772 14.515 66.045 27.15 47.195-37.304c-19.227-8.582-40.525-13.359-62.941-13.359-18.294-.001-35.784 3.165-52.071 8.998z" fill="#c8e6eb"/></g><g><path d="m387.301 502.62-4.692-38.806-66.985-27.19-56.23 44.69 1.239 9.593c39.342 22.33 85.843 25.766 126.668 11.713z" fill="#1a1b1c"/></g><g><g><path d="m362.098 322.295-56.41 44.389 10.155 70.697 66.183 26.886 56.534-43.998-9.65-70.881z" fill="#fff"/></g><g><path d="m286.898 225.153-56.854 43.825 9.808 70.759 66.109 26.944 56.222-43.755-9.581-70.936z" fill="#373c41"/></g></g><g><path d="m428.593 349.634 9.967 70.635 32.4 13.249c13.052-22.674 20.553-49.044 20.553-77.084 0-17.302-2.844-33.94-8.087-49.473z" fill="#373c41"/></g><g><path d="m470.96 433.518-32.4-13.383-56.534 44.131 5.275 38.353c35.464-12.229 65.182-37.087 83.659-69.101z" fill="#b4d7dc"/></g><g><path d="m260.207 480.68-27.663-10.227c8.435 7.688 18.104 14.767 28.088 20.453z" fill="#a5c8cd"/></g><path d="m305.961 366.681-66.183-26.886 75.991 97.644z" fill="#e4f2f6"/><g><path d="m399.867 215.207-47.265 36.784 9.581 70.936 66.41 26.709 54.833-42.673c-13.837-40.991-44.396-74.276-83.559-91.756z" fill="#e4f2f6"/></g><g><path d="m240.541 340.017-10.394-71.118-15.989-6.403c-27.041 35.34-36.64 79.092-29.579 120.256z" fill="#a5c8cd"/></g><g><path d="m283.269 357.463-43.492-17.668-55.198 42.957c2.372 9.12 7.993 51.021 47.965 87.701.004.003-.004-.003 0 0l27.663 10.227 55.636-43.298-7.92-57.139c-8.985-6.67-17.315-14.356-24.654-22.78z" fill="#c8e6eb"/></g><g><path d="m283.146 357.324c-23.354-26.87-37.574-61.884-37.852-100.214l-15.25 11.868 9.733 70.817z" fill="#1a1b1c"/></g><g><path d="m436.604 406.158 1.956 14.111 32.4 13.249c9.131-15.861 15.426-33.438 18.436-51.515-15.678 11.158-33.529 19.459-52.792 24.155z" fill="#1a1b1c"/></g><g><path d="m307.831 380.174 8.013 57.207 66.183 26.885 56.534-43.997-2.126-14.068c-11.724 2.844-23.969 4.353-36.567 4.353-34.441 0-66.34-11.337-92.037-30.38z" fill="#e4f2f6"/></g><g><path d="m214.158 262.496 15.886 6.482 56.853-43.825-2.042-14.307c-28.274 10.102-52.755 28.272-70.697 51.65z" fill="#e4f2f6"/></g></g><path d="m303.292 167.312-150.194 80.764-21.101-39.241 150.195-80.764c10.836-5.827 24.344-1.766 30.171 9.07 5.826 10.836 1.765 24.345-9.071 30.171z" fill="#ffbe82"/><path d="m466.106 202.018-29.381-99.395-174.422 51.559c-29.582 8.745-46.475 39.815-37.73 69.397l33.519 113.392 160.425-47.422c37.312-11.03 58.619-50.219 47.589-87.531z" fill="#965028"/><path d="m275.14 291.275c-12.103-6.58-16.58-21.725-10-33.828 17.4-29.981 5.299-9.13 51.73-89.133l.023-.006c8.744-12.825 23.959-23.806 42.909-29.407 34.725-10.265 68.786 1.408 76.077 26.072s-14.949 52.979-49.675 63.244c-10.656 3.15-21.247 4.23-31.021 3.503-10.637-.791-20.811 4.454-26.045 13.748l-20.169 35.807c-6.581 12.103-21.726 16.58-33.829 10z" fill="#844221"/><path d="m461.167 229.199 46.294-13.685c-6.89-44.325-25.197-84.873-51.819-118.544l-30.865 9.124z" fill="#965028"/><g fill="#ffbe82"><path d="m368.74 282.783-149.821-81.455 21.282-39.144 149.821 81.455c10.809 5.877 14.808 19.404 8.931 30.213-5.877 10.809-19.404 14.808-30.213 8.931z"/><path d="m387.939 293.731-149.821-81.455 21.282-39.144 149.821 81.455c10.809 5.877 14.808 19.403 8.931 30.213-5.877 10.809-19.403 14.808-30.213 8.931z"/><path d="m352.707 323.531-149.821-81.455 21.282-39.144 149.821 81.455c10.809 5.877 14.808 19.404 8.931 30.213-5.877 10.809-19.404 14.808-30.213 8.931z"/><path d="m307.196 348.403-149.821-81.455 21.282-39.144 149.821 81.455c10.809 5.877 14.808 19.404 8.931 30.213-5.877 10.809-19.404 14.808-30.213 8.931z"/><path d="m248.249 364.469-90.188-57.593-15.481-50.571 126.951 69.021c10.809 5.877 14.808 19.404 8.931 30.213-5.877 10.808-19.404 14.807-30.213 8.93z"/></g><path d="m178.343 311.879-5.959-39.371-29.804-16.204 27.536 67.25 78.133 40.915c8.355 4.542 18.331 3.181 25.145-2.662z" fill="#ff965a"/><path d="m248.412 166.648c-43.013-23.386-96.84-7.474-120.226 35.539-23.386 43.013 2.761 90.793 45.774 114.178l167.64-99.052z" fill="#ffbe82"/><path d="m73.905 141.565h121.323v127.831h-121.323z" fill="#ffbe82" transform="matrix(.879 .478 -.478 .879 114.492 -39.32)"/><path d="m135.411 264.263c-2.177-7.624-1.275-15.798 2.512-22.764l44.856-82.504-70.977-38.643-61.059 112.306 70.792 38.489c6.288 19.977 21.152 36.245 40.325 47.783l8.257 4.624 9.926-10.783c-18.573-11.55-38.468-28.922-44.632-48.508z" fill="#ff965a"/><path d="m93.979 82.685s-22.75 19.191-23.196 19.636l-35.683 63.045c-13.391 23.659.166 53.502 26.794 58.981l30.516 6.28 62.44-114.846z" fill="#2477f9"/><path d="m57.101 210.833c-15.392-8.368-21.085-27.629-12.717-43.021l49.595-85.127-17.363-9.393c-41.05 40.416-68.479 94.634-74.747 155.133l22.927 12.465 47.952 25.902 19.663-36.166z" fill="#0540e5"/><path d="m330.629 347.045.953-1.753-100.204-54.479c-6.978-3.794-15.71-1.212-19.503 5.765l95.32 51.824c7.685 4.178 16.728 3.345 23.434-1.357z" fill="#ff965a"/><path d="m377.859 320.837-128.344-69.779c-6.978-3.794-15.71-1.212-19.503 5.765l122.695 66.707c8.363 4.547 18.337 3.163 25.152-2.693z" fill="#ff965a"/><path d="m301.872 246.322 90.572 49.243c7.438 2.139 15.426.212 21.08-4.908l-92.149-50.1c-6.978-3.794-15.709-1.213-19.503 5.765z" fill="#ff965a"/><path d="m382.864 265.615c-3.769 6.933-1.205 15.608 5.728 19.377l18.172 9.88c4.693-1.851 8.789-5.293 11.388-10.072 2.598-4.779 3.259-10.088 2.262-15.033l-18.172-9.88c-6.933-3.769-15.608-1.205-19.378 5.728z" fill="#ffcea1"/><path d="m367.94 231.634-66.755-36.294c-28.029 48.295-20.971 36.133-36.045 62.106-6.58 12.103-2.103 27.248 10 33.828s27.248 2.103 33.828-10l20.169-35.807c5.235-9.294 15.408-14.538 26.045-13.748 4.125.308 8.4.272 12.758-.085z" fill="#ff965a"/><g><path d="m261.781 280.519c-12.103-6.58-16.58-21.725-10-33.828 17.4-29.981 5.299-9.13 51.73-89.133l.023-.006c8.744-12.825 27.201-16.776 46.15-22.378 34.725-10.265 65.544-5.621 72.835 19.042s-14.949 52.979-49.675 63.244c-10.657 3.15-21.247 4.23-31.021 3.503-10.637-.791-20.811 4.454-26.045 13.748l-20.169 35.807c-6.58 12.104-21.726 16.581-33.828 10.001z" fill="#965028"/><path d="m269.971 237.958-9.965-5.688-14.347 25.137c-4.609 8.076-1.799 18.36 6.277 22.97l.937.535c3.983 2.273 9.054.887 11.327-3.095l11.268-19.743c4.037-7.073 1.576-16.079-5.497-20.116z" fill="#a55934"/></g></g></svg>