<svg id="Layer_1" enable-background="new 0 0 510.657 510.657" height="512" viewBox="0 0 510.657 510.657" width="512" xmlns="http://www.w3.org/2000/svg"><g><g><path d="m255.329 0c-98.131 0-158.581 55.352-158.747 55.445 0 0-2.513 3.137-2.983 5.222-3.818 16.948-7.385 39.663-7.385 56.238 0 140.833 118.763 254.972 259.596 254.972 54.231 0 114.568-25.992 154.949-57.243.903-.699 3.769-5.396 3.769-5.396.178-1.087 5.8-23.477 5.8-54.239.001-140.832-114.167-254.999-254.999-254.999z" fill="#9dc63d"/><g><path d="m504.528 309.239c-43.559 34.696-98.724 55.441-158.741 55.441-140.833 0-255-114.167-255-255 0-18.615 2.007-36.753 5.795-54.234-.006.005.006-.005 0 0-58.645 46.719-96.253 118.746-96.253 199.554 0 140.833 114.167 255 255 255 121.169 0 224.116-84.98 249.199-200.761z" fill="#69b76b"/></g></g><g><g><path d="m171.889 269.755 16.74 57.104 78.43 20.461 58.486-58.783-22.992-81.172-72.359-13.051c-25.759 19.13-46.129 45.253-58.305 75.441z" fill="#e4f2f6"/><g fill="#c8e6eb"><path d="m235.017 479.607c28.297 19.558 62.654 31.051 99.655 31.051 17.7 0 34.909-2.669 51.018-7.545l-17.855-62.629-78.683-19.042z"/><path d="m453.446 249.351 38.412 7.939c-12.379-24.917-30.762-46.666-52.905-63.124z"/><path d="m334.672 159.81c-39.148 0-75.293 12.829-104.479 34.504l69.036 16.768 48.012-50.82c-4.132-.29-8.362-.452-12.569-.452z"/></g><path d="m399.657 306.374-77.794-18.723-55.111 58.01 22.682 76.733 77.794 18.723 55.684-57.872z" fill="#fff"/><path d="m160.543 356.568 31.161-28.969-19.815-57.844c-8.096 20.179-12.64 42.406-12.64 65.479 0 7.178.456 14.382 1.294 21.334z" fill="#b4d7dc"/><path d="m188.629 326.859-28.086 29.709c6.211 50.904 34.278 95.224 74.474 123.038l54.417-57.212-22.682-76.733z" fill="#1a1b1c"/><path d="m299.181 210.918 22.682 76.733 77.794 18.723 54.798-58.085-15.502-54.123c-25.931-19.127-57.634-31.479-91.711-33.903z" fill="#373c41"/><path d="m510.096 335.234c0-28-6.571-54.461-18.238-77.943l-37.403-9.002-55.112 58.01 23.216 76.861 74.71 18.007c8.258-20.35 12.827-42.62 12.827-65.933z" fill="#e4f2f6"/><path d="m497.27 401.167-74.71-18.007-55.112 58.01 18.242 61.942c50.759-15.427 91.817-53.236 111.58-101.945z" fill="#373c41"/><path d="m274.003 338.029c-24.318-30.109-38.947-68.489-38.947-110.206 0-10.808.994-21.381 2.866-31.649l-7.728-1.86c-26.697 19.831-46.586 46.387-58.305 75.441l16.74 57.104 78.123 18.802z" fill="#c8e6eb"/><path d="m403.355 403.091c-52.234-2.088-98.585-27.009-129.352-65.062l-7.251 7.632 22.682 76.733 77.794 18.723z" fill="#e4f2f6"/><path d="m467.137 393.889c-17.774 6.064-36.831 9.358-56.658 9.358-2.3 0-4.586-.058-6.864-.146l-36.387 38.017 18.462 61.995c51.198-15.56 91.994-53.755 111.58-101.945.013-.032-.013.031 0 0z" fill="#1a1b1c"/></g><g><path d="m314.331 60.515c1.755 8.679-3.858 17.138-12.538 18.893l-120.297 24.324-6.355-31.43 120.297-24.324c8.68-1.755 17.138 3.858 18.893 12.537z" fill="#ff965a"/><path d="m342.029 75.825-56.994-37.822-50.946 122.26-128.416 118.878-57.158 125.066c23.544 32.577 54.596 59.37 90.619 77.843l18.117-27.3 3.292-98.181 78.307-24.78 2.433-3.666c16.122-24.295 23.628-53.296 21.315-82.362s5.193-58.067 21.315-82.362z" fill="#2477f9"/><path d="m285.035 38.003-59.915 90.285c-15.014 22.625-36.723 39.992-62.091 49.674l-3.295 1.258c-25.368 9.682-47.077 27.049-62.091 49.674l-4.233 6.378-66.672 132.866c6.275 12.654 13.57 24.713 21.777 36.069l95.791-144.346c15.014-22.625 36.723-39.992 62.091-49.674l3.295-1.258c25.368-9.682 47.077-27.049 62.091-49.674l59.915-90.285z" fill="#0540e5"/><path d="m264.197 212.794c3.09-17.533 9.743-34.367 19.717-49.396l58.115-87.573-56.994-37.822-59.915 90.285c-9.304 14.021-21.191 26.003-34.919 35.401l21.987 45.533z" fill="#ffc305"/><path d="m265.101 48.698h62.373v68.402h-62.373z" fill="#ffa50a" transform="matrix(.553 -.833 .833 .553 63.385 283.934)"/><path d="m207.582 173.241c3.459-1.876 4.2-.164 3.9 2.588l3.397 2.254 85.988-129.575-15.832-10.507-59.915 90.285c-8.974 13.523-20.355 25.141-33.468 34.382z" fill="#ffa50a"/><path d="m157.251 454.749 81.599-122.961-98.776-65.55-64.922 49.48-16.677 73.481z" fill="#ffc305"/><path d="m93.41 235.271-75.3 113.469c2.612 6.605 5.493 13.076 8.628 19.398l31.737 21.061 81.599-122.96z" fill="#ffa50a"/><path d="m316.658 120.388-63.202-41.942 33.802-50.937c3.66-5.515 11.097-7.019 16.612-3.359l43.23 28.688c5.515 3.66 7.019 11.097 3.359 16.612z" fill="#ffc305"/><path d="m294.659 57.831 18.333-27.626-9.121-6.053c-5.515-3.66-12.952-2.156-16.612 3.359l-33.802 50.937 63.202 41.942 11.044-16.642-27.441-18.211c-9.198-6.105-11.707-18.509-5.603-27.706z" fill="#ffa50a"/><path d="m184.714 167.285 12.915 63.876 65.748-13.294c1.513-11.121 4.458-22.006 8.763-32.379l-51.051 10.322-10.074-49.823c-7.805 8.214-16.647 15.374-26.301 21.298z" fill="#373c41"/><path d="m216.887 175.025-5.872-29.038c-7.805 8.214-16.647 15.374-26.301 21.298l9.738 48.162z" fill="#212426"/><g fill="#ffbe82"><path d="m328.422 143.162c-4.896 7.378-14.846 9.39-22.224 4.494l-74.678-49.557 17.731-26.718 74.677 49.557c7.378 4.895 9.39 14.846 4.494 22.224z"/><path d="m328.422 143.162c-4.896 7.378-14.846 9.39-22.224 4.494l-74.678-49.557 17.731-26.718 74.677 49.557c7.378 4.895 9.39 14.846 4.494 22.224z"/><path d="m318.662 174.904c-4.896 7.378-14.846 9.39-22.224 4.494l-57.701-38.291 17.731-26.718 57.701 38.291c7.377 4.896 9.389 14.846 4.493 22.224z"/><path d="m277.12 204.797-74.677-49.557 17.731-26.718 74.677 49.557c7.378 4.896 9.39 14.846 4.494 22.224-4.897 7.379-14.847 9.391-22.225 4.494z"/><path d="m255.151 228.438-73.213-48.586 17.731-26.718 73.213 48.586c7.378 4.896 9.39 14.846 4.494 22.224-4.897 7.378-14.847 9.39-22.225 4.494z"/><path d="m166.418 92.981c19.483-29.359 59.078-37.365 88.438-17.882l63.607 42.211-70.556 106.32-63.607-42.211c-29.36-19.483-37.366-59.078-17.882-88.438z"/><path d="m127.125 49.746h87.317v92h-87.317z" transform="matrix(.833 .553 -.553 .833 81.425 -78.465)"/></g><path d="m272.469 228.688-46.977-31.175c-24.215-16.111-30.803-48.792-14.72-73.026l35.836-54.001c-12.212-5.731-25.577-7.282-38.253-5.014l-62.097-41.208c-31.832 14.89-49.587 31.131-49.677 31.182-10.354 8.248-20.051 17.285-29.002 27.02l89.712 59.534c3.245 14.719 11.669 28.309 24.686 37.792l-.04.06 73.213 48.586c5.395 3.579 12.156 3.452 17.319.25z" fill="#ff965a"/><path d="m294.006 205.305.794-1.196-40.81-27.082c-4.763-3.161-11.186-1.862-14.347 2.901l37.477 24.87c5.244 3.48 11.781 3.454 16.886.507z" fill="#ff965a"/><path d="m314.64 179.055-43.041-28.563c-4.763-3.161-11.186-1.862-14.347 2.901l39.186 26.004c5.707 3.789 12.946 3.426 18.202-.342z" fill="#ff965a"/><path d="m289.422 123.634c-4.763-3.161-11.186-1.862-14.347 2.901l34.236 22.719c5.198 2.004 11.046 1.127 15.423-2.187z" fill="#ff965a"/></g></g></g></svg>