<svg id="Layer_1" enable-background="new 0 0 510 510" height="512" viewBox="0 0 510 510" width="512" xmlns="http://www.w3.org/2000/svg"><g><g><path d="m255 0c-98.131 0-158.58 55.352-158.747 55.445 0 0-2.513 3.137-2.983 5.222-3.818 16.948-7.385 39.663-7.385 56.238 0 140.833 118.763 254.972 259.596 254.972 54.231 0 114.568-25.992 154.949-57.243.903-.699 3.769-5.396 3.769-5.396.178-1.087 5.8-23.477 5.8-54.239.001-140.832-114.166-254.999-254.999-254.999z" fill="#78e9e1"/><path d="m345.459 364.679c-140.833 0-255-114.167-255-255 0-18.615 2.007-36.753 5.795-54.234-58.645 46.72-96.254 118.747-96.254 199.555 0 66.534 25.481 127.117 67.218 172.521l10-2.345 10 21.854c7.689 6.724 15.785 12.993 24.247 18.766l10-3.83 10 16.165c7.838 4.349 15.929 8.297 24.246 11.816l10-5.744 10 13.229c7.918 2.588 16.008 4.799 24.246 6.612l10-6.612 10 10.18c7.971 1.096 16.059 1.823 24.247 2.164l10.796-7.452 9.204 7.512c7.926-.283 15.767-.929 23.504-1.923l10.234-8.781 9.765 5.396c8.23-1.734 16.32-3.865 24.247-6.374l10-13.1 10 5.833c8.307-3.419 16.398-7.265 24.246-11.511l10-13.092 10 1.057c8.446-5.624 16.543-11.74 24.247-18.31l9.213-15.22 10.788-3.788c31.181-33.005 53.707-74.426 63.75-120.785-43.558 34.696-98.723 55.441-158.739 55.441z" fill="#5fd2d0"/></g><g><g><path d="m451.289 392.929-196.289 75.149-138.603-108.997-4.682-358.729h339.574z" fill="#dd544f"/></g><path d="m350.203 341.154c20.072-22.003 32.278-51.304 32.174-83.458-.219-67.194-55.03-122.296-122.222-122.851-.552-.005-1.102-.006-1.652-.003-38.535.187-69.843-31.062-69.843-69.597 0-35.839-29.053-64.892-64.892-64.892h-65.057v392.577l196.289 75.148 117.079-44.824c-.958-.37-1.907-.735-2.847-1.098-33.104-12.76-42.94-54.791-19.029-81.002z" fill="#d80a61"/><g><g><path d="m438.01 255.31c-11.686 19.875-39.114 25.43-39.114 25.43s-8.48-26.668 3.207-46.543c11.686-19.875 39.114-25.43 39.114-25.43s8.479 26.668-3.207 46.543z" fill="#69b76b"/></g><g><path d="m392.614 359.081c-20.084 11.324-46.594 2.361-46.594 2.361s6.052-27.322 26.136-38.646 46.594-2.361 46.594-2.361-6.052 27.322-26.136 38.646z" fill="#69b76b"/></g><g><path d="m324.525 377.392-5.373-10.729c22.143-11.091 40.382-29.306 54.209-54.139 11.23-20.169 19.605-44.718 24.893-72.966 9.082-48.517 5.82-91.543 5.786-91.972l11.963-.953c.144 1.807 3.424 44.819-5.903 94.866-5.513 29.575-14.321 55.393-26.184 76.734-15.03 27.045-35.013 46.95-59.391 59.159z" fill="#9dc63d"/></g><g><path d="m431.793 128.861c0 23.056-21.138 41.747-21.138 41.747s-21.138-18.691-21.138-41.747 21.138-41.747 21.138-41.747 21.138 18.691 21.138 41.747z" fill="#69b76b"/></g><g><path d="m407.242 194.722c7.9 21.66-5.553 46.462-5.553 46.462s-26.262-10.316-34.163-31.976 5.553-46.462 5.553-46.462 26.263 10.316 34.163 31.976z" fill="#69b76b"/></g><g><path d="m383.907 287.149c1.724 22.992-17.956 43.211-17.956 43.211s-22.476-17.057-24.201-40.049c-1.724-22.992 17.956-43.211 17.956-43.211s22.476 17.058 24.201 40.049z" fill="#69b76b"/></g></g><g><g><path d="m71.001 255.31c11.686 19.875 39.114 25.43 39.114 25.43s8.48-26.668-3.207-46.543-39.114-25.43-39.114-25.43-8.479 26.668 3.207 46.543z" fill="#69b76b"/></g><g><path d="m116.397 359.081c20.084 11.324 46.594 2.361 46.594 2.361s-6.052-27.322-26.136-38.646-46.594-2.361-46.594-2.361 6.052 27.322 26.136 38.646z" fill="#69b76b"/></g><g><path d="m184.486 377.392c-24.378-12.209-44.36-32.113-59.391-59.157-11.862-21.342-20.672-47.159-26.184-76.734-9.328-50.047-6.048-93.06-5.904-94.866l11.963.953c-.034.429-3.296 43.455 5.786 91.972 5.288 28.247 13.663 52.797 24.894 72.966 13.827 24.833 32.066 43.048 54.209 54.139z" fill="#9dc63d"/></g><g><path d="m77.218 128.861c0 23.056 21.138 41.747 21.138 41.747s21.138-18.691 21.138-41.747-21.138-41.746-21.138-41.746-21.138 18.69-21.138 41.746z" fill="#69b76b"/></g><g><path d="m101.769 194.722c-7.9 21.66 5.553 46.462 5.553 46.462s26.262-10.316 34.163-31.976-5.553-46.462-5.553-46.462-26.263 10.316-34.163 31.976z" fill="#69b76b"/></g><g><path d="m125.104 287.149c-1.724 22.992 17.956 43.211 17.956 43.211s22.476-17.057 24.201-40.049c1.724-22.992-17.956-43.211-17.956-43.211s-22.476 17.058-24.201 40.049z" fill="#69b76b"/></g></g><g><g><path d="m140.759 187.026 11.908 40.622 55.792 14.555 41.605-41.816-16.356-57.743-51.473-9.284c-18.323 13.609-32.814 32.191-41.476 53.666z" fill="#e4f2f6"/></g><g><path d="m185.667 336.307c20.129 13.913 44.569 22.088 70.891 22.088 12.591 0 24.833-1.899 36.292-5.367l-12.701-44.552-55.972-13.546z" fill="#c8e6eb"/></g><g><path d="m341.049 172.512 27.325 5.648c-8.806-17.725-21.883-33.196-37.635-44.904z" fill="#c8e6eb"/></g><g><path d="m256.558 108.815c-27.848 0-53.56 9.126-74.322 24.545l49.11 11.928 34.154-36.152c-2.941-.206-5.95-.321-8.942-.321z" fill="#c8e6eb"/></g><g><path d="m302.786 213.076-55.34-13.319-39.204 41.266 16.135 54.585 55.34 13.319 39.611-41.168z" fill="#fff"/></g><g><path d="m132.689 248.782 22.167-20.607-14.096-41.148c-5.759 14.355-8.992 30.166-8.992 46.579 0 5.105.325 10.23.921 15.176z" fill="#b4d7dc"/></g><g><path d="m152.668 227.648-19.979 21.134c4.418 36.211 24.384 67.739 52.978 87.525l38.71-40.699-16.135-54.585z" fill="#1a1b1c"/></g><g><path d="m231.31 145.172 16.135 54.585 55.34 13.319 38.981-41.32-11.028-38.501c-18.446-13.606-40.999-22.393-65.24-24.118z" fill="#373c41"/></g><g><path d="m381.347 233.605c0-19.918-4.674-38.741-12.974-55.446l-26.607-6.404-39.204 41.266 16.515 54.676 53.146 12.809c5.874-14.475 9.124-30.316 9.124-46.901z" fill="#e4f2f6"/></g><g><path d="m372.223 280.508-53.146-12.809-39.204 41.266 12.977 44.063c36.108-10.975 65.315-37.871 79.373-72.52z" fill="#373c41"/></g><g><path d="m213.399 235.594c-17.299-21.418-27.706-48.721-27.706-78.396 0-7.688.707-15.21 2.039-22.514l-5.498-1.323c-18.991 14.107-33.139 32.998-41.476 53.666l11.908 40.622 55.574 13.375z" fill="#c8e6eb"/></g><g><path d="m305.416 281.876c-37.157-1.485-70.13-19.213-92.016-46.282l-5.158 5.429 16.135 54.585 55.34 13.319z" fill="#e4f2f6"/></g><g><path d="m350.788 275.33c-12.644 4.314-26.2 6.657-40.305 6.657-1.636 0-3.262-.042-4.883-.104l-25.884 27.044 13.133 44.101c36.42-11.069 65.441-38.239 79.374-72.52.009-.022-.009.022 0 0z" fill="#1a1b1c"/></g></g><g><path d="m266.184 14.095 7.68 15.561c1.149 2.328 3.37 3.941 5.938 4.314l17.172 2.495c6.469.94 9.052 8.89 4.371 13.453l-12.426 12.112c-1.859 1.812-2.707 4.423-2.268 6.981l2.933 17.103c1.105 6.443-5.658 11.356-11.444 8.314l-15.36-8.075c-2.298-1.208-5.043-1.208-7.34 0l-15.36 8.075c-5.786 3.042-12.549-1.871-11.444-8.314l2.933-17.103c.439-2.558-.409-5.169-2.268-6.981l-12.426-12.112c-4.681-4.563-2.098-12.513 4.371-13.453l17.172-2.495c2.569-.373 4.79-1.987 5.938-4.314l7.68-15.561c2.896-5.862 11.255-5.862 14.148 0z" fill="#ffe65a"/></g><g><path d="m167.993 48.754 7.546 15.29c.558 1.13 1.636 1.914 2.883 2.095l16.873 2.452c3.141.456 4.395 4.316 2.122 6.532l-12.21 11.902c-.903.88-1.314 2.147-1.101 3.39l2.882 16.805c.537 3.128-2.747 5.514-5.556 4.037l-15.092-7.934c-1.116-.587-2.448-.587-3.564 0l-15.092 7.934c-2.809 1.477-6.093-.909-5.556-4.037l2.882-16.805c.213-1.242-.199-2.51-1.101-3.39l-12.209-11.903c-2.273-2.216-1.019-6.076 2.122-6.532l16.873-2.452c1.247-.181 2.326-.965 2.883-2.095l7.546-15.29c1.406-2.846 5.464-2.846 6.869.001z" fill="#ffe65a"/></g><g><path d="m357.818 48.754 7.546 15.29c.558 1.13 1.636 1.914 2.883 2.095l16.873 2.452c3.141.456 4.395 4.316 2.122 6.532l-12.21 11.902c-.903.88-1.314 2.147-1.101 3.39l2.882 16.805c.537 3.128-2.747 5.514-5.556 4.037l-15.092-7.934c-1.116-.587-2.448-.587-3.564 0l-15.092 7.934c-2.809 1.477-6.093-.909-5.556-4.037l2.882-16.805c.213-1.242-.199-2.51-1.101-3.39l-12.21-11.902c-2.273-2.216-1.019-6.076 2.122-6.532l16.873-2.452c1.247-.181 2.326-.965 2.883-2.095l7.546-15.29c1.407-2.847 5.466-2.847 6.87 0z" fill="#ffe65a"/></g><g><path d="m260.626 449.863-.262.1c-3.453 1.322-7.273 1.322-10.727 0l-185.563-71.043c-7.737-2.962-16.41.909-19.372 8.646s.909 16.409 8.646 19.371l196.289 75.149c3.453 1.322 7.273 1.322 10.726 0l.263-.101z" fill="#ffc305"/></g><g fill="#ffc305"><path d="m87.218 447.031v-47.016c0-5.522-4.478-10-10-10s-10 4.478-10 10v27.506c6.306 6.86 12.983 13.374 20 19.51z"/><path d="m121.465 406.945c-5.522 0-10 4.478-10 10v48.851c6.46 4.407 13.133 8.525 20 12.335v-61.187c0-5.521-4.478-9.999-10-9.999z"/><path d="m165.711 424.167c-5.522 0-10 4.478-10 10v55.78c6.532 2.764 13.203 5.263 20 7.485v-63.265c0-5.522-4.478-10-10-10z"/><path d="m209.957 440.911c-5.522 0-10 4.478-10 10v53.133c6.575 1.447 13.245 2.64 20 3.568v-56.701c0-5.522-4.478-10-10-10z"/><path d="m255 510c3.08 0 6.148-.056 9.204-.165v-41.428c0-5.522-4.478-10-10-10s-10 4.478-10 10v41.368c3.58.15 7.179.225 10.796.225z"/></g><g fill="#ffc305"><path d="m430.448 389.971c-5.522 0-10 4.478-10 10v49.059c7.001-5.971 13.678-12.316 20-19.008v-30.052c0-5.522-4.477-9.999-10-9.999z"/><path d="m396.201 467.34v-50.439c0-5.522-4.478-10-10-10s-10 4.478-10 10v62.474c6.859-3.711 13.532-7.728 20-12.035z"/><path d="m351.955 490.887v-56.763c0-5.522-4.478-10-10-10s-10 4.478-10 10v64.029c6.791-2.149 13.462-4.575 20-7.266z"/><path d="m307.708 504.528v-53.66c0-5.522-4.478-10-10-10s-10 4.478-10 10v57.044c6.749-.866 13.419-1.998 20-3.384z"/></g><path d="m465.298 387.566c-2.962-7.737-11.635-11.608-19.372-8.646l-194.166 73.469c-5.841 2.21-9.705 7.803-9.705 14.048 0 10.507 10.512 17.767 20.338 14.047l194.259-73.547c7.737-2.962 11.607-11.635 8.646-19.371z" fill="#ffe65a"/></g></g></svg>