<svg id="Layer_1" enable-background="new 0 0 510 510" height="512" viewBox="0 0 510 510" width="512" xmlns="http://www.w3.org/2000/svg"><g><g><path d="m508.664 228.735c-3.104-30.333-11.527-59.09-24.319-85.325l-20.279-11.807 5.625-14.24c-10.483-16.314-22.775-31.355-36.592-44.841l-13.013-1.455-13.036-20.774c-2.202-1.638-4.432-3.242-6.688-4.81l-27.24-3.316h-215.826c-26.075 0-49.417 16.168-58.583 40.579l-12.827 34.16c0 140.833 118.763 254.972 259.596 254.972 54.231 0 114.568-25.992 154.949-57.243.903-.699 3.769-5.396 3.769-5.396.177-1.087 5.8-23.477 5.8-54.239l-9.895-13.24z" fill="#ffc305"/><path d="m504.199 309.239c-43.559 34.696-98.724 55.441-158.741 55.441-140.833 0-255-114.167-255-255 0-10.841.681-21.519 1.997-32l.582-19.629c-56.799 46.768-93.037 117.628-93.037 196.949 0 70.272 28.428 133.902 74.407 180.025h347.424l15.482-1.746c19.117-19.534 35.144-42.159 47.244-67.118l-6.695-13.024 17.575-13.024c3.538-10.008 6.474-20.313 8.762-30.874z" fill="#ffa50a"/></g><g><g><g fill="#fff"><path d="m469.699 117.358h-126.441v26.049h141.092c-4.383-8.992-9.28-17.687-14.651-26.049z"/><path d="m508.664 228.735h-168.002v26.049h169.338c-.008-8.794-.46-17.484-1.336-26.049z"/><path d="m495.436 340.112h-157.371v26.049h146.492c4.085-8.427 7.722-17.119 10.879-26.049z"/></g><g><path d="m97.696 117.358h258.056v26.049h-258.056z" fill="#d2f0ff"/></g><g><path d="m96.136 228.735h258.056v26.049h-258.056z" fill="#d2f0ff"/></g><g><path d="m94.575 340.112h258.056v26.049h-258.056z" fill="#d2f0ff"/></g></g><g><g><path d="m433.109 452.079h-26.048v-388.05l26.048 11.544z" fill="#fff"/></g><path d="m433.109 72.511c-8.169-7.974-16.872-15.404-26.049-22.232v29.421h26.049z" fill="#d2f0ff"/><g><path d="m298.668 10.958h26.049v454.146h-26.049z" fill="#d2f0ff"/></g><g><path d="m190.274 10.958h26.049v454.146h-26.049z" fill="#d2f0ff"/></g></g><path d="m255 0c-98.131 0-158.58 55.352-158.747 55.445-1.079.86-2.151 1.728-3.215 2.604-2.651 8.165-4.084 16.873-4.084 25.91v349.666h45.586v-349.665c0-21.224 17.268-38.491 38.491-38.491h227.341c-41.239-28.666-91.343-45.469-145.372-45.469z" fill="#0540e5"/></g><g><path d="m72.68 433.281c46.295 47.338 110.876 76.719 182.32 76.719 71.043 0 135.822-29.213 182.315-76.719z" fill="#74d80b"/></g><g><g><g><path d="m97.5 220.398 1.683 13.788 62.734 25.789 44.829-35.434c-18.263-8.152-38.494-12.69-59.786-12.69-17.376-.001-33.99 3.007-49.46 8.547z" fill="#c8e6eb"/></g></g><g><g><path d="m194.809 497.544-4.457-36.861-63.627-25.827-53.411 42.449 1.177 9.112c37.37 21.213 81.539 24.476 120.318 11.127z" fill="#1a1b1c"/></g></g><g><g><g><path d="m170.869 326.26-53.582 42.164 9.646 67.152 62.865 25.538 53.7-41.792-9.166-67.328z" fill="#fff"/></g></g><g><g><path d="m99.439 233.988-54.003 41.628 9.316 67.211 62.794 25.593 53.404-41.561-9.1-67.38z" fill="#373c41"/></g></g></g><g><g><path d="m234.031 352.229 9.468 67.094 30.776 12.585c12.398-21.537 19.523-46.585 19.523-73.22 0-16.435-2.701-32.239-7.682-46.993z" fill="#373c41"/></g></g><g><g><path d="m274.274 431.907-30.776-12.712-53.7 41.919 5.01 36.43c33.687-11.616 61.915-35.228 79.466-65.637z" fill="#b4d7dc"/></g></g><g><g><path d="m74.086 476.704-26.276-9.714c8.012 7.302 17.196 14.026 26.68 19.428z" fill="#a5c8cd"/></g></g><g><path d="m117.546 368.42-62.865-25.538 72.181 92.75z" fill="#e4f2f6"/></g><g><g><path d="m206.745 224.54-44.895 34.94 9.101 67.379 63.081 25.37 52.084-40.534c-13.145-38.934-42.172-70.551-79.371-87.155z" fill="#e4f2f6"/></g></g><g><g><path d="m55.406 343.093-9.873-67.552-15.187-6.082c-25.686 33.568-34.803 75.127-28.096 114.227z" fill="#a5c8cd"/></g></g><g><g><path d="m95.992 359.664-41.311-16.782-52.431 40.804c2.254 8.663 7.593 48.464 45.56 83.304.004.003-.004-.003 0 0l26.276 9.714 52.847-41.128-7.523-54.274c-8.535-6.335-16.446-13.636-23.418-21.638z" fill="#c8e6eb"/></g></g><g><g><path d="m95.876 359.533c-22.183-25.523-35.69-58.781-35.955-95.19l-14.485 11.273 9.245 67.267z" fill="#1a1b1c"/></g></g><g><g><path d="m241.641 405.919 1.858 13.404 30.776 12.585c8.673-15.065 14.653-31.761 17.512-48.932-14.894 10.597-31.849 18.482-50.146 22.943z" fill="#1a1b1c"/></g></g><g><g><path d="m119.323 381.237 7.611 54.339 62.865 25.538 53.7-41.792-2.02-13.363c-11.136 2.701-22.767 4.134-34.734 4.134-32.714.001-63.013-10.767-87.422-28.856z" fill="#e4f2f6"/></g></g><g><g><path d="m30.346 269.459 15.09 6.157 54.003-41.628-1.939-13.59c-26.858 9.595-50.111 26.855-67.154 49.061z" fill="#e4f2f6"/></g></g></g></g></svg>