<svg id="Layer_1" enable-background="new 0 0 510 510" height="512" viewBox="0 0 510 510" width="512" xmlns="http://www.w3.org/2000/svg"><g><g><path d="m385.554 35.928c-38.191-22.808-82.837-35.928-130.554-35.928-58.93 0-104.262 19.96-131.119 35.928z" fill="#2477f9"/><g><path d="m153.23 488.862c31.177 13.586 65.589 21.138 101.77 21.138 36.047 0 70.481-7.523 101.732-21.138z" fill="#82878c"/></g></g><g><path d="m169.255 421.102v-386.285h-43.492c-19.072 11.109-29.441 20.589-29.51 20.628-8.375 6.672-16.304 13.877-23.773 21.533v344.124z" fill="#afe6ff"/><path d="m74.256 344.749v-269.606c-45.884 46.11-74.256 109.671-74.256 179.857 0 89.068 45.664 167.47 114.859 213.072h54.397v-66.83h-38.507c-31.201 0-56.493-25.293-56.493-56.493z" fill="#73c8f0"/><path d="m67.617 82.069h64.486v-12h-52.653c-4.075 3.869-8.021 7.872-11.833 12z" fill="#41b4e6"/><g><path d="m72.388 91.867h59.714v12h-59.714z" fill="#41b4e6"/></g><g><path d="m72.388 113.665h59.714v12h-59.714z" fill="#41b4e6"/></g><g fill="#0091c8"><path d="m74.256 82.069v-6.926c-2.256 2.267-4.469 4.576-6.639 6.926z"/><path d="m74.256 103.867v-12h-15.236c-3.253 3.903-6.391 7.905-9.41 12z"/><path d="m74.256 125.665v-12h-31.521c-2.619 3.925-5.132 7.926-7.535 12z"/></g><g><path d="m140.965 239.555h12v41.039h-12z" fill="#41b4e6"/></g></g><g><g><path d="m238.742 34.817h101.273v433.255h-101.273z" fill="#afe6ff"/></g><g><path d="m245.015 344.749v-309.932h-76.277v433.255h171.277v-66.83h-38.507c-31.2 0-56.493-25.293-56.493-56.493z" fill="#73c8f0"/></g><g><path d="m245.015 70.069h57.847v12h-57.847z" fill="#41b4e6"/></g><g><path d="m245.015 91.867h57.847v12h-57.847z" fill="#41b4e6"/></g><g><path d="m245.015 113.665h57.847v12h-57.847z" fill="#41b4e6"/></g><g><path d="m198.738 70.069h46.277v12h-46.277z" fill="#0091c8"/></g><g><path d="m198.738 91.867h46.277v12h-46.277z" fill="#0091c8"/></g><g><path d="m198.738 113.665h46.277v12h-46.277z" fill="#0091c8"/></g><g><path d="m311.724 239.555h12v41.039h-12z" fill="#41b4e6"/></g></g><g><path d="m414.576 56.096v397.789c44.561-35.769 76.982-86.294 89.624-144.646.178-1.087 5.8-23.477 5.8-54.239 0-80.435-37.244-152.168-95.424-198.904z" fill="#afe6ff"/><path d="m464.318 400.687c-27.436-3.864-48.544-27.436-48.544-55.938v-287.69c-10.08-8.197-20.798-15.64-32.068-22.242h-44.209v433.255h55.598c27.089-17.834 50.626-40.715 69.223-67.385z" fill="#73c8f0"/><g><path d="m414.576 251.796v172.376l95.424-22.93v-146.242z" fill="#afe6ff"/></g><g><path d="m415.774 344.749v-92.954h-76.277v216.277h170.503v-66.83h-37.733c-31.2 0-56.493-25.293-56.493-56.493z" fill="#73c8f0"/></g><g fill="#41b4e6"><path d="m414.301 82.069h28.103c-3.812-4.129-7.758-8.131-11.832-12h-16.271z"/><path d="m414.301 103.867h46.106c-3.018-4.095-6.156-8.097-9.408-12h-36.698z"/><path d="m414.301 125.665h60.512c-2.402-4.074-4.914-8.075-7.532-12h-52.98z"/></g><g><path d="m369.498 70.069h46.277v12h-46.277z" fill="#0091c8"/></g><g><path d="m369.498 91.867h46.277v12h-46.277z" fill="#0091c8"/></g><g><path d="m369.498 113.665h46.277v12h-46.277z" fill="#0091c8"/></g><g><path d="m482.483 239.555h12v41.039h-12z" fill="#41b4e6"/></g></g><g><g><path d="m121.603 321.525h21v117.545h-21z" fill="#783c28"/></g><g><path d="m369.231 321.525h21v117.545h-21z" fill="#783c28"/></g></g><g><g><path d="m121.603 321.525h21v24.774h-21z" fill="#5a2d19"/></g><g><path d="m369.231 321.525h21v24.774h-21z" fill="#5a2d19"/></g></g><g><path d="m221.877 306.525h189.161v30h-189.161z" fill="#a55a3c"/></g><g><path d="m102.367 306.525h127.66v30h-127.66z" fill="#934d35"/></g><g><path d="m148.528 359.164c6.038-12.251 18.653-20.703 33.21-20.703s27.171 8.452 33.21 20.703h21.407c-7.031-23.512-28.849-40.703-54.617-40.703s-47.586 17.191-54.617 40.703z" fill="#50555a"/></g><g><path d="m214.453 358.213c2.797 5.291 4.289 11.234 4.289 17.252v10.341h-74.008v-10.341c0-6.018 1.492-11.96 4.289-17.252h-21.606c-1.763 5.559-2.682 11.385-2.682 17.252v30.341h114.008v-30.341c0-5.867-.919-11.693-2.682-17.252z" fill="#373c41"/></g><g><path d="m304.868 439.959v-28.662c0-22.597-18.318-40.915-40.915-40.915h-137.687v69.577z" fill="#50555a"/></g><path d="m304.868 436.337h-111.244c-36.426 0-65.954-29.529-65.954-65.954h-28.148c-22.597 0-40.915 18.318-40.915 40.915v6.363c26.26 31.671 60.035 56.886 98.591 72.911h147.67z" fill="#373c41"/><g><g><g><path d="m320.667 362.866.815 6.68 30.395 12.495 21.72-17.168c-8.849-3.95-18.65-6.148-28.967-6.148-8.418-.001-16.468 1.456-23.963 4.141z" fill="#c8e6eb"/></g></g><g><g><path d="m367.814 497.145-2.159-17.859-30.828-12.514-25.878 20.567.57 4.415c18.106 10.278 39.506 11.859 58.295 5.391z" fill="#1a1b1c"/></g></g><g><g><g><path d="m356.215 414.157-25.961 20.428 4.674 32.536 30.458 12.374 26.018-20.249-4.441-32.621z" fill="#fff"/></g></g><g><g><path d="m321.606 369.45-26.165 20.169 4.514 32.565 30.424 12.4 25.875-20.137-4.409-32.646z" fill="#373c41"/></g></g></g><g><g><path d="m386.817 426.739 4.587 32.508 14.911 6.098c6.007-10.435 9.459-22.571 9.459-35.476 0-7.963-1.309-15.62-3.722-22.768z" fill="#373c41"/></g></g><g><g><path d="m406.316 465.344-14.911-6.159-26.018 20.31 2.428 17.651c16.32-5.629 29.997-17.069 38.501-31.802z" fill="#b4d7dc"/></g></g><g><g><path d="m309.323 487.048-12.731-4.706c3.882 3.538 8.332 6.796 12.927 9.413z" fill="#a5c8cd"/></g></g><g><path d="m330.379 434.584-30.458-12.374 34.972 44.938z" fill="#e4f2f6"/></g><g><g><path d="m373.597 364.872-21.752 16.928 4.409 32.646 30.563 12.292 25.235-19.639c-6.368-18.863-20.431-34.182-38.455-42.227z" fill="#e4f2f6"/></g></g><g><g><path d="m300.272 422.312-4.783-32.73-7.358-2.947c-12.445 16.264-16.862 36.4-13.613 55.344z" fill="#a5c8cd"/></g></g><g><g><path d="m319.937 430.341-20.016-8.131-25.403 19.77c1.092 4.197 3.679 23.481 22.074 40.361.002.002-.002-.002 0 0l12.731 4.706 25.605-19.927-3.645-26.296c-4.136-3.068-7.969-6.606-11.346-10.483z" fill="#c8e6eb"/></g></g><g><g><path d="m319.88 430.278c-10.748-12.366-17.292-28.48-17.42-46.12l-7.018 5.462 4.479 32.591z" fill="#1a1b1c"/></g></g><g><g><path d="m390.504 452.752.9 6.494 14.911 6.098c4.202-7.299 7.099-15.389 8.484-23.708-7.214 5.134-15.43 8.955-24.295 11.116z" fill="#1a1b1c"/></g></g><g><g><path d="m331.24 440.794 3.688 26.328 30.459 12.373 26.018-20.248-.979-6.474c-5.395 1.309-11.031 2.003-16.829 2.003-15.85-.001-30.53-5.218-42.357-13.982z" fill="#e4f2f6"/></g></g><g><g><path d="m288.13 386.636 7.311 2.983 26.165-20.169-.94-6.584c-13.012 4.649-24.278 13.011-32.536 23.77z" fill="#e4f2f6"/></g></g></g></g></svg>