<svg id="Layer_1" enable-background="new 0 0 510.898 510.898" height="512" viewBox="0 0 510.898 510.898" width="512" xmlns="http://www.w3.org/2000/svg"><g><g><path d="m404.359 48.766c-41.98-30.39-93.572-48.317-149.359-48.317-76.173 0-129.633 33.348-149.825 48.317z" fill="#ffd23c"/><g><path d="m130.547 478.048c36.813 20.626 79.255 32.401 124.453 32.401 45.004 0 87.489-11.731 124.41-32.401z" fill="#ffa50a"/></g></g><g><g><path d="m72.628 77.242v337.551h96.75v-367.601h-62.051c-7.224 5.202-11.033 8.679-11.074 8.702-8.313 6.623-16.204 13.755-23.625 21.348z" fill="#afe6ff"/><path d="m74.379 357.124v-281.656c-45.957 46.12-74.379 109.732-74.379 179.981 0 97.405 54.613 182.054 134.89 224.998h34.489v-66.83h-38.507c-31.2 0-56.493-25.293-56.493-56.493z" fill="#73c8f0"/><g><path d="m72.628 82.444h59.598v12h-59.598z" fill="#41b4e6"/></g><g><path d="m72.628 104.241h59.598v12h-59.598z" fill="#41b4e6"/></g><g><path d="m72.628 126.04h59.598v12h-59.598z" fill="#41b4e6"/></g><g fill="#0091c8"><path d="m74.379 94.444v-12h-6.694c-3.595 3.89-7.07 7.892-10.419 12z"/><path d="m74.379 116.241v-12h-24.714c-2.889 3.916-5.669 7.917-8.334 12z"/><path d="m74.379 138.04v-12h-39.135c-2.322 3.933-4.541 7.935-6.654 12z"/></g><g><path d="m141.088 251.93h12v41.039h-12z" fill="#41b4e6"/></g></g><g><g><path d="m340.138 413.617-120.047 31.511 25.047-397.936h95z" fill="#afe6ff"/></g><g><path d="m245.138 357.124v-309.932h-76.277v433.255h171.277v-66.83h-38.507c-31.2 0-56.493-25.293-56.493-56.493z" fill="#73c8f0"/></g><g><path d="m242.542 82.444h60.443v12h-60.443z" fill="#41b4e6"/></g><g><path d="m198.862 104.241h104.124v12h-104.124z" fill="#41b4e6"/></g><g><path d="m198.862 126.04h104.124v12h-104.124z" fill="#41b4e6"/></g><g><path d="m198.862 82.444h46.277v12h-46.277z" fill="#0091c8"/></g><g><path d="m198.862 104.241h46.277v12h-46.277z" fill="#0091c8"/></g><g><path d="m198.862 126.04h46.277v12h-46.277z" fill="#0091c8"/></g><g><path d="m311.848 251.93h12v41.039h-12z" fill="#41b4e6"/></g></g><g><g><path d="m344.041 55.893h163.437v415.853h-163.437z" fill="#0091c8"/></g></g><path d="m407.207 398.915v-343.022h-63.166v415.853h163.437v-43.23h-70.671c-16.348 0-29.6-13.253-29.6-29.601z" fill="#0073aa"/><g><path d="m349.213 382.521h155.799v15h-155.799z" fill="#afe6ff"/></g><g><path d="m349.213 382.521h76.047v15h-76.047z" fill="#73c8f0"/></g><g><path d="m349.213 269.567h155.799v15h-155.799z" fill="#afe6ff"/></g><g><g><path d="m398.683 47.192c.023 5 .113 10 .196 15h97.018v403.255h-22.047v15h37.047v-433.255z" fill="#73c8f0"/></g></g><g><g><path d="m474.792 465.447h-119.171v-403.255h45.684v-15h-61.684v433.255h135.171z" fill="#41b4e6"/></g></g><g><path d="m415.404 141.586h-146.531v-45.153l73.723-16.509 72.808 16.522zm-134.531-12h122.531v-23.558l-60.826-13.804-61.706 13.817v23.545z" fill="#fff"/></g><g><g><path d="m414.259 91.995-48.348-10.699c1.636 3.541 2.618 7.453 2.801 11.538.312 6.975-3.345 14.943-8.201 19.8-5.078 5.078-12.62 8.201-19.8 8.201-15.698 0-27.321-12.83-28.001-28.001-.17-3.792.84-7.875 2.572-11.595l-48.392 10.741c-18.269 4.055-31.268 20.256-31.268 38.97v199.414h209.93v-199.394c0-18.723-13.012-34.93-31.293-38.975z" fill="#dd544f"/></g><g><path d="m362.049 80.442v14.195c0 11.775-9.546 21.321-21.321 21.321-11.775 0-21.321-9.546-21.321-21.321v-14.314l-10.787 2.394v13.327c0 17.733 14.375 32.108 32.108 32.108 17.733 0 32.108-14.375 32.108-32.108v-13.215z" fill="#d80a61"/></g><g><path d="m243.539 233.094 42.477-63.828-45.172-58.045-54.389 81.728z" fill="#d80a61"/></g><g><path d="m437.703 233.556-42.477-63.828 45.173-58.044 54.388 81.727z" fill="#dd544f"/></g><path d="m339.453 330.363c-26.046 0-47.16-21.114-47.16-47.16v-152.254c0-14.859 8.199-28.128 20.721-34.995-.15-1.027-.255-2.067-.303-3.12-.17-3.792.84-7.875 2.572-11.595l-48.391 10.741c-18.269 4.055-31.269 20.256-31.269 38.97v237.759h209.93v-38.345h-106.1z" fill="#d80a61"/><g fill="#fff"><path d="m283.14 223.579v-28.718c0-18.639 11.595-25.574 26.55-25.574s26.659 6.936 26.659 25.574v28.718c0 18.64-11.704 25.575-26.659 25.575s-26.55-6.935-26.55-25.575zm36.303-28.718c0-7.477-3.685-10.836-9.753-10.836s-9.645 3.359-9.645 10.836v28.718c0 7.478 3.576 10.837 9.645 10.837s9.753-3.359 9.753-10.837z"/><path d="m378.611 224.663v-2.06c0-7.26-4.443-8.669-10.403-8.669-3.685 0-4.876-3.251-4.876-6.502s1.192-6.502 4.876-6.502c4.118 0 8.453-.542 8.453-9.32 0-6.285-3.576-7.802-8.019-7.802-5.31 0-8.02 1.3-8.02 5.526 0 3.685-1.625 6.177-7.911 6.177-7.803 0-8.778-1.625-8.778-6.827 0-8.452 6.069-19.397 24.708-19.397 13.763 0 24.166 4.984 24.166 19.614 0 7.911-2.926 15.28-8.344 17.772 6.394 2.384 11.053 7.152 11.053 15.93v2.06c0 17.772-12.246 24.491-27.417 24.491-18.639 0-25.792-11.379-25.792-20.481 0-4.877 2.059-6.177 8.019-6.177 6.936 0 8.669 1.517 8.669 5.635 0 5.093 4.769 6.285 9.645 6.285 7.37 0 9.971-2.709 9.971-9.753z"/></g></g><g><path d="m347.587 88.45h-12v-24.974c0-3.313 2.687-6 6-6 5.539 0 10.044-4.506 10.044-10.045 0-5.538-4.506-10.044-10.044-10.044s-10.044 4.506-10.044 10.044h-12c0-12.155 9.889-22.044 22.044-22.044s22.044 9.889 22.044 22.044c0 10.077-6.795 18.596-16.044 21.215z" fill="#fff"/></g></g></g></svg>