<svg id="Layer_1" enable-background="new 0 0 511 511" height="512" viewBox="0 0 511 511" width="512" xmlns="http://www.w3.org/2000/svg"><g><g><path d="m510.49 257.876c.005-.624.01-1.245.01-1.876 0-140.833-114.167-255-255-255-98.131 0-158.58 55.352-158.747 55.445 0 0-2.513 3.137-2.983 5.222-3.818 16.948-7.385 39.663-7.385 56.238 0 51.699 16.02 99.791 43.246 139.97h380.859z" fill="#afe6ff"/><g><path d="m137.714 257.876c-29.446-41.583-46.755-92.367-46.755-147.197 0-18.615 2.007-36.753 5.795-54.234-58.645 46.72-96.254 118.747-96.254 199.555 0 .627.019 1.25.024 1.876z" fill="#73c8f0"/></g></g><path d="m137.714 257.876c0 140.833-15.2 178.819 125.633 178.819 121.17 0 216.269-10.675 241.353-126.457.178-1.087 5.801-23.477 5.801-54.239z" fill="#9dc63d"/><path d="m345.959 365.679c-86.826 0-163.517-43.395-209.567-109.679h-135.892c0 110.454 70.226 204.505 168.464 239.941l267.162-59.901c33.6-33.665 57.97-76.862 68.573-125.802-43.559 34.696-98.724 55.441-158.74 55.441z" fill="#69b76b"/><g><path d="m478.332 292.183h-35v-142.084l35-20.002z" fill="#0540e5"/></g><g><g><path d="m413.864 181.896h-316.728c-25.94 0-46.968-21.028-46.968-46.968v-70.46c0-25.94 21.028-46.968 46.968-46.968h316.728c25.94 0 46.968 21.028 46.968 46.968v70.46c0 25.94-21.028 46.968-46.968 46.968z" fill="#373c41"/></g><g><path d="m413.864 0h-212.401v35h212.401c16.249 0 29.468 13.219 29.468 29.468v70.461c0 16.249-13.219 29.468-29.468 29.468h-55.854v35h55.854c35.548 0 64.468-28.92 64.468-64.468v-70.461c0-35.548-28.92-64.468-64.468-64.468z" fill="#0360e8"/></g><g><path d="m32.668 134.929h35v157.254h-35z" fill="#003dc4"/></g><g><path d="m358.86 199.396h-261.724c-35.548 0-64.468-28.92-64.468-64.468v-70.46c0-35.548 28.92-64.468 64.468-64.468h105.412v35h-105.412c-16.249 0-29.468 13.219-29.468 29.468v70.461c0 16.249 13.219 29.468 29.468 29.468h261.724z" fill="#0540e5"/></g><g fill="#fff"><path d="m99.125 118.937v-34.023c0-22.083 13.737-30.3 31.455-30.3s31.583 8.217 31.583 30.3v34.022c0 22.083-13.866 30.3-31.583 30.3-17.718 0-31.455-8.216-31.455-30.299zm43.01-34.023c0-8.858-4.365-12.839-11.555-12.839-7.189 0-11.426 3.98-11.426 12.839v34.022c0 8.859 4.237 12.839 11.426 12.839 7.19 0 11.555-3.979 11.555-12.839z"/><path d="m180.139 76.954-3.723 2.311c-1.156.771-2.311 1.027-3.21 1.027-3.723 0-6.291-3.979-6.291-7.96 0-2.696 1.156-5.264 3.723-6.805l16.947-10.271c1.027-.643 2.311-.899 3.723-.899 4.108 0 8.859 2.439 8.859 6.291v81.654c0 4.109-5.007 6.163-10.014 6.163s-10.014-2.054-10.014-6.163z"/><path d="m288.76 118.937v-34.023c0-22.083 13.737-30.3 31.455-30.3s31.583 8.217 31.583 30.3v34.022c0 22.083-13.865 30.3-31.583 30.3s-31.455-8.216-31.455-30.299zm43.009-34.023c0-8.858-4.365-12.839-11.555-12.839s-11.427 3.98-11.427 12.839v34.022c0 8.859 4.237 12.839 11.427 12.839s11.555-3.979 11.555-12.839z"/><path d="m401.872 120.221v-2.439c0-8.602-5.265-10.271-12.325-10.271-4.365 0-5.778-3.852-5.778-7.703s1.413-7.703 5.778-7.703c4.878 0 10.014-.642 10.014-11.041 0-7.446-4.236-9.244-9.501-9.244-6.291 0-9.5 1.541-9.5 6.548 0 4.365-1.926 7.318-9.372 7.318-9.244 0-10.399-1.926-10.399-8.089 0-10.014 7.189-22.981 29.271-22.981 16.306 0 28.631 5.906 28.631 23.238 0 9.372-3.467 18.103-9.886 21.056 7.574 2.824 13.096 8.474 13.096 18.873v2.439c0 21.056-14.508 29.016-32.482 29.016-22.083 0-30.557-13.48-30.557-24.266 0-5.777 2.439-7.318 9.501-7.318 8.217 0 10.271 1.798 10.271 6.677 0 6.034 5.648 7.446 11.426 7.446 8.73-.002 11.812-3.212 11.812-11.556z"/></g><g><path d="m257.727 81.661c0 5.265-4.494 9.886-9.758 9.886-5.649 0-9.886-4.621-9.886-9.886 0-5.392 4.236-9.886 9.886-9.886 5.264 0 9.758 4.495 9.758 9.886zm0 35.179c0 5.264-4.494 9.886-9.758 9.886-5.649 0-9.886-4.622-9.886-9.886 0-5.393 4.236-9.886 9.886-9.886 5.264 0 9.758 4.493 9.758 9.886z" fill="#fff"/></g></g><g><g><g><path d="m241.436 275.791 1.683 13.788 62.734 25.789 44.829-35.434c-18.263-8.152-38.494-12.69-59.786-12.69-17.376-.001-33.99 3.007-49.46 8.547z" fill="#c8e6eb"/></g></g><path d="m255.5 511c18.061 0 35.716-1.888 52.77-5.485l-37.609-15.266-25.833 20.532c3.539.145 7.097.219 10.672.219z" fill="#1a1b1c"/><g><path d="m378.268 407.387-63.463-25.734-53.582 42.164 2.747 19.12 61.343 33.317 60.901-10.503z" fill="#fff"/><g><g><path d="m243.375 289.381-54.003 41.628 9.316 67.211 62.794 25.593 53.404-41.561-9.1-67.38z" fill="#373c41"/></g></g></g><path d="m377.967 407.622 9.404 66.643c17.758-10.746 34.122-23.605 48.73-38.249 1.074-7.159 1.632-14.485 1.632-21.935 0-16.435-2.701-32.239-7.682-46.993z" fill="#373c41"/><g><path d="m261.482 423.813-62.865-25.537 72.182 92.749z" fill="#e4f2f6"/></g><g><g><path d="m350.681 279.933-44.895 34.94 9.101 67.379 63.081 25.37 52.084-40.534c-13.144-38.934-42.171-70.551-79.371-87.155z" fill="#e4f2f6"/></g></g><g><g><path d="m199.342 398.486-9.873-67.552-15.187-6.082c-25.686 33.568-34.803 75.127-28.096 114.228z" fill="#a5c8cd"/></g></g><path d="m270.87 490.969-7.523-54.274c-8.535-6.335-16.447-13.636-23.418-21.638l-41.311-16.782-52.431 40.804c1.691 6.502 5.121 30.542 22.777 56.862 24.006 8.659 49.685 13.819 76.421 14.862z" fill="#c8e6eb"/><g><g><path d="m239.812 414.926c-22.183-25.523-35.69-58.781-35.955-95.19l-14.485 11.273 9.245 67.267z" fill="#1a1b1c"/></g></g><path d="m385.577 461.312 1.795 12.953c14.918-9.027 28.853-19.546 41.588-31.362-13.191 8.327-27.8 14.61-43.383 18.409z" fill="#1a1b1c"/><path d="m385.415 461.353c-11.136 2.701-22.767 4.134-34.734 4.134-32.714 0-63.013-10.768-87.422-28.857l7.611 54.339 36.346 14.765c28.722-5.93 55.752-16.704 80.151-31.467z" fill="#e4f2f6"/><g><g><path d="m174.282 324.852 15.09 6.157 54.003-41.628-1.939-13.59c-26.858 9.595-50.111 26.855-67.154 49.061z" fill="#e4f2f6"/></g></g></g></g></svg>