<svg id="Layer_1" enable-background="new 0 0 510.428 510.428" height="512" viewBox="0 0 510.428 510.428" width="512" xmlns="http://www.w3.org/2000/svg"><g><g><path d="m509.296 233.637-10.587-13.978 7.437-9.845c-5.03-27.849-14.584-54.125-27.872-78.04l-13.948-11.907-1.062-11.908c-10.278-14.471-22.027-27.823-35.031-39.839l-14.262-.866-9.563-18.634c-3.421-2.472-6.906-4.862-10.452-7.166h-273.28c-1.42 0-2.696-.22-3.839-.607-13.219 8.516-20.311 14.994-20.368 15.026 0 0-2.513 3.137-2.983 5.222-3.818 16.948-7.385 39.663-7.385 56.238 0 51.699 16.02 99.791 43.246 139.97l377.131-.802 3.738-1.501c-.014-7.195-.324-14.32-.92-21.363z" fill="#afe6ff"/><g><g><path d="m137.428 257.304c-29.446-41.583-46.755-92.367-46.755-147.197 0-18.615 2.007-36.753 5.795-54.234-58.646 46.72-96.254 118.747-96.254 199.555 0 .627.019 1.25.024 1.876z" fill="#73c8f0"/></g></g></g><g fill="#fff"><path d="m404.404 145.381h23.824v74.278h-23.824z"/><path d="m404.404 63.032v59.746h23.824v-54.655c-1.866-1.725-3.759-3.421-5.677-5.091z"/><path d="m404.404 242.261h23.824v15.042h-23.824z"/><path d="m305.273 63.032h23.824v59.746h-23.824z"/><path d="m305.273 145.381h23.824v74.278h-23.824z"/><path d="m305.273 242.261h23.824v15.042h-23.824z"/></g><g><path d="m404.404 48.622v15.266h19.129c-6.123-5.385-12.506-10.48-19.129-15.266z" fill="#d2f0ff"/><g><path d="m305.273 10.647h23.824v53.241h-23.824z" fill="#d2f0ff"/></g></g><path d="m254.304 257.304v-179.893c0-19.41 15.791-35.201 35.201-35.201h105.596c-34.272-22.531-74.297-37.017-117.4-40.784-36.815 5.697-65.088 37.6-65.088 75.985v179.893z" fill="#0540e5"/><path d="m510.213 255h-509.998c0 .143-.001.285-.001.428 0 41.178 9.774 80.068 27.107 114.5h413.341l58.044-38.594c2.207-7.089 4.115-14.316 5.707-21.667.178-1.087 5.801-23.477 5.801-54.239 0-.143-.001-.286-.001-.428z" fill="#9dc63d"/><path d="m345.673 365.107c-87.013 0-163.846-43.582-209.864-110.107h-135.594c-.071 41.341 9.695 80.381 27.072 114.928h413.375l58.045-38.593c2.206-7.088 4.113-14.315 5.706-21.668-43.559 34.695-98.724 55.44-158.74 55.44z" fill="#69b76b"/><g><g><path d="m404.404 218.316h23.824v25.733h-23.824z" fill="#d2f0ff"/></g><g><path d="m305.273 218.316h23.824v25.733h-23.824z" fill="#d2f0ff"/></g></g><g><g><path d="m404.404 119.867h23.824v26.811h-23.824z" fill="#d2f0ff"/></g><g><path d="m305.273 119.867h23.824v26.811h-23.824z" fill="#d2f0ff"/></g></g><g fill="#fff"><path d="m463.267 107.955h-239.812v23.824h254.808c-4.572-8.229-9.572-16.186-14.996-23.824z"/><path d="m506.14 209.814h-284.594v23.824h287.732c-.682-8.052-1.725-16.002-3.138-23.824z"/></g><g><path d="m373.337 407.093v-.272c0-31.916-22.182-59.544-53.345-66.439l-71.929-15.917v82.628z" fill="#fff"/><path d="m68.778 340.356c-17.653 3.918-32.419 14.49-41.899 28.723 4.741 9.507 10.058 18.676 15.906 27.461l98.792-45.815v-26.527z" fill="#afe6ff"/><path d="m303.062 358.216-108.889-24.096-72.812 16.161v115.922l1.817 7.424c2.189 1.328 4.4 2.623 6.632 3.886l9.214-3.886 10.815 14.079c7.199 3.271 14.577 6.217 22.115 8.82l10.525-6.39 8.745 12.197c6.576 1.699 13.255 3.143 20.026 4.32l13.745-7.976 7.842 10.783c7.374.641 14.838.969 22.378.969 12.544 0 24.893-.911 36.98-2.672l57.022-92.057c-.001-27.615-19.193-51.518-46.155-57.484z" fill="#2477f9"/><path d="m42.785 396.54c20.782 31.223 48.264 57.603 80.393 77.086v-57.959c0-26.824 18.113-50.145 43.868-56.924l3.868-19.461-85.199 18.91c-20.445 4.539-36.415 19.39-42.93 38.348z" fill="#0540e5"/><g><path d="m194.647 402.018c30.228 0 54.733-24.505 54.733-54.733v-22.528l-55.243-12.225-54.222 12.035v22.718c0 30.228 24.504 54.733 54.732 54.733z" fill="#0540e5"/></g><g><g><g><path d="m194.647 381.231c-20.073 0-36.344-16.272-36.344-36.344v-81.407h72.689v81.406c0 20.073-16.272 36.345-36.345 36.345z" fill="#ff965a"/></g></g></g><g><g><g><path d="m293.242 135.963c0-33.168-21.278-63.497-54.445-63.497h-88.298c-9.464 0-18.132 2.477-25.694 6.777v175.309c0 38.264 30.776 69.577 69.038 69.867.268.002.537.003.805.003 56.987 0 103.183-46.197 103.183-103.183v-32.575z" fill="#ffbe82"/></g></g></g><g><g><g><path d="m297.831 207.423v-61.331c13.361 0 24.193 10.832 24.193 24.193v12.946c0 13.36-10.832 24.192-24.193 24.192z" fill="#ff965a"/></g></g></g><g><g><g><path d="m90.443 207.423v-61.331c-13.361 0-24.193 10.832-24.193 24.193v12.946c0 13.36 10.831 24.192 24.193 24.192z" fill="#ff965a"/></g></g></g><g><g><g><path d="m150.065 182.68v7.276c0 4.746 3.848 8.594 8.594 8.594s8.594-3.848 8.594-8.594v-7.276z" fill="#ff965a"/></g></g></g><g><g><g><path d="m220.088 182.68v7.276c0 4.746 3.848 8.594 8.594 8.594s8.594-3.848 8.594-8.594v-7.276z" fill="#ff965a"/></g></g></g><g><g><path d="m200.24 324.271c-43.381-12.598-75.091-52.632-75.091-100.077.258-5.863 0-62.674 0-84.254 0-33.168 26.888-60.055 60.055-60.055h74.95c-6.593-2.56-13.782-3.977-21.358-3.977h-88.298c-33.168 0-57.782 24.614-57.782 57.782l-2.274 54.974v31.554c.001 59.555 49.901 107.226 109.798 104.053z" fill="#ff965a"/></g></g><g><g><g><path d="m158.659 191.667c-4.746 0-8.594-3.848-8.594-8.594v-11.055l3.168-4.797-3.168-4.797v-2.855c0-4.746 3.848-8.594 8.594-8.594s8.594 3.848 8.594 8.594v23.504c0 4.746-3.848 8.594-8.594 8.594z" fill="#373c41"/></g></g></g><g><g><g><path d="m228.682 191.667c-4.746 0-8.594-3.848-8.594-8.594v-11.055l3.168-4.797-3.168-4.797v-2.855c0-4.746 3.848-8.594 8.594-8.594s8.594 3.848 8.594 8.594v23.504c0 4.746-3.848 8.594-8.594 8.594z" fill="#373c41"/></g></g></g><g><g><g><g><path d="m169.981 146.678h-25.062c-4.746 0-8.594-3.848-8.594-8.594 0-4.746 3.848-8.594 8.594-8.594h25.062c4.746 0 8.594 3.848 8.594 8.594 0 4.746-3.847 8.594-8.594 8.594z" fill="#783c28"/></g></g></g></g><g><path d="m194.671 336.074c-24.083 0-43.606-19.523-43.606-43.606v-54.176c0-9.08 7.361-16.441 16.441-16.441h54.329c9.08 0 16.441 7.361 16.441 16.441v54.176c0 24.083-19.522 43.606-43.605 43.606z" fill="#783c28"/></g><g><g><g><g><path d="m241.598 146.678h-25.062c-4.746 0-8.594-3.848-8.594-8.594 0-4.746 3.848-8.594 8.594-8.594h25.062c4.746 0 8.594 3.848 8.594 8.594 0 4.746-3.848 8.594-8.594 8.594z" fill="#783c28"/></g></g></g></g><g><path d="m226.291 239.211h-8.849l-23.305 4.838-23.305-4.838h-7.828c-2.626 0-4.724 2.292-4.374 4.895.67 4.979 2.349 9.638 4.823 13.766l47.189 13.984c10.657-5.231 18.378-15.528 20.023-27.75.35-2.603-1.748-4.895-4.374-4.895z" fill="#c3247d"/></g><g><g><g><path d="m180.723 203.866c-2.136 8.531 1.746 17.824 9.171 20.625 1.494.564 3.092.869 4.754.869 1.661 0 3.26-.305 4.754-.869 7.425-2.801 11.308-12.094 9.171-20.625l-7.082-28.282c-1.783-7.12-11.902-7.12-13.685 0z" fill="#ff965a"/></g></g></g><g><g><path d="m297.831 78.715v57.792.003 52.153c-7.633 0-13.821-6.188-13.821-13.821v-61.026c0-13.479-7.586-25.903-19.707-31.799-.297-.145-.594-.286-.89-.423v-2.878h34.418z" fill="#783c28"/></g></g><g><path d="m153.233 175.186c-1.75 0-3.168-1.418-3.168-3.168v-9.594c0-1.75 1.418-3.168 3.168-3.168 1.75 0 3.168 1.418 3.168 3.168v9.594c0 1.75-1.418 3.168-3.168 3.168z" fill="#fff"/></g><g><path d="m223.257 175.186c-1.75 0-3.168-1.418-3.168-3.168v-9.594c0-1.75 1.418-3.168 3.168-3.168 1.75 0 3.168 1.418 3.168 3.168v9.594c0 1.75-1.419 3.168-3.168 3.168z" fill="#fff"/></g><g><path d="m163.457 257.869c6.351 10.593 17.941 17.686 31.19 17.686 5.74 0 11.166-1.335 15.992-3.704-2.075-13.015-13.347-22.963-26.946-22.963-8.026-.001-15.243 3.465-20.236 8.981z" fill="#dd544f"/></g><g><path d="m212.315 248.887h-36.357c-2.831 0-5.127-2.295-5.127-5.127v-4.55h46.611v4.55c0 2.832-2.295 5.127-5.127 5.127z" fill="#fff"/></g><g><path d="m149.246.158c-32.485.03-58.803 26.373-58.803 58.857v77.493.003 52.153c7.633 0 13.821-6.188 13.821-13.821v-61.026c0-.081 0-.162.001-.242.082-12.047 10.103-21.672 22.151-21.66l154.652.152c21.404.021 38.766-17.324 38.766-38.728v-53.339z" fill="#a55a3c"/></g><g><g><path d="m158.447 59.015c0-32.485 26.318-58.827 58.803-58.857l102.582-.095v-.063l-170.586.158c-32.485.03-58.803 26.373-58.803 58.857v77.493.003 52.153c7.633 0 13.821-6.188 13.821-13.821v-61.026c0-.081 0-.162.001-.242.082-12.047 10.103-21.672 22.151-21.66l32.032.031v-32.931z" fill="#783c28"/></g></g></g><g><g><path d="m161.266 426.243c-17.718 0-31.455 8.217-31.455 30.3v20.97c6.504 3.68 13.185 7.083 20.028 10.193v-31.162c0-8.858 4.237-12.839 11.427-12.839s11.555 3.98 11.555 12.839v34.022c0 2.315-.299 4.296-.867 5.96 6.314 2.18 12.741 4.119 19.27 5.806 1.056-3.384 1.626-7.29 1.626-11.766v-34.022c-.001-22.084-13.867-30.301-31.584-30.301z" fill="#fff"/></g><path d="m211.249 506.651c7.099 1.234 14.299 2.174 21.587 2.807l25.494-48.808c2.054-3.852 4.108-8.858 4.108-12.197v-16.048c0-3.081-4.879-6.163-8.73-6.163h-45.578c-4.364 0-8.729 3.082-8.729 6.163v19.9c0 3.466 4.493 6.162 9.886 6.162 5.264 0 10.143-2.696 10.143-6.162v-8.603h22.981v8.987z" fill="#fff"/></g><g><g><g><path d="m341.822 282.143 1.562 12.8 58.241 23.942 41.618-32.897c-16.955-7.568-35.737-11.781-55.504-11.781-16.13 0-31.554 2.792-45.917 7.936z" fill="#c8e6eb"/></g></g><path d="m371.628 482.328-2.674-1.085-7.71 6.128c3.504-1.605 6.966-3.286 10.384-5.043z" fill="#e4f2f6"/><g><path d="m360.193 419.568 8.956 62.344 1.837.746c36.997-18.882 68.874-46.558 92.757-80.417l-53.804-21.817z" fill="#fff"/><g><g><path d="m343.623 294.759-50.136 38.647 8.649 62.398 58.297 23.761 49.58-38.585-8.449-62.555z" fill="#373c41"/></g></g></g><g><path d="m360.433 419.565-58.363-23.709 67.012 86.107z" fill="#e4f2f6"/></g><path d="m498.708 331.334c-14.044-19.641-33.173-35.397-55.464-45.346l-41.68 32.437 8.449 62.554 53.538 21.532c15.177-21.457 27.14-45.404 35.157-71.177z" fill="#e4f2f6"/><g><g><path d="m302.743 396.051-9.166-62.715-14.1-5.646c-23.846 31.164-32.31 69.747-26.084 106.047z" fill="#a5c8cd"/></g></g><path d="m369.148 481.912-6.984-50.387c-7.924-5.881-15.269-12.66-21.741-20.089l-38.353-15.58-48.676 37.882c2.021 7.769 6.715 42.509 38.799 74.017 25.073-3.654 49.02-10.967 71.252-21.405z" fill="#c8e6eb"/><g><g><path d="m340.315 411.314c-20.594-23.696-33.134-54.572-33.38-88.373l-13.448 10.466 8.583 62.449z" fill="#1a1b1c"/></g></g><path d="m362.083 431.464 7.066 50.448 1.836.746c15.223-7.77 29.58-17.027 42.869-27.593-19.056-4.199-36.634-12.383-51.771-23.601z" fill="#e4f2f6"/><g><g><path d="m279.478 327.69 14.009 5.716 50.136-38.647-1.8-12.617c-24.935 8.909-46.523 24.932-62.345 45.548z" fill="#e4f2f6"/></g></g></g></g></svg>