<svg id="Layer_1" enable-background="new 0 0 509.98 509.98" height="512" viewBox="0 0 509.98 509.98" width="512" xmlns="http://www.w3.org/2000/svg"><g><g><path d="m508.687 229.35-6.584-11.938 3.14-11.501c-5.344-27.415-15.079-53.26-28.444-76.772l-26.869-38.525c-16.402-19.438-35.667-36.376-57.131-50.194h-276.23c-13.198 8.506-20.279 14.974-20.336 15.006 0 0-2.513 3.137-2.983 5.222-3.818 16.948-7.385 39.663-7.385 56.238 0 47.03 13.259 91.074 36.146 128.894h379.802l7.942-1.081c-.204-5.157-.561-10.275-1.068-15.349z" fill="#afe6ff"/><g><path d="m129.786 245.78c-24.915-39.389-39.348-86.067-39.348-136.12 0-18.615 2.007-36.753 5.795-54.234-56.408 44.938-93.336 113.295-96.072 190.354z" fill="#73c8f0"/></g></g><path d="m461.72 105.7h-285.492v23.438h300.574c-4.606-8.101-9.646-15.922-15.082-23.438z" fill="#fff"/><path d="m505.244 205.911h-332.748v23.438h336.206c-.791-7.927-1.958-15.742-3.458-23.438z" fill="#fff"/><g><path d="m168.765 306.123h232.187v23.438h-232.187z" fill="#d2f0ff"/></g><g><path d="m473.362 123.261c-6.957-11.51-14.806-22.416-23.438-32.643v316.248h9.908c4.819-6.488 9.33-13.223 13.53-20.173z" fill="#fff"/><g><path d="m352.398 37.924h23.438v380.661h-23.438z" fill="#fff"/></g><g><path d="m352.398 221.279h23.438v185.587h-23.438z" fill="#d2f0ff"/></g><g><path d="m352.398 117.419h23.438v31.209h-23.438z" fill="#d2f0ff"/></g><g><path d="m352.398 37.924h23.438v17.5h-23.438z" fill="#d2f0ff"/></g><g><path d="m254.87 9.966h23.438v408.619h-23.438z" fill="#d2f0ff"/></g></g><g><path d="m171.572 105.7h232.187v23.438h-232.187z" fill="#fff"/></g><g><path d="m170.168 205.911h232.187v23.438h-232.187z" fill="#fff"/></g><path d="m256.523 0h-3.77c-10.961.094-21.444.873-31.417 2.186-33.038 8.107-57.628 37.96-57.628 73.463v314.613h41.017v-314.613c0-19.097 15.535-34.632 34.632-34.632h154.379c-39.533-25.689-86.625-40.716-137.213-41.017z" fill="#0540e5"/><path d="m509.756 244.699h-420.542l45.855 74.893c59.126 96.57 181.108 135.049 284.111 88.017 42.545-19.426 74.548-50.148 84.999-98.39.178-1.087 5.801-23.477 5.801-54.239 0-3.445-.089-6.869-.224-10.281z" fill="#9dc63d"/><g fill="#69b76b"><path d="m129.111 244.699h-128.903c-1.721 43.297 7.325 84.203 24.634 120.339l233.585-15.621c-53.909-19.574-99.346-56.81-129.316-104.718z"/><path d="m504.179 309.219c-12.627 10.058-26.235 18.934-40.649 26.481l34.141-2.283c2.549-7.899 4.726-15.971 6.508-24.198z"/></g><g><path d="m52.797 190.035h60.201v167.011h-60.201z" fill="#ffa50a"/><path d="m224.042 28.177h-102.098l21.051 235.701h74.804c41.827 0 75.734-33.907 75.734-75.734v-90.476c0-38.379-31.112-69.491-69.491-69.491z" fill="#ffc305"/><g><g><path d="m223.339 134.33h-100.683c-22.577 0-40.879-4.442-40.879-27.019v-65.879c0-22.577 18.302-40.879 40.879-40.879h100.682c22.577 0 40.879 18.302 40.879 40.879v65.879c.001 22.577-18.301 27.019-40.878 27.019z" fill="#ffc305"/></g></g><path d="m124.393 107.311v-65.879c0-22.577 18.302-40.879 40.879-40.879h-42.615c-22.577 0-40.879 18.302-40.879 40.879v65.879c0 22.577 18.302 27.019 40.879 27.019h42.615c-22.577 0-40.879-4.442-40.879-27.019z" fill="#ffa50a"/><path d="m150.881 263.878v-166.209c0-38.379-11.681-69.492 26.699-69.492h-55.636c-38.379 0-69.492 31.113-69.492 69.492v90.475c0 41.827 33.907 75.734 75.734 75.734z" fill="#ffa50a"/><path d="m277.544 345.51h-47.375l-80.263 11.537-25.668-11.537h-17.92c-.181 0-.348 0-.527 0v115.603l2.818 2.697c41.427 29.092 91.904 46.17 146.371 46.17 15.176 0 30.065-1.333 44.552-3.893z" fill="#dd544f"/><path d="m70.968 345.752c-17.586 1.297-33.564 8.35-46.083 19.267 3.552 7.414 7.452 14.629 11.678 21.624l6.258.764.501 9.826c3.019 4.483 6.177 8.864 9.467 13.138l53.53-64.862c-31.401.015-31.419-.1-35.351.243z" fill="#d80a61"/><path d="m323.91 431.469h12c-1.47-38.433-33.177-69.25-71.962-69.25h-148.909c-6.573.003-11.496-.001-15.237-.003-11.38-.01-12.064-.009-14.705.222-19.321 1.425-36.464 10.552-48.534 24.204 2.168 3.589 4.42 7.121 6.757 10.592 10.122-12.848 25.371-21.554 42.74-22.835 2.134-.187 2.521-.196 13.733-.183 3.744.003 8.676.007 15.249.003h148.906c32.168.001 58.502 25.436 59.962 57.25z" fill="#fff"/><path d="m177.204 405.085c29.252 0 52.965-23.713 52.965-52.965v-6.61h-105.93v6.61c0 29.252 23.713 52.965 52.965 52.965z" fill="#d80a61"/><g><g><path d="m211.459 350.852c0 18.919-15.337 34.255-34.255 34.255-18.919 0-34.255-15.337-34.255-34.255v-76.726h68.51z" fill="#ffbe82"/></g></g><g><g><path d="m269.789 126.585c-.226-22.789-18.764-41.144-41.555-41.144h-49.373c-27.511 0-52.514 10.727-71.064 28.222v141.159c0 35.473 28.501 64.578 63.973 64.844.248.002.496.003.745.003 54.242 0 98.214-43.972 98.214-98.214z" fill="#ffbe82"/></g></g><g><g><path d="m293.533 186.594c0 12.593-10.209 22.802-22.802 22.802v-57.806c12.593 0 22.802 10.209 22.802 22.802z" fill="#ff965a"/></g></g><g><g><path d="m52.462 186.594c0 12.593 10.209 22.802 22.802 22.802v-57.806c-12.593 0-22.802 10.209-22.802 22.802z" fill="#ff965a"/></g></g><g><g><path d="m131.459 184.842v8.353c0 4.473 3.627 8.1 8.1 8.1s8.1-3.627 8.1-8.1v-8.353z" fill="#ff965a"/></g></g><g><g><path d="m197.609 184.842v8.353c0 4.473 3.627 8.1 8.1 8.1s8.1-3.627 8.1-8.1v-8.353z" fill="#ff965a"/></g></g><g><g><path d="m139.559 194.546c-4.473 0-8.1-3.627-8.1-8.1v-5.974l3.251-4.884-3.251-4.884v-6.41c0-4.473 3.627-8.1 8.1-8.1s8.1 3.627 8.1 8.1v22.153c0 4.472-3.626 8.099-8.1 8.099z" fill="#373c41"/></g></g><g><g><path d="m205.709 194.546c-4.473 0-8.1-3.627-8.1-8.1v-7.578l3.251-4.884-3.251-4.884v-4.806c0-4.473 3.627-8.1 8.1-8.1s8.1 3.627 8.1 8.1v22.153c0 4.472-3.627 8.099-8.1 8.099z" fill="#373c41"/></g></g><g><g><g><path d="m150.231 152.143h-23.622c-4.473 0-8.1-3.626-8.1-8.1 0-4.473 3.626-8.1 8.1-8.1h23.622c4.473 0 8.1 3.626 8.1 8.1 0 4.474-3.627 8.1-8.1 8.1z" fill="#ffa50a"/></g></g></g><g><g><g><path d="m217.73 152.143h-23.622c-4.473 0-8.1-3.626-8.1-8.1 0-4.473 3.626-8.1 8.1-8.1h23.622c4.473 0 8.1 3.626 8.1 8.1 0 4.474-3.626 8.1-8.1 8.1z" fill="#ffa50a"/></g></g></g><g><g><path d="m160.355 208.426c-2.014 7.095 1.646 14.825 8.644 17.154 1.408.469 2.915.723 4.48.723 1.566 0 3.072-.254 4.48-.723 6.998-2.33 10.658-10.059 8.644-17.154l-9.821-34.607c-.945-3.328-5.662-3.328-6.607 0z" fill="#ff965a"/></g></g><path d="m181.587 85.614c-58.684-.112-106.322 47.417-106.322 106.101v30.703c0 59.778 53.647 106.02 113.755 95.844-45.888-7.806-80.833-47.732-80.833-95.844.025-43.067-.004-63.055-.008-72.796-.003-7.711 6.302-14.033 14.013-14.05h.01 47.139c27.432 0 49.67-22.238 49.67-49.67-.001 0-7.166-.23-37.424-.288z" fill="#ff965a"/><path d="m125.5 46.189c-27.745 0-50.236 22.491-50.236 50.236v32.397 62.893c7.194 0 13.026-5.832 13.026-13.026v-15.956c0-18.728 15.182-33.91 33.91-33.91h47.139c27.432 0 49.67-22.238 49.67-49.67v-32.964z" fill="#ffc305"/><path d="m217.249 85.441c22.219 0 40.455 19.021 40.455 41.24v52.008c0 7.194 5.832 13.026 13.026 13.026v-110.125z" fill="#ffc305"/><path d="m204.465 240.048h-8.507l-22.404 4.651-22.404-4.651h-7.525c-2.524 0-4.542 2.204-4.205 4.705.644 4.787 2.258 9.266 4.637 13.234l45.365 13.444c10.245-5.029 17.668-14.928 19.249-26.678.336-2.502-1.682-4.705-4.206-4.705z" fill="#c3247d"/><path d="m144.059 257.985c6.105 10.184 17.247 17.003 29.985 17.003 5.518 0 10.734-1.284 15.374-3.561-1.994-12.512-12.831-22.076-25.905-22.076-7.716 0-14.653 3.331-19.454 8.634z" fill="#dd544f"/><g fill="#fff"><path d="m195.958 244.422c0 2.722-2.207 4.929-4.929 4.929h-34.952c-2.722 0-4.929-2.207-4.929-4.929v-4.374h44.809v4.374z"/><path d="m134.711 183.723c-1.796 0-3.251-1.456-3.251-3.251v-9.769c0-1.796 1.456-3.251 3.251-3.251 1.796 0 3.251 1.456 3.251 3.251v9.769c0 1.796-1.456 3.251-3.251 3.251z"/><path d="m200.86 182.119c-1.796 0-3.251-1.456-3.251-3.251v-9.768c0-1.796 1.456-3.251 3.251-3.251 1.796 0 3.251 1.456 3.251 3.251v9.769c.001 1.795-1.455 3.25-3.251 3.25z"/></g><path d="m52.797 410.365c15.784 20.508 34.613 38.546 55.818 53.437 2.817-6.967 4.383-14.574 4.383-22.55v-120.538h-60.201z" fill="#ffa50a"/></g><g><g><path d="m328.829 264.032 1.562 12.8 58.241 23.942 41.618-32.897c-16.955-7.568-35.737-11.781-55.504-11.781-16.131 0-31.555 2.792-45.917 7.936z" fill="#c8e6eb"/></g><path d="m355.961 463.132-49.586 39.41.28 2.17c27.792-5.734 54-15.995 77.773-30.024z" fill="#1a1b1c"/><g><path d="m458.852 408.165-2.99-21.961-58.918-23.891-49.745 39.144 1.723 11.992 15.195 25.014 22.337 10.585c15.901 4.67 29.748 4.421 43.828-8.904 10.382-9.825 19.945-20.52 28.57-31.979z" fill="#fff"/><g><path d="m330.629 276.648-50.136 38.647 8.649 62.398 58.297 23.76 49.58-38.585-8.449-62.554z" fill="#373c41"/></g></g><path d="m455.582 386.421 3.1 21.967c10.69-14.169 19.942-29.506 27.533-45.807z" fill="#373c41"/><path d="m307.092 501.983-24.394-9.018c5.173 4.715 10.88 9.159 16.833 13.123 2.571-.454 5.125-.96 7.669-1.491z" fill="#a5c8cd"/><path d="m347.439 401.453-58.363-23.708 67.013 86.107z" fill="#e4f2f6"/><path d="m430.251 267.877-41.68 32.438 8.449 62.554 58.563 23.553 30.633-23.84c4.385-9.415 8.212-19.15 11.443-29.168-13.968-29.042-37.917-52.374-67.408-65.537z" fill="#e4f2f6"/><g><path d="m289.749 377.94-9.166-62.715-14.099-5.646c-23.846 31.164-32.31 69.747-26.084 106.047z" fill="#a5c8cd"/></g><g><path d="m327.429 393.325-38.353-15.58-48.676 37.881c2.092 8.043 7.049 44.993 42.298 77.338.003.003-.003-.003 0 0l24.394 9.018 49.062-38.182-6.984-50.387c-7.924-5.881-15.269-12.66-21.741-20.088z" fill="#c8e6eb"/></g><g><path d="m327.321 393.203c-20.594-23.696-33.134-54.572-33.38-88.373l-13.448 10.466 8.583 62.449z" fill="#1a1b1c"/></g><path d="m430.251 440.143c-30.371 0-58.501-9.997-81.162-26.79l7.066 50.448 27.666 11.239c16.794-9.849 32.379-21.571 46.46-34.897-.01-.001-.02 0-.03 0z" fill="#e4f2f6"/><g><path d="m266.484 309.579 14.009 5.716 50.136-38.647-1.8-12.617c-24.935 8.909-46.523 24.932-62.345 45.548z" fill="#e4f2f6"/></g></g></g></svg>