<svg id="Layer_1" enable-background="new 0 0 510.826 510.826" height="512" viewBox="0 0 510.826 510.826" width="512" xmlns="http://www.w3.org/2000/svg"><g><g><path d="m255.413.826c-98.131 0-158.58 55.352-158.747 55.445 0 0-2.513 3.137-2.983 5.222-3.818 16.948-7.385 39.663-7.385 56.238 0 140.833 118.763 254.972 259.596 254.972 43.866 0 91.726-17.006 129.79-40.045 15.778-9.55 27.334-24.742 32.443-42.464 1.219-9.155 2.286-20.967 2.286-34.369 0-140.832-114.168-254.999-255-254.999z" fill="#78e9e1"/><path d="m345.871 365.505c-140.833 0-255-114.167-255-255 0-18.615 2.008-36.753 5.795-54.234-58.645 46.72-96.253 118.747-96.253 199.555 0 4.011.093 8.001.276 11.967l6.463 14.831-3.002 16.941c6.007 34.75 19.047 67.091 37.601 95.504l187.149 114.396c8.715.9 17.56 1.362 26.513 1.362 96.346 0 181.17-53.727 224.492-133.946z" fill="#5fd2d0"/></g><g><path d="m470.271 255.099-94.464-20.904-8.791 1.951c-31.488 6.989-53.894 34.913-53.894 67.167v73.563h166.778c.676-1.251 1.342-2.51 1.997-3.774l3.496-14.204 5.514-5.115c5.812-13.966 10.425-28.579 13.706-43.72.1-.613 1.934-8.012 3.514-19.87-5.235-17.32-19.457-31.022-37.856-35.094z" fill="#dd544f"/><g><g><path d="m314.218 376.877v-71.937c0-23.271 15.714-43.501 38.056-49.383l3.355-16.883-73.912 16.405c-23.374 5.188-40.007 25.917-40.007 49.86v71.938h19.412l4.634-5.19 4.373 5.19z" fill="#d80a61"/></g></g><path d="m454.459 265.196-78.617-17.396-78.309 17.381c-10.289 2.283-19.587 8.068-26.183 16.288s-10.228 18.552-10.228 29.09v66.319h9.007v-66.319c0-17.705 12.071-32.749 29.355-36.585l76.36-16.949 76.668 16.966c17.297 3.828 29.378 18.874 29.378 36.59v62.52c3.26-6.287 6.266-12.731 9.007-19.32v-43.201c0-10.545-3.636-20.88-10.237-29.101s-15.906-14.005-26.201-16.283z" fill="#fff"/><g><g><path d="m376.191 301.361c22.688 0 41.081-18.392 41.081-41.081v-16.909l-41.464-9.175-40.697 9.033v17.051c-.001 22.688 18.391 41.081 41.08 41.081z" fill="#d80a61"/></g></g><g><g><g><g><path d="m376.191 285.759c-15.066 0-27.279-12.213-27.279-27.279v-61.101h54.558v61.101c0 15.066-12.213 27.279-27.279 27.279z" fill="#ff965a"/></g></g></g></g><g><g><g><g><path d="m450.193 101.668c0-24.895-15.97-47.659-40.865-47.659h-66.274c-7.104 0-13.609 1.859-19.285 5.087v131.581c0 28.719 23.099 52.223 51.818 52.44.201.002.403.002.604.002 42.772 0 77.446-34.674 77.446-77.446v-24.45z" fill="#ffbe82"/></g></g></g></g><g><g><g><g><path d="m453.637 155.304v-46.033c10.029 0 18.158 8.13 18.158 18.158v9.717c0 10.028-8.129 18.158-18.158 18.158z" fill="#ff965a"/></g></g></g></g><g><g><g><g><path d="m279.82 137.145c0 10.029 8.13 18.158 18.158 18.158v-46.033c-10.029 0-18.158 8.13-18.158 18.158z" fill="#ff965a"/></g></g></g></g><g><g><g><g><path d="m342.729 136.733v5.461c0 3.562 2.888 6.45 6.45 6.45s6.45-2.888 6.45-6.45v-5.461z" fill="#ff965a"/></g></g></g></g><g><g><g><g><path d="m395.286 136.733v5.461c0 3.562 2.888 6.45 6.45 6.45s6.45-2.888 6.45-6.45v-5.461z" fill="#ff965a"/></g></g></g></g><g><g><g><path d="m380.388 243.007c-32.56-9.456-56.361-39.504-56.361-75.115.193-4.4 0-47.041 0-63.239 0-24.895 20.181-45.076 45.076-45.076h56.255c-4.949-1.922-10.344-2.985-16.031-2.985h-66.274c-24.895 0-43.369 18.475-43.369 43.369l-1.706 41.262v23.683c0 44.702 37.453 80.482 82.41 78.101z" fill="#ff965a"/></g></g></g><g><g><g><g><path d="m349.179 143.478c-3.562 0-6.45-2.888-6.45-6.45v-8.297l2.378-3.601-2.378-3.601v-2.143c0-3.562 2.888-6.45 6.45-6.45s6.45 2.888 6.45 6.45v17.641c0 3.563-2.888 6.451-6.45 6.451z" fill="#373c41"/></g></g></g></g><g><g><g><g><path d="m401.736 143.478c-3.562 0-6.45-2.888-6.45-6.45v-8.297l2.378-3.601-2.378-3.601v-2.143c0-3.562 2.888-6.45 6.45-6.45s6.45 2.888 6.45 6.45v17.641c.001 3.563-2.887 6.451-6.45 6.451z" fill="#373c41"/></g></g></g></g><g><g><g><g><g><path d="m357.677 109.711h-18.811c-3.562 0-6.45-2.888-6.45-6.45 0-3.562 2.888-6.45 6.45-6.45h18.811c3.562 0 6.45 2.888 6.45 6.45.001 3.562-2.887 6.45-6.45 6.45z" fill="#d77d14"/></g></g></g></g></g><g><g><g><g><g><path d="m411.43 109.711h-18.811c-3.562 0-6.45-2.888-6.45-6.45 0-3.562 2.888-6.45 6.45-6.45h18.811c3.562 0 6.45 2.888 6.45 6.45.001 3.562-2.887 6.45-6.45 6.45z" fill="#d77d14"/></g></g></g></g></g><g><g><path d="m399.942 179.163h-6.642l-17.492 3.632-17.492-3.632h-5.875c-1.971 0-3.546 1.72-3.283 3.674.503 3.737 1.763 7.234 3.62 10.332l35.419 10.496c7.999-3.927 13.794-11.655 15.029-20.828.261-1.954-1.313-3.674-3.284-3.674z" fill="#c3247d"/></g></g><g><g><g><g><path d="m365.739 152.635c-1.604 6.403 1.311 13.378 6.884 15.481 1.121.423 2.321.652 3.568.652s2.447-.229 3.568-.652c5.573-2.102 8.487-9.077 6.884-15.481l-5.316-21.227c-1.338-5.344-8.933-5.344-10.271 0z" fill="#ff965a"/></g></g></g></g><g><g><g><path d="m453.637 58.7v43.377.002 39.144c-5.729 0-10.373-4.644-10.373-10.373v-45.804c0-10.117-5.693-19.442-14.791-23.868-.223-.108-.446-.214-.668-.318v-2.16z" fill="#ffa50a"/></g></g></g><g><g><path d="m345.107 131.108c-1.313 0-2.378-1.065-2.378-2.378v-7.201c0-1.313 1.065-2.378 2.378-2.378 1.313 0 2.378 1.065 2.378 2.378v7.201c-.001 1.314-1.065 2.378-2.378 2.378z" fill="#fff"/></g></g><g><g><path d="m397.664 131.108c-1.313 0-2.378-1.065-2.378-2.378v-7.201c0-1.313 1.065-2.378 2.378-2.378 1.313 0 2.378 1.065 2.378 2.378v7.201c0 1.314-1.065 2.378-2.378 2.378z" fill="#fff"/></g></g><g><g><path d="m352.78 193.167c4.767 7.951 13.466 13.275 23.411 13.275 4.308 0 8.381-1.002 12.003-2.78-1.557-9.769-10.018-17.235-20.225-17.235-6.025-.001-11.441 2.6-15.189 6.74z" fill="#dd544f"/></g></g><g><g><path d="m389.452 186.426h-27.288c-2.125 0-3.848-1.723-3.848-3.848v-3.415h34.984v3.415c0 2.125-1.723 3.848-3.848 3.848z" fill="#fff"/></g></g><g><g><path d="m297.978 68.681v33.397.002 39.144c5.729 0 10.373-4.644 10.373-10.373v-45.805c0-.061 0-.121.001-.182.058-8.512 6.727-15.41 15.052-16.183z" fill="#d77d14"/></g></g><g><g><g><path d="m431.74 358.9c-18.031 0-32.701-10.66-32.701-23.763s14.67-23.763 32.701-23.763 32.701 10.66 32.701 23.763-14.67 23.763-32.701 23.763z" fill="#ffc305"/></g></g><g><g><path d="m431.74 315.126c15.692 0 28.948 9.164 28.948 20.011s-13.257 20.01-28.948 20.01c-15.692 0-28.948-9.164-28.948-20.01 0-10.847 13.256-20.011 28.948-20.011m0-7.505c-20.133 0-36.454 12.319-36.454 27.516s16.321 27.516 36.454 27.516 36.454-12.319 36.454-27.516-16.321-27.516-36.454-27.516z" fill="#fff"/></g></g></g><g><g><path d="m290.901 96.81h32.171c29.337 0 53.119-23.782 53.119-53.119v-32.17h-32.171c-29.337 0-53.119 23.782-53.119 53.119z" fill="#d77d14"/></g></g><g><g><path d="m458.473 86.385h-48.413c-31.635 0-57.28-25.645-57.28-57.28v-7.485c0-11.94 9.68-21.62 21.62-21.62h26.793c31.635 0 57.28 25.645 57.28 57.28z" fill="#ffa50a"/></g></g></g><g><path d="m188.861 404.28-53-11.728-45.345 57.773c8.82 7.486 18.156 14.383 27.946 20.63l62.128 28.71c8.318 2.549 16.816 4.685 25.472 6.382l4.757-4.123 4.251 5.722c4.57.727 9.181 1.332 13.829 1.812v-55.311c.001-23.954-16.648-44.691-40.038-49.867z" fill="#dd544f"/><path d="m54.245 412.535c4.925-3.512 10.523-6.192 16.619-7.797l3.355-16.883-32.455 7.203c3.922 6.005 8.082 11.838 12.481 17.477z" fill="#d80a61"/><path d="m176.969 413.947-50.781-11.237v9.225l48.835 10.807c18.278 4.044 31.043 19.943 31.043 38.664v44.631c2.984.585 5.986 1.121 9.007 1.601v-46.233c0-11.026-3.802-21.834-10.705-30.431-6.903-8.598-16.634-14.645-27.399-17.027z" fill="#fff"/><path d="m53.7 392.41v17.051c0 .829.032 1.65.08 2.467 10.886 14.04 23.206 26.908 36.739 38.394 1.401.145 2.822.22 4.261.22 22.688 0 41.081-18.392 41.081-41.081v-16.909l-41.464-9.175z" fill="#d80a61"/><g><g><g><g><path d="m94.781 434.94c-15.066 0-27.279-12.213-27.279-27.279v-61.101h54.558v61.101c0 15.066-12.213 27.279-27.279 27.279z" fill="#ff965a"/></g></g></g></g><g><g><g><g><path d="m168.783 250.849c0-24.895-15.97-47.659-40.865-47.659h-66.274c-7.104 0-13.609 1.859-19.285 5.087v131.581c0 28.719 23.099 52.223 51.818 52.44.201.002.403.002.605.002 42.772 0 77.446-34.674 77.446-77.446v-24.45z" fill="#ffbe82"/></g></g></g></g><g><g><g><g><path d="m172.227 304.485v-46.033c10.029 0 18.158 8.13 18.158 18.158v9.717c.001 10.028-8.129 18.158-18.158 18.158z" fill="#ff965a"/></g></g></g></g><path d="m.701 267.792c.498 10.779 1.667 21.381 3.463 31.77 3.247 3.045 7.602 4.923 12.405 4.923v-46.033c-6.827 0-12.767 3.771-15.868 9.34z" fill="#ff965a"/><g><g><g><g><path d="m61.319 285.914v5.461c0 3.562 2.888 6.45 6.45 6.45s6.45-2.888 6.45-6.45v-5.461z" fill="#ff965a"/></g></g></g></g><g><g><g><g><path d="m113.876 285.914v5.461c0 3.562 2.888 6.45 6.45 6.45s6.45-2.888 6.45-6.45v-5.461z" fill="#ff965a"/></g></g></g></g><g><g><g><path d="m98.979 392.188c-32.56-9.456-56.361-39.504-56.361-75.115.193-4.4 0-47.041 0-63.239 0-24.895 20.181-45.076 45.076-45.076h56.255c-4.949-1.922-10.344-2.985-16.031-2.985h-66.274c-24.895 0-43.369 18.475-43.369 43.369l-1.706 41.262v23.684c-.001 44.701 37.453 80.481 82.41 78.1z" fill="#ff965a"/></g></g></g><g><g><g><g><path d="m67.769 292.659c-3.562 0-6.45-2.888-6.45-6.45v-8.297l2.378-3.601-2.378-3.601v-2.143c0-3.562 2.888-6.45 6.45-6.45s6.45 2.888 6.45 6.45v17.641c.001 3.563-2.887 6.451-6.45 6.451z" fill="#373c41"/></g></g></g></g><g><g><g><g><path d="m120.327 292.659c-3.562 0-6.45-2.888-6.45-6.45v-8.297l2.378-3.601-2.378-3.601v-2.143c0-3.562 2.888-6.45 6.45-6.45s6.45 2.888 6.45 6.45v17.641c0 3.563-2.888 6.451-6.45 6.451z" fill="#373c41"/></g></g></g></g><g><g><g><g><g><path d="m76.268 258.892h-18.811c-3.562 0-6.45-2.888-6.45-6.45 0-3.562 2.888-6.45 6.45-6.45h18.811c3.562 0 6.45 2.888 6.45 6.45 0 3.562-2.888 6.45-6.45 6.45z" fill="#373c41"/></g></g></g></g></g><g><g><g><g><g><path d="m130.02 258.892h-18.81c-3.562 0-6.45-2.888-6.45-6.45 0-3.562 2.888-6.45 6.45-6.45h18.811c3.562 0 6.45 2.888 6.45 6.45 0 3.562-2.888 6.45-6.451 6.45z" fill="#373c41"/></g></g></g></g></g><g><g><path d="m118.532 328.344h-6.642l-17.492 3.632-17.492-3.632h-5.876c-1.971 0-3.546 1.72-3.283 3.674.503 3.737 1.763 7.234 3.62 10.332l35.419 10.496c7.999-3.927 13.794-11.655 15.029-20.828.263-1.953-1.312-3.674-3.283-3.674z" fill="#c3247d"/></g></g><g><g><g><g><path d="m84.33 301.816c-1.604 6.403 1.311 13.378 6.884 15.481 1.121.423 2.321.652 3.568.652s2.447-.229 3.568-.652c5.573-2.102 8.487-9.077 6.884-15.481l-5.316-21.227c-1.338-5.344-8.933-5.344-10.271 0z" fill="#ff965a"/></g></g></g></g><g><g><g><path d="m172.227 207.882v43.377.002 39.144c-5.729 0-10.373-4.644-10.373-10.373v-45.804c0-10.117-5.693-19.442-14.791-23.868-.223-.108-.446-.214-.668-.318v-2.16z" fill="#262a2d"/></g></g></g><g><g><path d="m63.697 280.289c-1.313 0-2.378-1.065-2.378-2.378v-7.201c0-1.313 1.065-2.378 2.378-2.378 1.313 0 2.378 1.065 2.378 2.378v7.201c0 1.314-1.065 2.378-2.378 2.378z" fill="#fff"/></g></g><g><g><path d="m116.254 280.289c-1.313 0-2.378-1.065-2.378-2.378v-7.201c0-1.313 1.065-2.378 2.378-2.378 1.313 0 2.378 1.065 2.378 2.378v7.201c0 1.314-1.065 2.378-2.378 2.378z" fill="#fff"/></g></g><g><g><path d="m71.37 342.348c4.767 7.951 13.466 13.275 23.411 13.275 4.308 0 8.381-1.002 12.003-2.78-1.557-9.769-10.018-17.235-20.225-17.235-6.024-.001-11.441 2.601-15.189 6.74z" fill="#dd544f"/></g></g><g><g><path d="m108.042 335.607h-27.288c-2.125 0-3.848-1.723-3.848-3.848v-3.415h34.984v3.415c0 2.125-1.723 3.848-3.848 3.848z" fill="#fff"/></g></g><g><g><path d="m60.704 148.918c-24.382.023-44.136 19.794-44.136 44.176v58.164.002 39.144c5.729 0 10.373-4.644 10.373-10.373v-45.804c0-.061 0-.121.001-.182.061-9.042 7.583-16.266 16.625-16.258l116.077.114c16.065.016 29.096-13.003 29.096-29.068v-40.033z" fill="#373c41"/></g></g><g><g><g><path d="m67.61 193.095c0-24.382 19.754-44.154 44.136-44.176l76.995-.071v-.048l-128.037.118c-24.382.023-44.136 19.794-44.136 44.176v58.164.002 39.144c5.729 0 10.373-4.644 10.373-10.373v-45.804c0-.061 0-.121.001-.182.061-9.042 7.583-16.266 16.626-16.258l24.042.024z" fill="#262a2d"/></g></g></g><g><path d="m150.33 460.555c-8.863 0-16.912 2.576-22.807 6.751l-2.625 7.615c14.944 8.921 30.876 16.353 47.595 22.099l7.575-2.824c1.902-3.01 2.964-6.355 2.964-9.877-.001-13.104-14.67-23.764-32.702-23.764z" fill="#ffc305"/><path d="m150.33 456.802c-13.709 0-25.644 5.715-31.869 14.157 2.123 1.354 4.272 2.669 6.437 3.961 4.958-6.258 14.616-10.613 25.432-10.613 15.692 0 28.948 9.164 28.948 20.01 0 4.776-2.572 9.224-6.788 12.709 2.681.922 5.382 1.801 8.103 2.635 3.909-4.384 6.191-9.662 6.191-15.344 0-15.196-16.321-27.515-36.454-27.515z" fill="#fff"/></g></g><g><path d="m190.426 64.883h-48.168c-16.651 0-30.198 13.547-30.198 30.198v24.07h20v-24.07c0-5.623 4.575-10.198 10.198-10.198h48.168z" fill="#2477f9"/></g><g><path d="m365.82 400.016v24.07c0 5.623-4.575 10.197-10.198 10.197h-51.088c0 .015.002.03.002.045v19.955h51.086c16.651 0 30.198-13.547 30.198-30.197v-24.07z" fill="#2477f9"/></g><g><path d="m188.279 64.883h40.621v20h-40.621z" fill="#0540e5"/></g><g><path d="m268.98 434.284h36.382v20h-36.382z" fill="#0540e5"/></g><g><path d="m296.771 496.16-51.875-51.876 51.876-51.875 14.141 14.142-37.733 37.733 37.734 37.733z" fill="#2477f9"/></g><g><path d="m201.109 126.759-14.143-14.142 37.734-37.734-37.733-37.732 14.141-14.143 51.876 51.875z" fill="#2477f9"/></g></g></svg>