<svg id="Layer_1" enable-background="new 0 0 511.522 511.522" height="512" viewBox="0 0 511.522 511.522" width="512" xmlns="http://www.w3.org/2000/svg"><g><g><path d="m427.321 67.795-341.436 49.872c0 140.833 118.763 254.972 259.596 254.972 54.231 0 114.568-25.992 154.949-57.243.903-.699 3.769-5.396 3.769-5.396.178-1.087 5.8-23.477 5.8-54.239.001-74.396-31.858-141.351-82.678-187.966z" fill="#afe6ff"/><path d="m345.459 365.44c-140.833 0-255-114.167-255-255l-10.927-39.688c-48.976 46.467-79.532 112.171-79.532 185.009 0 28.427 4.652 55.768 13.235 81.303l80.469 116.213c43.946 35.93 100.103 57.483 161.295 57.483 121.17 0 224.116-84.98 249.2-200.761-43.559 34.696-98.724 55.441-158.74 55.441z" fill="#73c8f0"/></g><g><path d="m108.673 46.945v322.161l51.352 57.87c23.918 26.954 58.23 42.38 94.266 42.38 36.557 0 71.313-15.874 95.251-43.503l49.938-57.638v-321.27l-57.22-19.001h-87.675l-81.095-2.229z" fill="#ffc305"/><path d="m255 .761c-24.487 0-46.627 3.447-66.07 8.622v23.953c21.564-2.401 43.094-3.619 64.497-3.619 47.676 0 95.977 5.99 143.887 17.824v245.665c0 57.861-31.347 111.391-81.809 139.702l-60.285 33.822-3.539-1.941v34.217l3.702 2.031 74.8-41.965c59.989-33.656 97.13-97.08 97.13-165.865v-225.402c-45.382-41.629-105.876-67.044-172.313-67.044z" fill="#fff5aa"/><path d="m79.54 70.761v221.222c0 69.435 37.84 133.352 98.718 166.746l76.326 41.868v-34.217l-61.898-33.954c-51.287-28.133-83.146-81.948-83.146-140.443v-244.442c26.361-6.511 52.84-11.243 79.268-14.189 7.566-.843 13.262-7.291 13.262-14.904 0-4.431-1.912-8.372-4.918-11.105-63.487 14.672-100.768 48.79-100.899 48.863-5.784 4.608-11.354 9.471-16.713 14.555z" fill="#ffe65a"/><g><g><g><path d="m194.278 56.429 2.016 16.516 75.147 30.891 53.699-42.446c-21.877-9.765-46.111-15.201-71.616-15.201-20.814.001-40.715 3.604-59.246 10.24z" fill="#c8e6eb"/></g></g><g><g><path d="m310.842 388.416-5.339-44.155-76.217-30.938-63.98 50.849 1.41 10.916c44.764 25.409 97.674 29.318 144.126 13.328z" fill="#1a1b1c"/></g></g><g><g><g><path d="m282.165 183.239-64.185 50.507 11.556 80.44 75.304 30.591 64.326-50.061-10.98-80.651z" fill="#fff"/></g></g><g><g><path d="m196.601 72.709-64.689 49.864 11.159 80.511 75.22 30.657 63.971-49.785-10.901-80.712z" fill="#373c41"/></g></g></g><g><g><path d="m357.825 214.346 11.341 80.37 36.865 15.075c14.851-25.799 23.386-55.803 23.386-87.708 0-19.687-3.236-38.618-9.202-56.292z" fill="#373c41"/></g></g><g><g><path d="m406.031 309.791-36.865-15.227-64.326 50.213 6.002 43.639c40.352-13.915 74.165-42.2 95.189-78.625z" fill="#b4d7dc"/></g></g><g><g><path d="m166.232 363.452-31.475-11.636c9.597 8.747 20.599 16.802 31.959 23.272z" fill="#a5c8cd"/></g></g><g><path d="m218.291 233.741-75.305-30.591 86.465 111.102z" fill="#e4f2f6"/></g><g><g><path d="m325.14 61.391-53.779 41.853 10.901 80.712 75.563 30.39 62.39-48.554c-15.744-46.639-50.515-84.512-95.075-104.401z" fill="#e4f2f6"/></g></g><g><g><path d="m143.855 203.402-11.826-80.919-18.192-7.285c-30.768 40.211-41.689 89.993-33.655 136.83z" fill="#a5c8cd"/></g></g><g><g><path d="m192.472 223.253-49.486-20.103-62.805 48.878c2.699 10.377 9.095 58.053 54.576 99.788.004.004-.004-.004 0 0l31.475 11.636 63.304-49.266-9.012-65.014c-10.224-7.588-19.701-16.334-28.052-25.919z" fill="#c8e6eb"/></g></g><g><g><path d="m192.332 223.096c-26.572-30.574-42.752-70.413-43.069-114.026l-17.352 13.504 11.075 80.577z" fill="#1a1b1c"/></g></g><g><g><path d="m366.94 278.66 2.225 16.056 36.865 15.075c10.389-18.046 17.552-38.046 20.977-58.614-17.838 12.694-38.149 22.14-60.067 27.483z" fill="#1a1b1c"/></g></g><g><g><path d="m220.419 249.094 9.117 65.092 75.304 30.591 64.326-50.061-2.419-16.007c-13.339 3.236-27.272 4.953-41.607 4.953-39.187-.001-75.482-12.9-104.721-34.568z" fill="#e4f2f6"/></g></g><g><g><path d="m113.836 115.198 18.075 7.375 64.689-49.865-2.323-16.279c-32.171 11.494-60.026 32.169-80.441 58.769z" fill="#e4f2f6"/></g></g></g><path d="m13.241 337.062c5.984 17.801 13.879 34.723 23.441 50.523l37.78 48.246c6.115 6.131 12.541 11.951 19.25 17.438h41.044v-116.207z" fill="#d80a61"/><g><path d="m511.522 453.269h-136.279v-116.207h136.279l-16.676 58.103z" fill="#d80a61"/></g><path d="m36.68 387.586c8.04 13.287 17.269 25.772 27.522 37.329h381.613c8.934-10.065 17.083-20.855 24.359-32.272v-83.935h-433.494z" fill="#dd544f"/><g><path d="m427.314 308.709h42.86v116.207h-42.86z" fill="#dd544f"/></g><g fill="#fff"><path d="m79.342 340.031c0-2.656 2.822-3.984 5.644-3.984h28.798c2.739 0 3.901 2.905 3.901 5.561 0 3.071-1.411 5.727-3.901 5.727h-21.495v14.026h12.532c2.49 0 3.9 2.406 3.9 5.062 0 2.24-1.162 4.896-3.9 4.896h-12.532v21.412c0 2.655-3.236 3.983-6.473 3.983s-6.474-1.328-6.474-3.983z"/><path d="m120.844 377.627v-21.993c0-14.275 8.88-19.587 20.333-19.587s20.416 5.312 20.416 19.587v21.993c0 14.274-8.963 19.586-20.416 19.586s-20.333-5.312-20.333-19.586zm27.802-21.993c0-5.727-2.822-8.3-7.469-8.3s-7.386 2.573-7.386 8.3v21.993c0 5.727 2.739 8.299 7.386 8.299s7.469-2.572 7.469-8.299z"/><path d="m169.232 377.627v-21.993c0-14.275 8.88-19.587 20.333-19.587s20.416 5.312 20.416 19.587v21.993c0 14.274-8.963 19.586-20.416 19.586s-20.333-5.312-20.333-19.586zm27.802-21.993c0-5.727-2.822-8.3-7.469-8.3s-7.386 2.573-7.386 8.3v21.993c0 5.727 2.739 8.299 7.386 8.299s7.469-2.572 7.469-8.299z"/><path d="m253.308 336.047c2.739 0 3.9 2.988 3.9 5.727 0 3.154-1.411 5.893-3.9 5.893h-11.453v45.065c0 2.655-3.237 3.983-6.473 3.983-3.237 0-6.474-1.328-6.474-3.983v-45.065h-11.453c-2.49 0-3.9-2.738-3.9-5.893 0-2.738 1.162-5.727 3.9-5.727z"/><path d="m262.357 340.031c0-2.656 2.822-3.984 5.644-3.984h17.014c8.299 0 16.599 2.988 16.599 14.773 0 6.722-2.656 11.121-7.055 13.029 5.062 1.909 8.548 4.979 8.548 13.279v1.742c0 13.113-7.303 17.844-16.682 17.844h-18.424c-3.486 0-5.644-1.826-5.644-3.9zm12.864 18.839h8.714c3.154 0 4.73-2.904 4.73-5.727 0-2.904-1.577-5.81-4.73-5.81h-8.714zm8.3 26.558c4.15 0 6.64-2.323 6.64-7.635v-1.328c0-5.644-2.49-7.636-6.64-7.636h-8.299v16.599z"/><path d="m305.683 391.403c0-.249.083-.581.166-.913l15.437-50.625c.913-2.905 4.647-4.315 8.465-4.315 3.817 0 7.552 1.41 8.465 4.315l15.52 50.625c.083.332.166.664.166.913 0 3.07-4.73 5.312-8.299 5.312-2.075 0-3.735-.664-4.233-2.407l-2.821-10.374h-17.512l-2.822 10.374c-.498 1.743-2.158 2.407-4.232 2.407-3.569 0-8.3-2.241-8.3-5.312zm30.127-17.428-6.059-22.242-6.059 22.242z"/><path d="m364.362 396.715c-2.822 0-5.644-1.328-5.644-3.983v-52.783c0-2.739 3.237-3.901 6.474-3.901s6.473 1.162 6.473 3.901v45.479h18.922c2.49 0 3.735 2.822 3.735 5.644s-1.245 5.644-3.735 5.644h-26.225z"/><path d="m405.197 396.715c-2.822 0-5.644-1.328-5.644-3.983v-52.783c0-2.739 3.237-3.901 6.474-3.901s6.473 1.162 6.473 3.901v45.479h18.922c2.49 0 3.735 2.822 3.735 5.644s-1.245 5.644-3.735 5.644h-26.225z"/></g><path d="m74.457 435.836 60.3 17.432 1.135-28.354h-71.69c3.315 3.738 6.728 7.386 10.255 10.922z" fill="#c3247d"/><g><path d="m470.174 424.915-94.931 28.354.404-28.354z" fill="#c3247d"/></g></g></g></svg>