<svg id="Layer_1" enable-background="new 0 0 510 510" height="512" viewBox="0 0 510 510" width="512" xmlns="http://www.w3.org/2000/svg"><g><g><path d="m255 0c-5.852 0-11.571.197-17.15.567l-120.01 39.071c-14.004 8.899-21.528 15.775-21.586 15.807 0 0-2.513 3.137-2.983 5.222-3.818 16.948-7.385 39.663-7.385 56.238 0 51.66 15.995 99.717 43.183 139.877h380.921c.004-.592.01-1.182.01-1.782 0-140.833-114.167-255-255-255z" fill="#afe6ff"/><g><path d="m137.15 256.783c-29.406-41.565-46.691-92.315-46.691-147.104 0-18.615 2.007-36.753 5.795-54.234-58.645 46.72-96.254 118.747-96.254 199.555 0 .596.018 1.188.023 1.783z" fill="#73c8f0"/></g></g><path d="m0 255.009c.001 16.98 1.661 33.572 4.827 49.623l153.856 186.551c29.717 12.131 62.236 18.817 96.317 18.817 108.732 0 202.791-68.43 239.079-166.141l15.324-71.344c.368-5.423.597-11.294.597-17.507h-510z" fill="#9dc63d"/><g><g><path d="m196.012 119.555c-13.082-1.19-26.11-1.197-39.082-.035-31.625 2.832-55.736 29.581-55.736 61.333v48.876h150.74v-48.82c0-31.823-24.23-58.472-55.922-61.354z" fill="#d80a61"/></g><path d="m162.686 17.141v197.121h75.165v-213.689c-29.045 1.928-54.322 8.554-75.165 16.568z" fill="#fff"/><path d="m117.841 39.64v174.623h45.923v-197.536c-19.168 7.274-34.646 15.747-45.923 22.913z" fill="#e4f2f6"/><path d="m256.869 207.807c-9.012-25.332-33.201-43.469-61.625-43.469h-37.36c-28.238 0-52.295 17.899-61.446 42.971l-3.945 43.271v87.728h168.141v-89.143z" fill="#dd544f"/><g><path d="m92.493 254.419v45.86l12.192-21.414c8.281-14.546 21.628-25.348 37.582-30.415l-7.257-22.846c-16.819 5.342-31.509 15.367-42.517 28.815z" fill="#fff"/></g><g><path d="m97.326 241.277c9.307-13.912 23.397-23.725 39.674-27.631l-5.594-23.309c-12.897 3.095-24.784 8.914-34.967 16.973-2.552 6.993-3.945 14.544-3.945 22.42v18.77z" fill="#fff"/></g><g><path d="m260.634 254.966c-11.055-13.724-25.915-23.948-42.961-29.363l-7.257 22.846c15.954 5.067 29.3 15.869 37.582 30.415l12.636 22.195z" fill="#fff"/></g><g><path d="m260.634 229.729c0-7.69-1.327-15.069-3.765-21.922-10.32-8.317-22.431-14.313-35.592-17.471l-5.593 23.309c16.277 3.906 30.366 13.719 39.673 27.631l5.277 7.889z" fill="#fff"/></g><g><path d="m213.309 146.188c-26.067-8.255-50.46-7.803-73.464-.132-6.615 2.206-10.869 8.652-10.454 15.612l7.546 126.708h79.69l7.53-126.443c.425-7.114-4.053-13.593-10.848-15.745z" fill="#d80a61"/></g><g><path d="m231.234 343.65c5.095-9.046 8.015-19.481 8.015-30.603 0-34.499-27.967-62.467-62.467-62.467s-62.467 27.967-62.467 62.467c0 11.122 2.92 21.557 8.015 30.603z" fill="#fff"/></g><g><path d="m261.072 349.042c-51.723 31.696-116.855 31.696-168.578 0 0-19.43 0-23.792 0-43.222 51.723 31.696 116.855 31.696 168.578 0z" fill="#373c41"/></g><g><path d="m134.598 254.303c-.937 0-1.885-.257-2.736-.793-2.399-1.514-3.117-4.687-1.604-7.086.832-1.318 21.167-32.345 90.002-36.531 2.835-.193 5.267 1.984 5.439 4.815s-1.983 5.267-4.815 5.438c-63.636 3.871-81.762 31.48-81.938 31.76-.976 1.548-2.644 2.397-4.348 2.397z" fill="#373c41"/></g><g><path d="m131.872 212.704c-1.109 0-2.225-.357-3.166-1.094-2.232-1.75-2.624-4.979-.874-7.212 1.066-1.36 26.896-33.356 95.414-37.522 2.831-.195 5.267 1.984 5.439 4.815s-1.983 5.267-4.815 5.438c-63.955 3.89-87.72 33.31-87.953 33.606-1.013 1.293-2.521 1.969-4.045 1.969z" fill="#373c41"/></g><g><path d="m134.598 254.303c-.937 0-1.885-.257-2.736-.793-2.399-1.514-3.117-4.687-1.604-7.086.832-1.318 21.167-32.345 90.002-36.531 2.835-.193 5.267 1.984 5.439 4.815s-1.983 5.267-4.815 5.438c-63.636 3.871-81.762 31.48-81.938 31.76-.976 1.548-2.644 2.397-4.348 2.397z" fill="#1a1b1c"/></g><g><path d="m131.872 212.704c-1.109 0-2.225-.357-3.166-1.094-2.232-1.75-2.624-4.979-.874-7.212 1.066-1.36 26.896-33.356 95.414-37.522 2.831-.195 5.267 1.984 5.439 4.815s-1.983 5.267-4.815 5.438c-63.955 3.89-87.72 33.31-87.953 33.606-1.013 1.293-2.521 1.969-4.045 1.969z" fill="#1a1b1c"/></g><g><path d="m220.836 254.303c-1.694 0-3.352-.838-4.331-2.368-.274-.415-19.07-27.963-81.956-31.788-2.832-.172-4.987-2.607-4.815-5.438s2.604-5.003 5.439-4.815c68.835 4.187 89.17 35.213 90.002 36.531 1.514 2.399.796 5.572-1.604 7.086-.85.535-1.799.792-2.735.792z" fill="#373c41"/></g><g><path d="m223.562 212.704c-1.519 0-3.021-.67-4.034-1.953-.342-.424-24.583-29.767-87.965-33.621-2.832-.172-4.987-2.607-4.815-5.438s2.608-5.005 5.439-4.815c68.517 4.166 94.348 36.162 95.414 37.522 1.75 2.232 1.359 5.462-.874 7.212-.939.736-2.057 1.093-3.165 1.093z" fill="#373c41"/></g><g><path d="m173.245 219.801c0-2.378-1.619-4.456-3.931-5.01-9.767-2.341-21.079-4.104-34.141-4.898-3.01-.199-5.566 2.261-5.445 5.347.105 2.68 2.392 4.757 5.069 4.922 12.318.763 22.935 2.438 32.052 4.639 3.256.786 6.396-1.65 6.396-5z" fill="#1a1b1c"/></g><g><path d="m173.245 177.52c0-2.359-1.59-4.422-3.876-5.006-10.675-2.724-23.015-4.777-37.182-5.638-3.006-.201-5.567 2.262-5.444 5.348.107 2.681 2.394 4.755 5.072 4.921 13.35.827 24.954 2.787 34.963 5.367 3.276.844 6.467-1.609 6.467-4.992z" fill="#1a1b1c"/></g></g><g><g fill="#fa870a"><path d="m452.828 94.068-12.453-60.754c-.896-4.373-2.509-8.161-4.647-11.362-.07-.105-.141-.21-.213-.314-9.448-13.76-31.069-6.874-31.069 9.817v62.613z"/><path d="m464.202 149.554-6.084-29.678h-53.671v29.678z"/><path d="m404.447 175.362v80.761h81.598l-16.554-80.761z"/></g><g fill="#ff640a"><path d="m420.946 94.068 14.782-72.116c-13.827-20.711-49.604-16.924-55.402 11.362l-12.453 60.754z"/><path d="m409.573 149.554 6.083-29.678h-53.073l-6.084 29.678z"/><path d="m485.832 255.083c-44.987 0-79.871-36.733-79.858-79.721h-54.765l-27.373 133.541h173.027z"/></g><path d="m308.59 272.515v71.339h185.476c4.151-11.177 7.559-22.731 10.134-34.616.142-.867 3.747-15.303 5.2-36.724h-200.81z" fill="#cd5014"/><g><g><path d="m362.429 120.626h95.843l-5.535-27h-84.774z" fill="#ffd23c"/></g><g><path d="m469.546 175.629-5.534-27h-107.323l-5.534 27z" fill="#ffd23c"/></g></g></g><g><g fill="#fa870a"><path d="m99.412 257.774-12.458-60.776c-.896-4.373-2.509-8.161-4.647-11.363-.071-.106-.143-.212-.215-.318-9.585-13.956-31.516-6.968-31.516 9.963v62.493h48.836z"/><path d="m110.717 312.93-6.016-29.348h-54.125v29.348z"/><path d="m50.576 338.738v13.684c0 47.402 38.427 85.829 85.829 85.829l-20.398-99.513z"/></g><g fill="#ff640a"><path d="m67.52 257.774 14.787-72.138c-13.827-20.711-49.604-16.924-55.402 11.362l-12.458 60.776z"/><path d="m56.215 312.93 6.016-29.348h-53.074l-4.314 21.047c.55 2.786 1.161 5.549 1.8 8.302h49.572z"/><path d="m76.547 437.113h59.624l-3.76-18.346c-45.095 0-80.039-36.909-79.858-80.03h-38.452c13.054 37.563 34.646 71.124 62.446 98.376z"/></g><path d="m158.69 491.165v-54.966h-83.094c23.628 23.396 51.809 42.194 83.094 54.966z" fill="#cd5014"/><g><g><path d="m9.008 284.31h95.843l-5.535-27h-84.774z" fill="#ffd23c"/></g><path d="m110.591 312.313h-104.121c2.114 9.202 4.739 18.208 7.819 27h101.837z" fill="#ffd23c"/></g></g><g><g><g><path d="m297.085 217.795 1.442 11.816 53.763 22.101 38.418-30.367c-15.652-6.986-32.989-10.875-51.237-10.875-14.89 0-29.128 2.577-42.386 7.325z" fill="#c8e6eb"/></g></g><g><g><path d="m380.479 455.311-3.82-31.59-54.529-22.134-45.773 36.379 1.009 7.809c32.026 18.179 69.88 20.976 103.113 9.536z" fill="#1a1b1c"/></g></g><g><g><g><path d="m359.963 308.52-45.92 36.134 8.267 57.55 53.875 21.886 46.021-35.816-7.855-57.7z" fill="#fff"/></g></g><g><g><path d="m298.747 229.442-46.281 35.675 7.984 57.601 53.815 21.933 45.767-35.618-7.799-57.745z" fill="#373c41"/></g></g></g><g><g><path d="m414.093 330.775 8.114 57.5 26.375 10.785c10.625-18.457 16.731-39.923 16.731-62.75 0-14.085-2.315-27.629-6.583-40.273z" fill="#373c41"/></g></g><g><g><path d="m448.581 399.06-26.375-10.894-46.021 35.924 4.294 31.221c28.87-9.955 53.061-30.191 68.102-56.251z" fill="#b4d7dc"/></g></g><g><g><path d="m277.02 437.451-22.518-8.325c6.866 6.258 14.737 12.021 22.865 16.65z" fill="#a5c8cd"/></g></g><g><path d="m314.265 344.651-53.876-21.886 61.86 79.487z" fill="#e4f2f6"/></g><g><g><path d="m390.709 221.345-38.476 29.943 7.799 57.745 54.061 21.742 44.636-34.738c-11.264-33.367-36.14-60.462-68.02-74.692z" fill="#e4f2f6"/></g></g><g><g><path d="m261.01 322.945-8.461-57.893-13.015-5.212c-22.013 28.768-29.826 64.384-24.078 97.894z" fill="#a5c8cd"/></g></g><g><g><path d="m295.793 337.147-35.404-14.382-44.933 34.969c1.931 7.424 6.507 41.534 39.045 71.392.003.003-.003-.003 0 0l22.518 8.325 45.29-35.247-6.447-46.513c-7.314-5.429-14.095-11.686-20.069-18.544z" fill="#c8e6eb"/></g></g><g><g><path d="m295.693 337.035c-19.011-21.874-30.587-50.376-30.813-81.579l-12.414 9.661 7.923 57.648z" fill="#1a1b1c"/></g></g><g><g><path d="m420.614 376.788 1.592 11.487 26.375 10.785c7.433-12.911 12.557-27.22 15.008-41.935-12.763 9.082-27.294 15.84-42.975 19.663z" fill="#1a1b1c"/></g></g><g><g><path d="m315.787 355.635 6.523 46.569 53.876 21.886 46.021-35.816-1.731-11.452c-9.544 2.315-19.512 3.543-29.767 3.543-28.037.001-54.003-9.228-74.922-24.73z" fill="#e4f2f6"/></g></g><g><g><path d="m239.534 259.841 12.932 5.277 46.281-35.675-1.662-11.647c-23.017 8.222-42.946 23.014-57.551 42.045z" fill="#e4f2f6"/></g></g></g></g></svg>