<svg id="Layer_1" enable-background="new 0 0 524.434 524.434" height="512" viewBox="0 0 524.434 524.434" width="512" xmlns="http://www.w3.org/2000/svg"><g><g><path d="m493.04 208.991c-23.929-115.28-123.981-201.774-243.793-201.774-95.917 0-155.003 55.352-155.165 55.445 0 0-2.457 3.137-2.916 5.222-3.732 16.948-7.219 39.663-7.219 56.238 0 29.759 5.201 58.318 14.676 84.868h394.417z" fill="#b6fff6"/><path d="m88.418 116.896c0-18.615 1.962-36.753 5.664-54.234-43.948 35.82-75.793 86.521-88.268 144.645l11.847 1.684h87.522c-10.818-28.567-16.765-59.619-16.765-92.095z" fill="#78e9e1"/></g><g><path d="m227.32 353.233c33.571 16.556 71.087 25.862 110.367 25.862 33.461 0 69.294-10.363 101.104-25.862z" fill="#9dc63d"/><path d="m431.406 353.233c-28.938 12.03-60.581 18.663-93.741 18.663-33.155 0-64.79-6.64-93.726-18.663h-213.094l-11.646 7.25c37.608 92.046 126.437 156.733 230.047 156.733 92.519 0 174.169-51.858 217.16-129.747z" fill="#69b76b"/></g><g><g><path d="m166.781 103.868c12.484 11.297 13.446 30.576 2.148 43.061l-33.142 37.745c-4.619 5.261-7.296 11.695-7.996 18.373h-86.85c.301-.428.591-.87.899-1.287l-.002-.029c73.494-85.909 54.339-63.519 81.881-95.714 11.299-12.485 30.578-13.446 43.062-2.149z" fill="#ffbe82"/></g><g><path d="m146.065 87.278 1.025.829c4.356 3.526 5.029 9.916 1.503 14.273l-17.481 21.596c-6.262 7.736-17.61 9.292-25.347 3.03l36.335-42.252c1.385.673 2.716 1.514 3.965 2.524z" fill="#ffcea1"/></g><g><path d="m369.22 103.868c-12.484 11.297-13.446 30.576-2.148 43.061l33.142 37.745c4.619 5.261 7.296 11.695 7.996 18.373h86.85c-.301-.428-.591-.87-.899-1.287l.002-.029c-73.494-85.909-54.339-63.519-81.881-95.714-11.299-12.485-30.578-13.446-43.062-2.149z" fill="#ffbe82"/></g><g><path d="m389.937 87.278-1.025.829c-4.356 3.526-5.029 9.916-1.503 14.273l17.481 21.596c6.262 7.736 17.61 9.292 25.347 3.03l-36.336-42.252c-1.385.673-2.716 1.514-3.964 2.524z" fill="#ffcea1"/></g><g><path d="m89.193 198.042 18.366 62.652 86.05 22.449 64.168-64.494-25.226-89.058-79.389-14.319c-28.26 20.988-50.61 49.649-63.969 82.77z" fill="#e4f2f6"/><g fill="#c8e6eb"><path d="m158.455 428.282c31.046 21.459 68.741 34.068 109.337 34.068 19.42 0 38.301-2.928 55.974-8.278l-19.589-68.714-86.327-20.892z"/><path d="m398.105 175.656 42.144 8.711c-13.582-27.337-33.751-51.199-58.045-69.257z"/><path d="m267.792 77.415c-42.951 0-82.608 14.076-114.63 37.857l75.744 18.398 52.677-55.758c-4.535-.319-9.175-.497-13.791-.497z"/></g><path d="m339.091 238.219-85.352-20.542-60.466 63.646 24.886 84.188 85.352 20.542 61.094-63.495z" fill="#fff"/><path d="m76.745 293.289 34.188-31.783-21.74-63.464c-8.882 22.139-13.868 46.526-13.868 71.84 0 7.876.501 15.78 1.42 23.407z" fill="#b4d7dc"/><path d="m107.559 260.694-30.814 32.595c6.814 55.85 37.609 104.476 81.71 134.992l59.704-62.771-24.886-84.188z" fill="#1a1b1c"/><path d="m228.852 133.489 24.886 84.188 85.352 20.542 60.122-63.729-17.008-59.381c-28.45-20.985-63.234-34.537-100.622-37.197z" fill="#373c41"/><path d="m460.259 269.883c0-30.72-7.209-59.752-20.01-85.516l-41.037-9.876-60.466 63.646 25.471 84.329 81.969 19.756c9.06-22.328 14.073-46.761 14.073-72.339z" fill="#e4f2f6"/><path d="m446.187 342.221-81.969-19.756-60.466 63.646 20.014 67.96c55.691-16.925 100.737-58.408 122.421-111.85z" fill="#373c41"/><path d="m201.228 272.95c-26.68-33.034-42.731-75.143-42.731-120.913 0-11.858 1.09-23.459 3.145-34.724l-8.479-2.041c-29.291 21.758-51.112 50.894-63.969 82.77l18.366 62.652 85.713 20.629z" fill="#c8e6eb"/><path d="m343.147 344.332c-57.309-2.29-108.164-29.633-141.919-71.383l-7.955 8.373 24.886 84.188 85.352 20.542z" fill="#e4f2f6"/><path d="m413.127 334.236c-19.501 6.654-40.409 10.267-62.163 10.267-2.523 0-5.031-.064-7.531-.16l-39.922 41.71 20.256 68.018c56.172-17.072 100.932-58.977 122.42-111.85.014-.035-.014.034 0 0z" fill="#1a1b1c"/></g><path d="m498.494 262.217c0-18.853-2.018-37.221-5.812-54.909h-34.732v153.178l19.179 5.262 2.162-5.262c5.74-14.062 10.303-28.776 13.534-44.031.173-1.086 5.669-23.476 5.669-54.238z" fill="#ffaa71"/><g><path d="m524.434 264.384c0 16.032-12.891 29.13-28.97 29.337l-36.49.47c-16.207.209-29.515-12.76-29.724-28.967-.22-16.195 12.76-29.515 28.967-29.724l36.49-.47c16.207-.209 29.515 12.76 29.724 28.967.002.13.003.259.003.387z" fill="#ffbe82"/></g><g><path d="m475.748 263.875c-.343-10.796-9.272-19.373-20.12-19.234l-17.301.223c-4.549.059-8.461 3.355-9.157 7.85-1.166 7.538-.95 15.621.571 24.22.796 4.5 4.798 7.728 9.367 7.669l16.514-.213c11.139-.143 20.479-9.381 20.126-20.515z" fill="#ffcea1"/></g><g><path d="m506.361 317.229c0 16.032-12.891 29.13-28.969 29.337l-36.49.47c-16.207.209-29.515-12.76-29.724-28.967-.219-16.215 12.76-29.514 28.967-29.724l36.49-.471c16.207-.209 29.515 12.76 29.724 28.967.002.131.002.26.002.388z" fill="#ffbe82"/></g><g><path d="m477.838 367.837c0 14.512-11.668 26.368-26.222 26.556l-36.49.471c-14.67.189-26.716-11.55-26.905-26.22-.16-14.697 11.551-26.716 26.22-26.905l36.49-.47c14.67-.189 26.716 11.55 26.905 26.22.002.115.002.232.002.348z" fill="#ffbe82"/></g><g><path d="m457.94 316.008c-.343-10.796-9.272-19.373-20.12-19.234l-17.301.223c-4.548.059-8.461 3.355-9.157 7.85-1.166 7.538-.95 15.621.571 24.22.796 4.5 4.798 7.728 9.367 7.669l16.514-.213c11.139-.143 20.48-9.381 20.126-20.515z" fill="#ffcea1"/></g><g><path d="m506.361 207.962c0 16.032-12.891 29.13-28.969 29.337l-36.49.471c-16.207.209-29.515-12.76-29.724-28.967-.219-16.189 12.76-29.515 28.967-29.724l36.49-.47c16.207-.209 29.515 12.76 29.724 28.967.002.128.002.257.002.386z" fill="#ffbe82"/></g><g><path d="m457.94 206.74c-.343-10.796-9.272-19.373-20.12-19.234l-17.301.223c-4.548.059-8.461 3.355-9.157 7.85-1.166 7.538-.95 15.621.571 24.22.796 4.5 4.798 7.728 9.367 7.669l16.514-.213c11.139-.143 20.48-9.38 20.126-20.515z" fill="#ffcea1"/></g><g><path d="m426.541 367.697c-.302-9.512-8.168-17.068-17.725-16.945l-15.242.197c-4.007.052-7.454 2.956-8.067 6.916-1.028 6.641-.837 13.762.503 21.338.701 3.964 4.227 6.808 8.252 6.756l14.549-.188c9.813-.126 18.042-8.264 17.73-18.074z" fill="#ffcea1"/></g><path d="m5.822 207.308c-3.797 17.688-5.822 36.055-5.822 54.909 0 10.798.657 21.438 1.932 31.883l76.12 66.387v-153.179z" fill="#ffaa71"/><path d="m19.193 360.487h58.859v-66.387h-76.116c2.834 23.246 8.73 45.518 17.257 66.387z" fill="#f7884f"/><g><path d="m11.568 264.384c0 16.032 12.891 29.13 28.97 29.337l36.49.47c16.207.209 29.515-12.76 29.724-28.967.22-16.195-12.76-29.515-28.967-29.724l-36.49-.47c-16.207-.209-29.515 12.76-29.724 28.967-.003.13-.003.259-.003.387z" fill="#ffbe82"/></g><g><path d="m60.254 263.875c.343-10.796 9.272-19.373 20.12-19.234l17.301.223c4.549.059 8.461 3.355 9.157 7.85 1.166 7.538.95 15.621-.571 24.22-.796 4.5-4.798 7.728-9.367 7.669l-16.514-.213c-11.139-.143-20.479-9.381-20.126-20.515z" fill="#ffcea1"/></g><g><path d="m29.64 317.229c0 16.032 12.891 29.13 28.969 29.337l36.49.47c16.207.209 29.515-12.76 29.724-28.967.219-16.215-12.76-29.514-28.967-29.724l-36.49-.471c-16.207-.209-29.515 12.76-29.724 28.967-.001.131-.002.26-.002.388z" fill="#ffbe82"/></g><g><path d="m58.163 367.837c0 14.512 11.668 26.368 26.222 26.556l36.49.471c14.67.189 26.716-11.55 26.905-26.22.16-14.697-11.551-26.716-26.22-26.905l-36.49-.47c-14.67-.189-26.716 11.55-26.905 26.22-.001.115-.002.232-.002.348z" fill="#ffbe82"/></g><g><path d="m78.061 316.008c.343-10.796 9.272-19.373 20.12-19.234l17.301.223c4.549.059 8.461 3.355 9.157 7.85 1.166 7.538.95 15.621-.571 24.22-.796 4.5-4.798 7.728-9.367 7.669l-16.514-.213c-11.139-.143-20.479-9.381-20.126-20.515z" fill="#ffcea1"/></g><g><path d="m29.64 207.962c0 16.032 12.891 29.13 28.969 29.337l36.49.471c16.207.209 29.515-12.76 29.724-28.967.219-16.189-12.76-29.515-28.967-29.724l-36.49-.47c-16.207-.209-29.515 12.76-29.724 28.967-.001.128-.002.257-.002.386z" fill="#ffbe82"/></g><g><path d="m78.061 206.74c.343-10.796 9.272-19.373 20.12-19.234l17.301.223c4.549.059 8.461 3.355 9.157 7.85 1.166 7.538.95 15.621-.571 24.22-.796 4.5-4.798 7.728-9.367 7.669l-16.514-.213c-11.139-.143-20.479-9.38-20.126-20.515z" fill="#ffcea1"/></g><g><path d="m109.46 367.697c.302-9.512 8.168-17.068 17.725-16.945l15.242.197c4.007.052 7.454 2.956 8.067 6.916 1.028 6.641.837 13.762-.503 21.338-.701 3.964-4.227 6.808-8.252 6.756l-14.549-.188c-9.812-.126-18.041-8.264-17.73-18.074z" fill="#ffcea1"/></g></g></g></svg>