<svg id="Layer_1" enable-background="new 0 0 510 510" height="512" viewBox="0 0 510 510" width="512" xmlns="http://www.w3.org/2000/svg"><g><g><path d="m255 0c-98.131 0-158.58 55.352-158.747 55.445 0 0-2.513 3.137-2.983 5.222-3.818 16.948-7.385 39.663-7.385 56.238 0 140.833 118.763 254.972 259.596 254.972 54.231 0 114.568-25.992 154.949-57.243.903-.699 3.769-5.396 3.769-5.396.178-1.087 5.8-23.477 5.8-54.239.001-140.832-114.166-254.999-254.999-254.999z" fill="#afe6ff"/><path d="m345.459 364.679c-140.833 0-255-114.167-255-255 0-18.615 2.007-36.753 5.795-54.234-58.645 46.72-96.254 118.747-96.254 199.555 0 33.117 6.313 64.76 17.802 93.791l342.029 138.699c5.333-2.408 10.57-4.995 15.704-7.753l113.855-124.155c6.334-14.756 11.324-30.252 14.81-46.344-43.56 34.696-98.724 55.441-158.741 55.441z" fill="#73c8f0"/></g><path d="m414.972 453.562h-39.439v26.171c13.967-7.504 27.164-16.278 39.439-26.171z" fill="#ffbe82"/><g><path d="m177.471 12.459h-61.121c-38.388 0-69.508 31.12-69.508 69.508v49.751h130.629z" fill="#cd5014"/></g><path d="m177.353 12.459h-61.004c-38.388 0-69.508 31.12-69.508 69.508v49.751h61.004v-49.752c0-38.388 31.12-69.507 69.508-69.507z" fill="#a03c19"/><g><circle cx="81.992" cy="142.417" fill="#a03c19" r="51.167"/></g><g><circle cx="108.334" cy="194.765" fill="#a03c19" r="51.167"/></g><g><circle cx="277.925" cy="146.533" fill="#cd5014" r="51.167"/></g><g><circle cx="269.672" cy="91.251" fill="#cd5014" r="51.167"/></g><g><circle cx="252.761" cy="197.289" fill="#a03c19" r="51.167"/></g><path d="m306.481 326.008-125.856-27.85-10.998 2.441c-41.785 9.274-71.518 46.331-71.518 89.132v66.297c43.265 33.815 97.722 53.972 156.891 53.972 37.243 0 72.758-8.039 104.826-22.522v-95.031c0-31.916-22.183-59.543-53.345-66.439z" fill="#2477f9"/><path d="m17.805 348.789c16.913 42.738 45.047 79.807 80.763 107.591v-63.969c0-31.004 20.936-57.958 50.703-65.794l4.47-22.493-98.475 21.857c-15.105 3.353-28.086 11.587-37.461 22.808z" fill="#0540e5"/><g><path d="m181.136 387.643c30.228 0 54.733-24.505 54.733-54.733v-22.528l-55.243-12.225-54.222 12.035v22.718c-.001 30.229 24.504 54.733 54.732 54.733z" fill="#0540e5"/></g><g><g><g><path d="m181.136 366.856c-20.073 0-36.344-16.272-36.344-36.344v-81.406h72.689v81.406c-.001 20.072-16.273 36.344-36.345 36.344z" fill="#ff965a"/></g></g></g><g><g><g><path d="m279.73 121.588c0-33.168-21.278-63.497-54.445-63.497h-88.298c-9.464 0-18.132 2.477-25.694 6.777v175.309c0 38.264 30.776 69.577 69.038 69.867.268.002.537.003.805.003 56.987 0 103.183-65.7 103.183-122.686v-13.072z" fill="#ffbe82"/></g></g></g><g><g><g><path d="m284.319 193.048v-61.331c13.361 0 24.193 10.832 24.193 24.193v12.946c0 13.361-10.831 24.192-24.193 24.192z" fill="#ff965a"/></g></g></g><g><g><g><path d="m76.777 190.525v-61.331c-13.361 0-24.193 10.831-24.193 24.193v12.946c0 13.36 10.831 24.192 24.193 24.192z" fill="#ff965a"/></g></g></g><g><g><g><path d="m136.554 168.306v7.276c0 4.746 3.848 8.594 8.594 8.594s8.594-3.848 8.594-8.594v-7.276z" fill="#ff965a"/></g></g></g><g><g><g><path d="m206.577 168.306v7.276c0 4.746 3.848 8.594 8.594 8.594s8.594-3.848 8.594-8.594v-7.276z" fill="#ff965a"/></g></g></g><g><g><path d="m186.729 309.897c-43.381-12.598-75.091-52.632-75.091-100.077.258-5.863 0-62.674 0-84.254 0-33.168 26.888-60.055 60.055-60.055h74.95c-6.593-2.56-13.782-3.977-21.358-3.977h-88.298c-33.168 0-57.782 24.614-57.782 57.782l-2.599 54.974.171 13.072c0 59.554 50.054 125.708 109.952 122.535z" fill="#ff965a"/></g></g><g><path d="m283.803 187.361c-6.657 0-12.308 4.809-13.449 11.367-7.137 41.031-41.865 72.589-84.373 74.858.001 0 .003.001.005.001-18.938 1.026-36.853-3.802-51.987-12.902v23.772c0 23.647 18.469 43.36 42.089 44.477l.456.021c3.359.144 6.756.128 10.184-.057-.002 0-.003-.001-.005-.001 54.388-2.903 97.596-47.92 97.596-103.031v-38.504h-.516z" fill="#cd5014"/></g><g><path d="m134.382 260.909c-22.247-13.231-38.554-35.663-43.371-62.342-1.172-6.49-6.825-11.207-13.42-11.207h-.815l.155 5.929v31.554c0 56.409 44.656 101.75 99.613 104.104-21.995-15.801-37.67-39.981-42.162-68.038z" fill="#a03c19"/></g><g><g><g><path d="m145.148 177.292c-4.746 0-8.594-3.848-8.594-8.594v-11.055l3.168-4.797-3.168-4.797v-2.855c0-4.746 3.848-8.594 8.594-8.594s8.594 3.848 8.594 8.594v23.504c0 4.746-3.848 8.594-8.594 8.594z" fill="#373c41"/></g></g></g><g><g><g><path d="m215.171 177.292c-4.746 0-8.594-3.848-8.594-8.594v-11.055l3.168-4.797-3.168-4.797v-2.855c0-4.746 3.848-8.594 8.594-8.594s8.594 3.848 8.594 8.594v23.504c0 4.746-3.848 8.594-8.594 8.594z" fill="#373c41"/></g></g></g><g><g><g><g><path d="m156.47 132.303h-25.062c-4.746 0-8.594-3.848-8.594-8.594 0-4.746 3.848-8.594 8.594-8.594h25.062c4.746 0 8.594 3.848 8.594 8.594 0 4.747-3.848 8.594-8.594 8.594z" fill="#a03c19"/></g></g></g></g><g><g><g><g><path d="m228.086 132.303h-25.062c-4.746 0-8.594-3.848-8.594-8.594 0-4.746 3.848-8.594 8.594-8.594h25.062c4.746 0 8.594 3.848 8.594 8.594 0 4.747-3.848 8.594-8.594 8.594z" fill="#a03c19"/></g></g></g></g><g><path d="m212.78 224.836h-8.849l-23.305 4.838-23.305-4.838h-7.828c-2.626 0-4.724 2.292-4.374 4.895.67 4.979 2.349 9.638 4.823 13.766l47.189 13.984c10.657-5.231 18.378-15.528 20.023-27.75.35-2.603-1.748-4.895-4.374-4.895z" fill="#c3247d"/></g><g><g><g><path d="m167.211 189.492c-2.136 8.531 1.746 17.824 9.171 20.625 1.494.564 3.092.869 4.754.869 1.661 0 3.26-.305 4.754-.869 7.425-2.801 11.308-12.094 9.171-20.625l-7.082-28.282c-1.783-7.12-11.902-7.12-13.685 0z" fill="#ff965a"/></g></g></g><g><g><path d="m284.319 64.341v57.792.003 52.153c-7.633 0-13.821-6.188-13.821-13.821v-61.026c0-13.479-7.586-25.903-19.707-31.799-.297-.145-.594-.286-.89-.423v-2.878h34.418z" fill="#cd5014"/></g></g><g><path d="m139.722 160.812c-1.75 0-3.168-1.418-3.168-3.168v-9.594c0-1.75 1.418-3.168 3.168-3.168 1.75 0 3.168 1.418 3.168 3.168v9.594c0 1.749-1.419 3.168-3.168 3.168z" fill="#fff"/></g><g><path d="m209.745 160.812c-1.75 0-3.168-1.418-3.168-3.168v-9.594c0-1.75 1.418-3.168 3.168-3.168 1.75 0 3.168 1.418 3.168 3.168v9.594c0 1.749-1.418 3.168-3.168 3.168z" fill="#fff"/></g><g><path d="m149.945 243.494c6.351 10.593 17.941 17.686 31.19 17.686 5.74 0 11.166-1.335 15.992-3.704-2.075-13.015-13.347-22.963-26.946-22.963-8.026 0-15.242 3.466-20.236 8.981z" fill="#dd544f"/></g><g><path d="m198.804 234.513h-36.357c-2.831 0-5.127-2.295-5.127-5.127v-4.55h46.611v4.55c0 2.832-2.296 5.127-5.127 5.127z" fill="#fff"/></g><g><g><path d="m76.931 78.04v44.093.003 52.153c7.633 0 13.821-6.188 13.821-13.821v-61.026c0-.081 0-.162.001-.242.071-10.435 7.601-19.048 17.444-21.16z" fill="#a03c19"/></g></g><g><path d="m301.815 98.808h-117.758c-28.111 0-50.899-22.788-50.899-50.899 0-26.145 21.195-47.34 47.34-47.34h70.418c28.111 0 50.899 22.788 50.899 50.899z" fill="#cd5014"/></g><g><path d="m153.742 78.04h-45.545l-8.409-10.86 15.004-15.529h42.528z" fill="#cd5014"/></g><path d="m114.792 51.651h-25.497v26.389h18.668c.524-9.419 2.921-18.338 6.829-26.389z" fill="#a03c19"/><g><path d="m406.585 420.878 1.452 36.976h1.448c9.559-7.284 18.593-15.232 27.033-23.779 2.884-2.921 5.699-5.911 8.441-8.969z" fill="#dd544f"/><g><path d="m408.037 374.147v83.708h-31.505c-9.183 0-16.628-7.445-16.628-16.628v-67.08z" fill="#d80a61"/></g><g><path d="m357.952 239.959c10.431 0 18.888 8.456 18.888 18.888v105.582h-37.776v-105.582c0-10.432 8.456-18.888 18.888-18.888z" fill="#ffbe82"/></g><g><path d="m339.064 157.84v105.582h37.776v-105.582c0-10.431-8.456-18.888-18.888-18.888-10.432 0-18.888 8.457-18.888 18.888z" fill="#dd544f"/></g><path d="m470.497 237.444c-9.408 0-17.187 6.886-18.627 15.888v-3.165c0-10.432-8.456-18.888-18.888-18.888-9.458 0-17.27 6.96-18.649 16.033-.235-10.227-8.582-18.45-18.866-18.45-10.431 0-18.888 8.457-18.888 18.888v18.823h-1.92v109.977h104.541c3.697-6.806 7.105-13.797 10.184-20.971v-99.249c0-10.43-8.456-18.886-18.887-18.886z" fill="#dd544f"/><g><g><path d="m376.579 272.272v46.682c0 10.431 8.456 18.888 18.888 18.888s18.888-8.456 18.888-18.888v-46.682z" fill="#d80a61"/></g><g><path d="m414.094 272.272v44.266c0 10.432 8.456 18.888 18.888 18.888 10.431 0 18.888-8.456 18.888-18.888v-44.266z" fill="#d80a61"/></g><g><path d="m451.609 272.272v38.101c0 10.431 8.457 18.888 18.888 18.888 10.431 0 18.888-8.456 18.888-18.888v-20.044z" fill="#d80a61"/></g></g><g><g><path d="m376.579 256.271v46.682c0 10.431 8.456 18.888 18.888 18.888s18.888-8.456 18.888-18.888v-46.682z" fill="#dd544f"/></g><g><path d="m414.094 256.271v44.266c0 10.432 8.456 18.888 18.888 18.888 10.431 0 18.888-8.456 18.888-18.888v-44.266z" fill="#dd544f"/></g><g><path d="m451.609 256.271v38.101c0 10.431 8.457 18.888 18.888 18.888 10.431 0 18.888-8.456 18.888-18.888v-38.101z" fill="#dd544f"/></g></g><path d="m483.439 368.409c-9.6 4.45-20.292 6.942-31.569 6.942-41.51 0-75.16-33.65-75.16-75.16v-33.617h-37.646v89.931c0 41.51 33.65 75.16 75.16 75.16 10.951 0 21.351-2.349 30.734-6.559 15.215-16.971 28.201-36.015 38.481-56.697z" fill="#d80a61"/><g><path d="m424.595 233.261h1.691v57.699c0 6.734-5.459 12.193-12.193 12.193v-52.986c.001-7.416 4.284-13.814 10.502-16.906z" fill="#d80a61"/></g><g><path d="m388.772 230.106v60.854c0 6.734-5.459 12.193-12.193 12.193v-55.403c0-8.07 5.071-14.939 12.193-17.644z" fill="#d80a61"/></g><g><path d="m351.716 290.96c0 6.734-5.459 12.193-12.193 12.193v-149.41c1.419-6.407 6.089-11.576 12.193-13.714z" fill="#d80a61"/></g><g><g><path d="m356.215 380.344c-4.709 0-9.442-1.613-13.304-4.911l-41.539-35.477c-9.377-8.009-15.013-19.67-15.461-31.994-.449-12.323 4.323-24.362 13.093-33.031l14.09-13.927c6.945-6.864 16.146-10.644 25.907-10.644h18.283c11.322 0 20.5 9.178 20.5 20.5s-9.178 20.5-20.5 20.5h-16.58l-12.877 12.729c-.821.812-.967 1.744-.943 2.382.023.639.235 1.557 1.115 2.308l41.539 35.477c8.609 7.354 9.628 20.293 2.275 28.902-4.054 4.747-9.808 7.186-15.598 7.186z" fill="#dd544f"/></g></g><g><path d="m392.621 346.409c-7.712-9.873-13.025-21.712-15.024-34.652h-38.533v44.747c0 8.824 1.534 17.287 4.327 25.153h49.229v-35.248z" fill="#d80a61"/></g><g><path d="m465.61 281.159v-43.077c-8.062 2.154-14.001 9.508-14.001 18.249v38.829c7.732 0 14.001-6.268 14.001-14.001z" fill="#d80a61"/></g></g><g><path d="m326.226 131.338c-7.349 12.941-19.936 22.519-34.878 25.85-2.837.632-3.801 4.232-1.594 6.124 9.359 8.02 21.52 12.866 34.812 12.866 26.603 0 48.663-19.411 52.815-44.839h-51.155z" fill="#ffc305"/></g><g><ellipse cx="398.527" cy="91.251" fill="#ffc305" rx="107.43" ry="79.667"/></g><g fill="#fff"><path d="m340.193 75.216c-4.161 0-6.569 2.336-6.569 7.3v19.344c0 4.965 2.408 7.301 6.496 7.301s6.57-2.336 6.57-7.301v-2.481h-4.307c-2.19 0-3.432-2.117-3.432-4.38 0-2.117 1.241-4.38 3.432-4.38h12.264c2.189 0 3.431 1.679 3.431 3.577v7.664c0 12.557-7.884 17.229-17.958 17.229-10.073 0-17.885-4.672-17.885-17.229v-19.344c0-12.556 7.957-17.228 17.52-17.228 10.439 0 18.323 5.256 18.323 14.526 0 4.38-1.825 5.402-5.694 5.402-3.065 0-5.621-.804-5.693-3.432-.075-2.627-.293-6.568-6.498-6.568z"/><path d="m364.065 101.86v-19.344c0-12.556 7.811-17.228 17.884-17.228 10.074 0 17.958 4.672 17.958 17.228v19.344c0 12.557-7.884 17.229-17.958 17.229-10.074-.001-17.884-4.673-17.884-17.229zm24.454-19.344c0-5.037-2.482-7.3-6.57-7.3s-6.497 2.263-6.497 7.3v19.344c0 5.037 2.409 7.301 6.497 7.301s6.57-2.264 6.57-7.301z"/><path d="m403.557 113.978c0-.219.073-.511.146-.803l13.577-44.529c.803-2.555 4.088-3.796 7.446-3.796 3.357 0 6.643 1.241 7.445 3.796l13.65 44.529c.073.292.146.584.146.803 0 2.701-4.161 4.672-7.3 4.672-1.825 0-3.285-.584-3.724-2.117l-2.481-9.124h-15.402l-2.482 9.124c-.438 1.533-1.897 2.117-3.723 2.117-3.137 0-7.298-1.971-7.298-4.672zm26.498-15.329-5.328-19.564-5.329 19.564z"/><path d="m455.166 118.65c-2.481 0-4.963-1.168-4.963-3.504v-46.427c0-2.409 2.847-3.431 5.693-3.431s5.693 1.021 5.693 3.431v40.003h16.645c2.189 0 3.284 2.481 3.284 4.964s-1.095 4.964-3.284 4.964z"/></g></g></svg>