<svg id="Layer_1" enable-background="new 0 0 510.951 510.951" height="512" viewBox="0 0 510.951 510.951" width="512" xmlns="http://www.w3.org/2000/svg"><g><g><path d="m255.475 14.12c-95.597 0-154.486 53.923-154.648 54.014 0 0-2.448 3.056-2.906 5.087-3.72 16.511-7.195 38.639-7.195 54.786 0 137.196 115.697 248.388 252.893 248.388l160.231-109.427c.026-1.456.04-2.934.04-4.433.001-137.196-111.218-248.415-248.415-248.415z" fill="#9dc63d"/><path d="m95.183 120.967c0-18.135 1.956-35.804 5.645-52.833-57.131 45.513-93.768 115.68-93.768 194.401 0 56.893 19.126 109.32 51.298 151.2l285.24-44.353c-137.196 0-248.415-111.219-248.415-248.415z" fill="#69b76b"/></g><g><path d="m156.453 287.599 18.366 62.652 86.05 22.449 64.168-64.494-25.226-89.058-79.389-14.319c-28.26 20.988-50.61 49.649-63.969 82.77z" fill="#e4f2f6"/><g fill="#c8e6eb"><path d="m255.475 510.951c42.456 0 82.616-10.71 117.775-29.674l-1.814-6.363-86.327-20.892-52.038 55.912c7.382.66 14.851 1.017 22.404 1.017z"/><path d="m503.848 266.968c-13.433-24.428-32.176-45.795-54.383-62.302l15.901 60.547 38.299 7.916c.084-2.004.145-4.061.183-6.161z"/><path d="m335.052 166.972c-42.951 0-82.608 14.076-114.63 37.857l75.744 18.398 52.677-55.758c-4.535-.319-9.175-.497-13.791-.497z"/></g><path d="m406.351 327.776-85.352-20.542-60.466 63.646 24.886 84.188 85.352 20.542 61.094-63.495z" fill="#fff"/><path d="m144.005 382.846 34.188-31.783-21.74-63.464c-8.882 22.139-13.868 46.526-13.868 71.84 0 7.876.501 15.78 1.42 23.407z" fill="#b4d7dc"/><path d="m285.419 455.068-24.886-84.188-85.713-20.629-30.814 32.595c5.723 46.903 29.182 92.985 62.409 123.25 0 0 3.148.513 5.233.999 7.09 1.262 14.289 2.206 21.573 2.853z" fill="#1a1b1c"/><path d="m296.112 223.046 24.886 84.188 85.352 20.542 60.122-63.729-17.008-59.381c-28.45-20.985-63.234-34.537-100.622-37.197z" fill="#373c41"/><path d="m503.669 273-37.197-8.952-60.466 63.646 25.471 84.329 18.888 4.552c23.003-29.053 39.694-63.442 47.874-101.201.153-.932 4.406-17.914 5.43-42.374z" fill="#e4f2f6"/><path d="m450.366 416.575-18.888-4.552-60.466 63.646 1.731 5.878c30.079-16.134 56.51-38.305 77.623-64.972z" fill="#373c41"/><path d="m268.488 362.507c-26.68-33.034-42.731-75.143-42.731-120.913 0-11.858 1.09-23.459 3.145-34.724l-8.479-2.041c-29.291 21.758-51.112 50.894-63.969 82.77l18.366 62.652 85.713 20.629z" fill="#c8e6eb"/><path d="m410.407 433.889c-57.309-2.29-108.164-29.633-141.919-71.383l-7.955 8.373 24.886 84.188 85.352 20.542z" fill="#e4f2f6"/><path d="m435.923 433.247c-5.829.532-11.731.814-17.7.814-2.523 0-5.031-.064-7.531-.16l-39.922 41.71 1.795 6.029c23.638-12.654 45.026-29.034 63.358-48.393z" fill="#1a1b1c"/></g><g><path d="m84.903 354.299 31.194 113.879c26.82 18.216 57.391 31.322 90.317 37.918l36.313-81.335z" fill="#ffaa71"/><path d="m58.372 413.724c16.196 21.083 35.688 39.499 57.72 54.461l37.211-83.347-68.401-30.538z" fill="#f7884f"/><g><g><path d="m132.625 136.905c-4.083 0-8.102-1.928-10.619-5.528l-14.942-21.378c-4.094-5.858-2.665-13.927 3.193-18.021 5.857-4.092 13.926-2.665 18.021 3.193l14.942 21.378c4.094 5.858 2.665 13.927-3.193 18.021-2.257 1.577-4.842 2.335-7.402 2.335z" fill="#ffc305"/></g><g><path d="m303.165 136.905c-2.56 0-5.145-.757-7.403-2.335-5.858-4.095-7.288-12.163-3.193-18.021l14.942-21.378c4.095-5.858 12.162-7.289 18.021-3.193 5.858 4.095 7.288 12.163 3.193 18.021l-14.942 21.378c-2.516 3.6-6.535 5.528-10.618 5.528z" fill="#2477f9"/></g><g><path d="m187.481 66.683h64.707v49.673h-64.707z" fill="#d80a61"/></g><g><g><ellipse cx="219.835" cy="263.823" fill="#fff" rx="147.537" ry="147.537" transform="matrix(.707 -.707 .707 .707 -122.163 232.719)"/></g><g><path d="m127.712 171.7c24.607-24.607 57.324-38.159 92.123-38.159s67.516 13.552 92.123 38.159 38.159 57.324 38.159 92.123c0 34.8-13.552 67.516-38.159 92.123s-57.324 38.159-92.123 38.159-67.516-13.552-92.123-38.159-38.159-57.324-38.159-92.123 13.552-67.516 38.159-92.123m-24.403-24.402c-64.355 64.355-64.355 168.696 0 233.051s168.696 64.355 233.051 0 64.355-168.696 0-233.051-168.696-64.356-233.051 0z" fill="#dd544f"/></g><g><path d="m311.798 356.103c-24.589 24.507-57.239 38.003-91.964 38.003-34.799 0-67.516-13.552-92.123-38.159s-38.159-57.324-38.159-92.123c0-34.725 13.496-67.375 38.003-91.964l-24.402-24.402c-64.197 64.368-64.147 168.589.156 232.892s168.524 64.353 232.892.156z" fill="#d80a61"/></g></g><g><g><g><path d="m213.364 151.402h12.941v20.517h-12.941z" fill="#373c41"/></g><g><path d="m213.364 355.728h12.941v20.517h-12.941z" fill="#373c41"/></g></g><g><g><path d="m162.283 165.09h12.942v20.516h-12.942z" fill="#373c41" transform="matrix(.866 -.5 .5 .866 -65.064 107.866)"/></g><g><path d="m264.446 342.042h12.942v20.516h-12.942z" fill="#373c41" transform="matrix(.866 -.5 .5 .866 -139.852 182.652)"/></g></g><g><g><path d="m301.84 304.647h12.941v20.516h-12.941z" fill="#373c41" transform="matrix(.5 -.866 .866 .5 -118.559 424.463)"/></g></g><g><g><path d="m311.74 257.352h20.516v12.941h-20.516z" fill="#373c41"/></g></g><g><g><path d="m121.101 308.435h20.516v12.941h-20.516z" fill="#373c41" transform="matrix(.866 -.5 .5 .866 -139.858 107.875)"/></g><g><path d="m298.052 206.272h20.516v12.941h-20.516z" fill="#373c41" transform="matrix(.866 -.5 .5 .866 -65.066 182.665)"/></g></g><g><g><path d="m158.495 345.829h20.516v12.942h-20.516z" fill="#373c41" transform="matrix(.5 -.866 .866 .5 -220.724 322.301)"/></g><g><path d="m260.658 168.877h20.516v12.942h-20.516z" fill="#373c41" transform="matrix(.5 -.866 .866 .5 -16.395 322.299)"/></g></g></g><g><path d="m252.301 79.624h-64.932c-7.147 0-12.941-5.794-12.941-12.941s5.794-12.941 12.941-12.941h64.932c7.147 0 12.941 5.794 12.941 12.941s-5.794 12.941-12.941 12.941z" fill="#dd544f"/></g><g><path d="m198.806 79.624h-11.437c-7.147 0-12.941-5.794-12.941-12.941s5.794-12.941 12.941-12.941h11.437c7.147 0 12.941 5.794 12.941 12.941s-5.793 12.941-12.941 12.941z" fill="#d80a61"/></g><g><g><path d="m240.542 250.019h-42.276l21.569-88.221z" fill="#ffa50a"/></g></g><g><circle cx="219.835" cy="263.824" fill="#ffc305" r="32.466"/></g></g><g><path d="m17.541 262.816c0 18.09 14.546 32.869 32.688 33.103l41.173.531c18.287.236 33.303-14.398 33.539-32.685.248-18.274-14.398-33.303-32.685-33.539l-41.173-.531c-18.287-.236-33.303 14.398-33.539 32.685-.002.145-.003.291-.003.436z" fill="#ffbe82"/></g><g><path d="m72.477 262.241c.387-12.182 10.462-21.86 22.702-21.703l19.521.252c5.132.066 9.547 3.785 10.332 8.858 1.316 8.505 1.072 17.626-.644 27.329-.898 5.077-5.413 8.719-10.569 8.653l-18.633-.241c-12.569-.162-23.108-10.585-22.709-23.148z" fill="#ffcea1"/></g><g><path d="m37.934 322.443c0 18.09 14.545 32.869 32.687 33.103l41.173.531c18.287.236 33.303-14.398 33.539-32.685.248-18.296-14.398-33.303-32.685-33.539l-41.173-.531c-18.287-.236-33.303 14.398-33.539 32.685-.002.146-.002.291-.002.436z" fill="#ffbe82"/></g><g><path d="m70.117 379.547c0 16.375 13.166 29.753 29.588 29.964l41.173.531c16.553.213 30.145-13.033 30.359-29.585.181-16.584-13.033-30.145-29.585-30.359l-41.173-.531c-16.553-.213-30.145 13.033-30.359 29.585-.002.132-.003.264-.003.395z" fill="#ffbe82"/></g><g><path d="m92.569 321.065c.387-12.182 10.462-21.86 22.702-21.703l19.521.252c5.132.066 9.547 3.785 10.332 8.858 1.316 8.505 1.072 17.626-.644 27.329-.898 5.077-5.413 8.719-10.569 8.653l-18.633-.241c-12.568-.162-23.108-10.584-22.709-23.148z" fill="#ffcea1"/></g><g><path d="m37.934 199.151c0 18.09 14.545 32.869 32.687 33.103l41.173.531c18.287.236 33.303-14.398 33.539-32.685.248-18.267-14.398-33.303-32.685-33.539l-41.173-.531c-18.287-.236-33.303 14.398-33.539 32.685-.002.145-.002.291-.002.436z" fill="#ffbe82"/></g><g><path d="m92.569 197.773c.387-12.182 10.462-21.86 22.702-21.703l19.521.252c5.132.066 9.547 3.785 10.332 8.858 1.316 8.505 1.072 17.626-.644 27.329-.898 5.077-5.413 8.719-10.569 8.653l-18.633-.241c-12.568-.162-23.108-10.585-22.709-23.148z" fill="#ffcea1"/></g><g><path d="m127.998 379.389c.341-10.732 9.217-19.258 20.001-19.12l17.198.222c4.522.058 8.411 3.335 9.103 7.804 1.159 7.493.945 15.529-.568 24.077-.791 4.473-4.769 7.682-9.311 7.623l-16.416-.212c-11.073-.143-20.358-9.326-20.007-20.394z" fill="#ffcea1"/></g><path d="m209.098 60.028h49.508c9.261 0 17.063-7.221 17.439-16.474.023-.578.035-1.158.035-1.741 0-9.145-2.911-17.606-7.852-24.517-3.256-4.554-8.543-7.219-14.141-7.219h-40.644c-5.334 0-10.44 2.426-13.606 6.72-5.433 7.368-8.53 16.563-8.19 26.497.002.06.004.119.007.179.358 9.286 8.152 16.555 17.444 16.555z" fill="#ffbe82"/></g><path d="m258.227 20.154c-16.193-10.464-32.444-10.464-48.752 0v-7.293c0-5.277 3.655-9.835 8.794-11.035 10.397-2.43 20.787-2.435 31.168-.007 5.137 1.202 8.79 5.759 8.79 11.035z" fill="#ffcea1"/></g></svg>