<svg id="Layer_1" enable-background="new 0 0 511.525 511.525" height="512" viewBox="0 0 511.525 511.525" width="512" xmlns="http://www.w3.org/2000/svg"><g><g><g><path d="m244.946 10.816c-94.262 0-152.328 53.17-152.488 53.259 0 0-2.414 3.013-2.865 5.016-3.668 16.28-7.094 38.099-7.094 54.021 0 135.28 114.081 244.919 249.361 244.919 52.093 0 110.051-24.967 148.84-54.986.868-.672 3.621-5.184 3.621-5.184.171-1.044 5.572-22.551 5.572-52.1-.001-135.278-109.667-244.945-244.947-244.945z" fill="#afe6ff"/><path d="m331.838 361.118c-135.28 0-244.946-109.666-244.946-244.946 0-17.881 1.928-35.303 5.566-52.095l-92.446 194.087c.512 53.375 18.096 102.666 47.554 142.676l357.072 40.647c39.501-33.967 68.154-80.408 79.683-133.625-41.842 33.328-94.832 53.256-152.483 53.256z" fill="#73c8f0"/></g><g><g fill="#fff"><path d="m47.584 400.827v-290.114c-22.187 30.142-37.645 65.543-44.138 103.994l18.458 9.808 25.116-33.572v209.122c.186.256.377.508.564.762z"/><path d="m150.63 481.866v-448.234c-2.951.319-5.901.65-8.849 1.009-1.192.145-2.403.292-3.625.441-20.767 9.944-34.991 20.32-41.555 25.545 0 .057.005.115.005.172v389.864c16.491 12.572 34.627 23.096 54.024 31.203z"/><path d="m253.015 404.213v-313.899c-7.689 5.098-16.907 8.074-26.824 8.074-10.368 0-19.97-3.256-27.861-8.787v314.611h54.685z"/><path d="m356.06 404.213v-363.919c-16.006-1.975-32.186-3.951-46.192-5.654-3.049-.37-6.1-.716-9.153-1.044v370.616h55.345z"/><path d="m403.761 69.305v372.898c.287-.245.582-.479.868-.725v-202.166l78.32-41.616c-12.366-50.863-40.613-95.502-79.188-128.391z"/><path d="m404.63 265.234v-25.922l90.732-48.211-47.17-113.494c-7.484-18.008-24.177-30.516-43.562-32.641l-2.85 215.55c1.19 1.497 2.119 3.069 2.85 4.718z"/></g><path d="m47.804 401.124v-290.707c-22.304 30.206-37.844 65.713-44.358 104.29l18.458 9.808 25.116-33.572v209.122c.259.356.523.706.784 1.059z" fill="#e4f2f6"/><path d="m150.85 33.611c-3.025.323-6.048.663-9.069 1.03-1.192.145-2.403.292-3.625.441-19.673 9.42-33.467 19.224-40.449 24.675v391.74c16.258 12.253 34.094 22.519 53.143 30.459z" fill="#e4f2f6"/><path d="m253.455 403.207h-54.904v93.102c15.022 2.883 30.531 4.4 46.395 4.4 2.848 0 5.682-.065 8.509-.162z" fill="#e4f2f6"/><path d="m354.739 403.207h-53.583v90.99c18.762-4.416 36.713-11.011 53.583-19.485z" fill="#e4f2f6"/><path d="m47.02 400.066c14.397 19.713 31.656 37.204 51.184 51.837v-392.536c-3.751 2.904-5.716 4.692-5.745 4.709-17.181 13.687-32.469 29.646-45.439 47.405z" fill="#373c41"/><path d="m149.388 116.862h51.184v287.351h-51.184z" fill="#50555a"/><path d="m169.312 405.687v-373.806c-6.648.532-13.288 1.163-19.918 1.891-.002.001-.004.001-.006.002v371.913z" fill="#373c41"/><path d="m404.63 404.213v-359.246c-14.67-1.467-32.893-3.238-51.184-4.995v364.241z" fill="#50555a"/><path d="m149.388 481.366c16.238 6.887 33.376 12.063 51.184 15.323v-93.502h-51.184z" fill="#373c41"/><path d="m404.63 441.478v-38.291h-51.184v72.194c18.482-9.146 35.668-20.562 51.184-33.903z" fill="#373c41"/><path d="m.03 258.164 21.874-33.649-18.407-10.129c-2.29 13.452-3.497 27.273-3.497 41.377 0 .803.023 1.6.03 2.401z" fill="#373c41"/><path d="m511.525 226.43-89.81 50.321-17.085-36.786 90.731-48.864z" fill="#50555a"/><path d="m225.237 215.872c-8.044 0-14.566-6.521-14.566-14.566v-99.436h29.131v99.436c0 8.045-6.521 14.566-14.565 14.566z" fill="#373c41"/><path d="m302.698 404.213v-370.389c-10.523-1.166-21.07-2.083-31.633-2.756 2.404 5.76 3.737 12.079 3.737 18.71 0 17.569-9.322 32.958-23.288 41.498v312.937z" fill="#50555a"/><path d="m346.961 221.997-30.008-6.137c-4.215-.862-6.934-4.978-6.072-9.193l9.258-45.272c.862-4.215 4.978-6.934 9.193-6.072l30.008 6.137c4.215.862 6.934 4.978 6.072 9.193l-9.258 45.272c-.861 4.215-4.977 6.934-9.193 6.072z" fill="#dd544f"/><path d="m328.595 208.023-30.519 2.591c-4.287.364-8.058-2.816-8.422-7.104l-3.908-46.044c-.364-4.287 2.816-8.058 7.104-8.422l30.519-2.591c4.287-.364 8.058 2.816 8.422 7.104l3.909 46.044c.363 4.287-2.818 8.058-7.105 8.422z" fill="#ffc305"/><path d="m277.345 198.311h94.216v28.404h-94.216z" fill="#373c41"/><path d="m186.364 150.723 40.287-40.287 39.951 39.952c22.94-13.754 38.299-38.854 38.299-67.547 0-19.285-6.944-36.938-18.459-50.619-5.123-.443-10.25-.832-15.382-1.158 2.407 5.761 3.741 12.081 3.741 18.715 0 26.847-21.764 48.611-48.61 48.611-26.847 0-48.61-21.764-48.61-48.611 0-6.654 1.344-12.992 3.764-18.767-5.121.32-10.238.708-15.352 1.144-11.548 13.69-18.513 31.37-18.513 50.685.001 28.933 15.624 54.205 38.884 67.882z" fill="#373c41"/><path d="m302.698 493.837v-90.65h-51.184v97.425c17.556-.464 34.684-2.78 51.184-6.775z" fill="#373c41"/></g></g><g fill="#e4f2f6"><circle cx="225.237" cy="139.647" r="7.927"/><circle cx="225.237" cy="177.649" r="7.927"/></g></g></svg>