<svg id="Layer_1" enable-background="new 0 0 510.395 510.395" height="512" viewBox="0 0 510.395 510.395" width="512" xmlns="http://www.w3.org/2000/svg"><g><g><path d="m415.294 56.866-12.081 4.027 3.069-10.994c-15.746-11.622-32.876-21.476-51.098-29.269l-14.063 2.832-12.489-12.473c-23.312-7.019-48.032-10.792-73.632-10.792-98.131 0-158.58 55.352-158.747 55.445 0 0-2.513 3.137-2.983 5.222-3.818 16.948-7.385 39.663-7.385 56.239 0 140.833 118.763 254.972 259.596 254.972 54.231 0 114.568-25.992 154.949-57.243.903-.699 3.769-5.396 3.769-5.396.178-1.087 5.801-23.477 5.801-54.239 0-80.104-36.936-151.582-94.706-198.331z" fill="#afe6ff"/><path d="m345.459 364.876-287.229 52.525c46.77 56.673 117.552 92.796 196.77 92.796 121.17 0 224.116-84.98 249.199-200.761-43.559 34.695-98.724 55.44-158.74 55.44z" fill="#73c8f0"/></g><g><path d="m117.841 131.707h297.441v240.368h-297.441z" fill="#fff"/></g><path d="m415.283 340.676h-291.348v-208.969h-92.058c-20.299 36.589-31.877 78.685-31.877 123.49 0 62.253 22.319 119.285 59.377 163.56h355.906z" fill="#e4f2f6"/><path d="m406.274 49.911h-234.293v81.796h243.302v-74.827c-2.95-2.388-5.953-4.713-9.009-6.969z" fill="#dd544f"/><path d="m31.877 131.707h142.252v-81.796h-70.813c-4.61 3.51-7.029 5.713-7.062 5.732-26.129 20.815-48.065 46.664-64.377 76.064z" fill="#d80a61"/><g><g><g><path d="m155.737 152.99 1.442 11.816 53.763 22.101 38.418-30.367c-15.652-6.986-32.989-10.875-51.237-10.875-14.89-.001-29.128 2.577-42.386 7.325z" fill="#c8e6eb"/></g></g><g><g><path d="m239.132 390.506-3.82-31.59-54.529-22.134-45.773 36.379 1.009 7.809c32.026 18.179 69.879 20.975 103.113 9.536z" fill="#1a1b1c"/></g></g><g><g><g><path d="m218.615 243.714-45.92 36.134 8.267 57.551 53.876 21.886 46.021-35.816-7.856-57.701z" fill="#fff"/></g></g><g><g><path d="m157.399 164.637-46.281 35.675 7.984 57.6 53.815 21.933 45.768-35.618-7.8-57.744z" fill="#373c41"/></g></g></g><g><g><path d="m272.745 265.969 8.114 57.5 26.375 10.785c10.625-18.457 16.731-39.923 16.731-62.75 0-14.085-2.315-27.629-6.583-40.273z" fill="#373c41"/></g></g><g><g><path d="m307.234 334.254-26.375-10.894-46.021 35.924 4.294 31.221c28.869-9.955 53.061-30.191 68.102-56.251z" fill="#b4d7dc"/></g></g><g><g><path d="m135.672 372.645-22.518-8.325c6.866 6.258 14.737 12.021 22.865 16.65z" fill="#a5c8cd"/></g></g><g><path d="m172.917 279.845-53.875-21.885 61.859 79.486z" fill="#e4f2f6"/></g><g><g><path d="m249.361 156.539-38.476 29.943 7.799 57.744 54.061 21.742 44.636-34.738c-11.264-33.365-36.14-60.461-68.02-74.691z" fill="#e4f2f6"/></g></g><g><g><path d="m119.663 258.14-8.461-57.893-13.015-5.212c-22.013 28.768-29.826 64.384-24.078 97.894z" fill="#a5c8cd"/></g></g><g><g><path d="m154.446 272.342-35.404-14.382-44.933 34.969c1.931 7.424 6.507 41.534 39.045 71.392.003.003-.003-.003 0 0l22.518 8.325 45.29-35.247-6.447-46.513c-7.315-5.43-14.095-11.687-20.069-18.544z" fill="#c8e6eb"/></g></g><g><g><path d="m154.345 272.229c-19.011-21.874-30.587-50.376-30.813-81.579l-12.414 9.661 7.923 57.648z" fill="#1a1b1c"/></g></g><g><g><path d="m279.267 311.982 1.592 11.487 26.375 10.785c7.433-12.911 12.557-27.22 15.008-41.935-12.764 9.083-27.295 15.84-42.975 19.663z" fill="#1a1b1c"/></g></g><g><g><path d="m174.44 290.83 6.523 46.569 53.876 21.886 46.021-35.816-1.731-11.452c-9.544 2.315-19.512 3.543-29.767 3.543-28.037 0-54.004-9.228-74.922-24.73z" fill="#e4f2f6"/></g></g><g><g><path d="m98.186 195.035 12.932 5.277 46.281-35.675-1.662-11.647c-23.017 8.223-42.945 23.015-57.551 42.045z" fill="#e4f2f6"/></g></g></g><path d="m510.395 442.62v-117.25c0-10.111-8.197-18.308-18.308-18.308h-202.198v135.558z" fill="#ffc305"/><path d="m340.18 90.809c8.284 0 15-6.716 15-15v-55.169c-8.616-3.685-17.479-6.901-26.552-9.633-2.152 2.596-3.448 5.929-3.448 9.566v55.236c0 8.284 6.716 15 15 15z" fill="#ffc305"/><g><path d="m340.18 90.809c-8.284 0-15-6.716-15-15v-12.235c0-8.284 6.716-15 15-15s15 6.716 15 15v12.234c0 8.285-6.716 15.001-15 15.001z" fill="#ffa50a"/></g><path d="m290.822 393.964v-86.903h-97.86l-20 22.453 20 22.454-20 22.457 20 22.457-20 22.457 20 22.458-20 22.461 20 22.46h299.124c10.111 0 18.308-8.197 18.308-18.308v-26.772h-171.899c-26.329-.001-47.673-21.345-47.673-47.674z" fill="#ffa50a"/><g><path d="m481.736 344.453v88.258h12v-88.258c0-11.977-9.743-21.72-21.72-21.72h-155.045v12h155.045c5.36 0 9.72 4.361 9.72 9.72z" fill="#ffa50a"/></g><g fill="#fa870a"><path d="m219.649 322.733h98.851v12h-98.851z"/><path d="m481.736 430.541v19.37c0 5.359-4.36 9.72-9.72 9.72h-252.367v12h252.368c11.977 0 21.72-9.743 21.72-21.72v-19.37z"/></g><g fill="#fff"><path d="m283.605 369.599c2.185 0 3.112 2.384 3.112 4.568 0 2.517-1.126 4.701-3.112 4.701h-9.137v35.951c0 2.118-2.582 3.178-5.164 3.178s-5.164-1.06-5.164-3.178v-35.951h-9.137c-1.986 0-3.112-2.185-3.112-4.701 0-2.185.927-4.568 3.112-4.568z"/><path d="m290.822 372.711c0-2.185 2.582-3.112 5.164-3.112s5.164.928 5.164 3.112v42.108c0 2.118-2.582 3.178-5.164 3.178s-5.164-1.06-5.164-3.178z"/><path d="m324.06 378.604c-3.774 0-5.959 2.118-5.959 6.621v17.545c0 4.502 2.185 6.62 6.024 6.62 5.297 0 5.628-4.038 5.827-6.62.198-2.45 2.449-3.112 5.098-3.112 3.575 0 5.23.927 5.23 4.899 0 8.806-7.15 13.838-16.618 13.838-8.673 0-15.89-4.237-15.89-15.625v-17.545c0-11.389 7.217-15.626 15.89-15.626 9.468 0 16.618 4.768 16.618 13.176 0 3.973-1.655 4.899-5.164 4.899-2.781 0-5.032-.729-5.164-3.111-.066-1.722-.265-5.959-5.892-5.959z"/><path d="m345.513 372.711c0-2.185 2.582-3.112 5.164-3.112s5.164.928 5.164 3.112v15.89l12.381-17.545c.729-1.06 1.655-1.457 2.715-1.457 2.648 0 6.091 2.715 6.091 5.297 0 .53-.132 1.258-.662 1.986l-10.857 13.639 13.705 20.988c.331.529.529 1.125.529 1.722 0 2.582-3.244 5.164-6.224 5.164-1.391 0-2.715-.53-3.575-1.92l-11.321-17.215-2.781 3.576v11.983c0 2.118-2.582 3.178-5.164 3.178s-5.164-1.06-5.164-3.178v-42.108z"/><path d="m393.316 389.793h9.932c1.986 0 3.111 1.92 3.111 4.038 0 1.788-.927 3.906-3.111 3.906h-9.932v11.256h17.744c1.986 0 3.111 2.118 3.111 4.568 0 2.118-.927 4.436-3.111 4.436h-23.57c-2.251 0-4.502-1.06-4.502-3.178v-42.042c0-2.119 2.251-3.179 4.502-3.179h23.57c2.185 0 3.111 2.317 3.111 4.437 0 2.449-1.125 4.568-3.111 4.568h-17.744z"/><path d="m447.343 369.599c2.185 0 3.112 2.384 3.112 4.568 0 2.517-1.126 4.701-3.112 4.701h-9.137v35.951c0 2.118-2.582 3.178-5.164 3.178s-5.164-1.06-5.164-3.178v-35.951h-9.137c-1.986 0-3.112-2.185-3.112-4.701 0-2.185.928-4.568 3.112-4.568z"/></g></g></svg>