<svg id="Layer_1" enable-background="new 0 0 513.104 513.104" height="512" viewBox="0 0 513.104 513.104" width="512" xmlns="http://www.w3.org/2000/svg"><g><g><g><path d="m256.552 3.104c-98.131 0-158.58 55.352-158.747 55.445 0 0-2.513 3.137-2.983 5.222-3.818 16.948-7.385 39.663-7.385 56.238 0 140.833 118.763 254.972 259.596 254.972 54.231 0 114.568-25.992 154.949-57.243.903-.699 3.769-5.396 3.769-5.396.178-1.087 5.8-23.477 5.8-54.239.001-140.832-114.167-254.999-254.999-254.999z" fill="#afe6ff"/></g><path d="m347.011 367.783c-140.833 0-255-114.167-255-255 0-18.615 2.007-36.753 5.795-54.234-12.443 9.913-23.938 20.964-34.329 32.998l-39.407 61.656c-10.261 22.699-17.296 47.168-20.518 72.824l7.048 14.8-9.047 17.277c0 10.748.665 21.34 1.956 31.739l136.25 195.002c34.992 18.061 74.702 28.259 116.794 28.259 24.75 0 48.739-3.545 71.46-10.175l141.199-104.05c17.139-25.841 29.719-55.05 36.54-86.537-43.56 34.696-98.725 55.441-158.741 55.441z" fill="#73c8f0"/></g><g><path d="m260.635 435.617h20v47.631h-20z" fill="#ffc305"/></g><g><path d="m295.063 453.992h20v47.63h-20z" fill="#ffc305"/></g><path d="m348.011 496.177v-21.64h-20v28.388c6.784-1.979 13.456-4.231 20-6.748z" fill="#ffc305"/><g fill="#2477f9"><path d="m511.352 268.12h-32.133v27h29.678c1.045-7.254 2.043-16.465 2.455-27z"/><path d="m220.628 268.12h20.652v27h-20.652z"/></g><g><path d="m240.051 268.12h239.723v26.999h-239.723z" fill="#0540e5"/></g><g><path d="m510.814 245.647h-49.395l-15.078-116.937 15.078-128.71h49.395z" fill="#fa870a"/></g><path d="m461.419 130.114v-23.858c-16.933-22.808-37.585-42.685-61.058-58.745-47.985 28.584-103.184 44.046-159.98 44.046h-176.893c-10.307 11.937-19.518 24.844-27.495 38.557z" fill="#ffc305"/><path d="m24.083 153.209h216.298c82.905 0 162.415 32.934 221.038 91.557v-116.056h-424.609c-4.665 7.904-8.92 16.078-12.727 24.499z" fill="#ffa50a"/><g><path d="m461.419 130.114v-130.114c-23.845 23.845-51.147 43.438-80.726 58.296v71.818z" fill="#ffc305"/></g><g><path d="m380.693 128.71v57.76c29.579 14.857 56.881 34.451 80.726 58.296v-116.056z" fill="#ffa50a"/></g><g><path d="m354.46 174.786c6.763 2.651 13.436 5.529 20 8.645v-122.096c-6.564 3.117-13.237 5.994-20 8.646z" fill="#fa870a"/></g><g><path d="m354.46 128.71v46.075c.005.002.009.004.014.006 2.823 1.107 5.627 2.26 8.416 3.449.818.348 1.636.696 2.451 1.05 1.067.465 2.131.935 3.192 1.412 1.155.519 2.305 1.048 3.454 1.581.822.381 1.646.755 2.465 1.143.003.001.006.003.009.004v-54.72z" fill="#fa690f"/></g><g><path d="m469.2 394.675v-125.203c0-7.279-5.901-13.181-13.181-13.181h-141.953l-13.046 148.254 135.744 21.566z" fill="#dd544f"/></g><path d="m398.057 411.186-65.988-44.611c-11.257-7.61-18.002-20.312-18.002-33.9v-76.384h-48.521c-7.279 0-13.181 5.901-13.181 13.181v163.053l94.684 64.01c50.075-19.026 92.796-53.406 122.151-97.664v-4.197l-25.861 16.878c-13.792 9.003-31.637 8.858-45.282-.366z" fill="#d80a61"/><g><path d="m95.829 205.805h-16.146c-6.683 0-12.1 5.417-12.1 12.1v105.684h42.361v-103.67c0-7.795-6.319-14.114-14.115-14.114z" fill="#50555a"/></g><g fill="#fff"><path d="m296.559 323.97c0-4.198 4.46-6.297 8.92-6.297h45.52c4.329 0 6.165 4.592 6.165 8.789 0 4.854-2.229 9.052-6.165 9.052h-33.976v22.169h19.808c3.936 0 6.166 3.805 6.166 8.002 0 3.542-1.837 7.74-6.166 7.74h-19.808v33.844c0 4.198-5.116 6.297-10.232 6.297-5.115 0-10.231-2.099-10.231-6.297v-83.299z"/><path d="m394.419 335.514c-7.478 0-11.807 4.197-11.807 13.118v34.763c0 8.92 4.329 13.117 11.938 13.117 10.494 0 11.15-8.002 11.544-13.117.394-4.854 4.854-6.166 10.101-6.166 7.084 0 10.363 1.837 10.363 9.707 0 17.447-14.167 27.417-32.926 27.417-17.185 0-31.483-8.396-31.483-30.958v-34.763c0-22.563 14.299-30.959 31.483-30.959 18.759 0 32.926 9.445 32.926 26.104 0 7.871-3.279 9.708-10.231 9.708-5.51 0-9.97-1.443-10.232-6.166-.132-3.41-.526-11.805-11.676-11.805z"/></g><path d="m82.684 205.805h-26.001c-7.795 0-14.115 6.319-14.115 14.115v103.67h26.002v-103.67c0-7.796 6.319-14.115 14.114-14.115z" fill="#373c41"/><path d="m129.649 278.985h-73.766v123.428l36.277 36.306h60.152v-137.072c-.001-12.516-10.147-22.662-22.663-22.662z" fill="#2477f9"/><path d="m57.366 342.278v-63.293h-34.503c-8.191 0-15.365 4.346-19.347 10.857 10.57 85.131 63.097 157.24 136.246 194.996 7.438-3.717 12.55-11.399 12.55-20.28v-27.333c-52.438-.001-94.946-42.51-94.946-94.947z" fill="#0540e5"/><path d="m212.125 245.895v-50.596c0-2.797-1.612-5.344-4.14-6.542s-5.52-.831-7.684.941c-28.569 23.391-64.482 36.331-101.729 36.331h-94.999c-.822 6.549-1.401 13.173-1.722 19.865h210.274z" fill="#dd544f"/><path d="m1.558 257.702h97.014c37.429 0 72.791 13.231 101.885 35.741 2.183 1.689 5.137 1.99 7.615.774 2.479-1.215 4.052-3.734 4.052-6.494v-42.607h-210.225c-.21 4.171-.335 8.364-.341 12.586z" fill="#d80a61"/><g><path d="m461.419 29.83h50.133v107.494h-50.133z" fill="#ffa50a"/></g><g><path d="m461.419 46.831h50.133v28.717h-50.133z" fill="#ffc305"/></g></g></svg>