<svg id="Layer_1" enable-background="new 0 0 511 511" height="512" viewBox="0 0 511 511" width="512" xmlns="http://www.w3.org/2000/svg"><g><g><path d="m253.705 7.2c-96.938 0-156.652 54.679-156.817 54.771 0 0-2.483 3.099-2.947 5.159-3.772 16.742-7.296 39.181-7.296 55.555 0 139.12 117.319 251.872 256.44 251.872 53.572 0 113.175-25.676 153.065-56.547.892-.691 3.724-5.331 3.724-5.331.175-1.073 5.73-23.191 5.73-53.579.001-139.12-112.778-251.9-251.899-251.9z" fill="#afe6ff"/><path d="m44.074 398.796c14.301 21.417 31.795 40.52 51.802 56.628l32.771 22.382c36.847 21.12 79.542 33.194 125.058 33.194 86.873 0 164.252-44.227 209.637-112.204z" fill="#73c8f0"/></g><g><g fill="#a55a3c"><path d="m278.831 321.705v55.155l130.803 130.804h55.157z"/><path d="m128.646 477.808 102.484-102.484v-55.155l-135.249 135.248c10.291 8.284 21.237 15.785 32.765 22.391z"/></g></g><g><path d="m223.428 0h60.554v21.614h-60.554z" fill="#a55a3c"/></g><g><path d="m223.428 21.614h60.554v102.072h-60.554z" fill="#783c28"/></g><g><path d="m509.194 315.276v-255.088c0-10.106-8.193-18.299-18.299-18.299h-336.908v273.386h355.207z" fill="#fff"/></g><path d="m44.146 398.907h419.122c16.72-25.014 29.101-53.248 36.026-83.683h-324.283c-10.106 0-18.299-8.193-18.299-18.299v-255.035h-31.174c-18.517 10.846-28.582 20.044-28.649 20.082-57.932 46.152-95.083 117.303-95.083 197.128 0 51.727 15.601 99.806 42.34 139.807z" fill="#e4f2f6"/><g><path d="m371.968 315.223v83.683h118.928c10.106 0 18.298-8.192 18.298-18.298v-65.385z" fill="#e4f2f6"/></g><g><g><g><path d="m194.718 421.852 68.683-68.683 68.682 68.683h60.82l-129.502-129.502-129.502 129.502z" fill="#783c28"/></g></g><g><path d="m202.636 66.858h215.997v298.987h-215.997z" fill="#9dc63d"/></g><g><path d="m207.408 303.943v-237.084h-105.548v382.852h316.773v-85.33h-150.788c-33.378-.001-60.437-27.059-60.437-60.438z" fill="#69b76b"/></g><g><path d="m77.231 67.204h82.314v22.054h-82.314z" fill="#05cdff" transform="matrix(.769 -.64 .64 .769 -22.653 93.825)"/></g><g><path d="m406.597 37.074h22.054v82.314h-22.054z" fill="#05cdff" transform="matrix(.64 -.769 .769 .64 90.368 349.217)"/></g><g><g><path d="m331.686 150.208h54.771v15.438h-54.771z" fill="#fff" transform="matrix(.707 -.707 .707 .707 -6.502 300.158)"/></g><g><path d="m351.353 130.541h15.438v54.771h-15.438z" fill="#fff" transform="matrix(.707 -.707 .707 .707 -6.502 300.158)"/></g></g><g><g><path d="m140.731 236.636h54.771v15.438h-54.771z" fill="#fff" transform="matrix(.707 -.707 .707 .707 -123.545 190.446)"/></g><g><path d="m160.398 216.969h15.438v54.771h-15.438z" fill="#fff" transform="matrix(.707 -.707 .707 .707 -123.545 190.446)"/></g></g><g><path d="m223.503 181.307c-17.109 0-31.028-13.918-31.028-31.028s13.918-31.028 31.028-31.028 31.028 13.918 31.028 31.028-13.919 31.028-31.028 31.028zm0-46.618c-8.597 0-15.59 6.993-15.59 15.59s6.993 15.59 15.59 15.59 15.59-6.993 15.59-15.59c0-8.596-6.993-15.59-15.59-15.59z" fill="#dd544f"/></g><g><path d="m319.537 266.004c-17.109 0-31.028-13.918-31.028-31.028s13.918-31.028 31.028-31.028 31.028 13.918 31.028 31.028-13.919 31.028-31.028 31.028zm0-46.617c-8.597 0-15.59 6.993-15.59 15.59s6.993 15.59 15.59 15.59 15.59-6.993 15.59-15.59-6.993-15.59-15.59-15.59z" fill="#dd544f"/></g><g><path d="m200.194 404.264c-17.109 0-31.028-13.918-31.028-31.028s13.918-31.028 31.028-31.028 31.028 13.918 31.028 31.028-13.918 31.028-31.028 31.028zm0-46.617c-8.597 0-15.59 6.993-15.59 15.59s6.993 15.59 15.59 15.59 15.59-6.993 15.59-15.59-6.993-15.59-15.59-15.59z" fill="#dd544f"/></g><g><path d="m101.86 142.009h37.883v16.541h-37.883z" fill="#ffc305"/></g><g><path d="m135.07 176.928-11.694-11.697 14.953-14.952-14.954-14.953 11.696-11.697 26.649 26.65z" fill="#ffc305"/></g><g><path d="m229.35 234.435-11.694-11.697 26.649-26.648 26.649 26.648-11.697 11.697-14.952-14.954z" fill="#ffc305"/></g><g><path d="m384.094 359.296-10.673-18.892-18.892 10.673-7.594-13.442 32.334-18.266 18.266 32.333z" fill="#dd544f"/></g><g><path d="m303.437 356.235c-42.835-36.336-67.403-89.392-67.403-145.564v-2.885h16.541v2.885c0 51.305 22.439 99.763 61.562 132.95z" fill="#ffc305"/></g><g><path d="m316.926 437.413-7.654-13.407 1.322-.755c33.72-19.238 54.666-55.304 54.666-94.124l15.438-.001c0 44.352-23.93 85.555-62.451 107.533z" fill="#dd544f"/></g></g></g></svg>