<svg id="Layer_1" enable-background="new 0 0 510 510" height="512" viewBox="0 0 510 510" width="512" xmlns="http://www.w3.org/2000/svg"><g><g><path d="m172.064 305.752h332.886c1.572-7.542 5.05-26.552 5.05-50.752 0-140.833-114.167-255-255-255-98.131 0-158.58 55.352-158.747 55.445 0 0-2.513 3.137-2.983 5.222-3.818 16.948-7.385 39.663-7.385 56.239 0 74.875 33.571 142.203 86.179 188.846z" fill="#afe6ff"/><g><path d="m182.431 305.752c-56.195-46.775-91.972-117.243-91.972-196.073 0-18.615 2.008-36.753 5.795-54.234-58.645 46.72-96.254 118.747-96.254 199.555 0 17.379 1.746 34.35 5.058 50.752z" fill="#73c8f0"/></g></g><path d="m102.738 304.738c23.139 117.02 32.306 182.414 156.116 182.414 51.71 0 96.246 7.371 136.683-19.371 54.318-35.922 94.283-92.172 108.662-158.543.044-.268.419-1.836.959-4.5z" fill="#9dc63d"/><path d="m372.764 468.781c-108.786 0-201.64-68.13-238.273-164.043h-129.627c23.139 117.02 126.326 205.262 250.136 205.262 51.71 0 100.094-15.486 140.531-42.229-7.506.667-15.1 1.01-22.767 1.01z" fill="#69b76b"/><g><g><path d="m63.647 45.937h379.96l-27.631 91.477h-334.907z" fill="#c3247d"/></g><g><g><path d="m59.135 153.903 19.936 68.007 93.405 24.368 69.653-70.007-27.383-96.67-86.174-15.543c-30.676 22.782-54.936 53.892-69.437 89.845z" fill="#e4f2f6"/></g><g><path d="m134.317 403.822c33.7 23.293 74.616 36.98 118.683 36.98 21.08 0 41.574-3.179 60.759-8.986l-21.264-74.587-93.706-22.678z" fill="#c8e6eb"/></g><g><path d="m394.452 129.603 45.747 9.455c-14.743-29.674-36.636-55.576-63.007-75.177z" fill="#c8e6eb"/></g><g><path d="m253 22.965c-46.622 0-89.669 15.279-124.428 41.093l82.218 19.97 57.179-60.524c-4.922-.346-9.959-.539-14.969-.539z" fill="#c8e6eb"/></g><g><path d="m330.393 197.514-92.648-22.298-65.634 69.086 27.013 91.384 92.648 22.298 66.316-68.922z" fill="#fff"/></g><g><path d="m45.623 257.291 37.111-34.5-23.598-68.889c-9.641 24.032-15.053 50.502-15.053 77.981-.001 8.549.542 17.129 1.54 25.408z" fill="#b4d7dc"/></g><g><path d="m79.071 221.91-33.448 35.381c7.397 60.624 40.823 113.406 88.694 146.531l64.807-68.136-27.013-91.384z" fill="#1a1b1c"/></g><g><path d="m210.732 83.832 27.013 91.384 92.648 22.298 65.261-69.176-18.462-64.457c-30.882-22.779-68.639-37.489-109.222-40.377z" fill="#373c41"/></g><g><path d="m461.918 231.884c0-33.346-7.826-64.859-21.72-92.825l-44.544-10.721-65.634 69.086 27.648 91.537 88.975 21.445c9.833-24.236 15.275-50.757 15.275-78.522z" fill="#e4f2f6"/></g><g><path d="m446.643 310.406-88.975-21.445-65.634 69.086 21.725 73.769c60.451-18.372 109.347-63.401 132.884-121.41z" fill="#373c41"/></g><g><path d="m180.746 235.213c-28.961-35.858-46.384-81.566-46.384-131.248 0-12.871 1.184-25.464 3.414-37.692l-9.204-2.215c-31.795 23.618-55.48 55.244-69.437 89.845l19.936 68.007 93.04 22.392z" fill="#c8e6eb"/></g><g><path d="m334.796 312.697c-62.207-2.486-117.409-32.166-154.05-77.484l-8.635 9.089 27.013 91.384 92.648 22.298z" fill="#e4f2f6"/></g><g><path d="m410.757 301.738c-21.168 7.222-43.863 11.145-67.476 11.145-2.739 0-5.461-.07-8.174-.174l-43.335 45.275 21.987 73.832c60.973-18.531 109.559-64.018 132.884-121.41.015-.038-.015.037 0 0z" fill="#1a1b1c"/></g></g><g><path d="m253.599 268.106c-16.805 0-30.477-13.672-30.477-30.477v-12.763c0-16.805 13.672-30.477 30.477-30.477s30.477 13.672 30.477 30.477v12.763c0 16.805-13.672 30.477-30.477 30.477zm0-56.349c-7.228 0-13.109 5.881-13.109 13.109v12.763c0 7.228 5.881 13.109 13.109 13.109s13.109-5.881 13.109-13.109v-12.763c.001-7.228-5.88-13.109-13.109-13.109z" fill="#fa870a"/></g><g><circle cx="252.849" cy="344.763" fill="#ffc305" r="105.516"/></g><g><path d="m296.587 405.936c-58.275 0-105.516-47.241-105.516-105.516 0-17.542 4.286-34.081 11.86-48.637-33.097 17.806-55.598 52.764-55.598 92.98 0 58.275 47.241 105.516 105.516 105.516 40.732 0 76.069-23.084 93.656-56.879-14.862 7.996-31.859 12.536-49.918 12.536z" fill="#ffa50a"/></g><g><path d="m205.058 220.447h52.064v192.89h-52.064z" fill="#ffe65a" transform="matrix(.597 .803 -.803 .597 347.57 -57.615)"/></g><g><path d="m191.888 313.594-44.531 33.098c.144 8.007 1.18 15.796 3.013 23.273l18.844 25.353 42.791-31.805c-10.669-14.279-17.804-31.351-20.117-49.919z" fill="#ffc305"/></g><g><path d="m245.054 265.053h27.6v192.89h-27.6z" fill="#ffe65a" transform="matrix(.597 .803 -.803 .597 394.572 -61.901)"/></g><g><path d="m188.268 428.206c.65.504 1.305 1 1.967 1.488l52.128-38.745c-8.212-4.929-15.7-10.941-22.261-17.843l-46.885 34.848z" fill="#ffc305"/></g><g><path d="m278.336 300.299v-13.025h-49.474v13.025h7.705v92.611h-8.455v13.026h49.474v-13.026h-8.455v-92.611z" fill="#ffe65a"/></g><g><path d="m277.586 404.226c-15.024-2.732-28.936-8.649-41.019-17.021v5.705h-8.455v13.026h49.473v-1.71z" fill="#ffc305"/></g><g><path d="m236.567 360.868v32.042h-8.455v8.632l41.019-30.488v-34.389z" fill="#fff0a4"/></g><g><path d="m278.336 300.299v-13.025h-49.474v13.025h7.705v44.957l32.564-24.204v-20.753z" fill="#fff0a4"/></g><g><path d="m335.256 262.356c-45.512-45.512-119.302-45.512-164.813 0-6.032 6.032-11.256 12.564-15.689 19.458 3.137-2.219 6.904-3.548 10.737-3.548 10.331 0 17.999 8.346 18.616 18.293 2.754-3.923 5.859-7.673 9.362-11.177 32.742-32.742 86.018-32.742 118.761 0 32.742 32.742 32.742 86.018 0 118.76-4.285 4.285-8.929 7.995-13.826 11.158 1.041-.194 2.097-.302 3.16-.302 10.454 0 18.195 8.544 18.648 18.648.113 2.525-.39 4.956-1.361 7.182 5.773-3.976 11.271-8.526 16.405-13.66 45.512-45.51 45.512-119.3 0-164.812z" fill="#ffa50a"/></g><g><path d="m321.835 415.386c-5.605-5.605-14.41-6.331-20.906-1.788-32.732 22.89-78.258 19.748-107.461-9.454-29.202-29.202-32.344-74.728-9.454-107.461 4.543-6.496 3.817-15.301-1.788-20.906-7.155-7.155-19.048-6.134-24.86 2.149-31.905 45.463-27.55 108.617 13.076 149.244s103.78 44.981 149.244 13.076c8.283-5.813 9.304-17.705 2.149-24.86z" fill="#fa870a"/></g><g><path d="m255.392 211.746 188.215-165.809v96.797l-176.902 86.156z" fill="#dd544f"/></g><g><path d="m252.22 211.835-188.573-165.898v96.797l176.902 86.156z" fill="#d80a61"/></g></g></g></svg>