<svg id="Layer_1" enable-background="new 0 0 510.615 510.615" height="512" viewBox="0 0 510.615 510.615" width="512" xmlns="http://www.w3.org/2000/svg"><g><g><path d="m510.194 263.118c.072-2.44.114-4.939.114-7.503 0-140.833-114.167-255-255-255-98.131 0-158.58 55.352-158.747 55.445 0 0-2.513 3.137-2.983 5.222-3.818 16.948-7.385 39.663-7.385 56.239 0 54.136 17.563 104.317 47.168 145.597z" fill="#afe6ff"/><g><path d="m141.62 263.118c-31.933-42.589-50.854-95.496-50.854-152.824 0-18.615 2.007-36.753 5.795-54.234-58.645 46.72-96.254 118.747-96.254 199.555 0 2.511.046 5.01.118 7.503z" fill="#73c8f0"/></g></g><path d="m139.738 260.551c2.632 138.553-14.298 184.292 124.884 184.292 121.17 0 214.801-19.208 239.885-134.99.168-1.028 5.202-21.11 5.75-49.302z" fill="#9dc63d"/><path d="m345.766 365.294c-84.647 0-159.647-41.255-206.028-104.743h-139.368c2.03 106.915 69.114 196.014 161.691 232.426l298.879-86.516c20.734-28.213 35.839-60.936 43.567-96.608-43.559 34.696-98.724 55.441-158.741 55.441z" fill="#69b76b"/><path d="m162.045 493.018c8.438 3.317 17.102 6.183 25.951 8.599v-492.041c-9.286 2.521-17.953 5.429-25.951 8.54z" fill="#a55a3c"/><path d="m162.045 0h25.951v234.614h-25.951z" fill="#783c28"/><g><path d="m301.979 112.744c-50.7 11.777-101.399 23.554-152.098 0 0-32.715 0-65.43 0-98.145 50.699 23.555 101.399 11.778 152.098 0 2.607 12.198 5.214 24.396 7.822 36.598-2.608 20.513-5.215 41.03-7.822 61.547z" fill="#dd544f"/><path d="m454.077 112.744c-50.7-23.555-101.399-11.777-152.098 0 0-32.715 0-65.43 0-98.145 50.699-11.777 101.399-23.555 152.098 0z" fill="#ffc305"/><path d="m301.979 210.889c-50.7 11.777-101.399 23.554-152.098 0 0-32.715 0-65.43 0-98.145 50.699 23.554 101.399 11.777 152.098 0 2.607 12.198 5.214 24.395 7.822 36.598-2.608 20.513-5.215 41.03-7.822 61.547z" fill="#ffc305"/><path d="m454.077 210.889c-50.7-23.555-101.399-11.777-152.098 0 0-32.715 0-65.43 0-98.145 50.699-11.777 101.399-23.555 152.098 0z" fill="#dd544f"/></g><g><path d="m193.008 414.32 13.954 47.599 65.375 17.055 48.751-48.998-19.165-67.66-60.314-10.878c-21.472 15.944-38.451 37.718-48.601 62.882z" fill="#e4f2f6"/><path d="m415.618 351.313 12.08 46 32.018 6.618c-10.318-20.77-25.641-38.899-44.098-52.618z" fill="#c8e6eb"/><path d="m328.696 322.676c-32.631 0-62.76 10.694-87.088 28.761l57.545 13.977 40.02-42.361c-3.445-.243-6.971-.377-10.477-.377z" fill="#c8e6eb"/><path d="m382.863 444.843-64.845-15.606-45.938 48.354 9.365 31.681c39.82-4.07 77.078-17.332 109.496-37.724z" fill="#fff"/><path d="m183.551 486.682 25.974-24.147-16.517-48.216c-6.748 16.82-10.536 35.347-10.536 54.579 0 5.984.381 11.99 1.079 17.784z" fill="#b4d7dc"/><path d="m281.446 509.272-9.365-31.681-65.119-15.672-23.411 24.764c.596 4.882 1.443 9.687 2.509 14.411 22.02 6.199 45.245 9.521 69.247 9.521 8.819 0 17.537-.463 26.139-1.343z" fill="#1a1b1c"/><path d="m299.112 365.277 18.907 63.96 64.845 15.606 45.677-48.417-12.922-45.114c-21.615-15.943-48.041-26.239-76.445-28.26z" fill="#373c41"/><path d="m460.925 406.451c-.399-.843-.794-1.687-1.208-2.521l-31.177-7.503-45.938 48.354 8.126 26.904c27.27-17.117 51.117-39.272 70.197-65.234z" fill="#e4f2f6"/><path d="m278.125 471.229c-20.27-25.097-32.464-57.089-32.464-91.862 0-9.009.828-17.822 2.389-26.381l-6.442-1.55c-22.253 16.53-38.831 38.666-48.6 62.883l13.954 47.599 65.119 15.672z" fill="#c8e6eb"/><path d="m278.125 471.229-6.044 6.362 9.365 31.681c11.335-1.159 22.464-3.058 33.331-5.66-13.961-8.682-26.356-19.647-36.652-32.383z" fill="#e4f2f6"/></g><path d="m301.979 210.888c2.593-20.403 5.185-40.806 7.778-61.205h-74.191v-24.455c-28.562 2.84-57.124.785-85.686-12.485v98.145c24.309 11.294 49.291 14.804 76.049 13.25 25.35-1.472 50.7-7.361 76.05-13.25z" fill="#ffa50a"/><g fill="#d80a61"><path d="m235.566 125.229v-98.145c-54.274 5.388-83.072-11.787-85.686-12.485v98.145c28.562 13.27 57.124 15.325 85.686 12.485z"/><path d="m301.979 210.888c50.699-11.777 101.399-23.555 152.098 0v-61.205h-152.098z"/></g></g></svg>