<svg id="Layer_1" enable-background="new 0 0 510 510" height="512" viewBox="0 0 510 510" width="512" xmlns="http://www.w3.org/2000/svg"><g><g><g><path d="m471.737 120.617c-44.987-72.402-125.225-120.617-216.737-120.617-98.131 0-158.58 55.352-158.747 55.445 0 0-2.513 3.137-2.983 5.222-3.818 16.948-7.385 39.663-7.385 56.239 0 140.833 118.763 254.972 259.596 254.972 42.52 0 88.79-15.981 126.256-37.944z" fill="#afe6ff"/></g><path d="m72.25 410.261-18.518 1.305c22.478 28.854 51.024 52.748 83.719 69.767l10.618-19.281v-51.791z" fill="#73c8f0"/></g><g><path d="m509.475 238.828c-4.666-74.531-41.333-140.379-96.438-183.954h-291.927v263.446h380.925c.077-.302.154-.605.231-.908l-3.274-10.149 7.516-9.85c1.09-6.528 2.296-15.45 2.967-26.005.35-5.123.525-10.256.525-15.39v-1.018z" fill="#9dc63d"/><g><path d="m398.211 54.874v179.526l111.789 20.6v-85.895l-9.156-10 9.156-9.999v-94.232z" fill="#9dc63d"/></g><path d="m181.259 317.686c-32.245 0-58.386-26.14-58.386-58.385v-204.427h-25.964c-.42.364-.645.566-.655.571-31.215 24.868-56.471 56.906-73.267 93.622l1.952 11.335-9.946 8.265c-9.704 26.962-14.993 56.03-14.993 86.333 0 14.438 1.201 28.596 3.507 42.379l8.881 11.205-4.7 8.795c8.75 34.787 24.648 66.733 46.038 94.192h358.414l58.999-21.196c13.875-22.117 24.464-46.564 31.064-72.689z" fill="#69b76b"/><g><path d="m232.962 54.874h20v356.696h-20z" fill="#fff"/></g><path d="m453.152 297.413v-128.308h42.002c-2.434-6.804-5.143-13.477-8.125-20h-43.877c-5.522 0-10 4.478-10 10v148.308c0 5.522 4.478 10 10 10h59.119c.681-2.709 1.333-5.43 1.928-8.175.075-.459 1.123-4.734 2.308-11.825z" fill="#fff"/><g><path d="m466.578 149.105h43.422v20h-43.422z" fill="#fff"/></g><path d="m31.383 169.068v128.308h-27.858c1.131 6.76 2.521 13.431 4.173 20h33.685c5.523 0 10-4.478 10-10v-148.308c0-5.522-4.477-10-10-10h-18.394c-2.984 6.523-5.699 13.195-8.135 20z" fill="#fff"/><g><path d="m242.962 305.47c-39.837 0-72.248-32.41-72.248-72.248 0-39.837 32.41-72.247 72.248-72.247s72.248 32.41 72.248 72.247c0 39.838-32.41 72.248-72.248 72.248zm0-124.495c-28.81 0-52.248 23.438-52.248 52.247s23.438 52.248 52.248 52.248c28.809 0 52.248-23.438 52.248-52.248s-23.439-52.247-52.248-52.247z" fill="#fff"/></g></g><g><g><path d="m429.828 296.588h-57.662v-11h57.662c8.446 0 15.318-6.872 15.318-15.318v-20.268h11v20.268c0 14.511-11.806 26.318-26.318 26.318z" fill="#696e73"/></g><g><path d="m369.836 46.556h-106.428c-11.676 0-21.14-9.465-21.14-21.14h148.708c0 11.675-9.465 21.14-21.14 21.14z" fill="#ffc305"/></g><g><path d="m281.27 25.415h-39.002c0 11.676 9.465 21.14 21.14 21.14h39.003c-11.676.001-21.141-9.464-21.141-21.14z" fill="#ffa50a"/></g><g><path d="m453.646 197.799h-20v-119.336c0-26.327-21.418-47.745-47.745-47.745h-140.042c-26.327 0-47.745 21.418-47.745 47.745v119.336h-20v-119.336c0-37.354 30.39-67.745 67.745-67.745h140.042c37.354 0 67.745 30.391 67.745 67.745z" fill="#50555a"/></g><g><path d="m178.114 147.954h20v49.845h-20z" fill="#373c41"/></g><g><path d="m433.646 147.954h20v49.845h-20z" fill="#373c41"/></g><path d="m316.111 348.087-92.616 20.556v139.427c10.323 1.273 20.837 1.93 31.505 1.93 14.174 0 28.099-1.163 41.678-3.402l21.874-17.464 17.734 7.603c25.588-8.61 49.415-21.178 70.717-37.009v-91.528z" fill="#afe6ff"/><path d="m137.451 442.341v38.991c26.691 13.891 56.146 23.194 87.326 26.876v-139.85l-34.024 7.552c-31.142 6.913-53.302 34.531-53.302 66.431z" fill="#0540e5"/><path d="m405.981 367.974v42.046c.064 1.799.069 3.614 0 5.449v45.011c25.834-18.999 48-42.773 65.153-70.108-8.204-6.927-18.116-11.989-29.168-14.435z" fill="#2477f9"/><g><path d="m316.111 327.911c-43.47 0-78.71 35.24-78.71 78.71 0 28.934 15.623 54.206 38.883 67.883l40.287-40.287 39.951 39.951c22.94-13.754 38.299-38.853 38.299-67.547.001-43.47-35.239-78.71-78.71-78.71z" fill="#73c8f0"/></g><g><path d="m316.111 312.049c-43.47 0-78.71 35.24-78.71 78.71 0 28.934 15.623 54.206 38.883 67.883l40.287-40.287 39.951 39.951c22.94-13.754 38.299-38.853 38.299-67.547.001-43.47-35.239-78.71-78.71-78.71z" fill="#fff"/></g><g><g><g><path d="m316.622 416.786c-20.073 0-36.344-16.272-36.344-36.344v-81.406h72.689v81.406c-.001 20.072-16.273 36.344-36.345 36.344z" fill="#ff965a"/></g></g></g><g><g><g><path d="m415.216 171.518c0-33.168-21.278-63.497-54.445-63.497h-88.298c-9.464 0-18.132 2.477-25.694 6.777v175.309c0 38.264 30.776 69.577 69.038 69.867.268.002.537.003.805.003 56.987 0 103.183-46.197 103.183-103.183v-32.575z" fill="#ffbe82"/></g></g></g><g><g><g><path d="m272.04 218.235v7.276c0 4.746 3.848 8.594 8.594 8.594s8.594-3.848 8.594-8.594v-7.276z" fill="#ff965a"/></g></g></g><g><g><g><path d="m342.063 218.235v7.276c0 4.746 3.848 8.594 8.594 8.594s8.594-3.848 8.594-8.594v-7.276z" fill="#ff965a"/></g></g></g><g><g><path d="m322.215 359.826c-43.381-12.598-75.091-52.632-75.091-100.077.258-5.863 0-62.674 0-84.254 0-33.168 26.888-60.055 60.055-60.055h74.95c-6.593-2.56-13.782-3.977-21.358-3.977h-88.298c-33.168 0-57.782 24.614-57.782 57.782l-2.274 54.974v31.554c0 59.555 49.9 107.226 109.798 104.053z" fill="#ff965a"/></g></g><g><g><g><path d="m280.634 227.222c-4.746 0-8.594-3.848-8.594-8.594v-11.055l3.168-4.797-3.168-4.797v-2.855c0-4.746 3.848-8.594 8.594-8.594s8.594 3.848 8.594 8.594v23.504c0 4.746-3.848 8.594-8.594 8.594z" fill="#373c41"/></g></g></g><g><g><g><path d="m350.657 227.222c-4.746 0-8.594-3.848-8.594-8.594v-11.055l3.168-4.797-3.168-4.797v-2.855c0-4.746 3.848-8.594 8.594-8.594s8.594 3.848 8.594 8.594v23.504c0 4.746-3.848 8.594-8.594 8.594z" fill="#373c41"/></g></g></g><g><g><g><g><path d="m291.956 182.233h-25.062c-4.746 0-8.594-3.848-8.594-8.594 0-4.746 3.848-8.594 8.594-8.594h25.062c4.746 0 8.594 3.848 8.594 8.594 0 4.746-3.848 8.594-8.594 8.594z" fill="#783c28"/></g></g></g></g><g><g><g><g><path d="m363.572 182.233h-25.062c-4.746 0-8.594-3.848-8.594-8.594 0-4.746 3.848-8.594 8.594-8.594h25.062c4.746 0 8.594 3.848 8.594 8.594 0 4.746-3.847 8.594-8.594 8.594z" fill="#783c28"/></g></g></g></g><g><path d="m348.266 274.766h-8.849l-23.305 4.838-23.305-4.838h-7.828c-2.626 0-4.724 2.292-4.374 4.895.67 4.979 2.349 9.638 4.823 13.766l47.189 13.984c10.657-5.231 18.378-15.528 20.023-27.75.35-2.603-1.748-4.895-4.374-4.895z" fill="#c3247d"/></g><g><g><g><path d="m302.697 239.422c-2.136 8.531 1.746 17.824 9.171 20.625 1.494.564 3.092.869 4.754.869 1.661 0 3.26-.305 4.754-.869 7.425-2.801 11.308-12.094 9.171-20.625l-7.082-28.282c-1.783-7.12-11.902-7.12-13.685 0z" fill="#ff965a"/></g></g></g><g><path d="m419.805 138.426v-27.149h-173.692v6.215c.25-.121.5-.241.75-.357 10.094-4.692 21.089 4.946 17.662 15.538-.042.13-.084.261-.125.391-2.32 7.382 3.245 14.889 10.983 14.889h50.642c18.654 0 34.9-10.29 43.382-25.502 3.239-5.809 10.473-8.237 16.487-5.397.117.055.234.111.351.167 8.872 4.263 15.286 12.062 18.117 21.204l.259.779z" fill="#a55a3c"/></g><g><g><path d="m212.417 114.271v57.792.003 52.153c7.633 0 13.821-6.188 13.821-13.821v-61.026c0-13.479 7.586-25.903 19.707-31.799.297-.145.594-.286.89-.423v-2.878h-34.418z" fill="#783c28"/></g><g><path d="m412.139 130.08c-5.047 0-8.715 4.792-7.394 9.663.811 2.991 1.239 6.112 1.239 9.295v61.359c0 7.633 6.188 13.821 13.821 13.821v-86.472c0-4.233-3.432-7.666-7.666-7.666z" fill="#783c28"/></g></g><g><path d="m275.208 210.741c-1.75 0-3.168-1.418-3.168-3.168v-9.594c0-1.75 1.418-3.168 3.168-3.168 1.75 0 3.168 1.418 3.168 3.168v9.594c0 1.75-1.419 3.168-3.168 3.168z" fill="#fff"/></g><g><path d="m345.231 210.741c-1.75 0-3.168-1.418-3.168-3.168v-9.594c0-1.75 1.418-3.168 3.168-3.168 1.75 0 3.168 1.418 3.168 3.168v9.594c0 1.75-1.418 3.168-3.168 3.168z" fill="#fff"/></g><g><path d="m285.431 293.424c6.351 10.593 17.941 17.686 31.19 17.686 5.74 0 11.166-1.335 15.992-3.704-2.075-13.015-13.347-22.963-26.946-22.963-8.026 0-15.242 3.465-20.236 8.981z" fill="#dd544f"/></g><g><path d="m334.29 284.443h-36.357c-2.831 0-5.127-2.295-5.127-5.127v-4.55h46.611v4.55c0 2.831-2.296 5.127-5.127 5.127z" fill="#fff"/></g><g><path d="m380.521 46.556h-94.595l-3.546.036c-20.089.203-36.267 16.546-36.267 36.635v28.05h173.692v-25.437c0-21.696-17.588-39.284-39.284-39.284z" fill="#a55a3c"/></g><g><path d="m285.926 46.556h-34.224c-21.696 0-39.284 17.588-39.284 39.284v29.463l34.418-1.033-.194-28.43c0-21.696 17.588-39.284 39.284-39.284z" fill="#783c28"/></g><g><path d="m298.099 425.999h37.046v37.046h-37.046z" fill="#373c41" transform="matrix(.707 .707 -.707 .707 407.061 -93.688)"/></g><path d="m336.936 488.521-6-38.666h-28.628l-6 38.666.987 17.96c13.433-2.249 26.531-5.538 39.193-9.809z" fill="#373c41"/><g><g><g><g><path d="m158.684 228.063c0 20.287 16.445 36.732 36.732 36.732v-93.119c-20.287 0-36.732 16.445-36.732 36.732z" fill="#ffc305"/></g></g></g><g><path d="m159.3 201.734c-.398 2.165-.616 4.393-.616 6.673v19.655c0 20.286 16.445 36.732 36.732 36.732v-33.002c-18.006.001-32.976-12.959-36.116-30.058z" fill="#ffa50a"/></g><g><path d="m204.78 274.766c-5.171 0-9.364-4.192-9.364-9.364v-90.993c0-5.171 4.192-9.364 9.364-9.364 5.171 0 9.364 4.192 9.364 9.364v90.993c0 5.171-4.192 9.364-9.364 9.364z" fill="#ffa50a"/></g><g><path d="m204.78 243.764c-5.172 0-9.364-4.192-9.364-9.364v31.002c0 5.172 4.192 9.364 9.364 9.364 5.171 0 9.364-4.192 9.364-9.364v-31.002c0 5.171-4.192 9.364-9.364 9.364z" fill="#fa870a"/></g></g><g><g><g><g><path d="m475.265 226.393c0 20.287-16.445 36.732-36.732 36.732l-3.215-93.119h3.215c20.287 0 36.732 16.445 36.732 36.732z" fill="#ffc305"/></g></g></g><g><path d="m474.649 200.064c.398 2.165.616 4.393.616 6.673v19.655c0 20.286-16.445 36.732-36.732 36.732v-33.002c18.006.001 32.976-12.959 36.116-30.058z" fill="#ffa50a"/></g><g><path d="m429.169 273.096c5.172 0 9.364-4.192 9.364-9.364v-90.993c0-5.171-4.192-9.364-9.364-9.364-5.171 0-9.364 4.192-9.364 9.364v90.993c0 5.171 4.193 9.364 9.364 9.364z" fill="#ffa50a"/></g><g><path d="m429.169 242.093c5.172 0 9.364-4.192 9.364-9.364v31.002c0 5.172-4.192 9.364-9.364 9.364-5.171 0-9.364-4.192-9.364-9.364v-31.001c0 5.171 4.193 9.363 9.364 9.363z" fill="#fa870a"/></g></g><g><path d="m372.166 285.588h47.479v11h-47.479z" fill="#50555a"/></g><g><path d="m385.919 307.411h-14.254c-9.015 0-16.322-7.308-16.322-16.322 0-9.015 7.308-16.322 16.322-16.322h14.254c9.015 0 16.322 7.308 16.322 16.322 0 9.014-7.307 16.322-16.322 16.322z" fill="#ffa50a"/></g></g></g></svg>