<svg id="Layer_1" enable-background="new 0 0 510.115 510.115" height="512" viewBox="0 0 510.115 510.115" width="512" xmlns="http://www.w3.org/2000/svg"><g><g><path d="m510.054 255.568c0-.19.003-.377.003-.568 0-140.833-114.167-255-255-255-98.13 0-158.58 55.352-158.746 55.445 0 0-2.513 3.137-2.983 5.222-3.818 16.948-7.385 39.663-7.385 56.239 0 51.138 15.67 98.749 42.359 138.662z" fill="#afe6ff"/><g><path d="m90.516 109.679c0-18.615 2.007-36.753 5.795-54.234-42.883 34.164-74.518 81.859-88.426 136.624l128.479 63.499c-28.888-41.339-45.848-91.63-45.848-145.889z" fill="#73c8f0"/></g></g><g fill="#a55a3c"><path d="m359.267 194.041h20.499v164.647h-20.499z"/><path d="m228.307.385h20.499v22.669h-20.499z"/><path d="m228.307 125.654v168.03h20.499v-177.32z"/></g><path d="m379.766 195.011v-129.622h-20.499v12.798l10.249 61.737-10.249 42.543v12.544z" fill="#783c28"/><path d="m248.806 23.054v-22.669h-20.499v12.798l10.249 11.365z" fill="#783c28"/><path d="m228.307 117.463v8.191h20.499v-23.705z" fill="#783c28"/><path d="m228.307 117.463v-104.28l117.439 52.14z" fill="#fec502"/><path d="m248.455 22.128-20.148-8.945v104.28l117.439-52.14-13.997-6.214c-8.409-3.733-18.005-3.733-26.414 0-26.755 11.878-56.88-7.707-56.88-36.981z" fill="#ffa50a"/><path d="m107.17 255.078-6.854 202.62c42.913 32.811 96.551 52.302 154.741 52.302 121.17 0 224.116-84.98 249.199-200.761.178-1.086 5.791-23.439 5.8-54.16h-402.886z" fill="#9dc63d"/><g><g><path d="m82.403 138.556 1.91 15.648 71.197 29.267 50.876-40.214c-20.727-9.251-43.686-14.402-67.851-14.402-19.72 0-38.575 3.413-56.132 9.701z" fill="#c8e6eb"/></g><path d="m115.57 381.943-52.055 41.372c11.104 12.627 23.437 24.143 36.812 34.369 30.811 7.226 63.033 5.551 92.512-4.596l-5.058-41.833z" fill="#1a1b1c"/><g><g><path d="m165.67 258.698-60.811 47.852 10.948 76.211 71.346 28.983 60.943-47.43-10.402-76.41z" fill="#fff"/></g><g><path d="m84.604 153.979-61.288 47.243 10.573 76.278 71.264 29.046 60.608-47.168-10.328-76.469z" fill="#373c41"/></g></g><g><path d="m237.352 288.17 10.745 76.145 34.927 14.283c14.07-24.442 22.156-52.869 22.156-83.097 0-18.652-3.066-36.588-8.718-53.332z" fill="#373c41"/></g><g><path d="m283.024 378.597-34.927-14.427-60.944 47.573 5.686 41.345c38.23-13.183 70.266-39.981 90.185-74.491z" fill="#b4d7dc"/></g><path d="m105.153 306.546-71.345-28.983 81.919 105.261z" fill="#e4f2f6"/><g><path d="m206.385 143.256-50.952 39.653 10.328 76.469 71.59 28.792 59.11-46.002c-14.916-44.186-47.858-80.068-90.076-98.912z" fill="#e4f2f6"/></g><path d="m4.211 301.032 30.42-23.23-11.205-76.665-16.166-6.474c-4.696 19.346-7.203 39.547-7.203 60.337 0 15.718 1.432 31.1 4.154 46.032z" fill="#a5c8cd"/><path d="m4.139 300.653c8.412 46.537 29.458 88.672 59.451 122.746l52.218-40.638-8.538-61.595c-9.687-7.189-18.666-15.476-26.577-24.557l-46.884-19.046z" fill="#c8e6eb"/><g><path d="m80.56 296.459c-25.175-28.966-40.505-66.711-40.805-108.031l-16.439 12.794 10.493 76.341z" fill="#1a1b1c"/></g><g><path d="m245.988 349.103 2.109 15.212 34.927 14.283c9.843-17.098 16.629-36.046 19.874-55.533-16.902 12.026-36.145 20.976-56.91 26.038z" fill="#1a1b1c"/></g><g><path d="m107.17 321.091 8.638 61.67 71.345 28.982 60.944-47.429-2.292-15.165c-12.638 3.065-25.838 4.692-39.419 4.692-37.128 0-71.515-12.221-99.216-32.75z" fill="#e4f2f6"/></g><path d="m23.316 201.222 61.288-47.243-2.201-15.423c-29.598 10.574-55.318 29.366-74.493 53.519-.219.864-.44 1.728-.651 2.595z" fill="#e4f2f6"/></g><g><circle cx="299.893" cy="345.702" fill="#fec502" r="89.302"/><path d="m299.893 435.004c-49.32 0-89.302-39.982-89.302-89.302s39.982-89.302 89.302-89.302" fill="#ffe65a"/><path d="m255.261 240.669h55.926v177.875h-55.926z" fill="#ffe65a" transform="matrix(.707 .707 -.707 .707 316.021 -103.73)"/><path d="m240.109 412.268 59.784-59.785v-79.092l-99.33 99.331z" fill="#fff5aa"/><path d="m373.93 271.666c-40.889-40.889-107.184-40.889-148.073 0-6.655 6.655-12.219 13.986-16.708 21.767h34.247c.676-.729 1.352-1.459 2.061-2.168 30.017-30.017 78.857-30.017 108.874 0s30.017 78.857 0 108.874c-.583.583-1.185 1.134-1.782 1.694v34.392c7.638-4.45 14.837-9.942 21.382-16.487 40.888-40.888 40.888-107.183-.001-148.072z" fill="#ffa50a"/><path d="m354.33 400.139c-30.016 30.017-78.857 30.017-108.874 0s-30.017-78.857 0-108.874l-19.599-19.6c-40.889 40.889-40.889 107.184 0 148.073s107.184 40.889 148.073 0z" fill="#fec502"/><g><path d="m299.125 292.304c-3.026 0-5.228 1.788-5.228 3.714v3.852c-14.582 2.063-27.513 10.455-27.513 27.926 0 17.609 14.857 23.524 27.513 28.339v22.286c-10.179-1.788-14.857-9.905-20.635-9.905-5.228 0-9.355 6.878-9.355 11.556 0 8.804 13.482 17.333 29.99 17.884v3.439c0 1.926 2.202 3.715 5.228 3.715 2.614 0 5.228-1.788 5.228-3.715v-3.99c16.096-2.614 27.101-12.931 27.101-29.99 0-18.572-14.582-25.038-27.101-29.715v-20.085c8.942.688 11.555 5.09 16.096 5.09 6.053 0 8.529-7.566 8.529-11.281 0-9.492-16.096-11.693-24.625-11.968v-3.439c0-1.924-2.614-3.713-5.228-3.713zm-3.851 42.096c-5.228-2.201-8.804-4.677-8.804-8.667 0-3.302 2.614-6.466 8.804-7.704zm7.703 43.885v-18.435c4.953 2.339 8.392 5.228 8.392 9.768 0 4.953-3.714 7.566-8.392 8.667z" fill="#ffa50a"/></g><g fill="#fff5aa"><path d="m273.263 368.517c-5.228 0-9.355 6.878-9.355 11.556 0 2.117.786 4.217 2.2 6.195l14.448-14.448c-2.57-1.828-4.833-3.303-7.293-3.303z"/><path d="m304.353 337.702v-20.085c8.942.688 11.555 5.09 16.096 5.09 6.053 0 8.529-7.566 8.529-11.281 0-9.492-16.096-11.693-24.625-11.968v-3.439c0-1.926-2.614-3.714-5.228-3.714-3.026 0-5.228 1.789-5.228 3.714v3.853c-14.582 2.063-27.513 10.455-27.513 27.926 0 17.608 14.857 23.524 27.513 28.339v2.343l17.8-17.8c-2.445-1.108-4.932-2.077-7.344-2.978zm-9.079-3.302c-5.228-2.201-8.804-4.677-8.804-8.667 0-3.302 2.614-6.466 8.804-7.704z"/></g><g fill="#fec502"><path d="m273.263 368.517c-5.228 0-9.355 6.878-9.355 11.556 0 2.117.786 4.217 2.2 6.195l14.448-14.448c-2.57-1.828-4.833-3.303-7.293-3.303z"/><path d="m299.893 352.483v-60.124c-.255-.033-.511-.055-.768-.055-3.026 0-5.228 1.789-5.228 3.714v3.853c-14.582 2.063-27.513 10.455-27.513 27.926 0 17.608 14.857 23.524 27.513 28.339v2.343zm-13.424-26.749c0-3.302 2.614-6.466 8.804-7.704v16.37c-5.227-2.201-8.804-4.677-8.804-8.666z"/></g><g><path d="m293.899 391.65c-16.509-.551-29.991-9.08-29.991-17.885 0-4.678 4.127-11.556 9.354-11.556 5.778 0 10.456 8.116 20.637 9.905v-22.287c-12.657-4.815-27.515-10.73-27.515-28.34 0-17.473 12.932-25.864 27.515-27.928v-3.853c0-1.926 2.201-3.714 5.228-3.714 2.614 0 5.228 1.788 5.228 3.714v3.439c8.529.275 24.626 2.477 24.626 11.969 0 3.715-2.477 11.281-8.529 11.281-4.54 0-7.154-4.402-16.097-5.09v20.086c12.52 4.677 27.103 11.143 27.103 29.716 0 17.059-11.006 27.377-27.103 29.99v3.99c0 1.926-2.613 3.714-5.228 3.714-3.026 0-5.228-1.788-5.228-3.714zm1.375-63.559v-16.372c-6.19 1.238-8.805 4.402-8.805 7.704 0 3.99 3.577 6.467 8.805 8.668zm7.705 25.45v18.436c4.677-1.101 8.392-3.715 8.392-8.667 0-4.54-3.44-7.43-8.392-9.769z" fill="#fff"/></g></g><g><circle cx="404.596" cy="405.411" fill="#fec502" r="85.506"/><path d="m404.596 490.918c-47.224 0-85.506-38.282-85.506-85.506s38.282-85.506 85.506-85.506" fill="#ffe65a"/><path d="m359.964 300.378h55.926v177.875h-55.926z" fill="#ffe65a" transform="matrix(.707 .707 -.707 .707 388.909 -160.278)"/><path d="m344.812 471.977 59.785-59.785v-79.092l-99.331 99.33z" fill="#fff5aa"/><path d="m478.633 331.375c-40.889-40.889-107.183-40.889-148.073 0-6.957 6.957-12.728 14.651-17.317 22.829h33.88c.978-1.097 1.984-2.177 3.036-3.229 30.017-30.017 78.857-30.017 108.874 0s30.017 78.857 0 108.874c-1.118 1.118-2.271 2.182-3.44 3.217v33.821c8.257-4.608 16.022-10.421 23.039-17.438 40.89-40.89 40.89-107.185.001-148.074z" fill="#ffa50a"/><path d="m459.033 459.848c-30.016 30.017-78.857 30.017-108.874 0s-30.017-78.857 0-108.874l-19.599-19.6c-40.889 40.889-40.889 107.184 0 148.073s107.184 40.889 148.073 0z" fill="#fec502"/><g><path d="m403.829 352.013c-3.026 0-5.228 1.788-5.228 3.714v3.852c-14.582 2.063-27.513 10.455-27.513 27.926 0 17.609 14.857 23.524 27.513 28.339v22.286c-10.179-1.788-14.857-9.905-20.635-9.905-5.228 0-9.355 6.878-9.355 11.556 0 8.804 13.482 17.333 29.99 17.884v3.439c0 1.926 2.202 3.715 5.228 3.715 2.614 0 5.228-1.788 5.228-3.715v-3.99c16.096-2.614 27.101-12.931 27.101-29.99 0-18.572-14.582-25.038-27.101-29.715v-20.085c8.942.688 11.555 5.09 16.096 5.09 6.053 0 8.529-7.566 8.529-11.281 0-9.492-16.096-11.693-24.625-11.968v-3.439c0-1.925-2.614-3.713-5.228-3.713zm-3.852 42.096c-5.228-2.201-8.804-4.677-8.804-8.667 0-3.302 2.614-6.466 8.804-7.704zm7.704 43.885v-18.434c4.953 2.339 8.392 5.228 8.392 9.768 0 4.951-3.715 7.565-8.392 8.666z" fill="#ffa50a"/></g><g fill="#fff5aa"><path d="m377.966 428.226c-5.228 0-9.355 6.878-9.355 11.556 0 2.117.786 4.217 2.2 6.195l14.448-14.448c-2.57-1.828-4.833-3.303-7.293-3.303z"/><path d="m409.057 397.41v-20.085c8.942.688 11.555 5.09 16.096 5.09 6.053 0 8.529-7.566 8.529-11.281 0-9.492-16.096-11.693-24.625-11.968v-3.439c0-1.926-2.614-3.714-5.228-3.714-3.026 0-5.228 1.789-5.228 3.714v3.853c-14.582 2.063-27.513 10.455-27.513 27.926 0 17.608 14.857 23.524 27.513 28.339v2.343l17.8-17.8c-2.446-1.107-4.933-2.076-7.344-2.978zm-9.08-3.301c-5.228-2.201-8.804-4.677-8.804-8.667 0-3.302 2.614-6.466 8.804-7.704z"/></g><g fill="#fec502"><path d="m377.966 428.226c-5.228 0-9.355 6.878-9.355 11.556 0 2.117.786 4.217 2.2 6.195l14.448-14.448c-2.57-1.828-4.833-3.303-7.293-3.303z"/><path d="m404.597 412.192v-60.124c-.255-.033-.511-.055-.768-.055-3.026 0-5.228 1.789-5.228 3.714v3.853c-14.582 2.063-27.513 10.455-27.513 27.926 0 17.608 14.857 23.524 27.513 28.339v2.343zm-13.424-26.749c0-3.302 2.614-6.466 8.804-7.704v16.371c-5.228-2.202-8.804-4.678-8.804-8.667z"/></g><g><path d="m398.602 451.359c-16.509-.551-29.991-9.08-29.991-17.885 0-4.678 4.127-11.556 9.354-11.556 5.778 0 10.456 8.116 20.637 9.905v-22.287c-12.657-4.815-27.515-10.73-27.515-28.34 0-17.473 12.932-25.864 27.515-27.928v-3.853c0-1.926 2.201-3.714 5.228-3.714 2.614 0 5.228 1.788 5.228 3.714v3.439c8.529.275 24.626 2.477 24.626 11.969 0 3.715-2.477 11.281-8.529 11.281-4.54 0-7.154-4.402-16.097-5.09v20.086c12.52 4.677 27.103 11.143 27.103 29.716 0 17.059-11.006 27.377-27.103 29.99v3.99c0 1.926-2.613 3.714-5.228 3.714-3.026 0-5.228-1.788-5.228-3.714zm1.375-63.559v-16.372c-6.19 1.238-8.805 4.402-8.805 7.704.001 3.99 3.578 6.467 8.805 8.668zm7.705 25.45v18.436c4.677-1.101 8.392-3.715 8.392-8.667 0-4.54-3.44-7.43-8.392-9.769z" fill="#fff"/></g></g><path d="m359.267 182.467v-104.28l117.439 52.14z" fill="#dd544f"/><path d="m380.182 100.656v-13.183l-20.915-9.286v104.28l117.439-52.14c-16.2-7.192-34.687-7.192-50.887 0-21.467 9.531-45.637-6.184-45.637-29.671z" fill="#d80a61"/></g></svg>