<svg id="Layer_1" enable-background="new 0 0 511.263 511.263" height="512" viewBox="0 0 511.263 511.263" width="512" xmlns="http://www.w3.org/2000/svg"><g><g><path d="m408.782 51.753-132.335-50.691c-7.071-.589-14.224-.889-21.447-.889-6.091 0-12.038.213-17.833.613l-132.202 47.858c-5.69 4.23-8.675 6.954-8.712 6.974 0 0-2.513 3.137-2.983 5.222-3.818 16.948-7.385 39.663-7.385 56.239 0 36.269 7.894 70.758 21.996 101.993h334.999l3.574-132.32c-11.343-12.887-23.966-24.62-37.672-34.999z" fill="#afe6ff"/><path d="m90.459 109.852c0-18.615 2.007-36.753 5.795-54.234-10.41 8.293-20.157 17.385-29.148 27.181l-47.509 74.216c-8.17 19.57-13.971 40.374-17.046 62.056h112.431c-15.717-33.107-24.523-70.132-24.523-109.219z" fill="#73c8f0"/></g><g><g><path d="m237.167.787c-34.089 2.354-62.951 11.172-85.518 21.068v80.3h65.654c12.894 0 22.557 10.163 23.75 22.476h.22v-104.558c0-6.871-1.475-13.393-4.106-19.286z" fill="#dd544f"/><path d="m104.966 124.631h136.307c0-12.736-10.324-23.06-23.06-23.06h-30.93c-19.241 0-34.84-15.599-34.84-34.84l-.052-45.207c-22.129 9.62-38.274 20.318-47.425 27.121z" fill="#d80a61"/><g><path d="m155.996 140.282h34.247v117.48h-34.247z" fill="#696e73"/></g><g><path d="m155.996 140.282h34.247v34.247h-34.247z" fill="#50555a"/></g><g><path d="m213.137 160.244h-80.036c-21.857 0-39.576-17.719-39.576-39.576h159.189c0 21.857-17.719 39.576-39.577 39.576z" fill="#c3247d"/></g></g><g><path d="m319.095 8.322c0 .035.003.07.003.105v95.379h64.994c12.312 0 21.675 9.268 23.534 20.824h1.153v-72.872c-26.365-19.962-56.734-34.905-89.684-43.436z" fill="#dd544f"/><path d="m385.718 101.57h-30.93c-19.242 0-34.84-15.599-34.84-34.84l-.067-58.217c-14.042-3.684-28.558-6.195-43.436-7.434-2.549 5.816-3.974 12.237-3.974 18.994v104.558h136.307c.001-12.736-10.324-23.061-23.06-23.061z" fill="#d80a61"/><g><path d="m323.502 140.282h34.247v117.48h-34.247z" fill="#696e73"/></g><g><path d="m323.502 140.282h34.247v34.247h-34.247z" fill="#50555a"/></g><g><path d="m380.643 160.244h-80.036c-21.857 0-39.576-17.719-39.576-39.576h159.189c-.001 21.857-17.72 39.576-39.577 39.576z" fill="#c3247d"/></g></g><g><path d="m507.294 217.973c-3.038-20.747-8.571-40.684-16.287-59.496v59.496z" fill="#696e73"/></g></g><path d="m1.704 284.637c2.038 17.706 5.879 34.862 11.354 51.274h483.881c2.875-8.629 5.305-17.47 7.261-26.499.114-.694 2.445-10.08 4.117-24.775z" fill="#82878c"/><path d="m0 255.173c0 9.967.592 19.795 1.704 29.464h506.612c.947-8.322 1.683-18.341 1.683-29.464 0-12.84-.96-25.456-2.792-37.787h-504.417c-1.832 12.331-2.79 24.947-2.79 37.787z" fill="#a0a0a5"/><g><g><path d="m108.542 82.812h-41.422c-.23.25-.453.508-.682.759v129.556h64.993c12.591 0 22.101 9.691 23.652 21.612h.827v-104.558c0-26.161-21.207-47.369-47.368-47.369z" fill="#dd544f"/><path d="m132.85 211.678h-30.93c-19.242 0-34.84-15.599-34.84-34.84l-.108-93.867c-19.789 21.595-35.908 46.603-47.369 74.047v77.72h136.307c0-12.735-10.324-23.06-23.06-23.06z" fill="#d80a61"/><g><path d="m70.634 282.895h34.247v84.975h-34.247z" fill="#696e73"/></g><g><path d="m70.634 250.39h34.247v34.247h-34.247z" fill="#50555a"/></g><g><path d="m127.775 270.352h-80.036c-21.857 0-39.576-17.719-39.576-39.576h159.189c-.001 21.857-17.72 39.576-39.577 39.576z" fill="#d80a61"/></g><g><path d="m64.166 230.775h-56.004c0 21.857 17.719 39.576 39.576 39.576h56.004c-21.857.001-39.576-17.718-39.576-39.576z" fill="#c3247d"/></g></g><g><g><path d="m276.048 82.812h-41.57c-.198 0-.393.012-.591.015v130.3h64.333c12.591 0 22.102 9.691 23.652 21.612h1.544v-104.558c0-26.161-21.208-47.369-47.368-47.369z" fill="#dd544f"/></g><g><path d="m300.356 211.678h-30.93c-19.242 0-34.84-15.599-34.84-34.84l-.109-94.026c-26.161 0-47.368 21.208-47.368 47.368v104.558h136.307c0-12.735-10.324-23.06-23.06-23.06z" fill="#d80a61"/></g><g><path d="m238.139 282.895h34.247v84.975h-34.247z" fill="#696e73"/></g><g><path d="m238.139 250.39h34.247v34.247h-34.247z" fill="#50555a"/></g><g><path d="m295.281 270.352h-80.036c-21.857 0-39.576-17.719-39.576-39.576h159.189c-.001 21.857-17.72 39.576-39.577 39.576z" fill="#d80a61"/></g><g><path d="m231.672 230.775h-56.004c0 21.857 17.719 39.576 39.576 39.576h56.004c-21.857.001-39.576-17.718-39.576-39.576z" fill="#c3247d"/></g></g><g><g><path d="m443.553 82.812h-41.57c-.441 0-.876.021-1.314.033.001.075.006.149.006.224v130.058h65.654c12.591 0 22.101 9.691 23.652 21.612h.94v-104.558c.001-26.161-21.207-47.369-47.368-47.369z" fill="#dd544f"/></g><g><path d="m467.861 211.678h-30.93c-19.242 0-34.84-15.599-34.84-34.84l-.109-94.026c-26.161 0-47.368 21.208-47.368 47.368v104.558h136.307c.001-12.735-10.324-23.06-23.06-23.06z" fill="#d80a61"/></g><g><path d="m405.645 250.39h34.247v117.48h-34.247z" fill="#696e73"/></g><g><path d="m405.645 250.39h34.247v34.247h-34.247z" fill="#50555a"/></g><g><path d="m462.786 270.352h-80.036c-21.857 0-39.576-17.719-39.576-39.576h159.189c0 21.857-17.719 39.576-39.577 39.576z" fill="#d80a61"/></g><g><path d="m399.178 230.775h-56.004c0 21.857 17.719 39.576 39.576 39.576h56.004c-21.858.001-39.576-17.718-39.576-39.576z" fill="#c3247d"/></g></g></g><path d="m140.028 335.91c33.776 101.259 18.607 156.039 131.22 156.039 111.721 0 191.701-54.019 225.69-156.039z" fill="#9dc63d"/><path d="m357.75 458.134c-92.187 0-172.932-48.928-217.723-122.223h-126.969c33.775 101.259 129.329 174.262 241.942 174.262 61.915 0 119.064-22.197 163.505-59.344-19.505 4.776-39.859 7.305-60.755 7.305z" fill="#69b76b"/><g><g><g><path d="m365.124 298.835 1.253 10.265 46.704 19.199 33.374-26.38c-13.596-6.069-28.658-9.447-44.509-9.447-12.936-.001-25.305 2.238-36.822 6.363z" fill="#c8e6eb"/></g></g><g><g><path d="m437.568 505.163-3.318-27.442-47.369-19.228-39.763 31.603.876 6.784c27.822 15.792 60.705 18.221 89.574 8.283z" fill="#1a1b1c"/></g></g><g><g><g><path d="m419.746 377.646-39.891 31.39 7.182 49.994 46.801 19.012 39.979-31.113-6.824-50.124z" fill="#fff"/></g></g><g><g><path d="m366.568 308.952-40.204 30.991 6.935 50.037 46.749 19.053 39.758-30.941-6.775-50.162z" fill="#373c41"/></g></g></g><g><g><path d="m466.768 396.979 7.048 49.95 22.912 9.369c9.23-16.034 14.534-34.681 14.534-54.51 0-12.235-2.011-24.001-5.719-34.985z" fill="#373c41"/></g></g><g><g><path d="m496.728 456.298-22.912-9.464-39.978 31.207 3.73 27.122c25.079-8.648 46.094-26.227 59.16-48.865z" fill="#b4d7dc"/></g></g><g><g><path d="m347.693 489.648-19.562-7.232c5.965 5.436 12.802 10.442 19.863 14.463z" fill="#a5c8cd"/></g></g><g><path d="m380.048 409.033-46.801-19.012 53.737 69.05z" fill="#e4f2f6"/></g><g><g><path d="m446.455 301.918-33.424 26.012 6.775 50.162 46.962 18.887 38.775-30.176c-9.784-28.986-31.394-52.524-59.088-64.885z" fill="#e4f2f6"/></g></g><g><g><path d="m333.786 390.178-7.35-50.291-11.306-4.528c-19.122 24.991-25.91 55.93-20.917 85.04z" fill="#a5c8cd"/></g></g><g><g><path d="m364.002 402.515-30.755-12.494-39.033 30.378c1.678 6.45 5.652 36.08 33.919 62.018.003.002-.003-.002 0 0l19.562 7.232 39.343-30.619-5.601-40.406c-6.355-4.716-12.245-10.152-17.435-16.109z" fill="#c8e6eb"/></g></g><g><g><path d="m363.915 402.417c-16.515-19.002-26.57-43.761-26.767-70.867l-10.784 8.393 6.883 50.078z" fill="#1a1b1c"/></g></g><g><g><path d="m472.434 436.95 1.383 9.979 22.912 9.369c6.457-11.216 10.909-23.646 13.037-36.429-11.088 7.89-23.711 13.761-37.332 17.081z" fill="#1a1b1c"/></g></g><g><g><path d="m381.371 418.575 5.666 40.454 46.802 19.012 39.978-31.113-1.504-9.948c-8.29 2.011-16.95 3.078-25.858 3.078-24.355.001-46.912-8.016-65.084-21.483z" fill="#e4f2f6"/></g></g><g><g><path d="m315.13 335.359 11.234 4.584 40.204-30.991-1.444-10.117c-19.995 7.143-37.306 19.992-49.994 36.524z" fill="#e4f2f6"/></g></g></g><g fill="#fff"><g><path d="m52.49 123.819c-.051-.204-.102-.408-.102-.561 0-1.887 2.905-3.263 5.098-3.263 1.274 0 2.294.407 2.6 1.478l7.138 26.153 7.086-26.153c.306-1.07 1.325-1.478 2.601-1.478 2.191 0 5.098 1.376 5.098 3.263 0 .152-.051.356-.103.561l-9.481 31.098c-.562 1.784-2.855 2.65-5.2 2.65s-4.64-.866-5.2-2.65z"/><path d="m84.963 122.392c0-1.683 1.988-2.396 3.977-2.396s3.977.713 3.977 2.396v32.423c0 1.632-1.988 2.447-3.977 2.447s-3.977-.815-3.977-2.447z"/><path d="m98.421 122.392c0-1.274 1.173-2.396 2.957-2.396h10.553c6.729 0 12.031 3.16 12.031 11.725v.255c0 8.564-5.506 11.827-12.541 11.827h-5.047v11.012c0 1.632-1.988 2.447-3.977 2.447s-3.977-.815-3.977-2.447v-32.423zm7.953 4.537v10.757h5.047c2.854 0 4.588-1.632 4.588-5.098v-.562c0-3.466-1.733-5.098-4.588-5.098h-5.047z"/></g><g><path d="m221.17 126.801c-.051-.204-.102-.408-.102-.561 0-1.887 2.905-3.263 5.098-3.263 1.274 0 2.294.407 2.6 1.478l7.138 26.153 7.086-26.153c.306-1.07 1.325-1.478 2.601-1.478 2.191 0 5.098 1.376 5.098 3.263 0 .152-.051.356-.103.561l-9.481 31.098c-.562 1.784-2.855 2.65-5.2 2.65s-4.64-.866-5.2-2.65z"/><path d="m253.643 125.373c0-1.683 1.988-2.396 3.977-2.396s3.977.713 3.977 2.396v32.423c0 1.632-1.988 2.447-3.977 2.447s-3.977-.815-3.977-2.447z"/><path d="m267.101 125.373c0-1.274 1.173-2.396 2.957-2.396h10.553c6.729 0 12.031 3.16 12.031 11.725v.255c0 8.564-5.506 11.827-12.541 11.827h-5.047v11.012c0 1.632-1.988 2.447-3.977 2.447s-3.977-.815-3.977-2.447v-32.423zm7.953 4.537v10.757h5.047c2.854 0 4.588-1.632 4.588-5.098v-.562c0-3.466-1.733-5.098-4.588-5.098h-5.047z"/></g><g><path d="m391.27 132.086c-.051-.204-.102-.408-.102-.561 0-1.887 2.905-3.263 5.098-3.263 1.274 0 2.294.407 2.6 1.478l7.138 26.153 7.086-26.153c.306-1.07 1.325-1.478 2.601-1.478 2.191 0 5.098 1.376 5.098 3.263 0 .152-.051.356-.103.561l-9.481 31.098c-.562 1.784-2.855 2.65-5.2 2.65s-4.64-.866-5.2-2.65z"/><path d="m423.742 130.658c0-1.683 1.988-2.396 3.977-2.396s3.977.713 3.977 2.396v32.423c0 1.632-1.988 2.447-3.977 2.447s-3.977-.815-3.977-2.447z"/><path d="m437.2 130.658c0-1.274 1.173-2.396 2.957-2.396h10.553c6.729 0 12.031 3.16 12.031 11.725v.255c0 8.564-5.506 11.827-12.541 11.827h-5.047v11.012c0 1.632-1.988 2.447-3.977 2.447s-3.977-.815-3.977-2.447v-32.423zm7.953 4.537v10.757h5.047c2.854 0 4.588-1.632 4.588-5.098v-.562c0-3.466-1.733-5.098-4.588-5.098h-5.047z"/></g></g></g></svg>